<svg xmlns="http://www.w3.org/2000/svg" width="98.634" height="78" viewBox="0 0 98.634 78"><g transform="translate(-1161 -2266)"><rect width="78" height="78" rx="10" transform="translate(1161 2266)" fill="#bbe6f4"/><path d="M54.263,20.379H39.831L34.608,25.6A6.919,6.919,0,0,1,22.8,20.713c0-.112.029-.222.032-.334H5.843a1.727,1.727,0,0,0-1.729,1.729v6.918H56V22.108a1.731,1.731,0,0,0-1.732-1.729Zm-22,2.879,14.57-14.57a1.727,1.727,0,0,0,.006-2.447L44.192,3.589a1.739,1.739,0,0,0-2.45,0L27.172,18.163a3.6,3.6,0,0,0,5.1,5.1ZM12.25,49.984a2.9,2.9,0,0,0,2.672,2.1H45.186a2.9,2.9,0,0,0,2.672-2.1l4.39-18.075H7.86l4.39,18.075Z" transform="translate(1203.639 2286.916)" fill="#0041af"/></g></svg>