<svg xmlns="http://www.w3.org/2000/svg" width="25.071" height="25.076" viewBox="0 0 25.071 25.076"><path d="M9.8,14.106H4.311a1.177,1.177,0,0,0-.833,2.008L5.09,17.633.231,22.5a.786.786,0,0,0,0,1.107l1.244,1.244a.786.786,0,0,0,1.107,0l4.863-4.863L8.969,21.6a1.174,1.174,0,0,0,2-.833V15.282A1.173,1.173,0,0,0,9.8,14.106Zm5.485-3.135h5.485A1.177,1.177,0,0,0,21.6,8.964L19.984,7.446l4.863-4.863a.786.786,0,0,0,0-1.107L23.6.231a.786.786,0,0,0-1.107,0L17.633,5.095,16.11,3.478a1.174,1.174,0,0,0-2,.833V9.8A1.173,1.173,0,0,0,15.282,10.972Zm4.7,6.661L21.6,16.11a1.174,1.174,0,0,0-.833-2H15.282a1.173,1.173,0,0,0-1.175,1.175v5.485a1.177,1.177,0,0,0,2.008.833l1.518-1.611L22.5,24.852a.786.786,0,0,0,1.107,0l1.244-1.244a.786.786,0,0,0,0-1.107ZM8.964,3.483,7.446,5.095,2.582.231a.786.786,0,0,0-1.107,0L.231,1.475a.786.786,0,0,0,0,1.107L5.095,7.446,3.478,8.969a1.174,1.174,0,0,0,.833,2H9.8A1.173,1.173,0,0,0,10.972,9.8V4.311A1.177,1.177,0,0,0,8.964,3.483Z" transform="translate(-0.004 -0.004)" fill="#0041af"/></svg>