<svg xmlns="http://www.w3.org/2000/svg" width="26.627" height="26.621" viewBox="0 0 26.627 26.621"><g transform="translate(-1.497 -1.5)"><path d="M14.839,28.385a13.521,13.521,0,0,1-1.747-.114,13.312,13.312,0,0,1-9.9-19.689,13.207,13.207,0,0,1,6.3-5.712,1.5,1.5,0,1,1,1.2,2.75A10.312,10.312,0,1,0,24.309,19.087a1.5,1.5,0,0,1,2.763,1.168,13.32,13.32,0,0,1-12.233,8.13Z" transform="translate(0 -0.265)" fill="#0041af"/><path d="M29.812,16.312H18a1.5,1.5,0,0,1-1.5-1.5V3A1.5,1.5,0,0,1,18,1.5,13.312,13.312,0,0,1,31.312,14.812,1.5,1.5,0,0,1,29.812,16.312Zm-10.312-3h8.7a10.337,10.337,0,0,0-8.7-8.7Z" transform="translate(-3.188)" fill="#0041af"/></g></svg>