<svg xmlns="http://www.w3.org/2000/svg" width="24" height="26.182" viewBox="0 0 24 26.182"><g transform="translate(0 1.091)"><rect width="24" height="24" fill="#fcfcfc" opacity="0"/><g transform="translate(-1 -1)"><path d="M13.091,0A10.921,10.921,0,0,1,24,10.909a12.467,12.467,0,0,1-1.667,5.96,23.087,23.087,0,0,1-3.541,4.745A33.1,33.1,0,0,1,13.7,26a1.091,1.091,0,0,1-1.21,0,33.1,33.1,0,0,1-5.1-4.385,23.087,23.087,0,0,1-3.541-4.745,12.467,12.467,0,0,1-1.667-5.96A10.909,10.909,0,0,1,13.091,0Zm0,23.75c2.068-1.534,8.728-6.935,8.728-12.841a8.727,8.727,0,1,0-17.454,0C4.364,16.827,11.021,22.218,13.09,23.75Z" transform="translate(-0.091 -0.091)" fill="#9bbec8"/><path d="M3.273-1.091A4.364,4.364,0,1,1-1.091,3.273,4.369,4.369,0,0,1,3.273-1.091Zm0,6.545A2.182,2.182,0,1,0,1.091,3.273,2.184,2.184,0,0,0,3.273,5.455Z" transform="translate(9.727 7.546)" fill="#9bbec8"/></g></g></svg>