<svg xmlns="http://www.w3.org/2000/svg" width="96.499" height="78" viewBox="0 0 96.499 78"><g transform="translate(-792 -2266)"><rect width="78" height="78" rx="10" transform="translate(792 2266)" fill="#bbe6f4"/><path d="M34.492,13.2l8.053-8.9A2.52,2.52,0,0,0,40.762,0H2.526A2.52,2.52,0,0,0,.743,4.3L15.278,20.371V32.778a3.184,3.184,0,0,0,1.273,2.546L22.916,40.1a3.168,3.168,0,0,0,4.712-1.08A15.243,15.243,0,0,1,34.492,13.2Zm3.7,2.074A12.732,12.732,0,1,0,50.927,28.01,12.731,12.731,0,0,0,38.2,15.278Zm1.273,19.088v1.283a.636.636,0,0,1-.637.637H37.559a.636.636,0,0,1-.637-.637v-1.3a4.556,4.556,0,0,1-2.5-.9.637.637,0,0,1-.045-.966l.935-.892a.653.653,0,0,1,.806-.058,1.916,1.916,0,0,0,1.02.3h2.237a1,1,0,0,0,.939-1.05,1.039,1.039,0,0,0-.7-1.013l-3.581-1.074a3.6,3.6,0,0,1-2.513-3.453,3.544,3.544,0,0,1,3.4-3.586V20.371a.636.636,0,0,1,.637-.637h1.273a.636.636,0,0,1,.637.637v1.3a4.55,4.55,0,0,1,2.5.9.637.637,0,0,1,.045.966l-.935.892a.653.653,0,0,1-.806.058,1.909,1.909,0,0,0-1.02-.3H37.011a1,1,0,0,0-.939,1.05,1.039,1.039,0,0,0,.7,1.013l3.581,1.074a3.6,3.6,0,0,1,2.513,3.453,3.542,3.542,0,0,1-3.4,3.586Z" transform="translate(837.572 2298)" fill="#0041af"/></g></svg>