<svg xmlns="http://www.w3.org/2000/svg" width="26.361" height="26.409" viewBox="0 0 26.361 26.409"><g transform="translate(1.181 1.204)"><rect width="24" height="24" fill="#fcfcfc" opacity="0"/><g transform="translate(-1 -1)"><path d="M24.086,27.613c-.108,0-.217,0-.325-.015l-.022,0a25.162,25.162,0,0,1-10.915-3.882,24.86,24.86,0,0,1-7.589-7.588A25.159,25.159,0,0,1,1.355,5.161l0-.018A3.612,3.612,0,0,1,4.95,1.2H8.587a3.612,3.612,0,0,1,3.576,3.107v.01a14.337,14.337,0,0,0,.778,3.121,3.619,3.619,0,0,1-.815,3.809l0,0-.864.864a18.081,18.081,0,0,0,5.523,5.523l.863-.864.005-.005a3.614,3.614,0,0,1,3.812-.813,14.211,14.211,0,0,0,3.117.776l.012,0A3.613,3.613,0,0,1,27.7,20.39v3.6a3.612,3.612,0,0,1-3.613,3.626Zm-.1-2.413A1.2,1.2,0,0,0,25.291,24s0,0,0-.005V20.377q0-.015,0-.03a1.2,1.2,0,0,0-1.031-1.222,16.628,16.628,0,0,1-3.642-.908,1.205,1.205,0,0,0-1.272.268l-1.526,1.527a1.2,1.2,0,0,1-1.447.2A20.485,20.485,0,0,1,8.7,12.53a1.2,1.2,0,0,1,.2-1.446l1.527-1.528a1.2,1.2,0,0,0,.269-1.268,16.758,16.758,0,0,1-.909-3.643A1.209,1.209,0,0,0,8.587,3.613H4.95a1.2,1.2,0,0,0-1.2,1.3,22.739,22.739,0,0,0,3.509,9.9l.006.009a22.437,22.437,0,0,0,6.856,6.855l.009.006A22.741,22.741,0,0,0,23.988,25.2Z" transform="translate(-1.52 -1.408)" fill="#9bbec8"/></g></g></svg>