<svg xmlns="http://www.w3.org/2000/svg" width="24" height="26.4" viewBox="0 0 24 26.4"><g transform="translate(0 1.2)"><rect width="24" height="24" fill="#fcfcfc" opacity="0"/><g transform="translate(-1 -1)"><path d="M2-1.2H14.8A3.2,3.2,0,0,1,18,2V22a3.2,3.2,0,0,1-3.2,3.2H2A3.2,3.2,0,0,1-1.2,22V2A3.2,3.2,0,0,1,2-1.2Zm12.8,24a.8.8,0,0,0,.8-.8V2a.8.8,0,0,0-.8-.8H2a.8.8,0,0,0-.8.8V22a.8.8,0,0,0,.8.8Z" transform="translate(4.6 1)" fill="#9bbec8"/><path d="M.012,1.2H0A1.2,1.2,0,0,1-1.2,0,1.2,1.2,0,0,1,0-1.2H.012A1.2,1.2,0,0,1,1.212,0,1.2,1.2,0,0,1,.012,1.2Z" transform="translate(13 20.2)" fill="#9bbec8"/></g></g></svg>