<svg xmlns="http://www.w3.org/2000/svg" width="32" height="32" viewBox="0 0 32 32"><path d="M17.455,12A5.455,5.455,0,1,1,12,17.455,5.461,5.461,0,0,1,17.455,12Zm0,7.909A2.455,2.455,0,1,0,15,17.455,2.457,2.457,0,0,0,17.455,19.909Z" transform="translate(-1.455 -1.455)" fill="#0041af"/><path d="M16.105,32a4.141,4.141,0,0,1-4.136-4.136v-.1a.671.671,0,0,0-.441-.605q-.045-.016-.088-.036a.675.675,0,0,0-.74.131l-.071.071a4.138,4.138,0,1,1-5.851-5.852l.071-.071a.672.672,0,0,0,.131-.741l-.006-.015a.675.675,0,0,0-.616-.409h-.22a4.136,4.136,0,0,1,0-8.273h.1a.671.671,0,0,0,.605-.441q.016-.044.036-.088a.672.672,0,0,0-.131-.74l-.072-.072a4.138,4.138,0,1,1,5.852-5.851l.071.071a.675.675,0,0,0,.741.131,1.5,1.5,0,0,1,.26-.087.675.675,0,0,0,.269-.535v-.22a4.136,4.136,0,0,1,8.273,0v.114a.675.675,0,0,0,.409.616l.015.006a.675.675,0,0,0,.74-.131l.071-.071a4.138,4.138,0,1,1,5.851,5.852l-.071.071a.672.672,0,0,0-.131.741,1.5,1.5,0,0,1,.087.26.675.675,0,0,0,.535.269h.22a4.136,4.136,0,1,1,0,8.273h-.114a.675.675,0,0,0-.616.409l-.006.015a.672.672,0,0,0,.131.74l.071.071a4.138,4.138,0,1,1-5.852,5.851l-.071-.071a.675.675,0,0,0-.741-.131l-.015.006a.675.675,0,0,0-.409.616v.22A4.141,4.141,0,0,1,16.105,32Zm-3.5-7.637a3.654,3.654,0,0,1,2.361,3.347q0,.018,0,.035v.119a1.136,1.136,0,0,0,2.273,0V27.64s0,0,0-.006a3.69,3.69,0,0,1,6.266-2.622l.012.012.079.079a1.138,1.138,0,1,0,1.61-1.608l-.08-.08-.012-.012a3.693,3.693,0,0,1,2.622-6.266h.125a1.136,1.136,0,1,0,0-2.273h-.23a3.673,3.673,0,0,1-3.363-2.227,1.5,1.5,0,0,1-.106-.376,3.655,3.655,0,0,1,.847-3.768l.012-.012L25.1,8.4a1.138,1.138,0,1,0-1.609-1.61l-.08.08-.012.012a3.693,3.693,0,0,1-6.266-2.622s0,0,0-.006V4.136a1.136,1.136,0,1,0-2.273,0V4.36s0,0,0,.006A3.673,3.673,0,0,1,12.636,7.73a1.5,1.5,0,0,1-.376.106,3.676,3.676,0,0,1-3.768-.847L8.48,6.977,8.4,6.9a1.138,1.138,0,1,0-1.61,1.609l.08.08.012.012a3.657,3.657,0,0,1,.754,4.01A3.654,3.654,0,0,1,4.29,14.969H4.136a1.136,1.136,0,0,0,0,2.273h.23a3.693,3.693,0,0,1,2.622,6.266l-.012.012L6.9,23.6a1.138,1.138,0,1,0,1.608,1.61l.08-.08.012-.012a3.675,3.675,0,0,1,4.01-.754Z" transform="translate(0 0)" fill="#0041af"/></svg>