<svg xmlns="http://www.w3.org/2000/svg" width="82.748" height="78" viewBox="0 0 82.748 78"><g transform="translate(-390 -2266)"><rect width="78" height="78" rx="10" transform="translate(390 2266)" fill="#bbe6f4"/><path d="M24.188,15.277v2.546a.958.958,0,0,1-.955.955H18.778v4.456a.958.958,0,0,1-.955.955H15.277a.958.958,0,0,1-.955-.955V18.778H9.866a.958.958,0,0,1-.955-.955V15.277a.958.958,0,0,1,.955-.955h4.456V9.866a.958.958,0,0,1,.955-.955h2.546a.958.958,0,0,1,.955.955v4.456h4.456A.958.958,0,0,1,24.188,15.277ZM40.181,37.929l-2.252,2.252a1.9,1.9,0,0,1-2.7,0l-7.941-7.933a1.908,1.908,0,0,1-.557-1.353V29.6A16.542,16.542,0,1,1,29.6,26.734h1.3a1.908,1.908,0,0,1,1.353.557l7.933,7.933A1.926,1.926,0,0,1,40.181,37.929ZM27.371,16.55A10.821,10.821,0,1,0,16.55,27.371,10.812,10.812,0,0,0,27.371,16.55Z" transform="translate(432.012 2298)" fill="#0041af"/></g></svg>