<svg xmlns="http://www.w3.org/2000/svg" xmlns:xlink="http://www.w3.org/1999/xlink" width="378" height="378" viewBox="0 0 378 378"><defs><filter id="a" x="0" y="0" width="378" height="378" filterUnits="userSpaceOnUse"><feOffset dy="3" input="SourceAlpha"/><feGaussianBlur stdDeviation="3" result="b"/><feFlood flood-opacity="0.161"/><feComposite operator="in" in2="b"/><feComposite in="SourceGraphic"/></filter></defs><g transform="translate(-761.351 -2111.659)"><g transform="matrix(1, 0, 0, 1, 761.35, 2111.66)" filter="url(#a)"><rect width="360" height="360" rx="20" transform="translate(9 6)" fill="#2acaea"/></g><text transform="translate(791 2391)" fill="#fff" font-size="40" font-family="SegoeUI-Bold, Segoe UI" font-weight="700"><tspan x="0" y="0">Create an</tspan><tspan x="0" y="40">account with us</tspan></text><g transform="translate(768.484 2097.04)"><g transform="translate(34.09 47.269)"><path d="M87.683,83.075H55.995V50H87.706Zm-31.693,0H87.66V50.037H55.995Z" transform="translate(-45.902 -49.033)" fill="#e0e0e0"/><path d="M60.247,112.49a3.984,3.984,0,0,1-.562.663c-.369.392-.889.921-1.469,1.493S57.1,115.733,56.7,116.1a4.145,4.145,0,0,1-.7.557,3.446,3.446,0,0,1,.567-.663c.373-.392.894-.921,1.479-1.5s1.119-1.087,1.516-1.451A3.446,3.446,0,0,1,60.247,112.49Z" transform="translate(-45.907 -82.737)" fill="#e0e0e0"/><path d="M115.52,112.36a3.791,3.791,0,0,1,.682.571c.392.369.921.889,1.493,1.469s1.087,1.119,1.451,1.516a3.87,3.87,0,0,1,.557.668,3.446,3.446,0,0,1-.663-.567c-.392-.369-.921-.889-1.5-1.474s-1.087-1.124-1.451-1.52A3.358,3.358,0,0,1,115.52,112.36Z" transform="translate(-78.009 -82.666)" fill="#e0e0e0"/><path d="M115.38,54.964a3.852,3.852,0,0,1,.571-.663c.369-.392.889-.921,1.474-1.493s1.119-1.087,1.511-1.451a3.593,3.593,0,0,1,.673-.557,3.791,3.791,0,0,1-.571.663c-.369.392-.889.921-1.474,1.5s-1.124,1.087-1.516,1.451A3.446,3.446,0,0,1,115.38,54.964Z" transform="translate(-77.934 -49.464)" fill="#e0e0e0"/><path d="M60.183,55.033a3.658,3.658,0,0,1-.663-.571c-.392-.369-.921-.889-1.5-1.474s-1.1-1.133-1.446-1.525A3.372,3.372,0,0,1,56,50.79a3.685,3.685,0,0,1,.677.557c.392.369.921.889,1.5,1.474s1.092,1.124,1.451,1.516A3.611,3.611,0,0,1,60.183,55.033Z" transform="translate(-45.907 -49.459)" fill="#e0e0e0"/><path d="M88.208,83.738v-1.76c0-1.142,0-2.81-.028-4.924,0-4.229,0-10.254-.041-17.472l.088.092H65.12l.1-.1V83.729l-.088-.088,16.731.041h6.265a.429.429,0,0,1,.111,0H81.92l-16.786.046H65V59.48H88.3v.088c0,7.241-.032,13.285-.041,17.532,0,2.105,0,3.764-.028,4.9v1.612A1,1,0,0,1,88.208,83.738Z" transform="translate(-50.761 -54.146)" fill="#e0e0e0"/><path d="M663.135,100.424V97.43c0-1.944,0-4.772-.028-8.347,0-7.145,0-17.265-.041-29.178l.088.088H636.339l.1-.1c0,15.284,0,29.38-.023,40.537l-.074-.078,19.518.041h.078l-19.564.041h-.078v-.014c0-11.139,0-25.234-.023-40.537v-.1h27v.088c0,11.94-.032,22.074-.041,29.237,0,3.565,0,6.389-.023,8.324v2.769A.363.363,0,0,1,663.135,100.424Z" transform="translate(-358.876 -54.313)" fill="#e0e0e0"/><path d="M698.74,47.9a6.08,6.08,0,0,1-.636.921c-.415.557-1,1.308-1.672,2.124s-1.3,1.539-1.764,2.055a6.333,6.333,0,0,1-.788.8,6.718,6.718,0,0,1,.682-.894l1.718-2.082L698,48.738a7.174,7.174,0,0,1,.742-.838Z" transform="translate(-389.947 -47.9)" fill="#e0e0e0"/><path d="M694.89,147.74a33.425,33.425,0,0,0,4.657,5.85" transform="translate(-390.492 -101.749)" fill="#fff"/><path d="M699.526,153.59a5.763,5.763,0,0,1-.815-.746,24.427,24.427,0,0,1-1.764-1.99,25.375,25.375,0,0,1-1.552-2.156,5.03,5.03,0,0,1-.544-.958,7.239,7.239,0,0,1,.659.88c.392.553.921,1.308,1.589,2.114s1.262,1.511,1.714,2.018a6.7,6.7,0,0,1,.714.838Z" transform="translate(-390.47 -101.749)" fill="#e0e0e0"/><path d="M626.74,153.337l4.676-5.767" transform="translate(-353.736 -101.657)" fill="#fff"/><path d="M631.426,147.57a34.761,34.761,0,0,1-2.253,2.962,35.574,35.574,0,0,1-2.414,2.824,36.578,36.578,0,0,1,2.262-2.944,35.485,35.485,0,0,1,2.4-2.842Z" transform="translate(-353.746 -101.657)" fill="#e0e0e0"/><path d="M626.75,47.9a32.048,32.048,0,0,1,2.271,2.713,31.035,31.035,0,0,1,2.114,2.833,32.447,32.447,0,0,1-2.266-2.713A33.285,33.285,0,0,1,626.75,47.9Z" transform="translate(-353.741 -47.9)" fill="#e0e0e0"/><path d="M47.834,249.389a15.409,15.409,0,0,0-6.587-2.266,4.372,4.372,0,0,0-3.114.576.636.636,0,0,0-.322.567.7.7,0,0,0,.3.392,9.42,9.42,0,0,0,9.72.732" transform="translate(-36.096 -155.324)" fill="#e0e0e0"/><path d="M51.012,239.608a32,32,0,0,1-4.243-3.745,10.747,10.747,0,0,1-2.667-4.934,1.99,1.99,0,0,1,.207-1.649c3.381,2.635,6.044,6.076,6.7,10.328" transform="translate(-39.44 -145.727)" fill="#e0e0e0"/><path d="M59.243,240.114a15.284,15.284,0,0,1,.078-5.588A7.55,7.55,0,0,1,62.3,229.92a6.624,6.624,0,0,1-.078,4.381,21.351,21.351,0,0,1-2.953,6.214" transform="translate(-47.537 -146.072)" fill="#e0e0e0"/><path d="M56.986,265a9.7,9.7,0,0,0-5.279,2.676,9.987,9.987,0,0,0-3.026,5.187,7.081,7.081,0,0,0,4.878-3.086c1.193-1.566,2.064-3.28,3.4-4.745" transform="translate(-41.959 -164.993)" fill="#e0e0e0"/><path d="M67.219,252.617a13.027,13.027,0,0,1,1.506-12.327,15.7,15.7,0,0,1-1.506,12.327" transform="translate(-51.469 -151.665)" fill="#e0e0e0"/><path d="M67.11,278.388a9.411,9.411,0,0,0-9.01,5.187c-.111.221-.212.507-.06.7a.668.668,0,0,0,.6.175,7.85,7.85,0,0,0,4.648-2.4,46.328,46.328,0,0,1,3.865-3.685" transform="translate(-46.966 -172.204)" fill="#e0e0e0"/><path d="M76.634,263.177a16.768,16.768,0,0,1-.17-9.374,4.563,4.563,0,0,1,2-3.04.391.391,0,0,1,.309-.055.428.428,0,0,1,.193.226,5.638,5.638,0,0,1,.461,2.686,16.98,16.98,0,0,1-.419,2.722,14.555,14.555,0,0,1-1.451,4.888,9.673,9.673,0,0,0-.58,1.073c-.175.364-.175.493-.332.783" transform="translate(-56.628 -157.278)" fill="#e0e0e0"/><path d="M102.382,269.461a12.091,12.091,0,0,1,2.119-9.936c.152-.2.355-.41.6-.387.378.032.461.539.461.921a17.965,17.965,0,0,1-3.183,9.4" transform="translate(-70.749 -161.83)" fill="#e0e0e0"/><path d="M105,279.086a14.46,14.46,0,0,0,11.857-2.414,9.577,9.577,0,0,0-6.417-.788,9.128,9.128,0,0,0-5.44,3.2" transform="translate(-72.335 -170.736)" fill="#e0e0e0"/><path d="M107,271.083a13.7,13.7,0,0,1,10.761-6.223,6.622,6.622,0,0,1-3.519,3.892,19.57,19.57,0,0,1-5.168,1.511,3.634,3.634,0,0,0-2.073.82" transform="translate(-73.414 -164.917)" fill="#e0e0e0"/><path d="M101.43,240.7a31.324,31.324,0,0,0,1.382-6.3,10.5,10.5,0,0,0-1.258-6.237,13.688,13.688,0,0,0-.18,12.755" transform="translate(-69.576 -145.123)" fill="#e0e0e0"/><path d="M118.47,237.782a16.89,16.89,0,0,1,12.438-8.462,13.859,13.859,0,0,1-12.438,8.462" transform="translate(-79.6 -145.749)" fill="#e0e0e0"/><path d="M115.14,248.72c3.63.553,6.725,2.874,10.134,4.279a4.468,4.468,0,0,0,2.3.438,1.792,1.792,0,0,0,1.124-3.169,4.86,4.86,0,0,0-1.663-1,18.433,18.433,0,0,0-11.558-.645" transform="translate(-77.804 -155.821)" fill="#e0e0e0"/><path d="M110.57,254.895a4.278,4.278,0,0,1,1.755,1.216A18.914,18.914,0,0,0,120,260.054c.29.074.677.1.825-.161s-.037-.511-.2-.719a10.521,10.521,0,0,0-4.634-3.146c-1.769-.659-3.307-1.456-5.422-1.285" transform="translate(-75.339 -159.448)" fill="#e0e0e0"/><path d="M105.42,221.232a14.533,14.533,0,0,0,11.139,3.791.774.774,0,0,0,.507-.18c.281-.309-.055-.778-.382-1.032a12.845,12.845,0,0,0-11.263-2.58" transform="translate(-72.562 -141.175)" fill="#e0e0e0"/><path d="M111.53,215.915a15.524,15.524,0,0,1,13.9-2.3,11.01,11.01,0,0,1-6.624,2.907,20.849,20.849,0,0,1-7.274-.613" transform="translate(-75.857 -136.886)" fill="#e0e0e0"/><path d="M106.9,192.6c-.318-3.271-.111-5.85-.336-9.135,0-.263-.078-.576-.322-.673-.341-.129-.626.29-.737.64a10.471,10.471,0,0,0,1.382,9.093" transform="translate(-72.351 -120.641)" fill="#e0e0e0"/><path d="M108.59,192.862a19.245,19.245,0,0,0,5.417-5.261,7.209,7.209,0,0,0,1.727-5.012,5.173,5.173,0,0,0-3.906,1.939,10.894,10.894,0,0,0-1.99,4c-.433,1.442-.737,2.916-1.248,4.33" transform="translate(-74.272 -120.545)" fill="#e0e0e0"/><path d="M120.064,192.1a43.6,43.6,0,0,0,13.327-7.854,6.82,6.82,0,0,0-5.007.382,15.8,15.8,0,0,0-8.384,7.44" transform="translate(-80.426 -121.259)" fill="#e0e0e0"/><path d="M111.835,204.251a26.362,26.362,0,0,0,7.4.037,31.392,31.392,0,0,0,6.91-2.3.8.8,0,0,0,.461-.355.539.539,0,0,0-.166-.594,1.483,1.483,0,0,0-.59-.276,12.729,12.729,0,0,0-7.463.461,34.683,34.683,0,0,0-6.555,3.036" transform="translate(-76.019 -130.146)" fill="#e0e0e0"/><path d="M79.907,209.254a13.094,13.094,0,0,1-.12-10.835,8.251,8.251,0,0,1,.958,5.385c-.189,1.847-.751,3.759-.783,5.615" transform="translate(-58.136 -129.083)" fill="#e0e0e0"/><path d="M53.656,214.6a15.086,15.086,0,0,0-11.226,4.791,10.485,10.485,0,0,0,6.145-1.142,31.1,31.1,0,0,0,5.27-3.524" transform="translate(-38.588 -137.808)" fill="#e0e0e0"/><path d="M44.644,211.089a15.653,15.653,0,0,0-5.988.184,7.2,7.2,0,0,0-4.565,3.874,10.83,10.83,0,0,0,5.62-1.06,32,32,0,0,0,4.934-3" transform="translate(-34.09 -135.81)" fill="#e0e0e0"/><path d="M57.428,207.785a18.952,18.952,0,0,0-5.883-2.939,6.419,6.419,0,0,0-6.136,1.488,11.457,11.457,0,0,0,5.864,1.142,20.278,20.278,0,0,1,6.385.645" transform="translate(-40.195 -132.437)" fill="#e0e0e0"/><path d="M67.334,196.588c-3.151-3.1-4.344-8.66-3.077-12.9a19.615,19.615,0,0,1,3.077,12.9" transform="translate(-50.092 -121.138)" fill="#e0e0e0"/><path d="M90.34,180.763c.594-1.382,1.013-2.833,1.548-4.243a12.161,12.161,0,0,1,2.2-3.888A5.8,5.8,0,0,1,98,170.61a15.727,15.727,0,0,1-7.578,10.19" transform="translate(-64.428 -114.084)" fill="#e0e0e0"/><path d="M77.388,190.109a20.37,20.37,0,0,0-3.455-4.2,5.794,5.794,0,0,0-4.7-1.235,10.936,10.936,0,0,0,8.158,5.436" transform="translate(-53.043 -121.605)" fill="#e0e0e0"/><path d="M85.648,181a23.494,23.494,0,0,1-1.557-5.016,7.886,7.886,0,0,1,.811-5.141c1.732,3.271,2.3,6.781.857,10.194" transform="translate(-60.989 -114.208)" fill="#e0e0e0"/><path d="M90.375,162.732c.977-3.225,3.948-5.629,7.154-6.725a2.672,2.672,0,0,1,1.253-.189,1.087,1.087,0,0,1,.921.774c.115.553-.341,1.046-.769,1.41a24.355,24.355,0,0,1-8.563,4.731" transform="translate(-64.445 -106.099)" fill="#e0e0e0"/><path d="M90.374,152.329a23.91,23.91,0,0,1,.921-6.2,7.764,7.764,0,0,1,3.9-4.7c.327,2.11-.608,4.21-1.727,6.025a27.942,27.942,0,0,0-3.155,5.56" transform="translate(-64.412 -98.345)" fill="#e0e0e0"/><path d="M83.233,154.9c-.811-2.363-.894-5.367-2.3-7.426-.99-1.437-2.575-2.418-3.427-3.943a5.988,5.988,0,0,0,.2,4.478,12.944,12.944,0,0,0,2.607,3.75c1.046,1.115,1.944,1.958,2.916,3.142" transform="translate(-57.321 -99.478)" fill="#e0e0e0"/><path d="M90.234,236.84c-.064,0-.12-15.768-.124-35.208s.041-35.212.106-35.212.12,15.763.124,35.212S90.294,236.84,90.234,236.84Z" transform="translate(-64.304 -111.824)" fill="#e0e0e0"/><path d="M104.12,216.77a2.938,2.938,0,0,1-.59.226l-1.635.548c-1.382.461-3.261,1.147-5.311,1.99a20.246,20.246,0,0,0-5.04,2.52,3.685,3.685,0,0,0-1.009,1.34c-.157.369-.184.594-.207.59s0-.055,0-.161a2.271,2.271,0,0,1,.115-.461,3.556,3.556,0,0,1,.986-1.428,9.015,9.015,0,0,1,2.193-1.373c.875-.405,1.843-.834,2.874-1.253,2.055-.843,3.962-1.5,5.353-1.93.691-.217,1.262-.378,1.654-.484a3.819,3.819,0,0,1,.617-.124Z" transform="translate(-64.416 -138.98)" fill="#e0e0e0"/><path d="M109.913,192.69a2.108,2.108,0,0,1-.17.18l-.5.461-1.889,1.718-6.288,5.615c-2.451,2.188-4.574,4.275-6.044,5.846-.737.783-1.313,1.433-1.709,1.889l-.461.521c-.106.12-.166.18-.17.17a.754.754,0,0,1,.134-.2c.1-.124.235-.318.424-.553.378-.461.921-1.138,1.658-1.939a81.018,81.018,0,0,1,5.988-5.9c2.464-2.179,4.7-4.146,6.334-5.551l1.935-1.658.534-.461a1.047,1.047,0,0,1,.226-.138Z" transform="translate(-65.69 -125.992)" fill="#e0e0e0"/><path d="M105.124,208.4c-.064-.032.461-1.216.958-2.709s.76-2.764.825-2.764a9.282,9.282,0,0,1-.608,2.819,19.171,19.171,0,0,1-.774,1.912,3.155,3.155,0,0,1-.4.742Z" transform="translate(-72.399 -131.515)" fill="#e0e0e0"/><path d="M79.709,222.025a2.718,2.718,0,0,1-.378-.461l-.972-1.244c-.811-1.05-1.935-2.5-3.2-4.091s-2.418-3.017-3.261-4.044l-.99-1.225a3.3,3.3,0,0,1-.341-.461,2.966,2.966,0,0,1,.41.41c.253.276.608.677,1.046,1.179.871,1,2.05,2.418,3.317,4.008s2.368,3.059,3.146,4.146c.392.539.7.977.921,1.285a3.059,3.059,0,0,1,.3.5Z" transform="translate(-53.765 -135.598)" fill="#e0e0e0"/><path d="M82.019,221.534a5.56,5.56,0,0,1-1.267-2.349,6.873,6.873,0,0,1-.286-2.391h.1c-.046.184-.078.281-.1.276s0-.106,0-.29h.1a10.82,10.82,0,0,0,.405,2.3,17.271,17.271,0,0,0,1.041,2.451Z" transform="translate(-59.097 -138.985)" fill="#e0e0e0"/><path d="M67.392,215.312a3.961,3.961,0,0,0-.88-.511,5.892,5.892,0,0,0-2.455-.2,15.417,15.417,0,0,0-2.469.4,7.091,7.091,0,0,1-1.018.244,3.6,3.6,0,0,1,.972-.4,11.517,11.517,0,0,1,2.5-.461,5.412,5.412,0,0,1,2.534.272,1.557,1.557,0,0,1,.82.654Z" transform="translate(-48.372 -137.669)" fill="#e0e0e0"/><path d="M62.151,212.173c0,.037-.516-.207-1.354-.493a14.151,14.151,0,0,0-3.377-.7,13.981,13.981,0,0,0-3.446.175c-.871.157-1.382.322-1.414.281a1.544,1.544,0,0,1,.359-.152A8.08,8.08,0,0,1,53.942,211a12.06,12.06,0,0,1,6.91.525,9.291,9.291,0,0,1,.967.438A1.336,1.336,0,0,1,62.151,212.173Z" transform="translate(-44.052 -135.719)" fill="#e0e0e0"/><path d="M88.285,194.91a28.383,28.383,0,0,1-.986-3.432A28.753,28.753,0,0,1,86.53,188a26.718,26.718,0,0,1,.99,3.427A28.125,28.125,0,0,1,88.285,194.91Z" transform="translate(-62.373 -123.463)" fill="#e0e0e0"/><path d="M87.314,198.647a17.156,17.156,0,0,0-1.1-2.054,9.457,9.457,0,0,0-1.608-1.663,1.511,1.511,0,0,1,.622.322,5.1,5.1,0,0,1,1.175,1.212,4.556,4.556,0,0,1,.907,2.183Z" transform="translate(-61.338 -127.201)" fill="#e0e0e0"/><path d="M73.471,274.06c-.028,0-.074-.378-.249-1.046a15.094,15.094,0,0,0-1.055-2.732,37.44,37.44,0,0,0-5.588-7.873c-1.248-1.428-2.46-2.764-3.487-4.058a28.23,28.23,0,0,1-2.492-3.6,17.56,17.56,0,0,1-1.262-2.667c-.115-.327-.2-.585-.244-.765a1.06,1.06,0,0,1-.064-.272s.134.364.392,1a19.969,19.969,0,0,0,1.317,2.658,30.32,30.32,0,0,0,2.515,3.542c1.032,1.276,2.243,2.612,3.5,4.04a35.75,35.75,0,0,1,5.56,7.955,13.359,13.359,0,0,1,1,2.764,7.938,7.938,0,0,1,.143.792A1.549,1.549,0,0,1,73.471,274.06Z" transform="translate(-47.541 -157.469)" fill="#e0e0e0"/><path d="M102.827,270.517a5.669,5.669,0,0,1-.654.364A14.835,14.835,0,0,0,100.482,272a19.258,19.258,0,0,0-2.22,2.027c-.783.825-1.585,1.783-2.4,2.805-1.64,2.059-3.174,3.879-4.091,5.334a19.872,19.872,0,0,0-1.027,1.755,6.255,6.255,0,0,1-.359.654.469.469,0,0,1,.06-.184c.06-.12.115-.295.217-.511a16.959,16.959,0,0,1,.972-1.8,59.412,59.412,0,0,1,4.049-5.39c.825-1.027,1.635-1.985,2.432-2.805a17.99,17.99,0,0,1,2.276-2.013,11.843,11.843,0,0,1,1.746-1.069c.217-.106.4-.175.511-.226S102.822,270.508,102.827,270.517Z" transform="translate(-64.45 -167.967)" fill="#e0e0e0"/><path d="M107.85,280.4a9.81,9.81,0,0,1-1.382.2,17.777,17.777,0,0,0-3.271.64,9.956,9.956,0,0,0-2.93,1.539c-.677.521-1,.954-1.027.921a1.111,1.111,0,0,1,.207-.313,5.13,5.13,0,0,1,.719-.737,8.9,8.9,0,0,1,2.957-1.631,14.8,14.8,0,0,1,3.326-.585A7.693,7.693,0,0,1,107.85,280.4Z" transform="translate(-69.229 -173.291)" fill="#e0e0e0"/><path d="M100.123,281.046c-.074-.041.548-.99,1.032-2.266s.557-2.418.64-2.409a2.3,2.3,0,0,1-.023.742,7.982,7.982,0,0,1-.405,1.741,8.411,8.411,0,0,1-.8,1.6A2.419,2.419,0,0,1,100.123,281.046Z" transform="translate(-69.702 -171.125)" fill="#e0e0e0"/><path d="M106.857,243.93a.824.824,0,0,1-.221.12l-.645.295c-.286.12-.631.276-1.018.461s-.843.41-1.317.691l-.751.428c-.263.152-.521.332-.8.5-.553.336-1.11.751-1.7,1.175a29.021,29.021,0,0,0-6.56,6.785c-.405.608-.8,1.179-1.115,1.741-.166.281-.332.548-.461.811l-.4.769c-.267.461-.461.944-.65,1.34s-.332.742-.461,1.032-.2.484-.272.659a1.486,1.486,0,0,1-.111.221.921.921,0,0,1,.064-.24c.06-.175.138-.4.235-.673a10.875,10.875,0,0,1,.41-1.05c.175-.405.359-.875.622-1.382l.387-.779c.138-.267.3-.539.461-.82.313-.576.7-1.152,1.106-1.769a28.165,28.165,0,0,1,6.606-6.836c.6-.419,1.165-.834,1.727-1.165.281-.17.544-.345.806-.493l.765-.415c.461-.276.921-.461,1.34-.668s.746-.336,1.036-.461l.668-.253A1.174,1.174,0,0,1,106.857,243.93Z" transform="translate(-64.45 -153.629)" fill="#e0e0e0"/><path d="M104.76,256.335a1.645,1.645,0,0,1,.544-.806,3.446,3.446,0,0,1,2.183-.838,6.025,6.025,0,0,1,2.3.461,3.461,3.461,0,0,1,.866.419,5.244,5.244,0,0,1-.921-.267,7,7,0,0,0-2.239-.373,3.533,3.533,0,0,0-2.082.732,7.09,7.09,0,0,0-.654.673Z" transform="translate(-72.206 -159.432)" fill="#e0e0e0"/><path d="M101.57,256.733a5.855,5.855,0,0,0,.461-4.123,1.382,1.382,0,0,1,.258.59,4.2,4.2,0,0,1-.355,3.022C101.768,256.572,101.593,256.751,101.57,256.733Z" transform="translate(-70.485 -158.31)" fill="#e0e0e0"/><path d="M66.74,306a52.206,52.206,0,0,0,4.947,18.343H83.83A52.718,52.718,0,0,0,88.483,306Z" transform="translate(-51.7 -187.106)" fill="#e0e0e0"/><path d="M88.759,326.975c0,.065-4,.115-8.927.115s-8.932-.051-8.932-.115,4-.115,8.932-.115S88.759,326.925,88.759,326.975Z" transform="translate(-53.943 -198.357)" fill="#fafafa"/><path d="M89.48,331.715c0,.06-3.745.111-8.37.111s-8.37-.051-8.37-.111,3.745-.115,8.37-.115S89.48,331.651,89.48,331.715Z" transform="translate(-54.936 -200.913)" fill="#fafafa"/><path d="M77.775,314.53a35.473,35.473,0,0,1,0,5.6,34.059,34.059,0,0,1,0-5.6Z" transform="translate(-57.589 -191.707)" fill="#fafafa"/><path d="M91.865,314.53a36.507,36.507,0,0,1,0,5.8,36.51,36.51,0,0,1,0-5.8Z" transform="translate(-65.189 -191.707)" fill="#fafafa"/><path d="M105.138,314.43a37.913,37.913,0,0,1,0,5.906,37.913,37.913,0,0,1,0-5.906Z" transform="translate(-72.34 -191.653)" fill="#fafafa"/><path d="M88.586,314.4c0,.065-4.689.115-10.475.115s-10.471-.051-10.471-.115,4.685-.111,10.471-.111S88.586,314.341,88.586,314.4Z" transform="translate(-52.185 -191.577)" fill="#fafafa"/><path d="M664.864,218.126H634V186h30.864Zm-30.808,0h30.79V186H634.037Z" transform="translate(-357.651 -122.384)" fill="#e0e0e0"/><path d="M638.234,246.68a3.967,3.967,0,0,1-.557.65c-.359.378-.866.894-1.433,1.451s-1.087,1.055-1.469,1.41a3.789,3.789,0,0,1-.654.539,3.685,3.685,0,0,1,.553-.64c.359-.382.866-.921,1.437-1.456s1.087-1.059,1.474-1.414A3.686,3.686,0,0,1,638.234,246.68Z" transform="translate(-357.716 -155.112)" fill="#e0e0e0"/><path d="M692,246.56a3.6,3.6,0,0,1,.645.553c.382.364.894.866,1.451,1.433s1.06,1.087,1.41,1.474a3.612,3.612,0,0,1,.544.65,3.8,3.8,0,0,1-.645-.553c-.378-.359-.894-.866-1.456-1.433s-1.055-1.092-1.409-1.479A3.285,3.285,0,0,1,692,246.56Z" transform="translate(-388.933 -155.047)" fill="#e0e0e0"/><path d="M691.82,190.759a3.609,3.609,0,0,1,.553-.645c.359-.378.866-.894,1.433-1.451s1.087-1.055,1.474-1.41a3.6,3.6,0,0,1,.65-.544,3.426,3.426,0,0,1-.553.645c-.359.378-.866.894-1.437,1.456s-1.087,1.055-1.474,1.41a3.454,3.454,0,0,1-.645.539Z" transform="translate(-388.836 -122.767)" fill="#e0e0e0"/><path d="M638.169,190.814a3.782,3.782,0,0,1-.645-.557c-.382-.359-.894-.866-1.451-1.433s-1.055-1.087-1.409-1.469a3.524,3.524,0,0,1-.544-.654,3.6,3.6,0,0,1,.645.553c.378.364.894.871,1.456,1.437s1.055,1.092,1.41,1.474a3.221,3.221,0,0,1,.539.65Z" transform="translate(-357.716 -122.762)" fill="#e0e0e0"/><path d="M665.462,218.65a.511.511,0,0,1,0-.111c0-.083,0-.189,0-.332v-6.053c0-4.114-.023-9.968-.042-16.984l.088.088H643.042l.1-.1v23.493l-.083-.083,16.266.041,4.57.023h-4.533l-16.321.046h-.087V195h22.595v.088c0,7.039-.032,12.9-.042,17.044v6.339A.547.547,0,0,1,665.462,218.65Z" transform="translate(-362.478 -127.238)" fill="#e0e0e0"/><path d="M467.52,429.13V443.7h44.807V429.13Z" transform="translate(-267.86 -253.516)" fill="#f5f5f5"/><path d="M463.44,420.29v4.072H511.7V420.29H463.44Z" transform="translate(-265.66 -248.748)" fill="#e0e0e0"/><path d="M514.714,438.933h22.558v-14.57h1.571V420.29H513.77v3.694Z" transform="translate(-292.805 -248.748)" fill="#e0e0e0"/><rect width="9.089" height="2.193" transform="translate(205.925 177.963)" fill="#e0e0e0"/><rect width="11.668" height="4.63" transform="translate(204.755 182.901)" fill="#fff"/><path d="M482.48,388.7v14.57h44.812V388.7Z" transform="translate(-275.929 -231.71)" fill="#f5f5f5"/><path d="M478.4,379.85v4.077h48.258V379.85H478.4Z" transform="translate(-273.728 -226.937)" fill="#ebebeb"/><path d="M529.68,398.5h22.563v-14.57h1.566V379.85H528.74v3.7Z" transform="translate(-300.879 -226.937)" fill="#ebebeb"/><rect width="9.089" height="2.193" transform="translate(212.821 159.339)" fill="#e0e0e0"/><rect width="11.668" height="4.63" transform="translate(211.651 164.273)" fill="#fff"/></g><g transform="translate(37.034 184.93)"><path d="M345.822,346.86c0,.065-68.361.12-152.664.12s-152.678-.06-152.678-.12,68.342-.12,152.678-.12S345.822,346.791,345.822,346.86Z" transform="translate(-40.48 -346.74)" fill="#263238"/><path d="M346.942,460.96c0,.065-65.412.12-146.109.12s-146.123-.055-146.123-.12,65.412-.12,146.123-.12S346.942,460.914,346.942,460.96Z" transform="translate(-48.155 -408.28)" fill="#263238"/></g><g transform="translate(85.805 46.73)"><rect width="204.294" height="135.1" rx="14.57" transform="translate(8.082 0.12)" fill="#e0e0e0"/><path d="M361.349,181.949l.438-.028a3.222,3.222,0,0,0,.53-.06,4.337,4.337,0,0,0,.732-.152,6.228,6.228,0,0,0,1.93-.852,6.6,6.6,0,0,0,2.031-2.068,6.942,6.942,0,0,0,.732-1.571,7.33,7.33,0,0,0,.286-1.926c0-1.382,0-2.87,0-4.5V159.58c0-16.883,0-41.316-.037-71.5V54.957a11.4,11.4,0,0,0-.244-3.146,6.615,6.615,0,0,0-4.192-4.487,6.452,6.452,0,0,0-.774-.221c-.263-.055-.53-.092-.8-.124-.539-.037-1.087-.032-1.64-.028H170.5a6.62,6.62,0,0,0-6.329,4.712,7.186,7.186,0,0,0-.276,2.082V174.726a8.984,8.984,0,0,0,.138,1.843,6.675,6.675,0,0,0,1.672,3.188,6.45,6.45,0,0,0,1.414,1.129,7.322,7.322,0,0,0,.8.415,6.906,6.906,0,0,0,.857.286,13.637,13.637,0,0,0,3.607.235h91.273l71.493.041,19.439.023h0l-19.439.023-71.493.037H170.543a6.909,6.909,0,0,1-1.843-.24,7.65,7.65,0,0,1-.884-.295,8.344,8.344,0,0,1-.829-.433,6.554,6.554,0,0,1-1.456-1.165,6.7,6.7,0,0,1-1.092-1.52,7.325,7.325,0,0,1-.64-1.769,9.212,9.212,0,0,1-.143-1.879V53.764a7.255,7.255,0,0,1,.286-2.151,6.859,6.859,0,0,1,6.56-4.883h189.82c.553,0,1.1,0,1.654.032a8.291,8.291,0,0,1,.825.124,6.868,6.868,0,0,1,5.109,4.851l.1.392c.028.134.041.267.065.4a5.966,5.966,0,0,1,.074.806c0,.539,0,1.069,0,1.6v33.1c0,30.186-.032,54.619-.041,71.5v15.713a7.276,7.276,0,0,1-.295,1.944,6.8,6.8,0,0,1-.742,1.6,6.592,6.592,0,0,1-2.055,2.078,6.26,6.26,0,0,1-1.939.843,4.515,4.515,0,0,1-.737.147,3.156,3.156,0,0,1-.534.051Z" transform="translate(-155.685 -46.73)" fill="#263238"/><path d="M359.708,333.16H154.765a8.2,8.2,0,0,1-8.195-8.2V321.34H367.908v3.621A8.2,8.2,0,0,1,359.708,333.16Z" transform="translate(-146.471 -194.841)" fill="#e0e0e0"/><path d="M359.593,333.042h.267a7.683,7.683,0,0,0,.788-.069l.585-.092.7-.18c.253-.074.511-.184.8-.286a5.7,5.7,0,0,0,.875-.433,8.578,8.578,0,0,0,1.843-1.414,8.19,8.19,0,0,0,2.3-5.528c0-1.184,0-2.455,0-3.8l.046.041-213.129.078h-8.209l.12-.12v2.879a9.606,9.606,0,0,0,.276,2.819,8.053,8.053,0,0,0,3.155,4.524,8.4,8.4,0,0,0,5.293,1.479h69.406l70.351.028,47.254.037,12.82.023h-12.82l-47.254.037-70.351.028H155.3a8.642,8.642,0,0,1-5.422-1.428A8.292,8.292,0,0,1,146.653,327a9.951,9.951,0,0,1-.286-2.879v-3H154.7l213.129.074h.041v3.856a8.2,8.2,0,0,1-2.4,5.532A8.684,8.684,0,0,1,363.619,332c-.3.17-.6.3-.88.428a4.966,4.966,0,0,1-.806.281l-.7.175-.585.087a6.04,6.04,0,0,1-.792.055Z" transform="translate(-146.356 -194.722)" fill="#263238"/><path d="M341.93,321.33l2.745,4.367h38.649l2.547-4.367Z" transform="translate(-251.839 -194.835)" fill="#263238"/><rect width="185.214" height="109.861" rx="8.48" transform="translate(17.534 9.351)" fill="#2c9cd1"/><path d="M365.516,176.75a4.215,4.215,0,0,0,1.465-.295,3.939,3.939,0,0,0,1.5-1.055,3.994,3.994,0,0,0,.986-2.3c.028-3.879,0-9.614,0-16.993,0-14.741,0-36.115-.041-62.5V71.538a7.167,7.167,0,0,0-.064-1.341,3.87,3.87,0,0,0-1.3-2.276A3.92,3.92,0,0,0,365.581,67H188.295a3.888,3.888,0,0,0-3.137,1.594,3.759,3.759,0,0,0-.691,1.668,15.444,15.444,0,0,0-.055,1.843v99.45c0,.548,0,1.115.028,1.64a3.874,3.874,0,0,0,2.994,3.349,7.1,7.1,0,0,0,1.6.1h91.071l62.5.037,16.993.023h0l-16.993.023-62.5.037H189.037a7.125,7.125,0,0,1-1.649-.106,4.1,4.1,0,0,1-3.169-3.538c-.051-.571,0-1.11-.028-1.663V72.127a15.42,15.42,0,0,1,.055-1.893,4,4,0,0,1,.737-1.774,4.114,4.114,0,0,1,3.331-1.691H365.595a4.081,4.081,0,0,1,3.962,3.367,7.676,7.676,0,0,1,.064,1.382V93.6c0,26.386-.028,47.742-.037,62.5,0,7.37,0,13.11-.042,17a3.986,3.986,0,0,1-3.616,3.635Z" transform="translate(-166.758 -57.539)" fill="#263238"/><path d="M328.376,120.634v1.055H324V116h4.293v1.055h-2.985V118.3h2.635v1.023h-2.635v1.313Z" transform="translate(-242.168 -84.091)" fill="#fff"/><path d="M340.039,120.674v2.5h-1.267v-2.3c0-.7-.322-1.032-.884-1.032a1.037,1.037,0,0,0-1.046,1.175v2.16H335.58v-4.362h1.207v.516a1.912,1.912,0,0,1,1.442-.576A1.694,1.694,0,0,1,340.039,120.674Z" transform="translate(-248.414 -85.572)" fill="#fff"/><path d="M349.95,121.9a1.783,1.783,0,0,1-1.027.276,1.437,1.437,0,0,1-1.631-1.566v-1.792h-.673v-.972h.673V116.78h1.262v1.064h1.087v.972h-1.087v1.778a.511.511,0,0,0,.548.576.843.843,0,0,0,.507-.166Z" transform="translate(-254.368 -84.511)" fill="#fff"/><path d="M358.974,121.334h-3.3a1.161,1.161,0,0,0,1.248.875,1.47,1.47,0,0,0,1.092-.424l.677.732a2.3,2.3,0,0,1-1.8.7,2.266,2.266,0,0,1-2.492-2.248,2.225,2.225,0,0,1,2.326-2.248A2.16,2.16,0,0,1,359,120.993C359,121.09,358.983,121.228,358.974,121.334Zm-3.317-.742h2.151a1.046,1.046,0,0,0-1.073-.921,1.032,1.032,0,0,0-1.078.921Z" transform="translate(-258.564 -85.56)" fill="#fff"/><path d="M368.929,118.725v1.17h-.286a1.073,1.073,0,0,0-1.161,1.216v2.059H366.22v-4.362h1.207v.576a1.76,1.76,0,0,1,1.5-.659Z" transform="translate(-264.94 -85.558)" fill="#fff"/><path d="M380.79,119.685V121.7h-1.313v-2.013L377.28,116h1.382l1.52,2.524L381.7,116h1.29Z" transform="translate(-270.905 -84.091)" fill="#fff"/><path d="M388.924,120.611a2.4,2.4,0,1,1,2.4,2.248,2.248,2.248,0,0,1-2.4-2.248Zm3.515,0a1.119,1.119,0,1,0-1.11,1.212,1.1,1.1,0,0,0,1.11-1.212Z" transform="translate(-277.182 -85.196)" fill="#fff"/><path d="M405.542,118.88v4.362h-1.2v-.521a1.764,1.764,0,0,1-1.354.585,1.739,1.739,0,0,1-1.866-1.962V118.88h1.267v2.276c0,.732.322,1.055.884,1.055s1-.373,1-1.175V118.88Z" transform="translate(-283.763 -85.644)" fill="#fff"/><path d="M415.979,118.725v1.17H415.7a1.069,1.069,0,0,0-1.161,1.216v2.059H413.27v-4.362h1.207v.576A1.76,1.76,0,0,1,415.979,118.725Z" transform="translate(-290.316 -85.558)" fill="#fff"/><path d="M425.26,118.749a3.112,3.112,0,1,1,3.109,2.934A2.938,2.938,0,0,1,425.26,118.749Zm4.883,0a1.778,1.778,0,1,0-1.774,1.815,1.732,1.732,0,0,0,1.774-1.815Z" transform="translate(-296.783 -83.988)" fill="#fff"/><path d="M441.15,117.083h-1.82V116h4.947v1.073h-1.815v4.607H441.15Z" transform="translate(-304.371 -84.091)" fill="#fff"/><path d="M456.534,118.073c0,1.262-.949,2.05-2.469,2.05h-1.142v1.566H451.61V116h2.455C455.585,116,456.534,116.8,456.534,118.073Zm-1.331,0c0-.626-.405-.99-1.211-.99h-1.069v1.972h1.069c.806,0,1.212-.369,1.212-.981Z" transform="translate(-310.995 -84.091)" fill="#fff"/><g transform="translate(60.614 49.313)" opacity="0.2"><rect width="14.414" height="19.638" rx="5.47" fill="#fff"/></g><g transform="translate(78.75 49.313)" opacity="0.2"><rect width="14.414" height="19.638" rx="5.47" fill="#fff"/></g><g transform="translate(96.89 49.313)" opacity="0.2"><rect width="14.414" height="19.638" rx="5.47" fill="#fff"/></g><g transform="translate(115.026 49.313)" opacity="0.2"><rect width="14.414" height="19.638" rx="5.47" fill="#fff"/></g><g transform="translate(133.162 49.313)" opacity="0.2"><rect width="14.414" height="19.638" rx="5.47" transform="translate(0)" fill="#fff"/></g><g transform="translate(151.298 49.313)" opacity="0.2"><rect width="14.414" height="19.638" rx="5.47" fill="#fff"/></g><path d="M291.305,171.6l1.727.921-.774,1.3-1.741-1.032.028,1.916h-1.474v-1.93l-1.741,1.046-.76-1.3,1.723-.921-1.723-.949.76-1.3,1.741,1.046v-1.93h1.488l-.028,1.93,1.741-1.046.774,1.3Z" transform="translate(-221.98 -112.39)" fill="#263238"/><rect width="45.365" height="13.225" rx="6.613" transform="translate(90.483 81.005)" fill="#40beff"/><path d="M364.5,234a2.054,2.054,0,0,1,3.556-1.271l-.553.511a1.207,1.207,0,1,0,0,1.493l.553.511a2.05,2.05,0,0,1-3.556-1.262Z" transform="translate(-264.012 -146.695)" fill="#fff"/><path d="M372.666,235.221a1.58,1.58,0,1,1,1.58,1.479,1.479,1.479,0,0,1-1.58-1.479Zm2.3,0a.737.737,0,1,0-.728.8.723.723,0,0,0,.732-.8Z" transform="translate(-268.415 -147.486)" fill="#fff"/><path d="M383.64,235.243v1.64h-.829v-1.52c0-.461-.216-.677-.58-.677a.687.687,0,0,0-.691.774v1.414h-.829v-2.865h.792v.336a1.267,1.267,0,0,1,.949-.378,1.124,1.124,0,0,1,1.188,1.276Z" transform="translate(-272.755 -147.715)" fill="#fff"/><path d="M390.126,236.068a1.17,1.17,0,0,1-.677.184.944.944,0,0,1-1.069-1.032v-1.175h-.461v-.64h.461v-.7h.829v.7h.714v.64h-.714v1.165a.336.336,0,0,0,.359.378.571.571,0,0,0,.336-.106Z" transform="translate(-276.643 -147.038)" fill="#fff"/><path d="M393.51,231.667a.516.516,0,0,1,1.032,0,.521.521,0,0,1-1.032,0Zm.1.861h.829v2.865h-.829Z" transform="translate(-279.658 -146.225)" fill="#fff"/><path d="M400.14,235.26v1.64h-.829v-1.52c0-.461-.217-.677-.58-.677a.687.687,0,0,0-.691.774v1.414h-.829v-2.865H398v.336a1.267,1.267,0,0,1,.954-.364,1.124,1.124,0,0,1,1.184,1.262Z" transform="translate(-281.654 -147.731)" fill="#fff"/><path d="M408.06,234.08v2.865h-.788V236.6a1.156,1.156,0,0,1-.889.387,1.142,1.142,0,0,1-1.225-1.29V234.08H406v1.5c0,.461.212.7.58.7s.663-.249.663-.774V234.08Z" transform="translate(-285.935 -147.777)" fill="#fff"/><path d="M415.71,235.7h-2.17a.76.76,0,0,0,.82.576.981.981,0,0,0,.719-.276l.461.461a1.672,1.672,0,0,1-2.819-1.013A1.46,1.46,0,0,1,414.231,234a1.419,1.419,0,0,1,1.493,1.488C415.723,235.545,415.714,235.633,415.71,235.7Zm-2.179-.461h1.41a.682.682,0,0,0-.7-.6.673.673,0,0,0-.7.576Z" transform="translate(-290.019 -147.732)" fill="#fff"/><path d="M389.712,54.716a2.032,2.032,0,1,1-.593-1.439A2.036,2.036,0,0,1,389.712,54.716Z" transform="translate(-275.414 -49.939)" fill="#263238"/><path d="M556.689,78.662V76.709a.4.4,0,0,1,.382-.419h2.934a.4.4,0,0,1,.382.419v1.953a.4.4,0,0,1-.382.419h-2.934a.4.4,0,0,1-.382-.419Z" transform="translate(-367.669 -62.673)" fill="#263238"/><path d="M561.381,78.839h-5.795a.521.521,0,0,1-.516-.521V75.126a.516.516,0,0,1,.516-.516H561.3a.461.461,0,0,1,.461.461v.59a.074.074,0,0,0,.074.074h.627a.309.309,0,0,1,.309.309v1.05a.382.382,0,0,1-.382.382h-.461a.078.078,0,0,0-.078.078v.815a.461.461,0,0,1-.465.47Zm-5.795-4a.286.286,0,0,0-.286.286v3.192a.29.29,0,0,0,.286.29h5.795a.244.244,0,0,0,.24-.244v-.811a.309.309,0,0,1,.309-.309h.461a.152.152,0,0,0,.152-.152V76.052a.083.083,0,0,0-.078-.078h-.626a.309.309,0,0,1-.3-.3v-.59a.239.239,0,0,0-.244-.24Z" transform="translate(-366.796 -61.767)" fill="#263238"/></g><g transform="translate(42.354 112.347)"><path d="M146.407,194.995a3.865,3.865,0,0,0-3.5-2.635,2.489,2.489,0,0,0-1.479-2.93,4.3,4.3,0,0,0-3.492.253,12.049,12.049,0,0,1-2.3,1.059,13.108,13.108,0,0,1-3.335-.134,6.242,6.242,0,0,0-5.606,3.266c-.373.7-.6,1.483-1.013,2.17-.332.548-.765,1.027-1.092,1.58a4.722,4.722,0,0,0,.378,5.21l15.7-3.607a3.768,3.768,0,0,0,5.74-4.224Z" transform="translate(-90.834 -189.174)" fill="#263238"/><path d="M232.447,325.572l-15.142-1.5-.875,7.863,17.1-.594Z" transform="translate(-140.699 -261.93)" fill="#ffbf9d"/><path d="M262.109,327.314a.852.852,0,0,1-.875.341,1.011,1.011,0,0,1-.2-.078c-.461-.226-.253-1.188-.253-1.188l-2.22-.728a24.5,24.5,0,0,0-4.514,2.538c-1.253,1.1-3.777-.35-3.777-.35l-.166-5,4.791-3.128s-.295.189.106-.461,1.677-.189,1.677-.189c.263-.318,1.142-.309,1.142-.309l3.607,1a2.543,2.543,0,0,1,1.658,1.451l1.165,2.7a7.032,7.032,0,0,1,.345,2.3.742.742,0,0,1-.921.35s-.369,1.133-.677,1.129a2.561,2.561,0,0,1-.875-.364Z" transform="translate(-158.859 -259.066)" fill="#ffbf9d"/><path d="M255.223,327.464a1.546,1.546,0,0,0,.249-.134l.691-.4a25.3,25.3,0,0,1,2.681-1.285h-.055l2.216.746-.064-.111a2.851,2.851,0,0,0-.046.567,1.055,1.055,0,0,0,.17.585.589.589,0,0,0,.281.189.821.821,0,0,0,.318.069.954.954,0,0,0,.617-.226.98.98,0,0,0,.12-.12l.028-.032h0l-.143.028h0l.069.041a2.657,2.657,0,0,0,.276.152,2.153,2.153,0,0,0,.3.124.873.873,0,0,0,.166.046.386.386,0,0,0,.216,0,.718.718,0,0,0,.272-.267,2.63,2.63,0,0,0,.161-.295,5.653,5.653,0,0,0,.249-.622l-.147.069a.875.875,0,0,0,.894-.152.723.723,0,0,0,.23-.433,2.127,2.127,0,0,0,0-.461,12.447,12.447,0,0,0-.368-1.737h0l-.622-1.442-.392-.921a4.69,4.69,0,0,0-.461-.9,2.459,2.459,0,0,0-.737-.677,3.262,3.262,0,0,0-.921-.341l-3.4-.921h-.028a3.531,3.531,0,0,0-.631.064,1.046,1.046,0,0,0-.59.286h.134a1.276,1.276,0,0,0-1.189-.12,1.5,1.5,0,0,0-.732.838l.037-.046-3.3,2.142-.889.594a2.584,2.584,0,0,0-.3.221,1.931,1.931,0,0,0,.332-.18l.921-.553,3.34-2.073h0v-.028a1.326,1.326,0,0,1,.64-.728,1.1,1.1,0,0,1,1,.115l.074.046.06-.064a.875.875,0,0,1,.461-.212,3.035,3.035,0,0,1,.585-.055h0l3.4.958a3.045,3.045,0,0,1,.852.318,2.23,2.23,0,0,1,.663.617,4.2,4.2,0,0,1,.424.852c.134.3.263.608.4.921l.622,1.442h0a12.189,12.189,0,0,1,.364,1.7,1.976,1.976,0,0,1,0,.4.493.493,0,0,1-.157.295.659.659,0,0,1-.659.111l-.111-.037-.037.106a4.419,4.419,0,0,1-.235.594,1.128,1.128,0,0,1-.313.461.39.39,0,0,1-.1,0l-.134-.037c-.092-.032-.184-.074-.276-.115a2.9,2.9,0,0,1-.263-.143l-.064-.037h0l-.143.028h0v.028a.926.926,0,0,1-.1.092.742.742,0,0,1-.461.18.649.649,0,0,1-.249-.051.345.345,0,0,1-.193-.124,1.41,1.41,0,0,1-.1-.986v-.087l-.078-.023-2.22-.719h-.055a22.139,22.139,0,0,0-2.663,1.354c-.3.18-.525.327-.677.433A1.506,1.506,0,0,0,255.223,327.464Z" transform="translate(-159.112 -258.985)" fill="#ff9a6c"/><path d="M265.28,322.43a4.634,4.634,0,0,0,1.124.534,11.812,11.812,0,0,0,3,.7l-.111-.1c.037.193.069.392.12.594a9.159,9.159,0,0,0,1.41,3.188,7.607,7.607,0,0,0,.663.82c.17.184.276.272.29.263s-.341-.438-.811-1.179a10.17,10.17,0,0,1-1.313-3.146c-.046-.194-.083-.392-.115-.576v-.1h-.092a14.28,14.28,0,0,1-2.967-.613,10.893,10.893,0,0,0-1.2-.387Z" transform="translate(-167.046 -261.045)" fill="#ff9a6c"/><path d="M272.12,328.27a5.989,5.989,0,0,0,1.953,4.031c.06-.051-.613-.815-1.147-1.93S272.194,328.256,272.12,328.27Z" transform="translate(-170.735 -264.195)" fill="#ff9a6c"/><path d="M249.39,329.606a.613.613,0,0,0,.106.088,3.279,3.279,0,0,0,.341.2,4.068,4.068,0,0,0,1.423.4,4.022,4.022,0,0,0,2.2-.428A4.21,4.21,0,0,0,255.4,327.8l-.147.069a9.492,9.492,0,0,0,2.639.544,9.171,9.171,0,0,0,1,0,3.048,3.048,0,0,0,.986-.161.76.76,0,0,0,.419-.345.7.7,0,0,0,.023-.539.7.7,0,0,0-.364-.387l-.405-.175c-1.073-.461-2.064-.8-2.9-1.069s-1.525-.461-2-.58a3.642,3.642,0,0,0-.751-.152,6.321,6.321,0,0,0,.723.244c.461.147,1.142.364,1.972.654s1.8.659,2.865,1.115l.4.175a.479.479,0,0,1,.235.608.526.526,0,0,1-.3.23,2.835,2.835,0,0,1-.921.138H257.9a9.432,9.432,0,0,1-2.575-.525l-.106-.037-.041.1a4.063,4.063,0,0,1-1.843,1.981,4.008,4.008,0,0,1-2.1.461,4.328,4.328,0,0,1-1.382-.322A4.829,4.829,0,0,1,249.39,329.606Z" transform="translate(-158.476 -262.432)" fill="#ff9a6c"/><path d="M136.364,236.883a6.868,6.868,0,0,1-6.716-6.878l-.286-22.807c-.267-6.122,2.976-11.387,8.932-11.489h.553a10.8,10.8,0,0,1,10.208,10.517c.2,5.311.419,10.438.272,13.276-.309,5.878-6.117,6.449-6.117,6.449v3.916a6.868,6.868,0,0,1-6.831,6.983Z" transform="translate(-93.731 -192.699)" fill="#ffbf9d"/><path d="M150.837,258.49a13.524,13.524,0,0,1-7.347-2.58s1.612,4.5,7.334,4.206Z" transform="translate(-101.359 -225.168)" fill="#ff9a6c"/><path d="M165.64,229.013a.838.838,0,0,1-.82.815.792.792,0,0,1-.82-.783.825.825,0,0,1,.82-.815.8.8,0,0,1,.82.783Z" transform="translate(-112.421 -210.238)" fill="#263238"/><path d="M165.475,222.974c-.106.106-.7-.392-1.585-.424s-1.539.387-1.631.272.069-.244.355-.461a2.216,2.216,0,0,1,1.313-.355,2.1,2.1,0,0,1,1.253.461C165.443,222.726,165.526,222.924,165.475,222.974Z" transform="translate(-111.468 -206.881)" fill="#263238"/><path d="M148.341,229a.829.829,0,0,1-.82.815.8.8,0,0,1-.811-.792.829.829,0,0,1,.82-.815.792.792,0,0,1,.811.792Z" transform="translate(-103.096 -210.228)" fill="#263238"/><path d="M146.774,222.634c-.106.106-.709-.392-1.585-.424s-1.539.387-1.631.272.064-.244.355-.461a2.216,2.216,0,0,1,1.313-.355,2.119,2.119,0,0,1,1.253.461C146.738,222.386,146.825,222.588,146.774,222.634Z" transform="translate(-101.382 -206.698)" fill="#263238"/><path d="M156.674,230.3a5.717,5.717,0,0,1,1.437-.2c.226,0,.461-.051.484-.207a1.216,1.216,0,0,0-.124-.691c-.189-.567-.387-1.161-.59-1.783a34.066,34.066,0,0,1-1.308-4.657,33.171,33.171,0,0,1,1.668,4.537c.2.626.387,1.221.562,1.792a1.35,1.35,0,0,1,.083.921.567.567,0,0,1-.382.318,1.506,1.506,0,0,1-.382.041A5.708,5.708,0,0,1,156.674,230.3Z" transform="translate(-108.411 -207.287)" fill="#263238"/><path d="M146.726,216.47c-.129.226-.972-.055-2.008-.12s-1.907.06-2-.184c-.041-.115.143-.313.516-.461a3.261,3.261,0,0,1,1.552-.249,3.3,3.3,0,0,1,1.5.461C146.629,216.134,146.781,216.359,146.726,216.47Z" transform="translate(-100.937 -203.343)" fill="#263238"/><path d="M165.456,217.2c-.189.2-.921-.032-1.76-.064s-1.589.1-1.75-.124c-.074-.106.046-.309.369-.493a2.865,2.865,0,0,1,2.833.152C165.442,216.883,165.538,217.1,165.456,217.2Z" transform="translate(-111.301 -203.757)" fill="#263238"/><path d="M125.415,229.858c-.1-.046-3.879-1.359-3.916,2.663s3.9,3.225,3.906,3.119S125.415,229.858,125.415,229.858Z" transform="translate(-89.498 -210.987)" fill="#ffbf9d"/><path d="M125.4,235.606a1.067,1.067,0,0,1-.184.1.663.663,0,0,1-.511,0,1.748,1.748,0,0,1-.765-1.566,2.3,2.3,0,0,1,.2-1,.8.8,0,0,1,.516-.534.341.341,0,0,1,.4.2c.055.111.028.193.051.2s.083-.064.051-.23a.415.415,0,0,0-.152-.253.461.461,0,0,0-.373-.106.963.963,0,0,0-.719.613,2.441,2.441,0,0,0-.244,1.119,1.808,1.808,0,0,0,.977,1.75.719.719,0,0,0,.622-.1C125.392,235.7,125.415,235.615,125.4,235.606Z" transform="translate(-90.668 -212.492)" fill="#ff9a6c"/><path d="M130.6,200.683a2.865,2.865,0,0,1,1.953-2.23,3.994,3.994,0,0,1,2.64.032c2.207.8,5.988,2,6.951,1.235a6.089,6.089,0,0,0,1.75-1.843l.779.848c.631-.359-1.267-2.469-2.824-3.2-2.349-1.1-5.938-1.774-8.107-1.142a9.441,9.441,0,0,0-6.094,4.537A16.183,16.183,0,0,0,125.919,207c0,.852-.134,3.294.686,3.483a1.5,1.5,0,0,1,1.41,1.654,1.7,1.7,0,0,0,.405,1.23c.714.783,1.589.046,1.995-.691a11.873,11.873,0,0,0,1.032-5.261,12.1,12.1,0,0,0-.244-3.828,12.032,12.032,0,0,1-.631-2.469A2.083,2.083,0,0,1,130.6,200.683Z" transform="translate(-91.872 -191.854)" fill="#263238"/><path d="M153.624,241.989c.023.06-.157.212-.521.29a2.078,2.078,0,0,1-1.414-.221,2.147,2.147,0,0,1-.958-1.064c-.138-.345-.115-.576-.051-.594a4.539,4.539,0,0,0,1.253,1.212C152.758,242.058,153.587,241.855,153.624,241.989Z" transform="translate(-105.209 -216.802)" fill="#263238"/><path d="M104.53,320.638l-18.712-4.118-12.028-29.8s-16.072,3.565-18.721,12.567c-2.3,7.762-7.03,42.071,3.731,63.22a16.256,16.256,0,0,0,14.511,8.817H155.2a20.3,20.3,0,0,0,20.177-18.041,89.71,89.71,0,0,0,.718-10.634L162.95,332.559Z" transform="translate(-52.03 -241.785)" fill="#455a64"/><g transform="translate(102.527 86.688)" opacity="0.3"><path d="M274.6,379.889c5.763,7.527,12.774,14.28,21.158,18.712l.4-10.217L280.671,377.36Z" transform="translate(-274.6 -377.36)"/></g><path d="M139.335,271.869c0,.544,4.256,2.3,6.177,1.529,2.93-1.17,2.566-3.469,2.566-3.469l1.626,1.714L166,296.473l12.111,7.992-19.384,6.14L138.4,287.26Z" transform="translate(-98.614 -232.73)" fill="#f5f5f5"/><path d="M117.091,256.05l-.428.8-1.935,3.607-8.048,5.132,16.551,19.674,7.55,17.855,18.1,5.666s-8.614-13.244-11.291-20.015-2.948-6.449-5.39-11.415a111.388,111.388,0,0,1-4.422-10.733Z" transform="translate(-81.505 -225.243)" fill="#40beff"/><path d="M184.324,296.637l3.552,3.312,1,2.045-13.2-6.14L166.147,282.5s-3.395-7.532-4.56-10.231c-1.23-2.838-2.147-4.445-2.147-4.445V265.58l4.8,4.339,4.012,1.193,6.707,10.595Z" transform="translate(-109.961 -230.383)" fill="#40beff"/><path d="M189.631,290.341s-1.6-3.418-2.911-6.26c-2.948-6.4-9.9-7.011-9.9-7.011l7.684,21.31,9.411,6.675s2.681.921,3.017,0c0,0,1.958-7.066,1.9-7.094s-6.7-2.013-6.7-2.013l-2.672-5.988" transform="translate(-119.335 -236.581)" fill="#40beff"/><path d="M224.654,290.976,215.51,306.21l9.577-.281,8.444-14.114a.815.815,0,0,0-.7-1.235h-7.476A.815.815,0,0,0,224.654,290.976Z" transform="translate(-140.203 -243.867)" fill="#263238"/><path d="M159,315.607l22.89-2.722,3.846-6.739,3.013-1.654a1.5,1.5,0,0,1,1.608.1l.286.207,2.234-.281a1.76,1.76,0,0,1,1.1.217l1.585.921a.765.765,0,0,1,.378.654h0a.76.76,0,0,1-.9.746l-1.539-.281-2.359.769s1.52.161,1.714,1.313-.576,1.179-.576,1.179a1.475,1.475,0,0,1,.461,2.3s1.336.889-.161,2.575c-1.009,1.142-8.292,4.865-8.292,4.865L159,329.145Z" transform="translate(-109.724 -251.269)" fill="#ffbf9d"/><path d="M224.3,321.73a.584.584,0,0,1,.373.207,1.207,1.207,0,0,1,.244,1.129,3.349,3.349,0,0,1-.986,1.41,12.269,12.269,0,0,1-1.608,1.327,21.692,21.692,0,0,1-3.3,1.82,8.387,8.387,0,0,1-1.442.585,11.653,11.653,0,0,1,1.382-.737,27.294,27.294,0,0,0,3.225-1.866,13.014,13.014,0,0,0,1.594-1.29,3.266,3.266,0,0,0,.972-1.294A1.133,1.133,0,0,0,224.6,322,1.461,1.461,0,0,0,224.3,321.73Z" transform="translate(-141.319 -260.668)" fill="#ff9a6c"/><path d="M224.759,305.509a6.25,6.25,0,0,1-2.349.636,3.147,3.147,0,0,1,1.142-.433,3.225,3.225,0,0,1,1.207-.2Z" transform="translate(-143.924 -251.919)" fill="#ff9a6c"/><path d="M230.1,309.63a6.449,6.449,0,0,1-1.589.654,6.358,6.358,0,0,1-1.668.428,6.071,6.071,0,0,1,1.589-.654A6.147,6.147,0,0,1,230.1,309.63Z" transform="translate(-146.314 -254.142)" fill="#ff9a6c"/><path d="M227.632,315.2c-.069,0-.1-.207-.18-.433s-.17-.4-.12-.461.253.092.345.373S227.674,315.208,227.632,315.2Z" transform="translate(-146.572 -256.656)" fill="#ff9a6c"/><path d="M229.229,320.327c-.069,0-.041-.345-.138-.719s-.263-.659-.212-.7.336.2.461.645A.774.774,0,0,1,229.229,320.327Z" transform="translate(-147.408 -259.141)" fill="#ff9a6c"/><path d="M100.6,275.87c-.765.461-7.237,4.883-6.292,12.124s15.271,23.613,18.26,23.926l11.493,1.889V300.271l-5.528-.313-7.223-14.17Z" transform="translate(-74.783 -235.933)" fill="#40beff"/><path d="M141.579,312.949a2.236,2.236,0,0,1-.41.037l-1.161.046-4.118.092h-.055l-.037-.046-2.911-3.916c-1.737-2.345-3.294-4.478-4.413-6.03l-1.313-1.843a5.1,5.1,0,0,1-.461-.7,5.34,5.34,0,0,1,.534.64l1.382,1.8c1.156,1.52,2.764,3.639,4.473,5.988l2.888,3.929-.092-.046h5.279a1.7,1.7,0,0,1,.415.051Z" transform="translate(-92.303 -249.266)" fill="#263238"/><path d="M137.261,273.752a2.763,2.763,0,0,1-.226-.41l-.567-1.188h.124a14.51,14.51,0,0,0-1.11,1.912,16.808,16.808,0,0,1-1.442,2.534l-.092.129-.1-.124c-.746-.921-1.6-1.893-2.515-2.893-2-2.179-3.92-4.068-5.288-5.449l-1.617-1.645a5.064,5.064,0,0,1-.562-.626,5.532,5.532,0,0,1,.636.557l1.672,1.585c1.382,1.35,3.34,3.225,5.353,5.4.921,1,1.769,1.99,2.511,2.916h-.193a18.289,18.289,0,0,0,1.456-2.487,12.846,12.846,0,0,1,1.175-1.9l.074-.1.046.111c.207.5.378.9.507,1.216A1.922,1.922,0,0,1,137.261,273.752Z" transform="translate(-90.777 -230.605)" fill="#263238"/><path d="M167.03,274.419a2.225,2.225,0,0,1,.345.682,18.086,18.086,0,0,1,.6,1.9l.157.562-.359-.461a15.533,15.533,0,0,0-1.686-1.783c-.534-.488-1.055-.921-1.529-1.354l.193-.074a19.719,19.719,0,0,0-.069,2.271,2.414,2.414,0,0,1-.115.889c-.028,0,0-.327-.032-.884a14.785,14.785,0,0,1,0-2.3l.023-.216.17.143c.461.4,1.013.848,1.552,1.345a13.556,13.556,0,0,1,1.7,1.843l-.2.1c-.2-.8-.359-1.46-.507-1.916a5.456,5.456,0,0,1-.24-.742Z" transform="translate(-112.686 -234.736)" fill="#263238"/><path d="M194.985,304.519a4.536,4.536,0,0,1-.548-.507l-1.414-1.446c-.594-.622-1.3-1.317-2.073-2.179-.355-.461-.668-.954-1.036-1.437a9.677,9.677,0,0,1-.958-1.668c-.548-1.188-.963-2.363-1.336-3.427s-.7-2.027-1-2.819a19.3,19.3,0,0,0-.788-1.843,5.708,5.708,0,0,1-.332-.663.9.9,0,0,1,.12.147,4.446,4.446,0,0,1,.3.461,15.48,15.48,0,0,1,.871,1.843c.327.792.673,1.746,1.055,2.805s.8,2.225,1.345,3.4a9.893,9.893,0,0,0,.921,1.626c.373.493.686,1,1.023,1.442.723.825,1.446,1.571,2.013,2.2l1.359,1.5a4.386,4.386,0,0,1,.479.571Z" transform="translate(-124.017 -242.761)" fill="#263238"/><path d="M206.212,338.4l43.449-1.221a4.9,4.9,0,0,1,2.008.373,12.687,12.687,0,0,1,6.371,6.537c2.824,5.988,16,31.324,16,31.324l-13.322,6.827-16.339-30.311L194,347.644l.585-4.026Z" transform="translate(-128.601 -268.999)" fill="#263238"/><path d="M330.24,417.073l6.942,11.917.461,3.013a3.372,3.372,0,0,0,3.846,2.824l21.13-3.225a1.645,1.645,0,0,0,1.3-2.257,1.428,1.428,0,0,0-1-.82c-1.769-.461-15.4-5.459-15.4-5.459L341.83,411.66Z" transform="translate(-202.082 -309.172)" fill="#e0e0e0"/><path d="M339.424,424.745a13.028,13.028,0,0,1-1.562-1.916,12.464,12.464,0,0,1-1.382-2.059,13.193,13.193,0,0,1,1.557,1.916A12.7,12.7,0,0,1,339.424,424.745Z" transform="translate(-205.448 -314.085)" fill="#263238"/><path d="M348.957,420.785a8.377,8.377,0,0,1-1.456-2.008,8.622,8.622,0,0,1-1.032-2.257c.064-.032.553.963,1.239,2.137A23.966,23.966,0,0,1,348.957,420.785Z" transform="translate(-210.836 -311.792)" fill="#263238"/><path d="M351.5,455.812c-.046,0-.157-.41-.461-1.032a6.15,6.15,0,0,0-4.114-3.225c-.677-.161-1.115-.166-1.115-.212a2.6,2.6,0,0,1,1.156,0,5.648,5.648,0,0,1,4.252,3.34A2.708,2.708,0,0,1,351.5,455.812Z" transform="translate(-210.48 -330.54)" fill="#263238"/><path d="M388.555,450.613a1.769,1.769,0,0,1-.336-.788,3.685,3.685,0,0,1,.1-2.078,4.983,4.983,0,0,1,1.1-1.755,2.183,2.183,0,0,1,.654-.553c.028.032-.189.276-.507.682a6.379,6.379,0,0,0-.986,1.718,4.109,4.109,0,0,0-.17,1.944A5.474,5.474,0,0,1,388.555,450.613Z" transform="translate(-233.298 -327.391)" fill="#263238"/><path d="M179.365,347.64s44.835-4.5,47.014-4.316c4.021.332,11.438,6.675,24.6,15.51A121.234,121.234,0,0,1,269.865,374.7l-4.206,9.6s-29.482-10.747-34.111-14.612c-3.842-3.225-10.853-7.785-10.853-7.785l-17.293.175-12.857,1.133a18.887,18.887,0,0,1-16.666-7.338l-4.989-6.518Z" transform="translate(-115.058 -272.312)" fill="#263238"/><path d="M249.9,361.375s.074.041.207.134l.6.415,2.326,1.635c2.022,1.442,4.989,3.515,8.628,6.265.23.17.461.368.691.521l.742.461c.534.267,1.069.562,1.635.825l1.732.806,1.843.806q3.736,1.617,8.057,3.372c5.749,2.335,12.2,4.874,19.158,7.55l-.152.069,3.81-9.674.028.138-5.233-5.334h0c-1.23-1.064-2.547-2.2-3.892-3.317a275.243,275.243,0,0,0-25.133-18.426h0a24.5,24.5,0,0,0-3.8-2.676,18.976,18.976,0,0,0-4.068-1.769c-.35-.092-.7-.166-1.046-.253l-1.046-.161-1.046-.055h-5.067l-13.539-.028-8.789-.037h-2.9a1.714,1.714,0,0,1-.2,0h3.1l8.789-.032,13.539-.028h5.067l1.064.051,1.069.161c.35.088.7.161,1.059.258a18.889,18.889,0,0,1,4.118,1.778,24.329,24.329,0,0,1,3.851,2.7h0a271.388,271.388,0,0,1,25.17,18.426c1.35,1.119,2.667,2.253,3.9,3.321h0l5.233,5.339.055.06-.028.078-3.823,9.674-.041.111-.111-.041c-6.96-2.686-13.41-5.238-19.154-7.587-2.87-1.175-5.56-2.3-8.048-3.395l-1.843-.815-1.75-.9c-.562-.272-1.1-.567-1.635-.838l-.76-.461c-.249-.152-.461-.35-.691-.521-3.621-2.764-6.578-4.86-8.582-6.325l-2.3-1.663-.59-.433C249.955,361.43,249.9,361.375,249.9,361.375Z" transform="translate(-144.48 -271.913)" fill="#455a64"/><path d="M358.26,411.359l12.438,4.887,2.068,2.239a3.377,3.377,0,0,0,4.772.184l15.69-14.52a1.649,1.649,0,0,0-.184-2.6,1.437,1.437,0,0,0-1.29-.115c-1.718.617-15.819,4.1-15.819,4.1L366.478,398Z" transform="translate(-217.195 -301.804)" fill="#e0e0e0"/><path d="M358.26,411.2s.041-.078.134-.235l.419-.691c.373-.622.921-1.52,1.617-2.672,1.419-2.335,3.464-5.689,5.988-9.807l.051-.088.083.065,9.457,7.518h-.1l8.411-2.119,4.445-1.156c.751-.2,1.511-.4,2.266-.622l.562-.175a2.3,2.3,0,0,1,.608-.143,1.566,1.566,0,0,1,1.175.461,1.769,1.769,0,0,1,.17,2.3,3.222,3.222,0,0,1-.424.461l-.428.4-.852.788-3.344,3.091-6.325,5.841-2.944,2.718-1.41,1.3a4.917,4.917,0,0,1-.746.594,3.469,3.469,0,0,1-4.224-.461c-.792-.825-1.511-1.631-2.216-2.391h.032c-3.837-1.529-6.942-2.764-9.1-3.63l-2.451-.99-.636-.258-.207-.087s.083.023.235.083l.65.244,2.487.958,9.084,3.524h0c.709.755,1.442,1.566,2.216,2.372a3.285,3.285,0,0,0,3.178.778,3.223,3.223,0,0,0,.815-.364,4.564,4.564,0,0,0,.709-.576c.461-.428.921-.866,1.41-1.3q1.428-1.327,2.939-2.727c2.008-1.843,4.123-3.823,6.316-5.85q1.64-1.525,3.34-3.1l.852-.788a9.651,9.651,0,0,0,.82-.8,1.539,1.539,0,0,0-.138-2,1.317,1.317,0,0,0-1-.378,1.994,1.994,0,0,0-.544.134l-.576.175c-.76.221-1.516.419-2.271.622l-4.45,1.152-8.411,2.105h-.055l-.041-.032-9.406-7.536h.134l-6.03,9.7-1.672,2.667-.461.7C358.32,411.115,358.26,411.2,358.26,411.2Z" transform="translate(-217.195 -301.648)" fill="#263238"/><path d="M394.042,438.3c-.032.032-.359-.253-.972-.59a6.14,6.14,0,0,0-5.215-.373c-.65.244-1.018.484-1.046.461a2.727,2.727,0,0,1,.972-.631,5.648,5.648,0,0,1,5.39.387,2.575,2.575,0,0,1,.871.746Z" transform="translate(-232.593 -322.654)" fill="#263238"/><path d="M423.353,413.222a1.889,1.889,0,0,1-.723-.461,3.685,3.685,0,0,1-1.073-1.778,5.035,5.035,0,0,1-.074-2.073,2.087,2.087,0,0,1,.235-.82,3.378,3.378,0,0,1-.037.843,6.135,6.135,0,0,0,.143,1.976,4.1,4.1,0,0,0,.949,1.709C423.118,412.987,423.381,413.18,423.353,413.222Z" transform="translate(-251.254 -307.246)" fill="#263238"/><path d="M158.4,355.64c-.963-4.565-2.93-9.236-6.822-11.8-2.953-1.953-6.606-2.432-10.134-2.865L67.991,331.94c-.659,11.576,4.3,25.985,9.356,36.424a10.116,10.116,0,0,0,3.192,4.27c1.843,1.207,4.183,1.193,6.375,1.138,24.714-.631,49.437-1.681,74.013-4.385C159.545,364.932,159.361,360.2,158.4,355.64Z" transform="translate(-60.606 -266.175)" fill="#455a64"/><path d="M101.219,335.477a5.7,5.7,0,0,1-.866-.055L98,335.168c-1.981-.23-4.712-.567-7.725-.981s-5.74-.834-7.7-1.179c-.986-.175-1.778-.318-2.3-.461a5.726,5.726,0,0,1-.843-.207,5.747,5.747,0,0,1,.861.106l2.331.359c1.972.295,4.694.686,7.707,1.1l7.716,1.055,2.34.336a5.436,5.436,0,0,1,.834.18Z" transform="translate(-66.808 -266.39)" fill="#263238"/><path d="M118.19,399.578a.87.87,0,0,1-.074-.143c-.055-.106-.12-.249-.2-.424l-.746-1.645-.539-1.165c-.184-.461-.364-.921-.571-1.446-.4-1.036-.894-2.207-1.317-3.547-.221-.663-.461-1.359-.7-2.087s-.461-1.5-.668-2.3c-.461-1.58-.857-3.3-1.281-5.109a83.617,83.617,0,0,1-1.663-24.009c.17-1.843.3-3.6.562-5.233.124-.815.207-1.608.345-2.363s.276-1.474.405-2.165c.235-1.382.567-2.612.815-3.685.134-.544.244-1.046.369-1.506s.258-.875.369-1.253c.217-.742.392-1.322.511-1.732l.143-.461a.776.776,0,0,1,.055-.152.581.581,0,0,1-.032.157l-.115.461-.461,1.741-.345,1.258c-.115.461-.221.972-.345,1.511-.24,1.087-.557,2.3-.778,3.685-.12.686-.253,1.41-.387,2.16s-.212,1.543-.327,2.359c-.253,1.626-.378,3.381-.544,5.224a86.077,86.077,0,0,0,1.658,23.954c.419,1.8.783,3.524,1.258,5.1.226.792.415,1.562.65,2.3s.461,1.423.682,2.087c.41,1.34.894,2.511,1.276,3.556.2.521.373,1.009.553,1.451l.516,1.193.7,1.663.18.438a.659.659,0,0,1,.046.129Z" transform="translate(-83.402 -270.063)" fill="#263238"/><path d="M119.1,419.278a15.935,15.935,0,0,1-2.888,0,16.124,16.124,0,0,1-2.884-.263,16.553,16.553,0,0,1,2.893,0A16.469,16.469,0,0,1,119.1,419.278Z" transform="translate(-85.092 -313.105)" fill="#263238"/><path d="M117.808,424.32a9.1,9.1,0,0,1-2.967-.779,9,9,0,0,1-2.672-1.506c.041-.064,1.212.64,2.764,1.267S117.822,424.219,117.808,424.32Z" transform="translate(-84.466 -314.765)" fill="#263238"/><path d="M105.872,376.868a3.832,3.832,0,0,1-1.912.585,3.91,3.91,0,0,1-1.99-.207c0-.078.889.055,1.967-.051S105.844,376.8,105.872,376.868Z" transform="translate(-78.965 -290.401)" fill="#263238"/><path d="M109.218,372.608a3.266,3.266,0,0,1-2.11-.267,3.225,3.225,0,0,1-1.658-1.331,10.852,10.852,0,0,0,1.76,1.092A11.473,11.473,0,0,0,109.218,372.608Z" transform="translate(-80.842 -287.247)" fill="#263238"/><path d="M152.494,200.685a3.2,3.2,0,0,0-2.2-1.953,5.486,5.486,0,0,0-3.022.111l-9.545,2.183a16.305,16.305,0,0,0,5.855,1.962c2.382.253,4.058.276,5.477-.544a1.787,1.787,0,0,0,2.511.921,2.3,2.3,0,0,0,.921-2.681Z" transform="translate(-98.252 -194.242)" fill="#263238"/><path d="M370.318,418.076a19.04,19.04,0,0,1-5.528-2.082c.028-.064,1.244.461,2.764,1.032S370.336,418.011,370.318,418.076Z" transform="translate(-220.717 -311.506)" fill="#263238"/><path d="M375.644,408.915a26.628,26.628,0,0,1-2.446-1.156,25.238,25.238,0,0,1-2.428-1.188,11.1,11.1,0,0,1,2.534.972,10.669,10.669,0,0,1,2.34,1.373Z" transform="translate(-223.942 -306.426)" fill="#263238"/><path d="M215.069,315.452l19.241.235,23.235-4.606a1.843,1.843,0,0,0,1.442-1.511l3.16-20.923a1.543,1.543,0,0,0-1.773-1.75l-23.747,3.865a1.548,1.548,0,0,0-1.285,1.331l-2.649,21.277-17.6-.087a1.087,1.087,0,0,0-1.087,1.083h0A1.083,1.083,0,0,0,215.069,315.452Z" transform="translate(-139.394 -241.87)" fill="#e0e0e0"/><path d="M215.042,315.352a.787.787,0,0,1-.364-.06,1.087,1.087,0,0,1-.7-.8,1.115,1.115,0,0,1,.921-1.331c.7-.028,1.5,0,2.414,0l15.344.037-.083.074c.755-6.122,1.654-13.359,2.644-21.411a1.667,1.667,0,0,1,1.018-1.2,3.74,3.74,0,0,1,.774-.161l.765-.129,3.1-.5,6.389-1.046,6.62-1.069,3.381-.548,1.709-.281.857-.138a4.254,4.254,0,0,1,.894-.1,1.677,1.677,0,0,1,1.451,1.156,1.976,1.976,0,0,1,.028.954l-.138.894q-.267,1.787-.534,3.552c-.355,2.345-.7,4.662-1.05,6.933s-.682,4.5-1.009,6.679l-.249,1.622c-.041.272-.078.539-.12.806a2.4,2.4,0,0,1-.226.815,1.93,1.93,0,0,1-1.3,1.009l-1.557.309-21.72,4.275h0l-14.105-.207-3.81-.069-1.027-.023h.99l3.814.023,14.105.134h0l21.71-4.33,1.552-.313a1.7,1.7,0,0,0,1.152-.889,2.077,2.077,0,0,0,.2-.746l.124-.806c.078-.539.161-1.083.244-1.626l1-6.679q.511-3.4,1.046-6.91.263-1.76.534-3.552l.134-.894a1.681,1.681,0,0,0,0-.843,1.428,1.428,0,0,0-1.239-.99,4.149,4.149,0,0,0-.834.092l-.861.143-1.7.276-3.386.548-6.615,1.078-6.389,1.036-3.1.5-.765.124a3.489,3.489,0,0,0-.732.152,1.419,1.419,0,0,0-.875,1.036c-1.013,8.025-1.926,15.271-2.695,21.388v.074h-.078l-15.344-.111c-.921,0-1.718-.028-2.4,0a1.057,1.057,0,0,0-.235,2.031A1.412,1.412,0,0,0,215.042,315.352Z" transform="translate(-139.366 -241.769)" fill="#263238"/><path d="M261.16,296.77c.065,0-.571,5.56-1.423,12.405s-1.594,12.387-1.663,12.378.576-5.56,1.428-12.405S261.1,296.761,261.16,296.77Z" transform="translate(-163.157 -247.206)" fill="#263238"/><path d="M286.918,314.056a1.669,1.669,0,1,0,2.939,1.41,1.841,1.841,0,0,0-.594-2.529A1.86,1.86,0,0,0,286.918,314.056Z" transform="translate(-178.586 -255.854)" fill="#fff"/></g><g transform="translate(263.86 148.548)"><path d="M646.021,296.65a.7.7,0,0,1-.046.175l-.166.5c-.147.438-.359,1.083-.659,1.912-.58,1.658-1.456,4.049-2.612,6.974a159.779,159.779,0,0,1-10.664,22.111,49.348,49.348,0,0,0-3.045,6.26,28.345,28.345,0,0,0-1.631,6.274,44.836,44.836,0,0,0,0,10.987c.336,3.123.788,5.629,1.078,7.37.147.852.263,1.525.345,1.995.037.217.064.387.083.516a1.066,1.066,0,0,1,.023.18,1.2,1.2,0,0,1-.046-.175c-.028-.124-.064-.295-.106-.516-.092-.461-.226-1.133-.392-1.985-.318-1.727-.8-4.229-1.156-7.37A44.356,44.356,0,0,1,627,340.8a28.245,28.245,0,0,1,1.626-6.325,48.943,48.943,0,0,1,3.059-6.311,166.371,166.371,0,0,0,10.71-22.061c1.179-2.911,2.078-5.293,2.686-6.942.3-.815.539-1.451.7-1.9l.189-.493A1.042,1.042,0,0,1,646.021,296.65Z" transform="translate(-583.467 -283.342)" fill="#263238"/><path d="M642.194,356.62a1.887,1.887,0,0,1-.147.267l-.461.742c-.405.645-1.009,1.566-1.755,2.7-1.493,2.271-3.621,5.362-5.763,8.909-1.059,1.778-2,3.51-2.8,5.118s-1.428,3.1-1.93,4.353-.871,2.3-1.1,3.017c-.12.341-.212.617-.286.829a1.3,1.3,0,0,1-.115.281,1.229,1.229,0,0,1,.069-.295c.06-.217.143-.5.24-.843.207-.732.562-1.773,1.032-3.049s1.1-2.764,1.889-4.39,1.727-3.363,2.8-5.146c2.142-3.556,4.3-6.633,5.823-8.881l1.82-2.653.5-.719A1.487,1.487,0,0,1,642.194,356.62Z" transform="translate(-584.098 -315.687)" fill="#263238"/><path d="M647.1,293.278c.115-1.124-1.1-2.243-2.161-2.639a5.942,5.942,0,0,0-3.344,0,17.122,17.122,0,0,0-12.838,13.4,83.592,83.592,0,0,1,9.107-3.851l-.525.152a10.627,10.627,0,0,0,7.191-5.261,5.7,5.7,0,0,1,.963-1.474,1.423,1.423,0,0,1,1.617-.322" transform="translate(-584.594 -279.97)" fill="#455a64"/><path d="M668.6,293.767a13.778,13.778,0,0,1,10.079-2.262,12.055,12.055,0,0,1,8.379,5.9,10.705,10.705,0,0,1,.051,10.134c-1.631-3.386-3.377-6.91-6.408-9.13a5.6,5.6,0,0,1-1.916-1.778c-.461-.921-.272-2.031-.673-2.971-.488-1.156-1.843-1.5-3.091-1.562s-4.892,1.092-6.421,1.649" transform="translate(-606.082 -280.468)" fill="#455a64"/><path d="M668.43,296.2c3.013-.894,6.421.58,8.476,2.838a14.83,14.83,0,0,1,3.446,8.319,42.064,42.064,0,0,1-.24,9.13,38.072,38.072,0,0,1-5.191-11.516,25.341,25.341,0,0,0-1.709-5.463,6.749,6.749,0,0,0-4.782-3.312" transform="translate(-605.99 -282.956)" fill="#455a64"/><path d="M666.419,281.068A7.677,7.677,0,0,0,670.5,274.8a7.96,7.96,0,0,0-2.921-7.039,8.527,8.527,0,0,0-2.248,8.909c.511,1.451,1.437,2.9,1.092,4.4" transform="translate(-604.081 -267.76)" fill="#455a64"/><path d="M601.26,365.861a2.057,2.057,0,0,1-.152-.359c-.1-.24-.212-.6-.4-1.05-.35-.921-.921-2.211-1.645-3.782a98.12,98.12,0,0,0-6.8-11.783A94.438,94.438,0,0,0,584,338.074a25.9,25.9,0,0,0-2.957-2.865,7.438,7.438,0,0,0-.921-.636,2.584,2.584,0,0,1-.341-.193,3.36,3.36,0,0,1,.364.147,7.127,7.127,0,0,1,.954.608,23.88,23.88,0,0,1,3.022,2.824,87.385,87.385,0,0,1,8.338,10.793,90.1,90.1,0,0,1,6.772,11.843c.728,1.589,1.258,2.9,1.58,3.823.175.461.276.82.359,1.064a2.256,2.256,0,0,1,.092.378Z" transform="translate(-558.177 -303.691)" fill="#263238"/><path d="M622.949,440.147H606.486L603.92,421.09h22.093Z" transform="translate(-571.197 -350.458)" fill="#0a7fbc"/><path d="M667.172,364.859a10.362,10.362,0,0,0-9.862-5.583,3.036,3.036,0,0,1,1.635,2.174,18.448,18.448,0,0,1,.249,2.81c.355,4.51,3.257,8.356,6.039,11.917a58.406,58.406,0,0,0,6.269,7.168C671.222,376.933,670.816,370.138,667.172,364.859Z" transform="translate(-599.993 -317.104)" fill="#455a64"/><path d="M657.31,356.181a14.883,14.883,0,0,1,8.854-2.764,35.651,35.651,0,0,1,9.3,1.419,16.251,16.251,0,0,1,5.256,2.036,5.991,5.991,0,0,1,2.842,4.648c-2.584-2.842-6.748-3.39-10.438-4.464-2.5-.723-4.911-1.764-7.458-2.3a13.225,13.225,0,0,0-8.352,1.382" transform="translate(-599.993 -313.958)" fill="#455a64"/><path d="M657.556,347.77c-1.092-1.147-.488-3.828.461-5.09a8.208,8.208,0,0,1,3.957-2.506,27.468,27.468,0,0,1,6.067-1.414,6.247,6.247,0,0,1-1.921,3.377,18.374,18.374,0,0,1-3.2,2.3l-5.376,3.326" transform="translate(-599.81 -306.054)" fill="#455a64"/><path d="M626.793,354.042c-3.119,1.382-5.528,3.92-7.863,6.408a34.7,34.7,0,0,0,9.816-4.063,12.964,12.964,0,0,1,3.787-1.87,5.011,5.011,0,0,1,4.081,1.262C634.657,352.895,629.912,352.66,626.793,354.042Z" transform="translate(-579.293 -313.855)" fill="#455a64"/><path d="M632.8,377.694c1.746-4.008,1.009-8.868,3.225-12.631,1.7-2.884,4.832-4.607,7.951-5.813a9.465,9.465,0,0,1-.539,6.693,21.445,21.445,0,0,1-3.906,5.606c-2.124,2.345-4.431,4.514-6.735,6.684" transform="translate(-586.773 -317.105)" fill="#455a64"/><rect width="24.622" height="4.289" transform="translate(31.207 70.632)" fill="#1395d8"/><path d="M624.432,430.55c0,.069-5.33.12-11.9.12s-11.9-.051-11.9-.12,5.33-.12,11.9-.12S624.432,430.485,624.432,430.55Z" transform="translate(-569.423 -355.496)" fill="#263238"/><path d="M645.882,288.214a27.3,27.3,0,0,0-2.861-4.307,9.152,9.152,0,0,0-4.206-2.9c-2.22-.65-4.606-.134-6.818.525a54.578,54.578,0,0,0-7.568,2.884,15,15,0,0,0,10.061.18,11.349,11.349,0,0,1,5.118-.3c2.165.244,4.874,2.248,6.274,3.915" transform="translate(-582.259 -274.745)" fill="#455a64"/><path d="M537.7,343.476c-3.879,4.938-5.173,11.516-4.736,17.8A42.651,42.651,0,0,1,546.729,339.9c2.534-2.1,5.767-3.768,8.9-3.768C549.18,335.571,541.69,338.381,537.7,343.476Z" transform="translate(-532.884 -304.597)" fill="#455a64"/><path d="M548.343,330.6a12.441,12.441,0,0,0-5.933,2.483c-2.736,1.879-5.307,4.252-6.5,7.37a22.779,22.779,0,0,1,19.96-7.882A14.631,14.631,0,0,0,548.343,330.6Z" transform="translate(-534.516 -301.64)" fill="#455a64"/><path d="M573.543,312.691a4.186,4.186,0,0,0-.9,6.638,18.716,18.716,0,0,0,2.621,2.506c.8-3.519,1.75-7.2,2.547-10.715A11.373,11.373,0,0,0,573.543,312.691Z" transform="translate(-553.654 -291.146)" fill="#455a64"/><path d="M586.381,310.785a10.513,10.513,0,0,0-4.026,4.381c-.825,1.843-1.166,4.146-.129,5.869a150.57,150.57,0,0,1,9.6-12.825A31.33,31.33,0,0,0,586.381,310.785Z" transform="translate(-559.149 -289.577)" fill="#455a64"/><path d="M593.437,326.885a12.079,12.079,0,0,0-10.277,4.505,10.024,10.024,0,0,1,5.528-1.046,132.228,132.228,0,0,1,14.183,2.63A12.074,12.074,0,0,0,593.437,326.885Z" transform="translate(-560 -299.633)" fill="#455a64"/><path d="M573.732,336.05c-3.658.2-6.855,3.017-8.13,6.449a14.962,14.962,0,0,0,.539,10.715,33.83,33.83,0,0,0,6.03,9.121A82.218,82.218,0,0,0,575.1,349.8,31.583,31.583,0,0,0,573.732,336.05Z" transform="translate(-550.121 -304.592)" fill="#455a64"/><g transform="translate(0 18.633)" opacity="0.3"><path d="M537.7,343.476c-3.879,4.938-5.173,11.516-4.736,17.8A42.651,42.651,0,0,1,546.729,339.9c2.534-2.1,5.767-3.768,8.9-3.768C549.18,335.571,541.69,338.381,537.7,343.476Z" transform="translate(-532.884 -323.23)"/><path d="M548.343,330.6a12.441,12.441,0,0,0-5.933,2.483c-2.736,1.879-5.307,4.252-6.5,7.37a22.779,22.779,0,0,1,19.96-7.882A14.631,14.631,0,0,0,548.343,330.6Z" transform="translate(-534.516 -320.273)"/><path d="M573.543,312.691a4.186,4.186,0,0,0-.9,6.638,18.716,18.716,0,0,0,2.621,2.506c.8-3.519,1.75-7.2,2.547-10.715A11.373,11.373,0,0,0,573.543,312.691Z" transform="translate(-553.654 -309.779)"/><path d="M586.381,310.785a10.513,10.513,0,0,0-4.026,4.381c-.825,1.843-1.166,4.146-.129,5.869a150.57,150.57,0,0,1,9.6-12.825A31.33,31.33,0,0,0,586.381,310.785Z" transform="translate(-559.149 -308.21)"/><path d="M593.437,326.885a12.079,12.079,0,0,0-10.277,4.505,10.024,10.024,0,0,1,5.528-1.046,132.228,132.228,0,0,1,14.183,2.63A12.074,12.074,0,0,0,593.437,326.885Z" transform="translate(-560 -318.267)"/><path d="M573.732,336.05c-3.658.2-6.855,3.017-8.13,6.449a14.962,14.962,0,0,0,.539,10.715,33.83,33.83,0,0,0,6.03,9.121A82.218,82.218,0,0,0,575.1,349.8,31.583,31.583,0,0,0,573.732,336.05Z" transform="translate(-550.121 -323.225)"/></g><g transform="translate(39.637 32.706)" opacity="0.2"><path d="M667.172,364.859a10.362,10.362,0,0,0-9.862-5.583,3.036,3.036,0,0,1,1.635,2.174,18.448,18.448,0,0,1,.249,2.81c.355,4.51,3.257,8.356,6.039,11.917a58.406,58.406,0,0,0,6.269,7.168C671.222,376.933,670.816,370.138,667.172,364.859Z" transform="translate(-639.63 -349.81)"/><path d="M657.31,356.181a14.883,14.883,0,0,1,8.854-2.764,35.651,35.651,0,0,1,9.3,1.419,16.251,16.251,0,0,1,5.256,2.036,5.991,5.991,0,0,1,2.842,4.648c-2.584-2.842-6.748-3.39-10.438-4.464-2.5-.723-4.911-1.764-7.458-2.3a13.225,13.225,0,0,0-8.352,1.382" transform="translate(-639.63 -346.664)"/><path d="M657.556,347.77c-1.092-1.147-.488-3.828.461-5.09a8.208,8.208,0,0,1,3.957-2.506,27.468,27.468,0,0,1,6.067-1.414,6.247,6.247,0,0,1-1.921,3.377,18.374,18.374,0,0,1-3.2,2.3l-5.376,3.326" transform="translate(-639.448 -338.76)"/><path d="M626.793,354.042c-3.119,1.382-5.528,3.92-7.863,6.408a34.7,34.7,0,0,0,9.816-4.063,12.964,12.964,0,0,1,3.787-1.87,5.011,5.011,0,0,1,4.081,1.262C634.657,352.895,629.912,352.66,626.793,354.042Z" transform="translate(-618.93 -346.561)"/><path d="M632.8,377.694c1.746-4.008,1.009-8.868,3.225-12.631,1.7-2.884,4.832-4.607,7.951-5.813a9.465,9.465,0,0,1-.539,6.693,21.445,21.445,0,0,1-3.906,5.606c-2.124,2.345-4.431,4.514-6.735,6.684" transform="translate(-626.411 -349.811)"/></g></g><g transform="translate(112.685 125.728)"><path d="M251.609,218.45H207.3a2.3,2.3,0,0,0-2.3,2.3v20.186a2.3,2.3,0,0,0,2.3,2.3h18.587l3.948,5.067,3.294-5.067h18.481a2.3,2.3,0,0,0,2.3-2.3V220.758a2.3,2.3,0,0,0-2.308-2.308Z" transform="translate(-204.866 -218.346)" fill="#fff"/><path d="M251.451,218.328h.221a2.189,2.189,0,0,1,.631.143,2.276,2.276,0,0,1,.871.59,2.3,2.3,0,0,1,.6,1.317c.042,2.2.032,5.394.046,9.443v10.461a5.724,5.724,0,0,1-.046,1,2.326,2.326,0,0,1-.419.944,2.391,2.391,0,0,1-1.82.981H232.947l.092-.051-3.289,5.067-.088.134-.1-.124-3.952-5.067.092.046H206.865a2.428,2.428,0,0,1-2.091-1.875,4.311,4.311,0,0,1-.06-.963V220.636a2.414,2.414,0,0,1,1.313-2.147,2.377,2.377,0,0,1,.829-.253c.29-.028.557,0,.834,0h21.978l15.934.037,4.33.023h0l-4.33.023-15.934.037H206.888a2.064,2.064,0,0,0-.751.23,2.2,2.2,0,0,0-1.188,1.949v19.757a4.221,4.221,0,0,0,.055.921,2.2,2.2,0,0,0,1.036,1.4,2.118,2.118,0,0,0,.848.281c.295.028.627,0,.921,0h17.965l.032.046,3.948,5.067h-.184l3.294-5.067.032-.051h18.643a2.216,2.216,0,0,0,2.073-1.769,5.635,5.635,0,0,0,.046-.972V229.692c0-4.045.032-7.255,0-9.439a2.3,2.3,0,0,0-1.419-1.879,2.764,2.764,0,0,0-.788-.046Z" transform="translate(-204.708 -218.223)" fill="#263238"/><rect width="5.592" height="4.33" rx="1.28" transform="translate(7.827 4.517)" fill="#40beff"/><path d="M221.887,228.164l2.128,2.271a.861.861,0,0,0,.461.318.673.673,0,0,0,.622-.24c.387-.4.755-.806,1.133-1.207s.719-.76,1.073-1.142a.06.06,0,0,0-.083-.083l-2.031,2.165a1.783,1.783,0,0,1-.322.322c-.3.193-.562,0-.765-.217-.387-.405-.769-.815-1.152-1.225l-.977-1.046c-.051-.051-.134.028-.083.083Z" transform="translate(-213.968 -223.531)" fill="#fff"/><path d="M221.737,234.657l1.709-1.944.24-.272c.051-.055-.032-.138-.078-.083-.571.65-1.142,1.294-1.709,1.944l-.244.272C221.608,234.63,221.686,234.713,221.737,234.657Z" transform="translate(-213.84 -225.837)" fill="#fff"/><path d="M231.4,234.5l-1.6-1.843-.23-.267c-.051-.06-.129,0-.083.078l1.6,1.843c.078.092.157.18.23.272S231.446,234.557,231.4,234.5Z" transform="translate(-218.063 -225.852)" fill="#fff"/><path d="M240.254,233.131V231.7l-.7,1.179H239.3l-.7-1.152v1.4h-.521V230.74h.461l.884,1.5.88-1.488h.461v2.391Z" transform="translate(-222.707 -224.974)" fill="#263238"/><path d="M246.75,232.974h-1.382a.488.488,0,0,0,.525.369.617.617,0,0,0,.461-.175l.286.309a.967.967,0,0,1-.76.295.954.954,0,0,1-1.05-.944.961.961,0,1,1,1.921.028Zm-1.382-.309h.921a.461.461,0,1,0-.921,0Z" transform="translate(-226.347 -225.587)" fill="#263238"/><path d="M249.36,233.575l.18-.382a1.239,1.239,0,0,0,.636.18c.249,0,.341-.069.341-.17,0-.3-1.11,0-1.11-.728,0-.346.313-.594.848-.594a1.534,1.534,0,0,1,.709.161l-.18.378a1.05,1.05,0,0,0-.53-.134c-.24,0-.341.074-.341.17,0,.313,1.11,0,1.11.732,0,.341-.318.585-.866.585A1.548,1.548,0,0,1,249.36,233.575Z" transform="translate(-228.791 -225.589)" fill="#263238"/><path d="M253.3,233.575l.175-.382a1.266,1.266,0,0,0,.64.18c.244,0,.336-.069.336-.17,0-.3-1.11,0-1.11-.728,0-.345.313-.594.852-.594a1.5,1.5,0,0,1,.7.161l-.175.378a1.064,1.064,0,0,0-.53-.134c-.24,0-.341.074-.341.17,0,.313,1.11,0,1.11.732,0,.341-.318.585-.871.585A1.543,1.543,0,0,1,253.3,233.575Z" transform="translate(-230.916 -225.589)" fill="#263238"/><path d="M259.106,232.695v1.05h-.5v-.23a.594.594,0,0,1-.557.258c-.433,0-.686-.24-.686-.557s.226-.548.788-.548h.428c0-.23-.138-.364-.424-.364a.889.889,0,0,0-.53.17l-.189-.373a1.405,1.405,0,0,1,.792-.221C258.779,231.879,259.106,232.142,259.106,232.695Zm-.534.461v-.189h-.364c-.249,0-.332.092-.332.217s.115.221.3.221a.392.392,0,0,0,.4-.24Z" transform="translate(-233.106 -225.589)" fill="#263238"/><path d="M263.982,231.906v1.529a.921.921,0,0,1-1.032,1,1.529,1.529,0,0,1-.921-.253l.212-.382a1.115,1.115,0,0,0,.649.207c.378,0,.539-.17.539-.5v-.078a.742.742,0,0,1-.58.23.889.889,0,0,1,0-1.778.742.742,0,0,1,.608.263v-.235Zm-.525.861a.484.484,0,1,0-.461.461A.461.461,0,0,0,263.457,232.768Z" transform="translate(-235.587 -225.588)" fill="#263238"/><path d="M269.066,232.974h-1.382a.488.488,0,0,0,.525.369.613.613,0,0,0,.461-.175l.286.309a.967.967,0,0,1-.76.295.954.954,0,0,1-1.046-.944.967.967,0,1,1,1.935,0A.99.99,0,0,0,269.066,232.974Zm-1.382-.309h.921a.461.461,0,1,0-.921,0Z" transform="translate(-238.386 -225.587)" fill="#263238"/><path d="M271.71,233.575l.18-.382a1.253,1.253,0,0,0,.64.18c.244,0,.336-.069.336-.17,0-.3-1.11,0-1.11-.728,0-.345.313-.594.852-.594a1.516,1.516,0,0,1,.7.161l-.175.378a1.073,1.073,0,0,0-.53-.134c-.24,0-.345.074-.345.17,0,.313,1.11,0,1.11.732,0,.341-.313.585-.866.585A1.562,1.562,0,0,1,271.71,233.575Z" transform="translate(-240.846 -225.589)" fill="#263238"/><path d="M277.888,231.722a1.308,1.308,0,1,1,1.308,1.235,1.239,1.239,0,0,1-1.308-1.235Zm2.054,0a.751.751,0,1,0-.746.765.732.732,0,0,0,.746-.765Z" transform="translate(-244.176 -224.758)" fill="#263238"/><path d="M284.575,231.181h-.765v-.461h2.082v.461h-.765v1.939h-.553Z" transform="translate(-247.372 -224.963)" fill="#263238"/><path d="M291.064,231.606c0,.534-.4.866-1.041.866h-.461v.659H289V230.74h1.032C290.663,230.74,291.064,231.072,291.064,231.606Zm-.562,0c0-.263-.17-.415-.507-.415h-.461v.829h.461C290.331,232.021,290.5,231.869,290.5,231.606Z" transform="translate(-250.171 -224.974)" fill="#263238"/><path d="M221,246.968c0-2.257,1.253-3.538,2.93-3.538s2.934,1.281,2.934,3.538-1.244,3.538-2.934,3.538S221,249.22,221,246.968Zm4.27,0c0-1.552-.548-2.2-1.34-2.2s-1.327.645-1.327,2.2.548,2.2,1.327,2.2,1.345-.645,1.345-2.2Z" transform="translate(-213.495 -231.819)" fill="#263238"/><path d="M241.093,248.432c0,1.29-1.152,2.1-2.888,2.1s-2.874-.811-2.874-2.1a1.741,1.741,0,0,1,1.036-1.612,1.585,1.585,0,0,1-.792-1.382c0-1.2,1.073-1.958,2.63-1.958s2.644.755,2.644,1.958a1.585,1.585,0,0,1-.8,1.382,1.727,1.727,0,0,1,1.046,1.612Zm-1.6-.051c0-.6-.5-.977-1.29-.977s-1.271.373-1.271.977.488.99,1.271.99S239.494,248.989,239.494,248.381Zm-2.345-2.9c0,.521.41.843,1.055.843s1.073-.322,1.073-.843-.415-.838-1.073-.838S237.149,244.945,237.149,245.479Z" transform="translate(-221.224 -231.846)" fill="#263238"/><path d="M255.1,248.432c0,1.29-1.156,2.1-2.893,2.1s-2.874-.811-2.874-2.1a1.741,1.741,0,0,1,1.036-1.612,1.585,1.585,0,0,1-.792-1.382c0-1.2,1.078-1.958,2.63-1.958s2.649.755,2.649,1.958a1.594,1.594,0,0,1-.8,1.382,1.732,1.732,0,0,1,1.046,1.612Zm-1.6-.051c0-.6-.5-.977-1.29-.977s-1.271.373-1.271.977.488.99,1.271.99S253.494,248.989,253.494,248.381Zm-2.345-2.9c0,.521.41.843,1.055.843s1.073-.322,1.073-.843-.415-.838-1.073-.838S251.149,244.945,251.149,245.479Z" transform="translate(-228.775 -231.846)" fill="#263238"/><path d="M265.677,243.69v6.841h-1.585v-5.569H262.71V243.69Z" transform="translate(-235.991 -231.959)" fill="#263238"/><path d="M276.412,249.1v1.29h-5.168v-1.027l2.635-2.492c.608-.576.714-.921.714-1.262,0-.534-.368-.848-1.092-.848a1.677,1.677,0,0,0-1.419.682l-1.152-.742a3.178,3.178,0,0,1,2.718-1.271c1.52,0,2.538.783,2.538,2.022a2.723,2.723,0,0,1-1.142,2.16l-1.575,1.488Z" transform="translate(-240.425 -231.813)" fill="#263238"/><path d="M288.845,248.439c0,1.152-.889,2.207-2.833,2.207a4.713,4.713,0,0,1-2.612-.732l.617-1.212a3.308,3.308,0,0,0,1.953.617c.792,0,1.281-.322,1.281-.88s-.382-.843-1.281-.843h-.723v-1.046l1.41-1.589h-2.911V243.69h4.786v1.027l-1.543,1.755A1.947,1.947,0,0,1,288.845,248.439Z" transform="translate(-247.151 -231.959)" fill="#263238"/></g></g></g></svg>