<svg xmlns="http://www.w3.org/2000/svg" xmlns:xlink="http://www.w3.org/1999/xlink" width="424.599" height="424.599" viewBox="0 0 424.599 424.599"><defs><filter id="a" x="0" y="0" width="424.599" height="424.599" filterUnits="userSpaceOnUse"><feOffset dy="3" input="SourceAlpha"/><feGaussianBlur stdDeviation="3" result="b"/><feFlood flood-opacity="0.161"/><feComposite operator="in" in2="b"/><feComposite in="SourceGraphic"/></filter></defs><g transform="translate(-738.051 -2081.654)"><g transform="matrix(1, 0, 0, 1, 738.05, 2081.65)" filter="url(#a)"><rect width="360" height="360" rx="20" transform="translate(9 56.1) rotate(-8)" fill="#0041af"/></g><text transform="translate(831.267 2408.606) rotate(-9)" fill="#fff" font-size="45" font-family="SegoeUI-Bold, Segoe UI" font-weight="700"><tspan x="0" y="0">Identify your</tspan><tspan x="0" y="50">Risk appetite</tspan></text><g transform="translate(763.599 2129.343) rotate(-11)"><g transform="translate(40.298 38.372)"><path d="M54.194,187.747a45.577,45.577,0,0,0,26.263,35.63c30.239,13.69,83.351,35.56,102.332,29.678,27.152-8.409,82.83-163.441,73.741-191.3s-196-9.024-204.362,13.958C45.786,93.278,49.434,151.582,54.194,187.747Z" transform="translate(-48.748 -47.84)" fill="#407bff"/><path d="M54.194,187.747a45.577,45.577,0,0,0,26.263,35.63c30.239,13.69,83.351,35.56,102.332,29.678,27.152-8.409,82.83-163.441,73.741-191.3s-196-9.024-204.362,13.958C45.786,93.278,49.434,151.582,54.194,187.747Z" transform="translate(-48.748 -47.84)" fill="#fff" opacity="0.7"/></g><g transform="translate(203.064 153.781)"><path d="M415.024,326.2h0a.045.045,0,0,0,0-.045h-.045a46.431,46.431,0,0,0-2.442,7.644,72.391,72.391,0,0,0-1.345,7.942L411,343.732c-.03.333-.065.665-.089.993l-.055.993c-.03.67-.069,1.34-.089,2.01v2.015l.025.993c0,.333.04.67.06.993.055.67.094,1.34.154,1.986.129,1.335.328,2.661.536,3.971a.045.045,0,0,0,.035.03.035.035,0,0,0,.035-.035h0c0-.67-.03-1.335-.045-1.986s-.079-1.33-.07-1.985,0-1.33,0-1.985v-3.971l.055-1.985v-.993c0-.333.04-.665.06-.993l.119-1.985a71.015,71.015,0,0,1,1.137-7.9,45.48,45.48,0,0,1,2.154-7.689Z" transform="translate(-393.838 -303.419)" fill="#263238"/><path d="M417.156,347.21a.035.035,0,0,0,0-.04.03.03,0,0,0-.045,0,46.749,46.749,0,0,0-1.42,5.068,45.869,45.869,0,0,0-.839,5.207c-.179,1.742-.372,3.475-.4,5.247a43.351,43.351,0,0,0,.184,5.262.04.04,0,0,0,.074,0c.2-1.747.323-3.475.447-5.232s.139-3.475.253-5.232a46.921,46.921,0,0,1,.62-5.187A47.755,47.755,0,0,1,417.156,347.21Z" transform="translate(-395.686 -313.995)" fill="#263238"/><path d="M424.256,354.649a.035.035,0,0,0-.05,0,17.868,17.868,0,0,0-3.867,3.375,15.851,15.851,0,0,0-1.489,2.1l-.313.586-.243.611c-.084.2-.149.412-.213.62s-.129.412-.189.62a25.164,25.164,0,0,0-.8,5.1,29.606,29.606,0,0,0,.194,5.137.035.035,0,0,0,.035.03.04.04,0,0,0,.035-.035l.442-5.083a44.209,44.209,0,0,1,.645-5.013c.045-.208.1-.407.154-.611a5.537,5.537,0,0,1,.179-.6l.208-.591.263-.556a15.7,15.7,0,0,1,1.385-2.1,17.5,17.5,0,0,1,3.633-3.529h0a.035.035,0,0,0-.01-.065Z" transform="translate(-397.004 -317.762)" fill="#263238"/><path d="M422.616,367.817a5.678,5.678,0,0,0-1.757,2.115,12.377,12.377,0,0,0-.993,2.591c-.069.218-.124.442-.174.67l-.159.675a11.7,11.7,0,0,0-.174,1.375c0,.462,0,.923,0,1.38a12.84,12.84,0,0,0,.179,1.375.045.045,0,0,0,.03.03.04.04,0,0,0,.045-.03,13.075,13.075,0,0,0,.243-1.35c.07-.452.139-.893.194-1.34s.124-.884.159-1.33a9.978,9.978,0,0,1,.189-1.33,12.052,12.052,0,0,1,.754-2.561,5.635,5.635,0,0,1,1.489-2.209h0a.035.035,0,0,0-.045-.055Z" transform="translate(-398.164 -324.397)" fill="#263238"/><path d="M406.05,357.7c-.189-2.254-.561-4.492-.913-6.726s-.74-4.467-1.152-6.686-.864-4.438-1.345-6.646a.03.03,0,0,0-.04-.025s-.03,0-.03.04q.581,3.336,1.067,6.691t.943,6.706c.273,2.239.5,4.467.769,6.721l.829,6.721a.035.035,0,0,0,.03.035.04.04,0,0,0,.04-.035c0-.566,0-1.132.04-1.7s-.025-1.132-.035-1.7C406.258,359.96,406.139,358.833,406.05,357.7Z" transform="translate(-389.708 -309.189)" fill="#263238"/><path d="M401.043,362.768c-.124-.893-.288-1.782-.457-2.67l-.318-1.3c-.1-.437-.2-.879-.333-1.31a36.731,36.731,0,0,0-1.722-5.142l-.273-.62-.3-.606c-.189-.412-.422-.8-.64-1.2a10.151,10.151,0,0,0-1.628-2.159.045.045,0,0,0-.05,0,.035.035,0,0,0,0,.05h0a9.976,9.976,0,0,1,1.489,2.209c.194.4.4.794.571,1.211l.258.615.238.625a36.922,36.922,0,0,1,1.489,5.137c.2.869.342,1.752.5,2.631l.208,1.32c.079.442.174.879.233,1.32.144.884.3,1.762.457,2.646s.3,1.772.5,2.656a.045.045,0,0,0,.035.03.035.035,0,0,0,.035-.035c0-.9,0-1.807-.06-2.705S401.137,363.676,401.043,362.768Z" transform="translate(-386.051 -314.295)" fill="#263238"/><path d="M399.749,371.359c-.417-1.186-.9-2.343-1.43-3.475a31.066,31.066,0,0,0-1.8-3.3.035.035,0,1,0-.06.035,31.643,31.643,0,0,1,1.534,3.4c.457,1.157.874,2.328,1.216,3.514s.606,2.4.923,3.6.6,2.4.968,3.609a.04.04,0,0,0,.035.025.035.035,0,0,0,.035-.035,18.009,18.009,0,0,0-.347-3.758A23.606,23.606,0,0,0,399.749,371.359Z" transform="translate(-386.629 -322.762)" fill="#263238"/><path d="M398.422,381.047a8.056,8.056,0,0,0-.993-2.085,8.7,8.7,0,0,0-1.444-1.8,6.866,6.866,0,0,0-.918-.695,3.832,3.832,0,0,0-1.047-.5.035.035,0,0,0-.04,0,.03.03,0,0,0,0,.045h0a5.138,5.138,0,0,1,1.727,1.345,7.982,7.982,0,0,1,1.206,1.827c.342.645.521,1.365.819,2.03.134.342.263.69.412,1.032a8.636,8.636,0,0,0,.457,1.042h0a.059.059,0,0,0,.069-.035,8.091,8.091,0,0,0-.045-1.152A10.293,10.293,0,0,0,398.422,381.047Z" transform="translate(-385.377 -328.503)" fill="#263238"/><path d="M396.224,319.911a6.453,6.453,0,0,1-4.557-4.835c-.854-3.971,1.9-2.278-.566-8.538s-1.9-7.684-1.042-9.486,1.325-1.236,2.085,1.137,3.509,6.071,4.552,13S396.224,319.911,396.224,319.911Z" transform="translate(-383.039 -288.225)" fill="#407bff"/><path d="M415.329,305.3s-2.482-.849-2.561-5.5,1.8-3.7,2.09-9.486.665-9.868,1.708-9.962,3.792,2.849,4.74,9.3-1.231,10.722-3.127,12.618S415.329,305.3,415.329,305.3Z" transform="translate(-394.842 -280.346)" fill="#407bff"/><path d="M390.142,341.084a15.642,15.642,0,0,0-1.707-5.028c-1.142-1.613-3.6-3.038-5.217-6.165s-3.415-4.651-3.321-.189,2.09,6.736,4.557,8.25S390.142,341.084,390.142,341.084Z" transform="translate(-378.287 -303.799)" fill="#407bff"/><path d="M387.47,355.684a34.194,34.194,0,0,0-5.6-7.6c-3.316-3.226-5.956-4.84-5.023-3.226s2.085,1.519,3.7,4.363,1.137,4.934,3.415,6.547S387.47,355.684,387.47,355.684Z" transform="translate(-376.658 -312.517)" fill="#407bff"/><path d="M388.4,373.365c-.094-.283-.194-2.368-3.415-4.075s-6.264-1.047-5.882-.194,2.373,2.278,4.363,3.132A20.067,20.067,0,0,0,388.4,373.365Z" transform="translate(-377.875 -324.604)" fill="#407bff"/><path d="M416.649,338.13s-1.425-1.8-.665-5.594,2.482-2.849,4.363-4.84,1.519-2.278,3.415-4.363,3.609-3.226,4.368-2.373-.382,3.509-1.519,5.028-2.944,2.278-3.8,4.175-.5,4.934-2.656,6.354A9.781,9.781,0,0,1,416.649,338.13Z" transform="translate(-396.351 -300.657)" fill="#407bff"/><path d="M427.11,347.211s3.42-3.887,5.9-6.731,3.415-5.028,3.509-3.132.854,3.415-1.142,5.882S427.11,347.211,427.11,347.211Z" transform="translate(-402.067 -308.695)" fill="#407bff"/><path d="M423.48,361.957s-.1-1.519,5.311-5.028,7.684-4.174,7.113-2.75-2.939,2.844-5.5,5.405S423.48,361.957,423.48,361.957Z" transform="translate(-400.238 -317.177)" fill="#407bff"/><path d="M398.82,324.163a.5.5,0,0,1-.491-.409c-.013-.068-1.277-6.84-2.587-11.6-1.314-4.78-2.174-7.742-2.182-7.771a.5.5,0,1,1,.96-.279c.009.029.87,3,2.186,7.785,1.321,4.8,2.593,11.618,2.606,11.686a.5.5,0,0,1-.492.592Z" transform="translate(-385.412 -292.379)" fill="#263238"/><path d="M417.49,309.337a.5.5,0,0,1-.477-.649,120.323,120.323,0,0,0,3.052-11.768,22.766,22.766,0,0,0-.38-9.042c-.04-.193-.079-.376-.113-.549a.5.5,0,1,1,.98-.2c.034.171.072.352.112.542a23.655,23.655,0,0,1,.387,9.414,121.338,121.338,0,0,1-3.083,11.9A.5.5,0,0,1,417.49,309.337Z" transform="translate(-397.222 -283.813)" fill="#263238"/><path d="M391.7,344.379a.5.5,0,0,1-.433-.249,35.622,35.622,0,0,0-3.426-4.895c-.544-.646-1.049-1.205-1.538-1.746a14.767,14.767,0,0,1-3.193-4.554.5.5,0,0,1,.929-.371,14.023,14.023,0,0,0,3.007,4.254c.494.547,1.006,1.112,1.562,1.774a36.627,36.627,0,0,1,3.524,5.035.5.5,0,0,1-.432.751Z" transform="translate(-380.139 -306.738)" fill="#263238"/><path d="M417.551,340.753a.5.5,0,0,1-.494-.582c.032-.191.8-4.7,2.656-7.145.711-.936,1.68-2.055,2.707-3.239a45.252,45.252,0,0,0,4.093-5.155.5.5,0,0,1,.857.516,45.723,45.723,0,0,1-4.194,5.294c-1.016,1.172-1.975,2.279-2.666,3.189-1.705,2.245-2.459,6.66-2.466,6.7A.5.5,0,0,1,417.551,340.753Z" transform="translate(-397.252 -302.779)" fill="#263238"/><path d="M391.88,375.617a.5.5,0,0,1-.272-.081c-.032-.021-3.195-2.078-5.411-3.188a.5.5,0,1,1,.448-.894c2.268,1.136,5.378,3.159,5.509,3.245a.5.5,0,0,1-.273.919Z" transform="translate(-381.574 -326.455)" fill="#263238"/><path d="M410.877,407.165c-.213-5.758-6.612-9.595-6.612-9.595h-9.8s-6.4,3.837-6.612,9.595,7.247,26.854,7.247,26.854h8.528S411.091,412.918,410.877,407.165Z" transform="translate(-382.295 -339.383)" fill="#263238"/><path d="M394.467,397.07h9.8a.5.5,0,0,1,.257.071,18.121,18.121,0,0,1,3.328,2.719,11.272,11.272,0,0,1,3.526,7.286c.215,5.782-6.969,26.174-7.275,27.039a.5.5,0,0,1-.471.333H395.1a.5.5,0,0,1-.471-.333c-.306-.865-7.49-21.252-7.275-27.039a11.272,11.272,0,0,1,3.526-7.286,18.121,18.121,0,0,1,3.328-2.719A.5.5,0,0,1,394.467,397.07Zm9.655,1h-9.511a17.857,17.857,0,0,0-3.028,2.5,10.5,10.5,0,0,0-3.228,6.609c-.193,5.207,6.155,23.622,7.1,26.335h7.818c.947-2.714,7.3-21.133,7.1-26.335a10.5,10.5,0,0,0-3.228-6.609A17.857,17.857,0,0,0,404.122,398.07Z" transform="translate(-382.295 -339.383)" fill="#263238"/><path d="M410.779,386.17H398.27l1.444,5.659h9.62Z" transform="translate(-387.542 -333.642)" fill="#263238"/><path d="M398.27,385.67h12.509a.5.5,0,0,1,.484.624l-1.444,5.659a.5.5,0,0,1-.484.376h-9.62a.5.5,0,0,1-.484-.376l-1.444-5.659a.5.5,0,0,1,.484-.624Zm11.865,1H398.914l1.189,4.659h8.843Z" transform="translate(-387.542 -333.642)" fill="#263238"/></g><g transform="translate(110.337 190.684)"><g opacity="0.3"><path d="M286.788,407.048l-4.271-6.828a16.834,16.834,0,0,1-4.406-.039l-4.253,6.8-7.756-3.739,2.666-7.559a17.082,17.082,0,0,1-2.81-3.48l-7.868.9-1.917-8.4,7.35-2.554a16.8,16.8,0,0,1,1-4.639l-5.4-5.384,5.389-6.73,6.329,4a16.89,16.89,0,0,1,4.519-2.222l.812-7.326h8.614l.812,7.325a17,17,0,0,1,4.6,2.262l6.211-3.922,5.368,6.736-5.325,5.31a16.868,16.868,0,0,1,.994,4.829l7.142,2.483-1.917,8.4-7.774-.893a16.972,16.972,0,0,1-2.961,3.524l2.613,7.417Zm-3.767-7.907,4.139,6.617L293.3,402.8l-2.54-7.21.256-.223a15.981,15.981,0,0,0,3.186-3.788l.166-.275,7.518.864,1.518-6.652-6.939-2.412-.012-.342a15.879,15.879,0,0,0-1.059-5.154l-.117-.3,5.151-5.136-4.252-5.336-6.023,3.8-.274-.2a16.012,16.012,0,0,0-4.891-2.407l-.319-.094-.786-7.093h-6.823l-.786,7.092-.318.094a15.9,15.9,0,0,0-4.813,2.368l-.274.2-6.143-3.878-4.27,5.332,5.23,5.211-.119.305a15.812,15.812,0,0,0-1.068,4.971l-.017.336-7.137,2.48,1.518,6.657,7.623-.875.165.282a16.088,16.088,0,0,0,3.033,3.755l.244.223-2.587,7.335,6.142,2.962,4.128-6.6.328.053a15.837,15.837,0,0,0,4.759.043Zm-2.545-4.816a10.959,10.959,0,0,1,0-21.917h0a10.959,10.959,0,0,1,0,21.917Zm0-21.417,0,.5a9.959,9.959,0,1,0,9.962,9.957,9.893,9.893,0,0,0-9.962-9.957Z" transform="translate(-223.548 -357.536)"/><path d="M210.72,387.445l-3-4.79a12.743,12.743,0,0,1-1.346.079,12.067,12.067,0,0,1-1.569-.106l-2.983,4.768-5.657-2.721,1.872-5.312a11.9,11.9,0,0,1-1.857-2.3l-5.52.63-1.4-6.114,5.154-1.791a11.938,11.938,0,0,1,.67-3.094l-3.8-3.776,3.914-4.9,4.441,2.8a11.879,11.879,0,0,1,3.028-1.479l.569-5.142h6.266l.569,5.142a11.8,11.8,0,0,1,3.065,1.508l4.36-2.746,3.908,4.9-3.738,3.728a11.882,11.882,0,0,1,.661,3.214l5.014,1.739-1.4,6.12-5.461-.625a12.059,12.059,0,0,1-1.95,2.345l1.83,5.207Zm-2.49-5.865,2.863,4.576,4.038-1.945-1.755-4.994.253-.223a11.068,11.068,0,0,0,2.175-2.612l.166-.276,5.206.6,1-4.373-4.809-1.668-.012-.342a10.892,10.892,0,0,0-.726-3.541l-.117-.3,3.562-3.553-2.793-3.5-4.172,2.628-.274-.2a10.821,10.821,0,0,0-3.355-1.651l-.32-.094-.543-4.91h-4.475l-.543,4.91-.32.094a10.89,10.89,0,0,0-3.322,1.623l-.274.2-4.25-2.681-2.8,3.5,3.623,3.6-.12.306a10.947,10.947,0,0,0-.741,3.428l-.018.336-4.937,1.715,1,4.369,5.276-.6.164.283a10.9,10.9,0,0,0,2.079,2.577l.245.223-1.793,5.087,4.043,1.945,2.858-4.568.328.053a11.035,11.035,0,0,0,1.738.142,11.723,11.723,0,0,0,1.534-.109Zm-1.851-3.065a7.787,7.787,0,1,1,7.787-7.787A7.8,7.8,0,0,1,206.379,378.515Zm0-14.574a6.787,6.787,0,1,0,6.787,6.787A6.794,6.794,0,0,0,206.379,363.941Z" transform="translate(-189.85 -354.69)"/></g></g><g transform="translate(129.65 128.782)"><g transform="translate(0 19.384)" opacity="0.3"><path d="M14.3-.5A14.8,14.8,0,0,1,24.758,24.758,14.8,14.8,0,0,1,3.834,3.834,14.7,14.7,0,0,1,14.3-.5Zm0,28.591A13.8,13.8,0,1,0,.5,14.3,13.811,13.811,0,0,0,14.3,28.091Z" transform="translate(0 20.217) rotate(-45)"/><path d="M265.446,309.753a.5.5,0,0,1-.5-.5v-1.445a4.3,4.3,0,0,1-3.058-1.509,6.828,6.828,0,0,1-1.236-4.1.5.5,0,0,1,.415-.509l2.894-.5a.5.5,0,0,1,.584.481,7.922,7.922,0,0,0,.205,1.611l0,.02a1.582,1.582,0,0,0,.386.77.736.736,0,0,0,.529.195.514.514,0,0,1,.074,0,.423.423,0,0,0,.392-.177,1.357,1.357,0,0,0,.165-.676q0-.012,0-.024a2.526,2.526,0,0,0-.411-1.458,6.705,6.705,0,0,0-1.224-1.324l-.006-.005-1.747-1.489-.015-.013a11.816,11.816,0,0,1-1.115-1.182,4.956,4.956,0,0,1-.833-1.456l0-.005a5.388,5.388,0,0,1-.307-1.9,4.526,4.526,0,0,1,1.235-3.362l.022-.021a5.083,5.083,0,0,1,2.789-1.319V288.49a.5.5,0,0,1,.5-.5h.993a.5.5,0,0,1,.5.5v1.364a4.362,4.362,0,0,1,1.563.523l.013.008a3.571,3.571,0,0,1,1.253,1.288l0,.008a5.78,5.78,0,0,1,.587,1.6,11.234,11.234,0,0,1,.213,1.6.5.5,0,0,1-.426.525l-2.939.432a.5.5,0,0,1-.573-.485,8.881,8.881,0,0,0-.117-1.273l0-.016A1.49,1.49,0,0,0,266,293.4a.451.451,0,0,0-.375-.13.5.5,0,0,1-.068,0h-.006a.547.547,0,0,0-.45.236,1.163,1.163,0,0,0-.209.679c0,.009,0,.018,0,.027a1.9,1.9,0,0,0,.356,1.195,9.14,9.14,0,0,0,.958,1.037l1.7,1.484.008.007a11.913,11.913,0,0,1,1.306,1.394,6.876,6.876,0,0,1,1,1.718l0,.01a5.907,5.907,0,0,1,.38,2.162,4.937,4.937,0,0,1-.492,2.2,4.141,4.141,0,0,1-1.451,1.649,4.629,4.629,0,0,1-1.735.684v1.489a.5.5,0,0,1-.5.5l-.978,0Zm-3.771-7.151a5.508,5.508,0,0,0,1,3.073,3.52,3.52,0,0,0,2.8,1.167.467.467,0,0,0,.923-.024,3.623,3.623,0,0,0,1.722-.58,3.14,3.14,0,0,0,1.1-1.25,3.932,3.932,0,0,0,.391-1.76s0-.009,0-.014a4.911,4.911,0,0,0-.313-1.8,5.876,5.876,0,0,0-.853-1.463,10.913,10.913,0,0,0-1.192-1.273l-1.7-1.486-.011-.01a10.149,10.149,0,0,1-1.076-1.164l-.012-.015a2.908,2.908,0,0,1-.553-1.822,2.157,2.157,0,0,1,.387-1.244,1.547,1.547,0,0,1,1.256-.666,1.448,1.448,0,0,1,1.224.474q.016.018.031.038a2.493,2.493,0,0,1,.459,1.135c.046.279.08.561.1.844l1.929-.284c-.036-.336-.088-.671-.156-1a4.782,4.782,0,0,0-.483-1.318,2.569,2.569,0,0,0-.893-.918,3.357,3.357,0,0,0-1.574-.428.484.484,0,0,0-.964,0,4.083,4.083,0,0,0-2.615,1.082,3.522,3.522,0,0,0-.95,2.622q0,.021,0,.042a4.392,4.392,0,0,0,.249,1.567,3.959,3.959,0,0,0,.665,1.161,10.817,10.817,0,0,0,1.013,1.076l1.737,1.48a7.7,7.7,0,0,1,1.408,1.526l.008.012a3.521,3.521,0,0,1,.578,2.029,2.358,2.358,0,0,1-.3,1.191l-.017.029a1.419,1.419,0,0,1-1.191.644c-.039,0-.079,0-.119,0a1.732,1.732,0,0,1-1.231-.481l-.021-.021a2.581,2.581,0,0,1-.644-1.264,8.923,8.923,0,0,1-.2-1.229Z" transform="translate(-245.063 -278.832)"/></g><g transform="translate(71.177 0)" opacity="0.3"><path d="M9.247-.5A9.747,9.747,0,1,1-.5,9.247,9.758,9.758,0,0,1,9.247-.5Zm0,18.495A8.747,8.747,0,1,0,.5,9.247,8.757,8.757,0,0,0,9.247,17.995Z" transform="translate(0 4.283) rotate(-13.39)"/><path d="M391.97,252.537a.5.5,0,0,1-.5-.5v-.763a3.151,3.151,0,0,1-1.917-1.012.5.5,0,0,1-.037-.047,4.549,4.549,0,0,1-.82-2.79.5.5,0,0,1,.416-.472l1.871-.318a.5.5,0,0,1,.584.481,4.89,4.89,0,0,0,.131,1.008l0,.021a.834.834,0,0,0,.2.4.287.287,0,0,0,.208.075.5.5,0,0,1,.079,0,.085.085,0,0,0,.077-.032.686.686,0,0,0,.081-.339q0-.014,0-.027a1.479,1.479,0,0,0-.229-.842,4.171,4.171,0,0,0-.756-.816l-.012-.01-1.132-.993-.012-.011a8.371,8.371,0,0,1-.734-.781,3.466,3.466,0,0,1-.578-.989l0-.013a3.709,3.709,0,0,1-.207-1.288,3.129,3.129,0,0,1,.847-2.3l.024-.024a3.481,3.481,0,0,1,1.746-.869v-.734a.5.5,0,0,1,.5-.5h.64a.5.5,0,0,1,.5.5v.761a2.924,2.924,0,0,1,.928.345l.006,0a2.455,2.455,0,0,1,.873.9,3.8,3.8,0,0,1,.4,1.089,7.717,7.717,0,0,1,.143,1.06.5.5,0,0,1-.427.527l-1.9.278a.5.5,0,0,1-.572-.485,5.7,5.7,0,0,0-.073-.8l0-.011a.824.824,0,0,0-.128-.337.121.121,0,0,0-.088-.025.5.5,0,0,1-.061,0,.186.186,0,0,0-.153.079.57.57,0,0,0-.1.334c0,.01,0,.021,0,.031a1.057,1.057,0,0,0,.193.665,5.909,5.909,0,0,0,.6.649l1.1.947.011.01a8.343,8.343,0,0,1,.861.919,4.7,4.7,0,0,1,.674,1.158l0,.012a3.992,3.992,0,0,1,.255,1.472,3.386,3.386,0,0,1-.332,1.5,2.893,2.893,0,0,1-1,1.138l-.005,0a3.235,3.235,0,0,1-1.042.436v.816a.5.5,0,0,1-.5.5l-.63,0Zm0-2.236a.449.449,0,0,0,.593-.013,2.233,2.233,0,0,0,1.035-.347,1.889,1.889,0,0,0,.649-.74,2.376,2.376,0,0,0,.232-1.054c0-.005,0-.01,0-.015a3,3,0,0,0-.189-1.105,3.691,3.691,0,0,0-.527-.9,7.332,7.332,0,0,0-.75-.8l-1.1-.948-.013-.012a6.905,6.905,0,0,1-.717-.776l-.013-.017a2.061,2.061,0,0,1-.388-1.3,1.563,1.563,0,0,1,.284-.9,1.186,1.186,0,0,1,.948-.506,1.125,1.125,0,0,1,.928.362.506.506,0,0,1,.035.043,1.827,1.827,0,0,1,.328.809q.03.187.05.376l.892-.13c-.021-.156-.047-.312-.079-.466a2.8,2.8,0,0,0-.3-.8,1.45,1.45,0,0,0-.512-.527,1.922,1.922,0,0,0-.93-.258.463.463,0,0,0-.613-.03,2.48,2.48,0,0,0-1.574.645,2.125,2.125,0,0,0-.563,1.562q0,.02,0,.04a2.712,2.712,0,0,0,.149.949,2.472,2.472,0,0,0,.411.7,7.383,7.383,0,0,0,.642.684l1.12.982a5.171,5.171,0,0,1,.939,1.017l.012.017a2.475,2.475,0,0,1,.392,1.41,1.686,1.686,0,0,1-.219.854l-.013.021a1.08,1.08,0,0,1-.917.5c-.027,0-.055,0-.083,0a1.281,1.281,0,0,1-.919-.366l-.015-.016a1.832,1.832,0,0,1-.462-.9,5.881,5.881,0,0,1-.113-.633l-.907.154a3.548,3.548,0,0,0,.615,1.748,2.149,2.149,0,0,0,1.639.687Z" transform="translate(-380.728 -234.302)"/></g></g><g transform="translate(216.258 46.785)"><g transform="translate(0 0)" opacity="0.3"><path d="M414.443,66.5h.5V77.341h11.174l.019.487c0,.124.01.253.01.375a11.7,11.7,0,1,1-11.7-11.7Zm10.7,11.841h-11.2V67.512a10.7,10.7,0,1,0,11.2,10.829Z" transform="translate(-403.24 -65.903)"/><path d="M439.725,76.126H427.5V64.291h.516a11.7,11.7,0,0,1,11.692,11.32Zm-11.225-1h10.18A10.647,10.647,0,0,0,428.5,65.3Z" transform="translate(-415.71 -64.79)"/></g></g><g transform="translate(66.562 45.788)"><g transform="translate(0)" opacity="0.3"><path d="M0-.5H8.255a.5.5,0,0,1,.5.5V25.479a.5.5,0,0,1-.5.5H0a.5.5,0,0,1-.5-.5V0A.5.5,0,0,1,0-.5ZM7.755.5H.5V24.979H7.755Z" transform="translate(0 6.984)"/><path d="M0-.5H8.255a.5.5,0,0,1,.5.5V16.509a.5.5,0,0,1-.5.5H0a.5.5,0,0,1-.5-.5V0A.5.5,0,0,1,0-.5ZM7.755.5H.5V16.009H7.755Z" transform="translate(11.124 15.958)"/><path d="M0-.5H8.255a.5.5,0,0,1,.5.5V10.588a.5.5,0,0,1-.5.5H0a.5.5,0,0,1-.5-.5V0A.5.5,0,0,1,0-.5ZM7.755.5H.5v9.588H7.755Z" transform="translate(22.252 21.88)"/><path d="M131.977,83.733l-8.853-2.986,1.834-1.612L117.445,70.6l-15.229-4.122,1.17-4.316,15.87,4.3a2.193,2.193,0,0,1,1.1.687l7.966,9.052,1.829-1.613Zm-6.891-3.379,5.571,1.879-1.149-5.746-1.278,1.127-8.63-9.807a1.2,1.2,0,0,0-.6-.378L104.09,63.393l-.647,2.385L118,69.718l8.372,9.508Z" transform="translate(-102.249 -62.78)"/></g></g><g transform="translate(99.149 29.04)"><rect width="47.369" height="46.654" rx="9.98" transform="translate(44.202)" fill="#263238"/><path d="M303.093,150.764H167.31a67.893,67.893,0,1,1,135.785,0Z" transform="translate(-167.31 -56.15)" fill="#407bff"/><path d="M303.1,151.264H167.31a.5.5,0,0,1-.5-.5,68.071,68.071,0,0,1,11.679-38.24,68.589,68.589,0,0,1,30.09-24.779,68.3,68.3,0,0,1,64.862,6.306,68.592,68.592,0,0,1,24.779,30.091,67.966,67.966,0,0,1,5.375,26.622A.5.5,0,0,1,303.1,151.264Zm-135.284-1H302.593a67.393,67.393,0,0,0-134.782,0Z" transform="translate(-167.31 -56.15)" fill="#263238"/><path d="M303.142,155.7H174.12a64.528,64.528,0,0,1,129.022,0Z" transform="translate(-170.74 -61.084)" fill="#fff"/><path d="M303.142,156.2H174.12a.5.5,0,0,1-.5-.512,64.744,64.744,0,0,1,11.616-35.618,65.206,65.206,0,0,1,28.449-22.942,64.948,64.948,0,0,1,60.824,5.827,65.205,65.205,0,0,1,23.6,27.909,64.645,64.645,0,0,1,5.536,24.824.5.5,0,0,1-.5.512Zm-128.508-1H302.628c-1.071-34.252-29.672-62.031-64-62.031S175.7,120.946,174.634,155.2Z" transform="translate(-170.74 -61.084)" fill="#263238"/><path d="M303.545,102.254l-37.059,52.293-.248.347-.248-.347L228.93,102.259a64.529,64.529,0,0,1,74.615,0Z" transform="translate(-198.343 -59.933)" fill="#fff"/><path d="M266.242,89.881a64.942,64.942,0,0,1,37.551,11.941.5.5,0,0,1,.252.429v0a.5.5,0,0,1-.126.334l-37.275,52.594a.5.5,0,0,1-.814,0l-.248-.347-37.06-52.289a.5.5,0,0,1,.119-.7,64.964,64.964,0,0,1,37.6-11.97Zm36.6,12.5a63.678,63.678,0,0,0-36.6-11.5h0a63.691,63.691,0,0,0-36.609,11.5l36.609,51.653Z" transform="translate(-198.343 -59.933)" fill="#263238"/><path d="M303.713,193.849H252.86a25.428,25.428,0,1,1,50.856,0Z" transform="translate(-210.395 -99.236)" fill="#fff"/><path d="M303.716,194.349H252.86a.5.5,0,0,1-.5-.5,25.928,25.928,0,1,1,51.856,0,.5.5,0,0,1-.5.5Zm-50.351-1h49.846a24.928,24.928,0,0,0-49.846,0Z" transform="translate(-210.395 -99.236)" fill="#263238"/><path d="M286.2,204.085h0a2.978,2.978,0,0,1-4.219.3L230.27,158.538l2.6-3.008,53,44.336a2.978,2.978,0,0,1,.328,4.219Z" transform="translate(-199.018 -92.744)" fill="#263238"/><circle cx="14.43" cy="14.43" r="14.43" transform="translate(53.459 80.532)" fill="#fff"/><path d="M14.43-.5A14.93,14.93,0,0,1,24.986,24.986,14.93,14.93,0,1,1,3.873,3.873,14.832,14.832,0,0,1,14.43-.5Zm0,28.859A13.93,13.93,0,1,0,.5,14.43,13.945,13.945,0,0,0,14.43,28.359Z" transform="translate(53.459 80.532)" fill="#263238"/><circle cx="7.868" cy="7.868" r="7.868" transform="translate(60.021 87.094)" fill="#263238"/><path d="M7.868-.5A8.368,8.368,0,1,1-.5,7.868,8.377,8.377,0,0,1,7.868-.5Zm0,15.735A7.368,7.368,0,1,0,.5,7.868,7.376,7.376,0,0,0,7.868,15.235Z" transform="translate(60.021 87.094)" fill="#263238"/><g transform="translate(16.723 70.847)" opacity="0.8"><path d="M201,181.257V172h1.693v8.1h2.278v1.161Z" transform="translate(-201 -171.886)"/><path d="M212.88,181.271a2.914,2.914,0,0,1-1.564-.367,2.02,2.02,0,0,1-.839-1.052,4.81,4.81,0,0,1-.248-1.623v-3.475a4.671,4.671,0,0,1,.248-1.6,1.951,1.951,0,0,1,.839-1.023,3.643,3.643,0,0,1,3.147,0,1.985,1.985,0,0,1,.834,1.023,4.433,4.433,0,0,1,.258,1.6v3.475a4.468,4.468,0,0,1-.258,1.6,2.075,2.075,0,0,1-.834,1.052A2.9,2.9,0,0,1,212.88,181.271Zm0-1.246a.9.9,0,0,0,.625-.184.943.943,0,0,0,.268-.5,3.417,3.417,0,0,0,.069-.7v-4.279a3.261,3.261,0,0,0-.069-.695.9.9,0,0,0-.268-.5.923.923,0,0,0-.625-.179.9.9,0,0,0-.606.179.844.844,0,0,0-.273.5,3.26,3.26,0,0,0-.069.695v4.264a3.424,3.424,0,0,0,.065.7.854.854,0,0,0,.268.5A.889.889,0,0,0,212.88,180.025Z" transform="translate(-205.647 -171.77)"/><path d="M224.1,181.257,222.78,172h1.415l.769,6,.958-5.956h1.157l.993,5.956.745-6h1.395l-1.291,9.257h-1.375l-1.027-6.2-1.018,6.2Z" transform="translate(-211.969 -171.886)"/></g><g transform="translate(99.121 70.853)" opacity="0.8"><path d="M367,181.257V172h1.678v3.877h1.886V172h1.693v9.257h-1.693v-4.179h-1.886v4.179Z" transform="translate(-367 -171.891)"/><path d="M380.55,181.257V172h1.668v9.257Z" transform="translate(-373.824 -171.891)"/><path d="M388.976,181.276a2.437,2.437,0,0,1-1.449-.387,2.184,2.184,0,0,1-.764-1.107,5.488,5.488,0,0,1-.233-1.683v-3.112a5.792,5.792,0,0,1,.228-1.712,1.985,1.985,0,0,1,.809-1.1,2.819,2.819,0,0,1,1.593-.387,3.043,3.043,0,0,1,1.489.323,1.841,1.841,0,0,1,.8.918,3.867,3.867,0,0,1,.248,1.459v.5h-1.613v-.526a3.833,3.833,0,0,0-.065-.769.844.844,0,0,0-.248-.5.933.933,0,0,0-.611-.164.854.854,0,0,0-.65.218,1.062,1.062,0,0,0-.248.571,5.378,5.378,0,0,0-.055.779v3.872a3.688,3.688,0,0,0,.084.834.993.993,0,0,0,.293.546.938.938,0,0,0,.62.189.864.864,0,0,0,.625-.208,1.058,1.058,0,0,0,.3-.571,3.682,3.682,0,0,0,.089-.869v-.869h-.993v-1.062h2.517v4.7h-1.087l-.124-.913a1.762,1.762,0,0,1-.556.75A1.6,1.6,0,0,1,388.976,181.276Z" transform="translate(-376.835 -171.781)"/><path d="M399.71,181.257V172h1.678v3.877h1.886V172h1.693v9.257h-1.693v-4.179h-1.886v4.179Z" transform="translate(-383.474 -171.891)"/></g><g transform="translate(50.913 40.907)" opacity="0.8"><path d="M269.88,120.722l.164-9.262h1.747l1.315,6.413,1.37-6.413h1.693l.174,9.262h-1.261l-.134-6.453-1.315,6.453h-1.018l-1.34-6.453-.124,6.453Z" transform="translate(-269.88 -111.455)"/><path d="M285.52,120.722V111.46h3.887v1.191h-2.194v2.666h1.727v1.176h-1.727v3.063h2.219v1.166Z" transform="translate(-277.757 -111.455)"/><path d="M295.38,120.718v-9.262h2.184a4.045,4.045,0,0,1,1.762.313,1.777,1.777,0,0,1,.9.948,4.233,4.233,0,0,1,.268,1.623v3.38a4.537,4.537,0,0,1-.268,1.678,1.876,1.876,0,0,1-.888.993,3.728,3.728,0,0,1-1.712.328Zm1.693-1.176h.5a1.3,1.3,0,0,0,.834-.208.908.908,0,0,0,.313-.6,7.489,7.489,0,0,0,.055-.963v-3.564a4.053,4.053,0,0,0-.079-.9.789.789,0,0,0-.333-.5,1.588,1.588,0,0,0-.809-.159h-.5Z" transform="translate(-282.722 -111.451)"/><path d="M308.3,120.722V111.46h1.668v9.262Z" transform="translate(-289.229 -111.455)"/><path d="M317,120.846a2.864,2.864,0,0,1-1.6-.377,1.916,1.916,0,0,1-.789-1.072,5.7,5.7,0,0,1-.218-1.673V111.46h1.648v6.453a5.288,5.288,0,0,0,.055.814,1.186,1.186,0,0,0,.268.62.824.824,0,0,0,.635.233.814.814,0,0,0,.645-.233,1.226,1.226,0,0,0,.263-.62,4.7,4.7,0,0,0,.065-.814V111.46h1.633v6.264a5.7,5.7,0,0,1-.218,1.673,1.921,1.921,0,0,1-.779,1.072A2.874,2.874,0,0,1,317,120.846Z" transform="translate(-292.3 -111.455)"/><path d="M327.53,120.722l.159-9.262h1.747l1.305,6.413,1.37-6.413H333.8l.174,9.262h-1.251l-.134-6.453-1.315,6.453h-1.032l-1.335-6.453-.129,6.453Z" transform="translate(-298.914 -111.455)"/></g><path d="M273.48,55.012V40.478h3.475a7.669,7.669,0,0,1,2.482.352,2.859,2.859,0,0,1,1.544,1.191,4.3,4.3,0,0,1,.531,2.3,6.953,6.953,0,0,1-.164,1.578,2.978,2.978,0,0,1-.546,1.191,2.482,2.482,0,0,1-1.067.764l2.025,7.158H279.1l-1.757-6.656h-1.221v6.656Zm2.656-8.319h.824a2.83,2.83,0,0,0,1.231-.223,1.335,1.335,0,0,0,.655-.72,3.475,3.475,0,0,0,.2-1.266,2.735,2.735,0,0,0-.407-1.643,1.808,1.808,0,0,0-1.534-.546h-.968Z" transform="translate(-220.78 -34.799)" fill="#00aded"/><path d="M293.83,55.014V40.48h2.621V55.014Z" transform="translate(-231.029 -34.801)" fill="#00aded"/><path d="M306.92,55.024a4.279,4.279,0,0,1-2.189-.5,3.211,3.211,0,0,1-1.325-1.489,6.325,6.325,0,0,1-.5-2.422l2.278-.447a6.787,6.787,0,0,0,.2,1.489,2.169,2.169,0,0,0,.5.993,1.251,1.251,0,0,0,.923.352,1.047,1.047,0,0,0,.918-.387,1.673,1.673,0,0,0,.268-.993,2.631,2.631,0,0,0-.432-1.559,6.806,6.806,0,0,0-1.142-1.231l-1.832-1.618a5.46,5.46,0,0,1-1.231-1.489,4.09,4.09,0,0,1-.457-2.015,3.44,3.44,0,0,1,1.037-2.666,3.852,3.852,0,0,1,2.745-.933,4.09,4.09,0,0,1,1.7.313,2.711,2.711,0,0,1,1.087.869,4.025,4.025,0,0,1,.6,1.266,7.561,7.561,0,0,1,.248,1.489l-2.258.392a7.575,7.575,0,0,0-.154-1.216,1.648,1.648,0,0,0-.412-.844,1.157,1.157,0,0,0-.869-.308,1.1,1.1,0,0,0-.908.387,1.489,1.489,0,0,0-.313.958,2.189,2.189,0,0,0,.3,1.211,4.581,4.581,0,0,0,.884.993l1.812,1.613a7.61,7.61,0,0,1,1.519,1.752,4.542,4.542,0,0,1,.635,2.482,3.718,3.718,0,0,1-.457,1.847,3.326,3.326,0,0,1-1.276,1.266A3.872,3.872,0,0,1,306.92,55.024Z" transform="translate(-235.596 -34.614)" fill="#00aded"/><path d="M321.2,55.014V40.48h2.656v6.388l2.869-6.388h2.531l-2.785,6.5,3.068,8.036H326.9l-2.437-6.622-.611,1.112v5.51Z" transform="translate(-244.813 -34.801)" fill="#00aded"/></g><g transform="translate(102.758 99.073)"><path d="M174.58,200.661a.5.5,0,0,1-.388-.815,6.625,6.625,0,0,1,4-2.419A5.91,5.91,0,0,0,183,191.5a6.9,6.9,0,0,1,5.542-6.839,5.91,5.91,0,0,0,4.8-5.925,6.9,6.9,0,0,1,5.544-6.839,5.709,5.709,0,0,0,3.486-2.085.5.5,0,0,1,.777.63,6.62,6.62,0,0,1-4,2.422,5.915,5.915,0,0,0-4.8,5.927,6.9,6.9,0,0,1-5.542,6.837,5.911,5.911,0,0,0-4.8,5.926,6.9,6.9,0,0,1-5.542,6.835,5.714,5.714,0,0,0-3.484,2.083A.5.5,0,0,1,174.58,200.661Z" transform="translate(-174.58 -170.13)" fill="#407bff"/><path d="M185.47,209.491a.5.5,0,0,1-.388-.815,6.616,6.616,0,0,1,4-2.417,5.915,5.915,0,0,0,4.8-5.926,6.9,6.9,0,0,1,5.541-6.833,5.922,5.922,0,0,0,4.81-5.931,6.9,6.9,0,0,1,5.54-6.838,5.708,5.708,0,0,0,3.484-2.085.5.5,0,0,1,.777.63,6.619,6.619,0,0,1-4,2.422,5.911,5.911,0,0,0-4.8,5.925,6.912,6.912,0,0,1-5.549,6.844,5.911,5.911,0,0,0-4.8,5.921,6.9,6.9,0,0,1-5.544,6.839,5.706,5.706,0,0,0-3.482,2.081A.5.5,0,0,1,185.47,209.491Z" transform="translate(-180.064 -174.577)" fill="#407bff"/><path d="M196.37,218.326a.5.5,0,0,1-.388-.815,6.617,6.617,0,0,1,4-2.417,5.914,5.914,0,0,0,4.8-5.925,6.905,6.905,0,0,1,5.542-6.837,5.916,5.916,0,0,0,4.8-5.927,6.9,6.9,0,0,1,5.545-6.839,5.718,5.718,0,0,0,3.486-2.081.5.5,0,1,1,.776.631,6.629,6.629,0,0,1-4,2.416,5.914,5.914,0,0,0-4.805,5.927,6.906,6.906,0,0,1-5.542,6.839,5.916,5.916,0,0,0-4.8,5.925,6.9,6.9,0,0,1-5.544,6.837,5.706,5.706,0,0,0-3.482,2.081A.5.5,0,0,1,196.37,218.326Z" transform="translate(-185.554 -179.029)" fill="#407bff"/><path d="M207.26,227.161a.5.5,0,0,1-.388-.815,6.618,6.618,0,0,1,4-2.422,5.916,5.916,0,0,0,4.8-5.925,6.906,6.906,0,0,1,5.542-6.837,5.917,5.917,0,0,0,4.8-5.923,6.914,6.914,0,0,1,5.548-6.838,5.706,5.706,0,0,0,3.483-2.086.5.5,0,1,1,.777.63,6.617,6.617,0,0,1-4,2.422,5.924,5.924,0,0,0-4.808,5.927,6.907,6.907,0,0,1-5.542,6.835,5.916,5.916,0,0,0-4.8,5.925,6.906,6.906,0,0,1-5.542,6.837,5.708,5.708,0,0,0-3.484,2.085A.5.5,0,0,1,207.26,227.161Z" transform="translate(-191.039 -183.476)" fill="#407bff"/></g><g transform="translate(31.97 248.422)"><path d="M217.61.5H0A.5.5,0,0,1-.5,0,.5.5,0,0,1,0-.5H217.61a.5.5,0,0,1,.5.5A.5.5,0,0,1,217.61.5Z" transform="translate(0)" fill="#263238"/></g><g transform="translate(42.518 110.914)"><path d="M53.449,448.12s-.571,8.438.094,10.146,3.033,4.358,4.467,3.792,1.042-3.892,1.042-6.165.571-5.688.571-6.254S53.449,448.12,53.449,448.12Z" transform="translate(-53.221 -321.974)" fill="#fff"/><path d="M53.449,447.62a.5.5,0,0,1,.076.006c.016,0,1.572.243,3.109.551.91.182,1.639.352,2.165.506.7.2,1.325.43,1.325.956,0,.21-.052.634-.152,1.427a43.556,43.556,0,0,0-.419,4.827c0,.384.011.8.023,1.232a20.272,20.272,0,0,1-.07,3.149c-.169,1.232-.6,1.968-1.312,2.249a1.651,1.651,0,0,1-.609.113c-1.729,0-3.858-2.521-4.508-4.189-.686-1.761-.186-9.486-.127-10.361a.5.5,0,0,1,.5-.466Zm5.661,2.225a16.21,16.21,0,0,0-2.988-.75c-.858-.167-1.689-.309-2.209-.394-.159,2.634-.38,8.161.1,9.383.591,1.518,2.467,3.552,3.576,3.552a.648.648,0,0,0,.242-.043c.862-.34.8-2.71.75-4.44-.012-.443-.024-.862-.024-1.259a44.277,44.277,0,0,1,.427-4.952C59.034,450.511,59.086,450.1,59.11,449.845Z" transform="translate(-53.221 -321.974)" fill="#263238"/><path d="M141.706,456.78s-.189,5.783.854,6.16,7.014-.283,8.056-.094a18.369,18.369,0,0,0,5.594,0c1.231-.382,2.844-1.042,2.368-1.986s-6.537-3.5-7.868-4.358-3.7-2.482-3.7-2.482Z" transform="translate(-97.778 -324.946)" fill="#fff"/><path d="M147.013,453.52a.5.5,0,0,1,.283.088c.024.016,2.376,1.633,3.685,2.473.441.283,1.513.8,2.647,1.355,3.534,1.717,5.065,2.541,5.4,3.2a1.179,1.179,0,0,1,.044,1.02c-.276.65-1.137,1.18-2.71,1.669a9.24,9.24,0,0,1-2.492.242,22.659,22.659,0,0,1-3.34-.228,3.456,3.456,0,0,0-.545-.027c-.632,0-1.6.054-2.628.111-1.2.067-2.451.136-3.414.136a5.107,5.107,0,0,1-1.55-.148c-.476-.172-.984-.742-1.147-3.664-.083-1.5-.038-2.923-.036-2.983a.5.5,0,0,1,.269-.427l5.306-2.76A.5.5,0,0,1,147.013,453.52Zm6.855,9.045a8.673,8.673,0,0,0,2.2-.2c1.681-.522,2.019-.946,2.086-1.1a.183.183,0,0,0-.016-.178c-.028-.046-.25-.332-1.715-1.127-.961-.522-2.165-1.107-3.227-1.623-1.212-.589-2.259-1.1-2.75-1.413-1.068-.686-2.819-1.88-3.463-2.321l-4.778,2.485c-.008.467-.016,1.432.033,2.435.119,2.413.459,2.888.52,2.955a4.972,4.972,0,0,0,1.188.081c.936,0,2.167-.069,3.359-.135,1.041-.058,2.024-.113,2.684-.113a4.334,4.334,0,0,1,.723.043A21.978,21.978,0,0,0,153.867,462.565Z" transform="translate(-97.778 -324.946)" fill="#263238"/><path d="M66.085,317.407a85.067,85.067,0,0,0-.665,9.1c-.169,5.783,1.8,17.82,1.8,17.82L64.74,358.362l-9.481,21.612s-2.273.571-1.7,2.085,2.556,3.127,3.693,3.127a4.138,4.138,0,0,0,3.132-1.231,8.51,8.51,0,0,0,.66-2.656s16.494-21.989,16.782-22.749,2.939-12.409,2.939-12.409l6.825,9.193,9.481,28.348a2.392,2.392,0,0,0-.288,2.085c.382,1.231,1.042,2.939,1.042,2.939a8.568,8.568,0,0,0,2.561-.571,11.7,11.7,0,0,0,3.221-1.986,2.859,2.859,0,0,0,.194-1.7c-.194-.948-.759-1.33-.665-2.09s-3.321-27.772-3.887-29.574S85.6,323.869,85.6,323.869l-.948-6.919a30.924,30.924,0,0,1-18.564.457Z" transform="translate(-53.344 -255.914)" fill="#263238"/><path d="M84.649,316.45a.5.5,0,0,1,.5.432l.937,6.841c.9,1.855,13.081,27.123,13.643,28.91.378,1.2,1.787,11.988,2.21,15.264.018.138,1.782,13.828,1.7,14.522a1.334,1.334,0,0,0,.234.805,4.233,4.233,0,0,1,.424,1.123v.005a3.343,3.343,0,0,1-.227,2,.5.5,0,0,1-.129.175,12.174,12.174,0,0,1-3.359,2.07l-.008,0a9.058,9.058,0,0,1-2.711.6.5.5,0,0,1-.5-.319c-.027-.07-.669-1.734-1.052-2.967a2.871,2.871,0,0,1,.216-2.3l-9.382-28.052-6.13-8.257c-.685,3-2.468,10.759-2.717,11.416-.066.175-.2.54-8.566,11.78-3.791,5.1-7.6,10.175-8.2,10.981a8.055,8.055,0,0,1-.719,2.732c-.6.952-2.278,1.465-3.556,1.465-1.39,0-3.529-1.774-4.161-3.451a1.664,1.664,0,0,1,.061-1.394,3.09,3.09,0,0,1,1.745-1.28l9.364-21.345,2.457-13.89c-.19-1.17-1.957-12.256-1.794-17.831a86.582,86.582,0,0,1,.67-9.163.5.5,0,0,1,.633-.407,30.424,30.424,0,0,0,18.264-.449A.5.5,0,0,1,84.649,316.45Zm17.987,65.86c.007-.512-.677-6.418-1.716-14.461-1.076-8.331-1.92-14.186-2.149-14.917-.439-1.4-9.1-19.48-13.624-28.846a.5.5,0,0,1-.045-.149l-.866-6.324a31.424,31.424,0,0,1-17.73.429c-.144,1.174-.459,4.14-.586,8.482-.165,5.668,1.776,17.6,1.8,17.724a.5.5,0,0,1,0,.168l-2.482,14.032a.5.5,0,0,1-.034.114l-9.481,21.612a.5.5,0,0,1-.336.284,2.423,2.423,0,0,0-1.346.848.667.667,0,0,0-.01.576c.51,1.354,2.33,2.8,3.225,2.8a3.7,3.7,0,0,0,2.709-1,7.611,7.611,0,0,0,.586-2.438.5.5,0,0,1,.1-.252c6.48-8.638,16.252-21.76,16.72-22.64.223-.633,1.859-7.7,2.913-12.329a.5.5,0,0,1,.889-.187l6.825,9.193a.5.5,0,0,1,.073.139l9.481,28.348a.5.5,0,0,1-.059.438,1.88,1.88,0,0,0-.228,1.649l0,.008c.27.869.686,1.994.9,2.556a8.058,8.058,0,0,0,2.043-.5,11.177,11.177,0,0,0,2.992-1.823,2.347,2.347,0,0,0,.119-1.3,3.3,3.3,0,0,0-.336-.867A2.244,2.244,0,0,1,102.636,382.31Z" transform="translate(-53.344 -255.914)" fill="#263238"/><path d="M91.239,198.051s-3.743-1.489-6.766-.71-7.743,4.929-7.4,7.371,5.912,7.778,5.912,7.778l-.213,4.874,9.694,4.184,1.38-6.229s3.559-.908,3.425-1.439-.953-5.376-.953-5.376a1.355,1.355,0,0,0,.352-1.916,24.773,24.773,0,0,0-2.3-2.948S94.842,201.62,91.239,198.051Z" transform="translate(-65.224 -195.562)" fill="#fff"/><path d="M86.406,196.615h0a15.26,15.26,0,0,1,5.016.971.5.5,0,0,1,.167.109,12.036,12.036,0,0,1,3.035,4.324,4.025,4.025,0,0,1,.26,1.451,25.362,25.362,0,0,1,2.195,2.835,1.854,1.854,0,0,1-.223,2.4c.255,1.5.8,4.658.9,5.051.144.57-.519.907-.737,1.017a9.748,9.748,0,0,1-1.251.5c-.58.2-1.161.36-1.5.452l-1.314,5.932a.5.5,0,0,1-.686.351l-9.694-4.184a.5.5,0,0,1-.3-.481l.2-4.65c-.413-.4-1.546-1.535-2.694-2.846-1.97-2.25-3.048-3.954-3.2-5.065-.255-1.816,1.726-3.92,2.589-4.741a13.168,13.168,0,0,1,5.182-3.184A8.276,8.276,0,0,1,86.406,196.615Zm4.555,1.865a14.437,14.437,0,0,0-4.555-.865h0a7.279,7.279,0,0,0-1.809.21c-2.86.737-7.323,4.732-7.031,6.818.261,1.862,4.248,6.035,5.763,7.487a.5.5,0,0,1,.154.383l-.2,4.53,8.822,3.808,1.249-5.639a.5.5,0,0,1,.364-.376,14.127,14.127,0,0,0,3.017-1.046c-.209-1.034-.838-4.746-.915-5.2a.5.5,0,0,1,.216-.5.855.855,0,0,0,.222-1.209l-.009-.013A24.351,24.351,0,0,0,94,203.977a.5.5,0,0,1-.119-.442C93.887,203.474,94.138,201.659,90.962,198.481Z" transform="translate(-65.224 -195.562)" fill="#263238"/><path d="M105.431,232.279s-2.278,0-2.656-.065a28.438,28.438,0,0,1-2.7-1.425l4.194,6.061Z" transform="translate(-76.82 -212.521)" fill="#263238"/><path d="M100.08,230.29a.5.5,0,0,1,.257.071,28.053,28.053,0,0,0,2.579,1.368c.323.032,1.49.05,2.515.05a.5.5,0,0,1,.485.623l-1.157,4.572a.5.5,0,0,1-.9.162l-4.194-6.061a.5.5,0,0,1,.411-.785Zm4.709,2.487c-.734,0-1.813-.021-2.1-.069a.5.5,0,0,1-.125-.039q-.436-.2-.867-.418l2.361,3.411Z" transform="translate(-76.82 -212.521)" fill="#263238"/><path d="M109.973,212.242c.238.377.308.759.154.854s-.5-.124-.71-.5-.308-.754-.154-.854S109.734,211.86,109.973,212.242Z" transform="translate(-81.407 -202.918)" fill="#263238"/><path d="M107.45,210.441a.5.5,0,0,1-.467-.678,1.67,1.67,0,0,1,1.917-1.03.5.5,0,0,1-.219.976.665.665,0,0,0-.763.41A.5.5,0,0,1,107.45,210.441Z" transform="translate(-80.532 -201.644)" fill="#263238"/><path d="M112.2,223.306a3.011,3.011,0,0,1-1.522-.414.5.5,0,0,1,.5-.864,2.015,2.015,0,0,0,1.517.215.5.5,0,1,1,.244.97A3.043,3.043,0,0,1,112.2,223.306Z" transform="translate(-82.285 -208.326)" fill="#263238"/><path d="M90.517,197.308l-3.971,2.07s1.524,1.018,1.2,1.941l-.323.928.084,3.628-1.023.4s-3.082-2.159-3.832-.144,1.866,3.475,1.866,3.475-1.077,2.383-2.065,2.914-.432-1.152-2.383-1.638-5.634-3.9-5.713-5.847.893-6.408,4.184-8.374,5.564-2.422,7.426-2.333,3.683-.993,4.284.278A4.621,4.621,0,0,1,90.517,197.308Z" transform="translate(-63.863 -193.985)" fill="#263238"/><path d="M89.117,193.485a1.6,1.6,0,0,1,1.584.909l.009.02a5.1,5.1,0,0,1,.3,2.992.5.5,0,0,1-.259.345l-3.3,1.72a2.009,2.009,0,0,1,.765,2.015l-.292.84L88,205.864a.5.5,0,0,1-.317.477l-1.023.4a.5.5,0,0,1-.47-.056,5.106,5.106,0,0,0-2.3-.913.734.734,0,0,0-.781.534c-.59,1.586,1.62,2.852,1.642,2.864a.5.5,0,0,1,.211.642c-.117.26-1.179,2.554-2.284,3.148a1.183,1.183,0,0,1-.56.162c-.512,0-.737-.414-.9-.717a1.761,1.761,0,0,0-1.28-1.039,9.687,9.687,0,0,1-3.788-2.505c-.673-.663-2.244-2.362-2.3-3.807a11.384,11.384,0,0,1,.864-4.386,9.015,9.015,0,0,1,3.564-4.437,14.183,14.183,0,0,1,7.247-2.414c.152,0,.307,0,.46.011.066,0,.134,0,.2,0a9.259,9.259,0,0,0,1.6-.188A7.887,7.887,0,0,1,89.117,193.485Zm.675,1.327c-.1-.207-.246-.327-.675-.327a7.252,7.252,0,0,0-1.148.147,10.175,10.175,0,0,1-1.778.2c-.085,0-.169,0-.251-.006-.137-.007-.276-.01-.412-.01a13.255,13.255,0,0,0-6.734,2.273c-3.146,1.879-4.014,6.15-3.941,7.924a6.049,6.049,0,0,0,2.006,3.135A9,9,0,0,0,80.19,210.4a2.734,2.734,0,0,1,1.917,1.533c.027.05.06.111.089.16l.018-.01a6.435,6.435,0,0,0,1.661-2.293,5.865,5.865,0,0,1-.944-.826,2.841,2.841,0,0,1-.751-3,1.728,1.728,0,0,1,1.718-1.186,5.7,5.7,0,0,1,2.64.944l.457-.18-.076-3.279a.5.5,0,0,1,.028-.176l.323-.928c.141-.4-.583-1.081-1-1.361a.5.5,0,0,1,.047-.859l3.752-1.956A4.1,4.1,0,0,0,89.793,194.812Z" transform="translate(-63.863 -193.985)" fill="#263238"/><path d="M80.737,237.85a33.282,33.282,0,0,0-5.013,10.806c-1.425,5.956-1.708,13.084-.5,16.683S76.27,275.3,76.27,275.3s-.948,1.8.094,2.939,7.679,3.221,13.462,2.368,5.956-2.273,6.259-3.221.189-13.839-1.042-19.622a137.38,137.38,0,0,0-3.5-13.382C90.689,241.831,80.737,237.85,80.737,237.85Z" transform="translate(-63.92 -216.077)" fill="#fff"/><path d="M80.737,237.35a.5.5,0,0,1,.186.036c.025.01,2.538,1.019,5.123,2.327,3.615,1.83,5.568,3.3,5.971,4.506l0,.008a138.438,138.438,0,0,1,3.512,13.431,80.855,80.855,0,0,1,1.107,11.708,57.783,57.783,0,0,1-.077,8.168c-.013.041-.026.083-.039.126a3.031,3.031,0,0,1-1.348,1.863A13.556,13.556,0,0,1,89.9,281.1a20.2,20.2,0,0,1-2.937.205,27.284,27.284,0,0,1-6.952-.945A9.886,9.886,0,0,1,76,278.573c-1.112-1.212-.435-2.936-.224-3.4.014-.841.066-6.456-1.019-9.678-1.21-3.6-1.006-10.727.484-16.959l0-.01a33.666,33.666,0,0,1,5.089-10.968A.5.5,0,0,1,80.737,237.35Zm10.331,7.182c-.178-.524-1.128-1.728-5.474-3.928-1.968-1-3.893-1.815-4.676-2.14a32.661,32.661,0,0,0-4.709,10.312,47.069,47.069,0,0,0-1.222,9.121,22.352,22.352,0,0,0,.714,7.281c1.225,3.641,1.075,9.867,1.068,10.13a.5.5,0,0,1-.057.22c-.007.014-.768,1.508.02,2.368a9.562,9.562,0,0,0,3.54,1.5,26.255,26.255,0,0,0,6.689.91,19.206,19.206,0,0,0,2.791-.195,12.913,12.913,0,0,0,4.867-1.418,2.057,2.057,0,0,0,.947-1.324c.014-.047.028-.092.043-.137.243-.861.185-13.54-1.055-19.365A137.457,137.457,0,0,0,91.068,244.532Z" transform="translate(-63.92 -216.077)" fill="#263238"/><path d="M86.071,231.44l12.007,7.922-.189,4.264L84.81,234.81Z" transform="translate(-69.13 -212.848)" fill="#fff"/><path d="M86.071,230.94a.5.5,0,0,1,.275.083l12.007,7.922a.5.5,0,0,1,.224.439l-.189,4.264a.5.5,0,0,1-.779.393l-13.079-8.816a.5.5,0,0,1-.189-.59l1.261-3.37a.5.5,0,0,1,.468-.325Zm11.5,8.683L86.319,232.2l-.9,2.413,12.013,8.1Z" transform="translate(-69.13 -212.848)" fill="#263238"/><path d="M161.436,244.5l-6.319-5.46-2.144-1.266L139.67,261.6c-4.125,4.864-10.692,6.071-14.673,2.7s-3.862-10.052.263-14.916L145.175,230.7l-5.882-5.167-2.581-1.549-20.351,21.577a18.72,18.72,0,0,0,28.551,24.218Z" transform="translate(-82.782 -209.091)" fill="#263238"/><path d="M136.712,223.48a.5.5,0,0,1,.257.071l2.581,1.549a.5.5,0,0,1,.073.053l5.882,5.167a.5.5,0,0,1,.012.74l-19.893,18.664a12.373,12.373,0,0,0-3.034,7.68,8.125,8.125,0,0,0,2.732,6.509,7.773,7.773,0,0,0,5.109,1.8,11.957,11.957,0,0,0,8.828-4.4l13.279-23.783a.5.5,0,0,1,.691-.187l2.144,1.266a.5.5,0,0,1,.073.052l6.319,5.46a.5.5,0,0,1,.092.652l-16.524,25.275a.5.5,0,0,1-.037.05,19.22,19.22,0,1,1-29.314-24.865l.018-.02,20.351-21.577A.5.5,0,0,1,136.712,223.48ZM139,225.934l-2.2-1.318-20.066,21.275a18.22,18.22,0,0,0,27.777,23.585l16.268-24.883-5.954-5.145-1.665-.983-13.053,23.379a.5.5,0,0,1-.055.08,12.975,12.975,0,0,1-9.622,4.786,8.759,8.759,0,0,1-5.755-2.033,9.106,9.106,0,0,1-3.085-7.29,13.38,13.38,0,0,1,3.29-8.331.5.5,0,0,1,.039-.041l19.513-18.307Z" transform="translate(-82.782 -209.091)" fill="#263238"/><path d="M189.824,253.026l-2.144-1.266-6.85,12.28,5.867,4.874,1.8,1.266,7.644-11.69Z" transform="translate(-117.488 -223.082)" fill="#263238"/><path d="M187.68,251.26a.5.5,0,0,1,.254.069l2.144,1.266a.5.5,0,0,1,.073.052l6.319,5.465a.5.5,0,0,1,.091.652l-7.644,11.69a.5.5,0,0,1-.706.135l-1.8-1.266-.032-.025-5.867-4.874a.5.5,0,0,1-.117-.628l6.85-12.28a.5.5,0,0,1,.437-.256Zm1.851,2.173-1.664-.982-6.4,11.47,5.532,4.6,1.362.957,7.122-10.891Z" transform="translate(-117.488 -223.082)" fill="#263238"/><path d="M151.627,239.005l1.544,1.464,10.4-9.759-5.882-5.182-2.581-1.549-6.661,7.063Z" transform="translate(-101.181 -209.091)" fill="#263238"/><path d="M153.171,240.97a.5.5,0,0,1-.344-.137l-1.544-1.464a.5.5,0,0,1-.12-.177l-3.177-7.962a.5.5,0,0,1,.1-.528l6.661-7.063a.5.5,0,0,1,.621-.086l2.581,1.549a.5.5,0,0,1,.073.054l5.882,5.182a.5.5,0,0,1,.012.74l-10.4,9.759A.5.5,0,0,1,153.171,240.97Zm-1.12-2.252,1.122,1.064,9.659-9.06-5.435-4.788-2.2-1.318-6.166,6.539Z" transform="translate(-101.181 -209.091)" fill="#263238"/><path d="M157.64,243.359l-6.582-5.584-15.179,22.7c-4.125,4.864-10.7,6.071-14.678,2.7s-3.862-10.057.263-14.921l19.919-18.679L134.8,224,112.56,244.431a18.722,18.722,0,1,0,28.558,24.219Z" transform="translate(-80.867 -209.101)" fill="#fff"/><path d="M134.8,223.5a.5.5,0,0,1,.323.118l6.587,5.569a.5.5,0,0,1,.019.747l-19.9,18.659a12.376,12.376,0,0,0-3.034,7.683,8.128,8.128,0,0,0,2.732,6.512,7.775,7.775,0,0,0,5.11,1.8,11.964,11.964,0,0,0,8.844-4.411L150.643,237.5a.5.5,0,0,1,.739-.1l6.582,5.584a.5.5,0,0,1,.1.655l-16.523,25.291a.5.5,0,0,1-.037.05,19.222,19.222,0,1,1-29.32-24.866.5.5,0,0,1,.043-.045l22.238-20.431A.5.5,0,0,1,134.8,223.5Zm5.835,6.089-5.822-4.922-21.89,20.111a18.222,18.222,0,0,0,27.795,23.572l16.265-24.9-5.818-4.936L136.3,260.751a.5.5,0,0,1-.034.045,12.978,12.978,0,0,1-9.625,4.786,8.762,8.762,0,0,1-5.757-2.033,9.109,9.109,0,0,1-3.085-7.292,13.383,13.383,0,0,1,3.29-8.333.5.5,0,0,1,.039-.041Z" transform="translate(-80.867 -209.101)" fill="#263238"/><path d="M185.861,268.915l7.565-11.57-6.582-5.584-7.674,11.476Z" transform="translate(-116.652 -223.082)" fill="#407bff"/><path d="M185.861,269.415a.5.5,0,0,1-.324-.119l-6.691-5.679a.5.5,0,0,1-.092-.659l7.674-11.476a.5.5,0,0,1,.739-.1l6.582,5.584a.5.5,0,0,1,.1.655l-7.565,11.57a.5.5,0,0,1-.419.226Zm-6.028-6.271,5.919,5.023,7.013-10.727-5.818-4.936Z" transform="translate(-116.652 -223.082)" fill="#263238"/><path d="M148.061,239.005l10.071-9.441-6.587-5.584-10.176,9.352Z" transform="translate(-97.615 -209.091)" fill="#407bff"/><path d="M148.061,239.505a.5.5,0,0,1-.323-.119l-6.691-5.674a.5.5,0,0,1-.015-.749l10.176-9.352a.5.5,0,0,1,.662-.013l6.587,5.584a.5.5,0,0,1,.019.746L148.4,239.37A.5.5,0,0,1,148.061,239.505Zm-5.936-6.189,5.919,5.019,9.337-8.753-5.822-4.936Z" transform="translate(-97.615 -209.091)" fill="#263238"/><path d="M102.246,300.49l20.57,10.24a21.174,21.174,0,0,0,2.373-2.278,3.063,3.063,0,0,1,2.273-1.325c.854-.094,1.425.283,2.482-.566s1.231-.665.854.283-.5,1.325-1.33,1.42a3.425,3.425,0,0,0-1.42.5s2.482,1.514,3.033,1.8,1.042.754.854,1.042,0,.754-.571.754h-1.231a14.07,14.07,0,0,0-1.519,1.613,3.529,3.529,0,0,1-2.368,1.519,16.117,16.117,0,0,1-5.118-.571c-1.985-.566-18.49-5.688-20.669-6.542a28.085,28.085,0,0,1-4.929-2.844Z" transform="translate(-74.529 -247.624)" fill="#fff"/><path d="M102.246,299.99a.5.5,0,0,1,.223.052l20.277,10.095a20.747,20.747,0,0,0,2.048-1.995,3.548,3.548,0,0,1,2.619-1.513,3.418,3.418,0,0,1,.371-.019c.13,0,.252.006.369.012s.206.01.3.01a1.678,1.678,0,0,0,1.175-.461c.586-.47.928-.654,1.219-.654a.61.61,0,0,1,.515.267c.206.3.113.7-.1,1.245l-.041.1c-.359.906-.6,1.505-1.7,1.63a2.9,2.9,0,0,0-.391.073c.77.465,1.849,1.112,2.18,1.285.228.119.984.553,1.136,1.137a.769.769,0,0,1-.1.623,1.055,1.055,0,0,0-.031.136.9.9,0,0,1-.958.845h-1.036A13.622,13.622,0,0,0,129,314.284a4.032,4.032,0,0,1-2.7,1.7l-.03,0c-.272.013-.548.02-.82.02a16.619,16.619,0,0,1-4.457-.609c-1.8-.512-18.439-5.666-20.717-6.558l-.022-.009a28.645,28.645,0,0,1-5.017-2.895.5.5,0,0,1-.008-.805l6.716-5.043A.5.5,0,0,1,102.246,299.99Zm20.57,11.24a.5.5,0,0,1-.223-.052l-20.293-10.1-5.919,4.445a27.652,27.652,0,0,0,4.272,2.4c2.169.845,18.68,5.972,20.612,6.523a15.614,15.614,0,0,0,4.185.571c.25,0,.5-.006.755-.018a3.072,3.072,0,0,0,2.017-1.332,14.622,14.622,0,0,1,1.574-1.672.5.5,0,0,1,.336-.13h1.2l.006-.031a1.539,1.539,0,0,1,.107-.372,1.925,1.925,0,0,0-.6-.451c-.559-.292-2.96-1.756-3.062-1.818a.5.5,0,0,1,0-.851,3.95,3.95,0,0,1,1.627-.569c.444-.05.525-.122.788-.77a2.639,2.639,0,0,1-1.742.634c-.121,0-.238-.006-.351-.011s-.214-.01-.32-.01a2.424,2.424,0,0,0-.267.014H127.5a2.552,2.552,0,0,0-1.9,1.109.5.5,0,0,1-.04.051,21.747,21.747,0,0,1-2.429,2.332A.5.5,0,0,1,122.816,311.23Z" transform="translate(-74.529 -247.624)" fill="#263238"/><path d="M80.743,252.929s-2.75,2.179-2.482,5.023,5.5,21.994,5.5,21.994l9.386-5.783S90.209,258.146,88.5,255.4a6.841,6.841,0,0,0-3.7-3.226" transform="translate(-65.823 -223.289)" fill="#fff"/><path d="M83.761,280.447a.5.5,0,0,1-.482-.368c-.214-.784-5.246-19.225-5.515-22.079-.29-3.079,2.548-5.366,2.669-5.462l.621.784-.311-.392.311.391c-.025.02-2.534,2.051-2.3,4.585.233,2.477,4.4,17.9,5.309,21.265l8.526-5.252c-1.038-5.606-3.232-16.189-4.517-18.258a6.5,6.5,0,0,0-3.393-3l.236-.972a7.3,7.3,0,0,1,4.006,3.449c1.737,2.8,4.592,18.284,4.713,18.941a.5.5,0,0,1-.23.516l-9.386,5.783A.5.5,0,0,1,83.761,280.447Z" transform="translate(-65.823 -223.289)" fill="#263238"/><path d="M97.069,291.13,86,298.054s1.137,3.971,1.985,4.641l.854.665s9.1-6.254,9.669-7.108S97.352,291.607,97.069,291.13Z" transform="translate(-69.729 -242.91)" fill="#fff"/><path d="M97.069,290.63a.5.5,0,0,1,.43.245,19.57,19.57,0,0,1,1.079,2.508c.751,2.119.58,2.794.347,3.146-.121.183-.4.611-5.174,4.005-2.323,1.654-4.606,3.223-4.629,3.239a.5.5,0,0,1-.59-.018l-.854-.665c-.278-.22-.731-.746-1.474-2.8-.392-1.08-.673-2.061-.685-2.1a.5.5,0,0,1,.216-.561L96.8,290.706A.5.5,0,0,1,97.069,290.63Zm-8.212,12.111c3.7-2.546,8.834-6.208,9.236-6.767,0,0,.2-.407-.471-2.3-.25-.7-.546-1.387-.753-1.832l-10.282,6.432A13.373,13.373,0,0,0,88.3,302.3Z" transform="translate(-69.729 -242.91)" fill="#263238"/><rect width="1.613" height="3.698" rx="0.807" transform="translate(44.899 33.762) rotate(-41.06)" fill="#fff"/><path d="M.807-.5A1.308,1.308,0,0,1,2.113.807V2.891a1.307,1.307,0,1,1-2.613,0V.807A1.308,1.308,0,0,1,.807-.5Zm0,3.7a.307.307,0,0,0,.307-.307V.807A.307.307,0,0,0,.5.807V2.891A.307.307,0,0,0,.807,3.2Z" transform="translate(44.899 33.762) rotate(-41.06)" fill="#263238"/><rect width="1.613" height="3.132" rx="0.807" transform="translate(43.922 35.279) rotate(-41.06)" fill="#fff"/><path d="M.807-.5A1.308,1.308,0,0,1,2.113.807V2.326a1.307,1.307,0,1,1-2.613,0V.807A1.308,1.308,0,0,1,.807-.5Zm0,3.132a.307.307,0,0,0,.307-.307V.807A.307.307,0,1,0,.5.807V2.326A.307.307,0,0,0,.807,2.632Z" transform="translate(43.922 35.279) rotate(-41.06)" fill="#263238"/><rect width="1.613" height="3.132" rx="0.807" transform="translate(42.645 36.556) rotate(-41.06)" fill="#fff"/><path d="M.807-.5A1.308,1.308,0,0,1,2.113.807V2.326a1.307,1.307,0,1,1-2.613,0V.807A1.308,1.308,0,0,1,.807-.5Zm0,3.132a.307.307,0,0,0,.307-.307V.807A.307.307,0,1,0,.5.807V2.326A.307.307,0,0,0,.807,2.632Z" transform="translate(42.645 36.556) rotate(-41.06)" fill="#263238"/><rect width="1.613" height="2.74" rx="0.807" transform="translate(41.38 37.68) rotate(-41.06)" fill="#fff"/><path d="M.807-.5A1.308,1.308,0,0,1,2.113.807V1.933a1.307,1.307,0,0,1-2.613,0V.807A1.308,1.308,0,0,1,.807-.5Zm0,2.74a.307.307,0,0,0,.307-.307V.807A.307.307,0,1,0,.5.807V1.933A.307.307,0,0,0,.807,2.24Z" transform="translate(41.38 37.68) rotate(-41.06)" fill="#263238"/></g></g></g></svg>