<svg xmlns="http://www.w3.org/2000/svg" xmlns:xlink="http://www.w3.org/1999/xlink" width="408.006" height="408.006" viewBox="0 0 408.006 408.006"><defs><filter id="a" x="0" y="0" width="408.006" height="408.006" filterUnits="userSpaceOnUse"><feOffset dy="3" input="SourceAlpha"/><feGaussianBlur stdDeviation="3" result="b"/><feFlood flood-opacity="0.161"/><feComposite operator="in" in2="b"/><feComposite in="SourceGraphic"/></filter></defs><g transform="translate(-748.285 -2081.652)"><g transform="matrix(1, 0, 0, 1, 748.28, 2081.65)" filter="url(#a)"><rect width="360" height="360" rx="20" transform="translate(40.38 6) rotate(5)" fill="#00af51"/></g><text transform="translate(791.821 2354.194) rotate(7)" fill="#fff" font-size="40" font-family="SegoeUI-Bold, Segoe UI" font-weight="700"><tspan x="0" y="0">Existing portfolio</tspan><tspan x="0" y="45">health check</tspan></text><g transform="matrix(0.996, 0.087, -0.087, 0.996, 798.868, 2081.546)"><g transform="translate(16.571 31.821)"><path d="M308.317,110.362a29.612,29.612,0,0,0-8.608-10.584C284.274,87.753,212.042,32.965,176.5,31.829c-39.925-1.291-170.56,148.2-158.422,162.266s162.266,35.13,179.822,30.99,100.286-83.56,107.956-92.625C312.608,124.484,311.106,116.259,308.317,110.362Z" transform="translate(-17.288 -31.821)" fill="#89ffaa"/><path d="M308.317,110.362a29.612,29.612,0,0,0-8.608-10.584C284.274,87.753,212.042,32.965,176.5,31.829c-39.925-1.291-170.56,148.2-158.422,162.266s162.266,35.13,179.822,30.99,100.286-83.56,107.956-92.625C312.608,124.484,311.106,116.259,308.317,110.362Z" transform="translate(-17.288 -31.821)" fill="#fff" opacity="0.7"/></g><g transform="translate(63.668 39.475)"><path d="M608.243,126.717H542.959l.4-.739c.083-.152,2.068-3.735,5.778-4.407a6.232,6.232,0,0,1,1.108-.1,8.807,8.807,0,0,1,3.74,1.027,6.194,6.194,0,0,0,2.468.756,2.6,2.6,0,0,0,.636-.078c.936-.233,1.366-.958,1.911-1.875a6.779,6.779,0,0,1,4.13-3.544,12.01,12.01,0,0,1,3.761-.533l.68,0c1.521,0,2.544-.123,4.345-2.54,2.888-3.9,6.018-5.817,10.148-6.225.327-.033.656-.049.977-.049a9.019,9.019,0,0,1,5.85,2.167,15.565,15.565,0,0,1,3.672,4.665A27.424,27.424,0,0,1,595,121.662a2.292,2.292,0,0,0,.576.072,6,6,0,0,0,2.137-.588,9.085,9.085,0,0,1,3.519-.85,7.019,7.019,0,0,1,2.106.333,6.687,6.687,0,0,1,4.826,5.52Zm-63.516-1h62.337a5.687,5.687,0,0,0-4-4.127l-.015,0a6.039,6.039,0,0,0-1.816-.29,8.156,8.156,0,0,0-3.146.778,6.792,6.792,0,0,1-2.51.66,3.286,3.286,0,0,1-1.177-.215l-.258-.1-.055-.271a26.559,26.559,0,0,0-2.411-6.452c-2.264-4.173-5.168-6.289-8.632-6.289-.287,0-.583.015-.878.045-3.826.378-6.738,2.175-9.444,5.826a7.8,7.8,0,0,1-2.669,2.493,5.316,5.316,0,0,1-2.479.451l-.68,0a10.94,10.94,0,0,0-3.465.488,5.781,5.781,0,0,0-3.566,3.1,4.17,4.17,0,0,1-2.529,2.335,3.637,3.637,0,0,1-.878.108,7,7,0,0,1-2.882-.845,7.892,7.892,0,0,0-3.327-.937,5.231,5.231,0,0,0-.93.085A7.765,7.765,0,0,0,544.728,125.717Z" transform="translate(-364.279 -83.385)" opacity="0.3"/><path d="M170.913,61.922H125.866l.405-.74a6.488,6.488,0,0,1,4.059-3.088,4.407,4.407,0,0,1,.792-.073,6.2,6.2,0,0,1,2.63.716,4.149,4.149,0,0,0,1.615.5,1.57,1.57,0,0,0,.386-.047c.533-.133.784-.522,1.182-1.2a4.743,4.743,0,0,1,2.919-2.5,8.349,8.349,0,0,1,2.616-.371l.467,0c.928,0,1.6,0,2.844-1.672,2.006-2.691,4.179-4.019,7.044-4.3.23-.023.461-.035.686-.035,2.666,0,4.963,1.643,6.644,4.753a18.949,18.949,0,0,1,1.655,4.33,1.425,1.425,0,0,0,.265.024,4,4,0,0,0,1.4-.388,6.342,6.342,0,0,1,2.459-.589,4.975,4.975,0,0,1,1.5.239,4.724,4.724,0,0,1,3.4,3.878Zm-43.244-1h42.044a3.724,3.724,0,0,0-2.555-2.488l-.015,0a4,4,0,0,0-1.212-.2,5.451,5.451,0,0,0-2.087.517,4.758,4.758,0,0,1-1.769.46,2.4,2.4,0,0,1-.863-.158l-.258-.1-.055-.27a17.988,17.988,0,0,0-1.633-4.372c-1.516-2.793-3.452-4.209-5.754-4.209-.192,0-.389.01-.586.03a8.611,8.611,0,0,0-6.342,3.907c-1.435,1.926-2.417,2.075-3.646,2.075l-.467,0a7.327,7.327,0,0,0-2.322.327A3.8,3.8,0,0,0,137.8,58.5a2.943,2.943,0,0,1-1.8,1.661,2.594,2.594,0,0,1-.628.077,4.988,4.988,0,0,1-2.026-.588,5.324,5.324,0,0,0-2.219-.627,3.4,3.4,0,0,0-.611.056A5,5,0,0,0,127.669,60.922Z" transform="translate(-126.71 -49.605)" opacity="0.3"/></g><g transform="translate(29.871 36.08)"><g transform="translate(191.938)" opacity="0.3"><path d="M-.5-.5H21.125V36.207H-.5ZM20.125.5H.5V35.207H20.125Z" transform="translate(0 18.622) rotate(-64.54)"/><path d="M511.794,49.666l24.111,11.469-.315.48a1.575,1.575,0,0,0-.114.206l0,.007a1.988,1.988,0,0,0,.921,2.64,1.873,1.873,0,0,0,.226.091l.539.177-5.581,11.719-.478-.31a2.306,2.306,0,0,0-.218-.125,1.969,1.969,0,0,0-.847-.191,2,2,0,0,0-1.8,1.133l-.013.027v.695L503.969,66.138l.3-.476a.827.827,0,0,0,.045-.083,2,2,0,0,0-.937-2.652,1.858,1.858,0,0,0-.225-.087l-.549-.172,5.586-11.742.48.316a1.579,1.579,0,0,0,.206.114l.005,0a1.969,1.969,0,0,0,.852.193,2,2,0,0,0,1.8-1.132,1.875,1.875,0,0,0,.089-.219Zm22.7,11.9-22.158-10.54a3.006,3.006,0,0,1-2.6,1.522,2.955,2.955,0,0,1-1.108-.214l-4.649,9.774a3,3,0,0,1,1.373,3.574L527.5,76.23a3.006,3.006,0,0,1,2.533-1.4,2.954,2.954,0,0,1,1.108.214l4.649-9.762A2.993,2.993,0,0,1,534.493,61.571Zm-14.582-2.524a4.58,4.58,0,0,1,4.138,6.555L523.1,67.59v-.678a4.6,4.6,0,0,1-3.187,1.3c-.078,0-.157,0-.234-.006a4.58,4.58,0,0,1,.234-9.155Zm3.323,5.926a3.585,3.585,0,1,0-3.507,2.23c.061,0,.123,0,.183,0a3.6,3.6,0,0,0,3.235-2.048Z" transform="translate(-499.351 -46.639)"/></g><g transform="translate(0 10.552)" opacity="0.3"><path d="M-.5-.5H21.125V36.207H-.5ZM20.125.5H.5V35.207H20.125Z" transform="translate(0 18.622) rotate(-64.54)"/><path d="M65.814,74.156,89.932,85.641l-.322.481a1.531,1.531,0,0,0-.113.2l0,.006a1.988,1.988,0,0,0,.932,2.66c.072.032.149.061.242.093l.528.184-5.584,11.692-.479-.315a1.579,1.579,0,0,0-.206-.114l-.006,0a1.984,1.984,0,0,0-1.518-.08,1.97,1.97,0,0,0-1.124,1.009l-.26.612L58.034,90.648l.276-.505c.014-.026.027-.048.034-.064l0-.009a1.983,1.983,0,0,0-.935-2.645,1.886,1.886,0,0,0-.22-.083l-.553-.17L62.227,75.44l.479.315a1.578,1.578,0,0,0,.206.114l.006,0a1.984,1.984,0,0,0,1.518.08,1.97,1.97,0,0,0,1.129-1.018l0-.005a1.32,1.32,0,0,0,.081-.209Zm22.7,11.918L66.381,75.534a2.984,2.984,0,0,1-2.607,1.532,3,3,0,0,1-1.112-.215l-4.648,9.76a2.985,2.985,0,0,1,1.367,3.571L81.537,100.73a2.985,2.985,0,0,1,2.528-1.4,3,3,0,0,1,1.112.215l4.652-9.74a2.987,2.987,0,0,1-1.315-3.732ZM73.961,83.557A4.579,4.579,0,0,1,78.09,90.1a4.6,4.6,0,0,1-4.135,2.611,4.536,4.536,0,0,1-1.961-.444,4.577,4.577,0,0,1,1.966-8.71Zm-.006,8.154a3.6,3.6,0,0,0,3.232-2.04,3.578,3.578,0,0,0-3.226-5.114,3.577,3.577,0,0,0-1.537,6.807A3.543,3.543,0,0,0,73.955,91.711Z" transform="translate(-53.4 -71.146)"/></g><g transform="translate(230.276 68.028)" opacity="0.3"><path d="M-.5-.5H21.125V36.207H-.5ZM20.125.5H.5V35.207H20.125Z" transform="translate(0 18.622) rotate(-64.54)"/><path d="M600.866,207.742,624.974,219.2l-.312.479c-.042.065-.084.138-.126.217a2,2,0,0,0,.944,2.643,2.081,2.081,0,0,0,.227.089l.54.177-5.568,11.7-.472-.284c-.089-.054-.164-.1-.233-.13a1.984,1.984,0,0,0-2.654.954l-.013.027a.322.322,0,0,0-.024.056l-.174.546-24.031-11.445.32-.584a2,2,0,0,0-.941-2.639,2.162,2.162,0,0,0-.23-.089l-.544-.175,5.574-11.7.472.283c.08.048.154.092.229.13a1.988,1.988,0,0,0,2.647-.944,1.776,1.776,0,0,0,.087-.221Zm22.694,11.893-22.141-10.523a2.988,2.988,0,0,1-2.61,1.533,3.009,3.009,0,0,1-1.108-.213l-4.648,9.76a3,3,0,0,1,1.373,3.574l22.153,10.551a3.005,3.005,0,0,1,1.532-1.242,2.983,2.983,0,0,1,2.122.042l4.646-9.763A3,3,0,0,1,623.56,219.636ZM609,217.131a4.539,4.539,0,0,1,1.969.447,4.589,4.589,0,0,1,2.432,5.382h.075l-.343.721a4.6,4.6,0,0,1-4.139,2.613,4.581,4.581,0,0,1-4.132-6.552A4.6,4.6,0,0,1,609,217.131Zm3.163,6.253.063-.133a3.585,3.585,0,0,0-1.688-4.77,3.546,3.546,0,0,0-1.538-.349,3.6,3.6,0,0,0-3.235,2.041,3.582,3.582,0,0,0,3.229,5.121A3.6,3.6,0,0,0,612.16,223.384Z" transform="translate(-588.428 -204.707)"/></g><g transform="translate(137.712 16.419)" opacity="0.3"><path d="M-.5-.5H21.125V36.207H-.5ZM20.125.5H.5V35.207H20.125Z" transform="translate(12.106 37.657) rotate(-125.94)"/><path d="M389.143,119.669l-.274-.494a.8.8,0,0,0-.05-.079,2,2,0,0,0-1.613-.82,1.977,1.977,0,0,0-1.164.377,2.123,2.123,0,0,0-.189.158l-.414.39-7.627-10.522.518-.266a1.39,1.39,0,0,0,.193-.12l0,0a1.99,1.99,0,0,0,.446-2.772,1.653,1.653,0,0,0-.149-.171l-.414-.414L400,89.265l.275.492a1.927,1.927,0,0,0,.13.2,2,2,0,0,0,1.615.823,1.977,1.977,0,0,0,1.161-.375,2.244,2.244,0,0,0,.19-.159l.413-.387,7.627,10.485-.518.311c-.064.038-.125.075-.179.112a2,2,0,0,0-.444,2.766l.419.515Zm-1.937-2.394a3.005,3.005,0,0,1,2.2.966l19.869-14.4a3,3,0,0,1,.7-3.762l-6.367-8.752a2.968,2.968,0,0,1-1.591.459,3,3,0,0,1-2.3-1.076l-19.827,14.387a2.993,2.993,0,0,1-.627,3.89l6.346,8.755A2.967,2.967,0,0,1,387.207,117.275Zm7.381-8.234a4.576,4.576,0,0,1-2.69-8.28,4.539,4.539,0,0,1,2.679-.87,4.59,4.59,0,0,1,3.546,1.683h.018l.15.207a4.576,4.576,0,0,1-3.7,7.261Zm-.011-8.15a3.573,3.573,0,0,0-2.887,5.673,3.59,3.59,0,0,0,2.9,1.477,3.577,3.577,0,0,0,3.019-5.489l-.134-.185A3.585,3.585,0,0,0,394.577,100.89Z" transform="translate(-374.075 -85.637)"/></g></g><g transform="translate(22.483 56.356)"><g opacity="0.15"><path d="M38.528,190.8c2.729.09,8.367-2.3,8.372-2.3s-2.707-3.237-2.905-3.417c-2.285-2.113-7.95-4.855-10.984-3.142a4.122,4.122,0,0,0-1.166,6.026C33.233,189.927,36.2,190.727,38.528,190.8Z" transform="translate(-31.022 -141.555)"/><path d="M56.224,153.764c2.552-.607,7.042-4.1,7.4-4.382a72.856,72.856,0,0,0,6.456,7.291c1.343,1.343,2.737,2.647,4.149,3.938-.732-.491-1.39-.93-1.489-.981-2.768-1.433-8.953-2.582-11.427-.125a4.128,4.128,0,0,0,.469,6.125c1.859,1.537,4.933,1.506,7.2.964s6.181-3.443,7.2-4.231l1.636,1.476c2.638,2.341,5.277,4.666,7.795,7.024.887.831,1.722,1.683,2.582,2.531-.654-.43-1.205-.8-1.291-.861-2.763-1.433-8.948-2.582-11.427-.125a4.123,4.123,0,0,0,.469,6.12c1.859,1.532,4.933,1.511,7.2.968,2.191-.521,5.8-3.168,7.016-4.089.861.9,1.687,1.791,2.462,2.694.516.628,1.059,1.2,1.541,1.864l1.459,1.915c.861,1.253,1.8,2.539,2.634,3.783.585.861,1.123,1.687,1.674,2.527-.861-.861-2.621-2.445-2.785-2.582-2.514-1.838-8.453-3.908-11.277-1.855a4.129,4.129,0,0,0-.461,6.125c1.605,1.8,4.648,2.234,6.964,2.044,2.552-.211,7.339-2.854,7.933-3.185.9,1.382,1.765,2.737,2.561,4.033.714,1.154,1.377,2.26,2,3.314l2.032-.8c-.71-1.149-1.468-2.35-2.29-3.615-.908-1.407-1.907-2.9-2.948-4.416a45.193,45.193,0,0,0,3.6-3.848c2.372,1.136,7.459,1.545,8.113,1.593,0,1.653-.039,3.258-.09,4.778q-.043,1.562-.116,3.013l2.152-.861c0-.689.026-1.386.03-2.109.022-1.679,0-3.473,0-5.316.659-.112,6.052-1.089,8.178-2.535,1.92-1.317,3.994-3.525,4.11-5.987a4.1,4.1,0,0,0-4.227-4.455c-3.482.189-6.783,5.544-7.571,8.557-.047.176-.34,2.152-.5,3.417,0-.753-.026-1.481-.052-2.255-.043-1.532-.129-3.06-.219-4.7-.069-.792-.138-1.588-.211-2.4s-.211-1.644-.314-2.475c-.284-1.92-.659-3.852-1.085-5.789,1.343-.043,6.1-.25,8.2-1.265s4.485-2.879,4.971-5.294a4.1,4.1,0,0,0-3.5-5.044c-3.469-.34-7.541,4.455-8.78,7.317-.077.176-.736,2.329-1.072,3.516-.267-1.162-.525-2.324-.831-3.495-.861-3.37-1.877-6.753-2.854-10.136-.3-1.037-.585-2.07-.861-3.108.478,0,6.138-.138,8.5-1.291,2.1-1.007,4.485-2.875,4.971-5.29a4.1,4.1,0,0,0-3.5-5.044c-3.469-.34-7.545,4.455-8.78,7.317-.095.215-1.037,3.314-1.235,4.11-.641-2.281-1.261-4.558-1.778-6.831a72.712,72.712,0,0,1-1.537-9.3c.219,0,6.133-.108,8.548-1.291,2.092-1.007,4.481-2.875,4.967-5.29a4.1,4.1,0,0,0-3.5-5.049c-3.469-.336-7.541,4.459-8.78,7.317-.095.228-1.106,3.555-1.248,4.175,0-.181-.056-.37-.069-.551a53.233,53.233,0,0,1,.164-9.469c.164-1.722.43-3.383.7-4.984,1.106.095,6.151.465,8.44-.344,2.191-.775,4.773-2.367,5.518-4.713a4.1,4.1,0,0,0-2.927-5.4c-3.413-.715-7.988,3.6-9.529,6.306-.086.146-.775,1.722-1.257,2.9.138-.719.267-1.468.43-2.152.542-2.582,1.2-4.911,1.795-6.968.349-1.171.689-2.221,1.016-3.2,1.128-.473,5.66-2.436,7.287-4.175s3.146-4.3,2.729-6.732a4.1,4.1,0,0,0-5.087-3.443c-3.357.938-5.428,6.887-5.552,9.99,0,.267.306,4.494.362,4.468l.069-.026c-.336.934-.68,1.941-1.037,3.047-.646,2.049-1.352,4.373-1.954,6.951a73.768,73.768,0,0,0-1.545,8.415,53.909,53.909,0,0,0-.374,9.559v.116c-.362-.956-1.459-3.594-1.567-3.788-1.515-2.72-6.026-7.089-9.469-6.409a4.125,4.125,0,0,0-2.983,5.367c.706,2.307,3.28,3.977,5.466,4.773,2.466.9,8.135.465,8.587.43a73.4,73.4,0,0,0,1.373,9.654c.383,1.855.822,3.714,1.291,5.57-.34-.813-.65-1.541-.706-1.64-1.515-2.72-6.026-7.089-9.469-6.409a4.129,4.129,0,0,0-2.987,5.367c.706,2.307,3.284,3.977,5.471,4.773s7.059.538,8.337.43c.189.71.366,1.42.555,2.152.9,3.409,1.825,6.8,2.626,10.162.28,1.184.516,2.359.753,3.534-.3-.727-.56-1.334-.611-1.42-1.515-2.725-6.026-7.093-9.469-6.413A4.133,4.133,0,0,0,98.731,163c.706,2.307,3.284,3.977,5.471,4.773,2.113.77,6.585.56,8.109.461.207,1.209.43,2.423.568,3.607.082.809.215,1.584.254,2.4s.108,1.61.159,2.4c.047,1.532.1,3.112.112,4.61v3.013c-.267-1.179-.861-3.482-.908-3.667a16,16,0,0,0-4.881-6.456,4.821,4.821,0,0,0-.387-.826,4.132,4.132,0,0,0-5.987-1.386c-2.8,2.079-2.582,8.367-1.593,11.316.06.172.912,1.989,1.468,3.125-.43-.615-.839-1.222-1.291-1.855-.861-1.252-1.795-2.479-2.776-3.8l-1.5-1.885c-.491-.637-1.085-1.253-1.631-1.89-1.291-1.446-2.673-2.849-4.1-4.231,1.1-.775,4.95-3.572,6.146-5.6s2.152-4.872,1.227-7.153a4.108,4.108,0,0,0-5.707-2.277c-3.082,1.631-3.831,7.877-3.288,10.941.034.194.671,2.35,1.046,3.529-.861-.826-1.722-1.653-2.617-2.458-2.582-2.329-5.294-4.6-7.976-6.887-.822-.7-1.631-1.4-2.445-2.1.392-.271,5.044-3.5,6.383-5.75,1.192-2,2.152-4.877,1.227-7.158a4.108,4.108,0,0,0-5.707-2.277c-3.082,1.636-3.835,7.881-3.288,10.945.039.232.96,3.331,1.235,4.11-1.791-1.549-3.564-3.112-5.247-4.735a73.316,73.316,0,0,1-6.417-6.908c.185-.129,5.053-3.478,6.426-5.78,1.192-2,2.152-4.872,1.227-7.153a4.1,4.1,0,0,0-5.7-2.277c-3.086,1.631-3.835,7.877-3.293,10.941.043.241,1.037,3.577,1.261,4.171-.116-.142-.25-.275-.362-.43a52.813,52.813,0,0,1-5.1-7.855c-.822-1.537-1.519-3.052-2.152-4.541.968-.529,5.38-3.013,6.844-4.941,1.4-1.855,2.677-4.61,2.006-6.977a4.1,4.1,0,0,0-5.419-2.888c-3.245,1.291-4.679,7.407-4.476,10.515,0,.168.314,1.872.555,3.112-.284-.676-.585-1.369-.861-2.023-.973-2.453-1.722-4.735-2.346-6.8-.353-1.166-.65-2.23-.917-3.224.68-1.02,3.374-5.165,3.775-7.506s.25-5.32-1.438-7.115a4.1,4.1,0,0,0-6.142-.069c-2.285,2.634-.736,8.733.861,11.4.138.228,2.733,3.577,2.768,3.525l.043-.06c.237.964.5,2,.813,3.116.594,2.066,1.291,4.39,2.208,6.887a72.483,72.483,0,0,0,3.353,7.872A53.6,53.6,0,0,0,63.291,149l.073.09c-.831-.6-3.2-2.191-3.4-2.294-2.763-1.433-8.948-2.582-11.423-.125a4.125,4.125,0,0,0,.469,6.125C50.874,154.336,53.96,154.323,56.224,153.764Z" transform="translate(-40.196 -88.825)"/><path d="M167.029,135.538c.065,0-.469-4.192-.534-4.45-.745-3.013-3.955-8.436-7.433-8.681a4.136,4.136,0,0,0-4.3,4.386c.065,2.406,2.113,4.7,4.011,6.052C161,134.423,167.025,135.538,167.029,135.538Z" transform="translate(-101.499 -107.946)"/></g><g transform="translate(146.451 37.117)" opacity="0.15"><path d="M379.97,292.866c3.159.1,9.684-2.664,9.693-2.669s-3.133-3.745-3.362-3.956c-2.651-2.449-9.207-5.621-12.723-3.637a4.776,4.776,0,0,0-1.347,6.981C373.84,291.867,377.275,292.78,379.97,292.866Z" transform="translate(-371.279 -235.961)"/><path d="M454.49,295.339l.25.43h2.854c-.349-.555-.71-1.115-1.08-1.692-1.055-1.631-2.212-3.357-3.417-5.113a52.411,52.411,0,0,0,4.171-4.455c2.746,1.313,8.634,1.786,9.4,1.842,0,1.915-.047,3.775-.1,5.531-.039,1.209-.086,2.367-.138,3.486l2.492-.99c0-.8.03-1.605.039-2.449,0-1.941,0-4.016-.03-6.151.766-.133,7.007-1.257,9.469-2.935,2.221-1.524,4.627-4.085,4.76-6.93a4.754,4.754,0,0,0-4.9-5.165c-4.029.22-7.851,6.422-8.763,9.9-.056.207-.392,2.505-.581,3.956,0-.861-.03-1.722-.06-2.613-.047-1.773-.146-3.542-.25-5.445q-.125-1.373-.245-2.776c-.06-.93-.245-1.9-.366-2.867-.327-2.221-.762-4.459-1.253-6.7,1.549-.047,7.063-.293,9.5-1.468s5.191-3.331,5.755-6.125a4.751,4.751,0,0,0-4.054-5.845c-4.02-.392-8.737,5.165-10.171,8.466-.09.207-.861,2.7-1.244,4.072-.306-1.343-.6-2.69-.955-4.042-1.02-3.9-2.174-7.825-3.306-11.742-.349-1.2-.68-2.4-1.016-3.594.551,0,7.106-.159,9.835-1.476,2.428-1.166,5.2-3.331,5.755-6.125a4.751,4.751,0,0,0-4.054-5.845c-4.02-.392-8.733,5.165-10.166,8.466-.108.25-1.2,3.835-1.433,4.76-.74-2.643-1.455-5.281-2.053-7.911a83.82,83.82,0,0,1-1.782-10.76c.254,0,7.1-.125,9.9-1.472,2.428-1.171,5.191-3.336,5.755-6.129a4.742,4.742,0,0,0-4.054-5.841c-4.02-.4-8.733,5.165-10.171,8.466-.112.258-1.291,4.115-1.446,4.829,0-.211-.06-.43-.077-.637a61.354,61.354,0,0,1,.189-10.937c.189-2.01.482-3.921.809-5.772,1.291.108,7.119.534,9.77-.4,2.539-.9,5.527-2.742,6.387-5.458a4.75,4.75,0,0,0-3.387-6.254c-3.951-.831-9.245,4.171-11.036,7.317-.095.172-.9,2.01-1.455,3.362.159-.835.31-1.7.478-2.492.628-3.013,1.39-5.686,2.079-8.07.4-1.352.8-2.582,1.179-3.7,1.291-.547,6.551-2.824,8.436-4.834s3.646-4.984,3.159-7.79a4.752,4.752,0,0,0-5.888-3.99c-3.874,1.085-6.288,7.963-6.43,11.565,0,.31.349,5.2.43,5.165l.082-.03c-.387,1.08-.788,2.247-1.205,3.529-.745,2.372-1.562,5.062-2.26,8.049a85.72,85.72,0,0,0-1.791,9.74,62.612,62.612,0,0,0-.43,11.07v.133c-.43-1.106-1.692-4.162-1.816-4.386-1.752-3.151-6.994-8.208-10.954-7.42a4.763,4.763,0,0,0-3.443,6.215c.831,2.669,3.8,4.605,6.327,5.526,2.854,1.046,9.422.538,9.943.495a85.145,85.145,0,0,0,1.593,11.191c.43,2.152.951,4.3,1.494,6.456-.4-.947-.753-1.791-.814-1.9-1.756-3.151-6.994-8.208-10.958-7.42a4.763,4.763,0,0,0-3.443,6.215c.831,2.669,3.8,4.605,6.331,5.527s8.178.62,9.658.516c.215.822.43,1.648.637,2.471,1.05,3.943,2.118,7.872,3.043,11.763.327,1.369.6,2.729.861,4.089-.349-.835-.65-1.541-.71-1.644-1.752-3.151-6.99-8.208-10.954-7.42a4.763,4.763,0,0,0-3.443,6.215c.831,2.669,3.8,4.605,6.331,5.526,2.449.9,7.627.65,9.392.534.241,1.4.482,2.806.654,4.175.095.938.25,1.834.3,2.785s.125,1.864.185,2.78c.052,1.773.121,3.6.129,5.337v3.508c-.31-1.369-.973-4.033-1.05-4.248A18.576,18.576,0,0,0,460,273.87a5.881,5.881,0,0,0-.452-.956,4.781,4.781,0,0,0-6.93-1.605c-3.241,2.406-3.013,9.689-1.846,13.1.069.2,1.054,2.3,1.722,3.62-.5-.714-.973-1.416-1.489-2.152-1.02-1.451-2.079-2.871-3.215-4.4l-1.722-2.182c-.564-.74-1.253-1.451-1.885-2.186-1.5-1.674-3.095-3.3-4.735-4.9,1.27-.9,5.733-4.141,7.115-6.456s2.492-5.643,1.42-8.285a4.743,4.743,0,0,0-6.607-2.634c-3.568,1.89-4.438,9.12-3.809,12.671.039.22.779,2.716,1.209,4.08-1-.956-1.988-1.911-3.013-2.845-3.013-2.694-6.125-5.329-9.232-7.967-.951-.809-1.89-1.623-2.832-2.44.456-.314,5.841-4.055,7.395-6.654,1.377-2.316,2.492-5.647,1.416-8.285a4.749,4.749,0,0,0-6.6-2.638c-3.568,1.894-4.442,9.12-3.813,12.671.047.267,1.115,3.874,1.433,4.76-2.075-1.795-4.128-3.6-6.077-5.462a84.749,84.749,0,0,1-7.429-8c.215-.146,5.854-4.024,7.442-6.689,1.382-2.316,2.492-5.643,1.42-8.285a4.744,4.744,0,0,0-6.607-2.634c-3.568,1.889-4.438,9.12-3.809,12.667.047.28,1.2,4.145,1.459,4.829-.133-.164-.288-.319-.43-.486a61.788,61.788,0,0,1-5.97-9.262c-.951-1.782-1.76-3.534-2.509-5.26,1.123-.615,6.232-3.482,7.928-5.72,1.623-2.152,3.095-5.337,2.32-8.079a4.748,4.748,0,0,0-6.275-3.349c-3.757,1.489-5.415,8.578-5.165,12.176,0,.2.366,2.152.641,3.607-.327-.783-.68-1.588-.977-2.346-1.123-2.836-1.98-5.505-2.716-7.877-.409-1.352-.753-2.582-1.059-3.736.788-1.179,3.908-5.97,4.369-8.69.452-2.656.288-6.164-1.661-8.238a4.753,4.753,0,0,0-7.115-.077c-2.647,3.052-.861,10.11,1.016,13.192.164.267,3.164,4.145,3.207,4.085l.047-.069c.275,1.115.581,2.311.947,3.607.684,2.389,1.485,5.087,2.552,7.958a84.6,84.6,0,0,0,3.874,9.112,62.311,62.311,0,0,0,5.746,9.469l.086.1c-.96-.693-3.71-2.535-3.934-2.656-3.2-1.661-10.364-2.987-13.231-.146a4.784,4.784,0,0,0,.542,7.093c2.152,1.778,5.712,1.743,8.333,1.119,2.953-.706,8.152-4.735,8.565-5.075a84.448,84.448,0,0,0,7.489,8.445c1.554,1.549,3.168,3.06,4.8,4.558-.861-.572-1.61-1.076-1.722-1.136-3.2-1.661-10.36-2.987-13.231-.146a4.776,4.776,0,0,0,.547,7.089c2.156,1.773,5.707,1.747,8.328,1.119s7.158-3.99,8.337-4.9c.637.568,1.261,1.141,1.9,1.722,3.052,2.712,6.108,5.4,9.039,8.135,1.029.96,2.006,1.945,2.987,2.931-.758-.508-1.395-.93-1.5-.986-3.2-1.657-10.364-2.987-13.231-.146a4.78,4.78,0,0,0,.542,7.093c2.152,1.778,5.712,1.743,8.333,1.119,2.535-.607,6.719-3.667,8.122-4.735.977,1.037,1.954,2.075,2.854,3.125.6.727,1.222,1.39,1.782,2.152l1.687,2.217c1.024,1.45,2.087,2.94,3.052,4.382.676.994,1.291,1.954,1.937,2.922-1.011-.968-3.034-2.828-3.219-2.961-2.914-2.126-9.792-4.524-13.059-2.152a4.778,4.778,0,0,0-.534,7.093c1.864,2.079,5.38,2.582,8.062,2.367,2.957-.241,8.5-3.3,9.185-3.689C452.57,292.275,453.569,293.829,454.49,295.339Z" transform="translate(-381.926 -175.061)"/><path d="M528.76,228.849c.073,0-.547-4.855-.62-5.165-.861-3.5-4.58-9.766-8.608-10.05a4.774,4.774,0,0,0-4.976,5.079c.086,2.789,2.449,5.445,4.644,7.007C521.783,227.558,528.756,228.849,528.76,228.849Z" transform="translate(-452.887 -197.025)"/></g></g><g transform="translate(32.95 133.054)"><rect width="49.868" height="9.757" transform="translate(0 30.762)" fill="#fff"/><path d="M0-.5H49.868a.5.5,0,0,1,.5.5V9.757a.5.5,0,0,1-.5.5H0a.5.5,0,0,1-.5-.5V0A.5.5,0,0,1,0-.5ZM49.368.5H.5V9.257H49.368Z" transform="translate(0 30.762)" fill="#263238"/><rect width="49.868" height="10.252" transform="translate(13.808 20.509)" fill="#fff"/><path d="M0-.5H49.868a.5.5,0,0,1,.5.5V10.252a.5.5,0,0,1-.5.5H0a.5.5,0,0,1-.5-.5V0A.5.5,0,0,1,0-.5ZM49.368.5H.5V9.752H49.368Z" transform="translate(13.808 20.509)" fill="#263238"/><rect width="49.868" height="10.252" transform="translate(27.62 10.252)" fill="#fff"/><path d="M0-.5H49.868a.5.5,0,0,1,.5.5V10.252a.5.5,0,0,1-.5.5H0a.5.5,0,0,1-.5-.5V0A.5.5,0,0,1,0-.5ZM49.368.5H.5V9.752H49.368Z" transform="translate(27.62 10.252)" fill="#263238"/><rect width="49.868" height="10.252" transform="translate(41.427)" fill="#fff"/><path d="M0-.5H49.868a.5.5,0,0,1,.5.5V10.252a.5.5,0,0,1-.5.5H0a.5.5,0,0,1-.5-.5V0A.5.5,0,0,1,0-.5ZM49.368.5H.5V9.752H49.368Z" transform="translate(41.427)" fill="#263238"/><path d="M226.951,348.131V267.02h-14.32v10.252H198.82v10.257H185.012v10.252H171.2v50.35Z" transform="translate(-121.332 -267.02)" fill="#263238"/><path d="M226.951,348.631H171.2a.5.5,0,0,1-.5-.5v-50.35a.5.5,0,0,1,.5-.5h13.312v-9.752a.5.5,0,0,1,.5-.5H198.32v-9.757a.5.5,0,0,1,.5-.5h13.312V267.02a.5.5,0,0,1,.5-.5h14.32a.5.5,0,0,1,.5.5v81.111A.5.5,0,0,1,226.951,348.631Zm-55.251-1h54.751V267.52h-13.32v9.752a.5.5,0,0,1-.5.5H199.32v9.757a.5.5,0,0,1-.5.5H185.512v9.752a.5.5,0,0,1-.5.5H171.7Z" transform="translate(-121.332 -267.02)" fill="#263238"/><rect width="49.868" height="9.757" transform="translate(55.751 71.35)" fill="#fff"/><path d="M0-.5H49.868a.5.5,0,0,1,.5.5V9.757a.5.5,0,0,1-.5.5H0a.5.5,0,0,1-.5-.5V0A.5.5,0,0,1,0-.5ZM49.368.5H.5V9.257H49.368Z" transform="translate(55.751 71.35)" fill="#263238"/><rect width="49.868" height="10.252" transform="translate(91.811 71.35) rotate(180)" fill="#fff"/><path d="M0-.5H49.868a.5.5,0,0,1,.5.5V10.252a.5.5,0,0,1-.5.5H0a.5.5,0,0,1-.5-.5V0A.5.5,0,0,1,0-.5ZM49.368.5H.5V9.752H49.368Z" transform="translate(91.811 71.35) rotate(180)" fill="#263238"/><rect width="49.868" height="10.257" transform="translate(77.999 61.097) rotate(180)" fill="#fff"/><path d="M0-.5H49.868a.5.5,0,0,1,.5.5V10.257a.5.5,0,0,1-.5.5H0a.5.5,0,0,1-.5-.5V0A.5.5,0,0,1,0-.5ZM49.368.5H.5V9.757H49.368Z" transform="translate(77.999 61.097) rotate(180)" fill="#263238"/><rect width="49.868" height="10.252" transform="translate(64.188 50.84) rotate(180)" fill="#fff"/><path d="M0-.5H49.868a.5.5,0,0,1,.5.5V10.252a.5.5,0,0,1-.5.5H0a.5.5,0,0,1-.5-.5V0A.5.5,0,0,1,0-.5ZM49.368.5H.5V9.752H49.368Z" transform="translate(64.188 50.84) rotate(180)" fill="#263238"/><path d="M55.34,401.843V361.32H69.66v10.252H83.468v10.257H97.279v10.252h13.812v9.762Z" transform="translate(-55.34 -320.732)" fill="#263238"/><path d="M111.091,402.343H55.34a.5.5,0,0,1-.5-.5V361.32a.5.5,0,0,1,.5-.5H69.66a.5.5,0,0,1,.5.5v9.752H83.468a.5.5,0,0,1,.5.5v9.757H97.279a.5.5,0,0,1,.5.5v9.752h13.312a.5.5,0,0,1,.5.5v9.762A.5.5,0,0,1,111.091,402.343Zm-55.251-1h54.751v-8.762H97.279a.5.5,0,0,1-.5-.5v-9.752H83.468a.5.5,0,0,1-.5-.5v-9.757H69.66a.5.5,0,0,1-.5-.5V361.82H55.84Z" transform="translate(-55.34 -320.732)" fill="#263238"/></g><g transform="translate(235.318 122.538)"><path d="M626.522,312.073,623.276,322.7l-7.2-5.531a20.557,20.557,0,0,0-.43-2.049c-.142-.336-1-1.334-1.192-1.722s-.473-.047-.473.241a4.772,4.772,0,0,0,.667,1.24l-.336.331-2.669-1.27a.258.258,0,0,0-.344.129h0a.25.25,0,0,0,.077.31l1.459,1.119-.189.379-2.432-1a.245.245,0,0,0-.323.146h0a.245.245,0,0,0,.108.284l2.217,1.291-1.446.284a.245.245,0,0,0-.185.314h0a.25.25,0,0,0,.232.168h1.494l-1.291.473s.168.374.43.362l1.528-.073,2.242.142s7.287,7.64,7.528,7.872,1.67.753,1.954.469,3.482-4.149,3.482-4.149l-.478-10.007S627.236,311.509,626.522,312.073Z" transform="translate(-573.569 -282.064)" fill="#fff"/><path d="M626.973,311.394a1.472,1.472,0,0,1,1.184.839.5.5,0,0,1,.052.2l.478,10.007a.5.5,0,0,1-.114.343c-.329.4-3.221,3.892-3.514,4.184a.887.887,0,0,1-.653.229,3.947,3.947,0,0,1-2-.692c-.231-.222-6.219-6.5-7.408-7.746l-2.019-.128-1.5.072h-.037a1.05,1.05,0,0,1-.873-.657.5.5,0,0,1-.042-.241.751.751,0,0,1-.408-.441l0-.013a.745.745,0,0,1,.562-.955l.149-.029-1.071-.624-.006,0a.743.743,0,0,1-.327-.863l.005-.015a.745.745,0,0,1,.981-.445l.525.216a.75.75,0,0,1-.08-.772.758.758,0,0,1,1.008-.372l0,0,1.887.9a1.763,1.763,0,0,1-.264-.747.868.868,0,0,1,.772-.915.722.722,0,0,1,.649.45,8.176,8.176,0,0,0,.544.772,5.911,5.911,0,0,1,.661.979.5.5,0,0,1,.023.067c.165.625.3,1.263.409,1.9l6.467,4.97,3.035-9.937a.5.5,0,0,1,.168-.246A1.217,1.217,0,0,1,626.973,311.394Zm.244,1.21c-.074-.107-.182-.21-.244-.21a.1.1,0,0,0-.028.005l-3.19,10.447a.5.5,0,0,1-.783.25l-7.2-5.531a.5.5,0,0,1-.189-.319c-.1-.655-.241-1.313-.409-1.956a1.768,1.768,0,0,0-.1-.155.5.5,0,0,1-.078.1l-.336.331a.5.5,0,0,1-.566.1l-.815-.388a.5.5,0,0,1,0,.448l-.189.379a.383.383,0,0,0-.385.582.347.347,0,0,0,.094.6.5.5,0,0,1-.073.361l.224-.011a.482.482,0,0,1,.056,0l2.242.142a.5.5,0,0,1,.33.154c2,2.1,7.221,7.567,7.508,7.852a3.493,3.493,0,0,0,1.314.417h0c.377-.422,2.112-2.5,3.268-3.9Z" transform="translate(-573.569 -282.064)" fill="#263238"/><path d="M649.639,273.549s-1.39.095-2.045-2.152,1.024-2.884,1.954-3.069,1.115-2.23,2.694-2.509a3.578,3.578,0,0,1,3.624,2.152c.374,1.128,2.789-.56,4.179.93s1.291,4.364,1.291,5.389,3.159,1.209,3.159,3.624-.374,3.624-.189,3.994,1.58,7.98,1.58,7.98H648.546s-.555-5.561.095-6.955,1.209-1.489,1.485-2.789a12.854,12.854,0,0,0-.185-4.274A22.849,22.849,0,0,1,649.639,273.549Z" transform="translate(-594.965 -255.798)" fill="#263238"/><path d="M652.686,265.281a3.96,3.96,0,0,1,2.3.808,3.731,3.731,0,0,1,1.358,1.725c.008.024.025.075.289.075a6.158,6.158,0,0,0,.675-.059,8.59,8.59,0,0,1,1.037-.081,2.671,2.671,0,0,1,2.07.812c1.446,1.549,1.432,4.345,1.426,5.539,0,.069,0,.133,0,.191.038.131.534.407.83.572.928.516,2.329,1.3,2.329,3.052a24.835,24.835,0,0,1-.175,2.891,5.233,5.233,0,0,0-.059.9,34.62,34.62,0,0,1,.9,4.243c.368,1.928.718,3.836.721,3.855a.5.5,0,0,1-.492.59H648.546a.5.5,0,0,1-.5-.45c-.058-.583-.549-5.74.139-7.216a7.512,7.512,0,0,1,.811-1.346,2.983,2.983,0,0,0,.637-1.336,12.509,12.509,0,0,0-.186-4.073l0-.008c-.119-.651-.21-1.312-.273-1.971-.584-.154-1.545-.68-2.061-2.451a2.886,2.886,0,0,1,.176-2.373,3.186,3.186,0,0,1,2.161-1.326c.188-.037.414-.405.633-.761a3.164,3.164,0,0,1,2.072-1.75A3.046,3.046,0,0,1,652.686,265.281Zm3.945,3.607a1.152,1.152,0,0,1-1.238-.759,3.176,3.176,0,0,0-2.707-1.848,2.045,2.045,0,0,0-.355.031c-.676.12-1.025.688-1.395,1.289-.331.539-.673,1.1-1.289,1.218a2.237,2.237,0,0,0-1.5.864,1.946,1.946,0,0,0-.07,1.575c.5,1.721,1.414,1.791,1.536,1.792a.473.473,0,0,1,.358.113.49.49,0,0,1,.169.348,22.436,22.436,0,0,0,.294,2.265,13.3,13.3,0,0,1,.183,4.471,3.969,3.969,0,0,1-.806,1.715,6.47,6.47,0,0,0-.715,1.181c-.4.862-.28,4.108-.092,6.244h16.286c-.52-2.818-1.287-6.846-1.435-7.274a2.847,2.847,0,0,1-.024-1.417,23.96,23.96,0,0,0,.169-2.783c0-1.084-.753-1.587-1.816-2.178-.691-.384-1.344-.748-1.344-1.446,0-.059,0-.125,0-.2.005-1.075.018-3.593-1.157-4.852a1.685,1.685,0,0,0-1.339-.494,7.7,7.7,0,0,0-.917.074A6.794,6.794,0,0,1,656.631,268.888Z" transform="translate(-594.965 -255.798)" fill="#263238"/><path d="M653.434,306.38l-5.2.095,1.02,12.727,9.852.745,4.644-13.2-5.574-.461Z" transform="translate(-595.41 -278.872)" fill="#263238"/><path d="M658.172,305.79l.041,0,5.574.461a.5.5,0,0,1,.43.664l-4.644,13.2a.5.5,0,0,1-.509.333l-9.852-.745a.5.5,0,0,1-.461-.459l-1.02-12.727a.5.5,0,0,1,.489-.54l5.2-.095,4.738-.09Zm4.887,1.405-4.9-.405-4.714.09-4.672.085.943,11.771,9.044.683Z" transform="translate(-595.41 -278.872)" fill="#263238"/><path d="M653.752,276.544a14.419,14.419,0,0,0-1.674,2.974,7.774,7.774,0,0,0-.232,3.646c.28,1.395,1.072,3.7,1.627,3.874a7.6,7.6,0,0,0,2.044,0l-.09,2.23h-.745l.09,3.344,3.534.185,1.859-3.624-.93-.185-.65-5.479a4.546,4.546,0,0,0,1.02-1.769,9.893,9.893,0,0,0,.095-1.115,1.661,1.661,0,0,1-2.044,0,5.256,5.256,0,0,1-1.489-2.694c-.28-.93-.835-1.67-1.291-1.67A3.624,3.624,0,0,0,653.752,276.544Z" transform="translate(-597.403 -261.767)" fill="#fff"/><path d="M654.876,275.76c.8,0,1.467,1.018,1.77,2.026a4.809,4.809,0,0,0,1.345,2.467.877.877,0,0,0,.608.244,1.564,1.564,0,0,0,.8-.273.5.5,0,0,1,.8.414,10.441,10.441,0,0,1-.1,1.168,4.394,4.394,0,0,1-.993,1.861l.581,4.9.574.114a.5.5,0,0,1,.347.719l-1.859,3.624a.5.5,0,0,1-.471.271l-3.534-.185a.5.5,0,0,1-.474-.486l-.09-3.344a.5.5,0,0,1,.5-.514h.264l.048-1.18c-.224.016-.488.029-.745.029a3.2,3.2,0,0,1-.928-.1c-.285-.091-.683-.374-1.231-1.774a15.939,15.939,0,0,1-.735-2.478l0-.012a8.312,8.312,0,0,1,.245-3.873,14.246,14.246,0,0,1,1.747-3.124.5.5,0,0,1,.208-.168,4.117,4.117,0,0,1,1.278-.323ZM658.6,281.5a1.884,1.884,0,0,1-1.278-.5,5.766,5.766,0,0,1-1.633-2.921,2.219,2.219,0,0,0-.811-1.312,3.115,3.115,0,0,0-.8.19,12.8,12.8,0,0,0-1.517,2.7l0,.016a7.307,7.307,0,0,0-.218,3.405,9.867,9.867,0,0,0,1.313,3.5,2.6,2.6,0,0,0,.6.048c.568,0,1.2-.074,1.209-.075a.5.5,0,0,1,.558.517l-.09,2.23a.5.5,0,0,1-.5.48H655.2l.064,2.369,2.749.144,1.409-2.747-.28-.056a.5.5,0,0,1-.4-.431l-.65-5.479a.5.5,0,0,1,.125-.394,3.889,3.889,0,0,0,.9-1.5v-.007q.017-.121.031-.243A2.171,2.171,0,0,1,658.6,281.5Z" transform="translate(-597.403 -261.767)" fill="#263238"/><path d="M660.53,300.58l1.58-.56-1.485,1.674Z" transform="translate(-602.417 -275.301)" fill="#263238"/><path d="M662.109,299.52a.5.5,0,0,1,.374.832L661,302.026a.5.5,0,0,1-.872-.289l-.095-1.115a.5.5,0,0,1,.331-.514l1.579-.56A.5.5,0,0,1,662.109,299.52Z" transform="translate(-602.417 -275.301)" fill="#263238"/><path d="M643.029,336.29l-1.02,3.254s-3.719,3.994-4.463,11.427.465,14.776.839,17.75,3.956,16.119,3.956,16.119h2.419s-.9-12.215-.9-13.425v-6.783l6.831,18.783,2.234.095s-.9-8.871-1.451-12.482A60.738,60.738,0,0,0,649.907,364s4.915-9.753,4.915-16.459-1.674-8.178-1.674-8.178l-.275-2.324Z" transform="translate(-589.189 -295.96)" fill="#bababa"/><path d="M643.029,335.79h.038l9.844.745a.5.5,0,0,1,.459.44l.256,2.163c.455.544,1.7,2.563,1.7,8.4a32.817,32.817,0,0,1-2.49,10.92c-1.037,2.766-2.088,4.966-2.392,5.588a61.49,61.49,0,0,1,1.531,6.9c.551,3.586,1.445,12.423,1.454,12.512a.5.5,0,0,1-.519.55l-2.234-.095a.5.5,0,0,1-.449-.329l-5.861-16.116v3.945c0,1.178.885,13.266.894,13.388a.5.5,0,0,1-.5.537H642.34a.5.5,0,0,1-.482-.369c-.147-.538-3.595-13.213-3.969-16.188-.041-.327-.092-.7-.151-1.14a72.272,72.272,0,0,1-.69-16.723,23.632,23.632,0,0,1,2.567-8.686,16.107,16.107,0,0,1,1.949-2.944l.988-3.151A.5.5,0,0,1,643.029,335.79Zm9.4,1.712-9.037-.684-.9,2.875a.5.5,0,0,1-.111.191,14.668,14.668,0,0,0-1.9,2.856,22.642,22.642,0,0,0-2.436,8.281,71.378,71.378,0,0,0,.686,16.49c.059.438.11.817.152,1.148.331,2.629,3.26,13.531,3.842,15.681h1.5c-.175-2.4-.857-11.843-.857-12.925v-6.783a.5.5,0,0,1,.97-.171l6.716,18.469,1.322.056c-.208-2.023-.923-8.855-1.389-11.882a60.445,60.445,0,0,0-1.557-6.971.5.5,0,0,1,.034-.363c.049-.1,4.862-9.726,4.862-16.234,0-6.114-1.423-7.715-1.509-7.806a.446.446,0,0,1-.162-.313Z" transform="translate(-589.189 -295.96)" fill="#263238"/><path d="M657.53,357.316a.5.5,0,0,1-.488-.609c.32-1.437.546-2.4.548-2.411a.5.5,0,1,1,.974.228c0,.01-.227.97-.545,2.4A.5.5,0,0,1,657.53,357.316Z" transform="translate(-600.708 -306.28)" fill="#263238"/><path d="M652.281,381.018a.5.5,0,0,1-.49-.4,25.125,25.125,0,0,1-.1-5.986,97.508,97.508,0,0,1,1.857-10.556.5.5,0,0,1,.977.211A100.544,100.544,0,0,0,652.69,374.7a24.9,24.9,0,0,0,.082,5.722.5.5,0,0,1-.491.6Z" transform="translate(-597.607 -311.845)" fill="#263238"/><path d="M643.224,449.09s-4.364,2.044-4.364,2.509,6.968,0,6.968,0a3.3,3.3,0,0,0,.185-1.395,3.349,3.349,0,0,0-.37-1.115Z" transform="translate(-590.073 -360.209)" fill="#fff"/><path d="M643.224,448.59h2.419a.5.5,0,0,1,.44.262,3.837,3.837,0,0,1,.425,1.281q0,.015,0,.031a3.775,3.775,0,0,1-.213,1.606.5.5,0,0,1-.437.329c-.031,0-3.137.208-5.2.208-.573,0-1.024-.016-1.34-.048-.289-.029-.966-.1-.966-.659,0-.367.322-.638.916-1.012.373-.234.89-.524,1.535-.861,1.088-.568,2.19-1.085,2.2-1.09A.5.5,0,0,1,643.224,448.59Zm2.1,1h-1.993c-1.429.672-2.594,1.287-3.3,1.708.176.005.385.008.633.008,1.623,0,3.92-.131,4.783-.184a2.782,2.782,0,0,0,.066-.861A2.839,2.839,0,0,0,645.329,449.59Z" transform="translate(-590.073 -360.209)" fill="#263238"/><path d="M664.3,445.78s-2.04,2.6-2.694,3.254-.465,1.115.095,1.115,3.719-.185,4.274-.555a3.621,3.621,0,0,0,.835-.745l-.275-2.974Z" transform="translate(-602.791 -358.324)" fill="#fff"/><path d="M664.3,445.28h.021l2.234.095a.5.5,0,0,1,.477.453l.275,2.974a.5.5,0,0,1-.111.363,4.117,4.117,0,0,1-.948.846c-.805.529-4.511.637-4.547.637a.963.963,0,0,1-.944-.552c-.1-.245-.17-.754.5-1.417.625-.621,2.633-3.182,2.653-3.208A.5.5,0,0,1,664.3,445.28Zm1.776,1.076-1.542-.065c-.5.632-2.01,2.535-2.577,3.1a1.4,1.4,0,0,0-.214.26,18.407,18.407,0,0,0,3.954-.472l0,0a3.12,3.12,0,0,0,.589-.492Z" transform="translate(-602.791 -358.324)" fill="#263238"/><path d="M679,311.25s.839,12.357.095,13.661-2.879.555-3.065,0a47.329,47.329,0,0,1,.185-5.393Z" transform="translate(-611.216 -281.697)" fill="#fff"/><path d="M679,310.75a.5.5,0,0,1,.5.466c0,.031.212,3.135.327,6.358.239,6.647-.137,7.3-.3,7.586a1.987,1.987,0,0,1-1.818.976c-.869,0-1.943-.428-2.155-1.065-.047-.142-.146-.437,0-3.09.069-1.27.162-2.487.163-2.5a.5.5,0,0,1,.025-.121l2.785-8.268A.5.5,0,0,1,679,310.75Zm-1.289,14.385a1,1,0,0,0,.95-.471c.066-.116.384-1,.166-7.055-.048-1.349-.113-2.677-.173-3.765l-1.945,5.776a46.339,46.339,0,0,0-.207,5.118A1.939,1.939,0,0,0,677.712,325.135Z" transform="translate(-611.216 -281.697)" fill="#263238"/><rect width="39.805" height="68.913" transform="translate(5.764 5.739) rotate(-8.29)" fill="#89ffaa"/><path d="M0-.5H39.8a.5.5,0,0,1,.5.5V68.913a.5.5,0,0,1-.5.5H0a.5.5,0,0,1-.5-.5V0A.5.5,0,0,1,0-.5ZM39.3.5H.5V68.413H39.3Z" transform="translate(5.764 5.739) rotate(-8.29)" fill="#263238"/><path d="M582.033,260.4a4.8,4.8,0,0,1-5.445-4.059,5.524,5.524,0,0,1-.043-.594l-22.618,3.293a4.358,4.358,0,0,1,.129.581,4.808,4.808,0,0,1-4.063,5.445c-.1,0-.194.022-.293.03l7.093,48.723c.1-.021.194-.043.293-.056a4.8,4.8,0,0,1,5.445,4.072,4.606,4.606,0,0,1,.047.594l22.614-3.293a4.275,4.275,0,0,1-.125-.585,4.795,4.795,0,0,1,4.059-5.44,4.608,4.608,0,0,1,.594-.047l-7.106-48.787A5.156,5.156,0,0,1,582.033,260.4Zm-11.191,34.433a3.516,3.516,0,1,1,0,.017Z" transform="translate(-539.289 -250.085)" fill="#fff"/><path d="M576.545,255.25a.5.5,0,0,1,.5.491,5.022,5.022,0,0,0,.039.536,4.27,4.27,0,0,0,1.684,2.824,4.3,4.3,0,0,0,3.192.807,4.662,4.662,0,0,0,.52-.112.5.5,0,0,1,.628.41l7.106,48.787a.5.5,0,0,1-.487.572,4.118,4.118,0,0,0-.53.042,4.295,4.295,0,0,0-3.636,4.873,3.8,3.8,0,0,0,.111.52.5.5,0,0,1-.409.633l-22.614,3.293a.5.5,0,0,1-.572-.487,4.124,4.124,0,0,0-.042-.529,4.3,4.3,0,0,0-4.878-3.649h-.008c-.069.009-.14.025-.223.043l-.028.006a.5.5,0,0,1-.6-.417l-7.093-48.723a.5.5,0,0,1,.451-.57c.029,0,.057-.007.086-.011a1.969,1.969,0,0,1,.208-.021,4.314,4.314,0,0,0,3.61-4.874,3.862,3.862,0,0,0-.114-.511.5.5,0,0,1,.407-.636l22.618-3.293A.5.5,0,0,1,576.545,255.25Zm4.792,5.7a5.333,5.333,0,0,1-3.167-1.051,5.263,5.263,0,0,1-2.077-3.487v-.009q-.005-.042-.01-.084l-21.546,3.137q.008.045.014.089a5.317,5.317,0,0,1-4.282,5.981l6.947,47.716a5.3,5.3,0,0,1,5.811,4.521q.007.046.013.092l21.549-3.138q-.008-.049-.015-.1a5.295,5.295,0,0,1,4.482-6.005l.093-.013L582.2,260.883l-.087.014A5.329,5.329,0,0,1,581.337,260.953Zm-11.621,17.719a8.382,8.382,0,0,1,1.2,16.675.5.5,0,0,1-.134,0,8.46,8.46,0,0,1-1.083.07,8.373,8.373,0,0,1-1.2-16.658A8.473,8.473,0,0,1,569.716,278.673Zm1.18,15.666A7.372,7.372,0,0,0,577,285.982a7.379,7.379,0,1,0-6.232,8.359A.5.5,0,0,1,570.9,294.339Z" transform="translate(-539.289 -250.085)" fill="#263238"/><rect width="39.973" height="69.206" transform="translate(0 11.804) rotate(-15.005)" fill="#89ffaa"/><path d="M0-.5H39.973a.5.5,0,0,1,.5.5V69.206a.5.5,0,0,1-.5.5H0a.5.5,0,0,1-.5-.5V0A.5.5,0,0,1,0-.5ZM39.471.5H.5V68.7H39.471Z" transform="translate(0 11.804) rotate(-15.005)" fill="#263238"/><path d="M567.766,265.1a4.8,4.8,0,0,1-5.879-3.4,5.854,5.854,0,0,1-.116-.585l-22.076,5.905a5.117,5.117,0,0,1,.194.564,4.8,4.8,0,0,1-3.4,5.879c-.095.026-.194.043-.288.065L548.923,321.1l.284-.09a4.8,4.8,0,0,1,5.879,3.4,4.679,4.679,0,0,1,.116.585l22.076-5.905a5.107,5.107,0,0,1-.194-.564,4.8,4.8,0,0,1,3.4-5.879,3.913,3.913,0,0,1,.585-.116l-12.74-47.617A4.828,4.828,0,0,1,567.766,265.1Zm-7.119,35.518a7.868,7.868,0,1,1,4.8-3.657A7.872,7.872,0,0,1,560.647,300.619Z" transform="translate(-531.6 -253.144)" fill="#fff"/><path d="M561.771,260.62a.5.5,0,0,1,.495.428,5.387,5.387,0,0,0,.105.532,4.269,4.269,0,0,0,5.768,2.866.5.5,0,0,1,.674.333l12.74,47.617a.5.5,0,0,1-.423.626,3.424,3.424,0,0,0-.511.1h-.005a4.308,4.308,0,0,0-3.047,5.265,4.615,4.615,0,0,0,.174.506.5.5,0,0,1-.333.673l-22.076,5.905a.5.5,0,0,1-.625-.417,4.184,4.184,0,0,0-.1-.523,4.294,4.294,0,0,0-5.256-3.044l-.273.087a.5.5,0,0,1-.635-.347l-12.723-47.565a.5.5,0,0,1,.372-.617l.111-.024c.057-.012.11-.023.157-.036a4.3,4.3,0,0,0,3.05-5.264,4.621,4.621,0,0,0-.174-.507.5.5,0,0,1,.333-.673l22.076-5.905A.5.5,0,0,1,561.771,260.62Zm4.753,5.145a5.31,5.31,0,0,1-5.119-3.93l0-.007-.021-.086-21.036,5.627.025.086v.005a5.3,5.3,0,0,1-3.557,6.435l12.46,46.581a5.293,5.293,0,0,1,6.3,3.8q.012.046.024.092l21.035-5.627-.025-.086,0-.006a5.31,5.31,0,0,1,3.753-6.491l.094-.025-12.461-46.574-.087.025A5.325,5.325,0,0,1,566.523,265.765Zm-7.883,18.869a8.379,8.379,0,1,1-2.155.283A8.38,8.38,0,0,1,558.641,284.634Zm-.01,15.748a7.373,7.373,0,1,0-7.121-5.486A7.4,7.4,0,0,0,558.631,300.382Z" transform="translate(-531.6 -253.144)" fill="#263238"/><path d="M651.547,336.639l-13.846-.28a29.624,29.624,0,0,0-3.254-.93,11.214,11.214,0,0,0-1.92.486.254.254,0,0,0-.172.293h0a.254.254,0,0,0,.293.2l1.339-.232.37.275-2.681,1.722a.258.258,0,0,0-.086.34h0a.258.258,0,0,0,.336.112l2.014-.947.069.508-2.152,1.123a.314.314,0,0,0-.146.392h0a.318.318,0,0,0,.362.189l.788-.181h0a.74.74,0,0,0,.77.245l1.468-.43-.93.594a.267.267,0,0,0-.039.43h0a.267.267,0,0,0,.327,0l1.859-1.27,1.593-1.016,14.031,2.471s1.184.1,1.39-.133a13.569,13.569,0,0,0,.641-3.052" transform="translate(-585.914 -295.47)" fill="#fff"/><path d="M652.5,341.259c-.174,0-.373-.009-.6-.029l-.043-.006-13.84-2.437-1.422.907-1.844,1.259a.766.766,0,0,1-.925-.012l-.022-.018a.769.769,0,0,1-.252-.449,1.243,1.243,0,0,1-.831-.221l-.535.123h-.006a.818.818,0,0,1-.929-.487l0-.01a.814.814,0,0,1,.165-.852.752.752,0,0,1-.26-.279.762.762,0,0,1,.254-1l1.328-.852a.753.753,0,0,1-.363-1.458,11.744,11.744,0,0,1,2-.506.5.5,0,0,1,.08-.006,22.679,22.679,0,0,1,3.34.931l13.771.278a.5.5,0,0,1-.01,1h-.01l-13.846-.28a.5.5,0,0,1-.148-.026c-1.2-.4-2.647-.838-3.039-.9l.151.113a.5.5,0,0,1-.028.822l-.521.334a.5.5,0,0,1,.329.4l.069.508a.5.5,0,0,1-.264.51l-1.187.619a.5.5,0,0,1,.193.145.24.24,0,0,0,.248.08l1.463-.429a.5.5,0,0,1,.545.185l.532-.363.013-.009,1.593-1.016a.5.5,0,0,1,.356-.071L652,340.236a4.558,4.558,0,0,0,.953-.011,17.913,17.913,0,0,0,.515-2.708.5.5,0,1,1,1,.06,16.863,16.863,0,0,1-.265,1.72c-.269,1.367-.413,1.532-.5,1.63S653.416,341.259,652.5,341.259Z" transform="translate(-585.914 -295.47)" fill="#263238"/><path d="M0,1.21A.5.5,0,0,1-.468.885.5.5,0,0,1-.175.242l1.9-.71a.5.5,0,0,1,.644.293.5.5,0,0,1-.293.644l-1.9.71A.5.5,0,0,1,0,1.21Z" transform="translate(46.949 43.537)" fill="#263238"/><path d="M654.45,285.9c0,.318-.164.581-.37.581s-.37-.263-.37-.581.168-.577.37-.577S654.45,285.578,654.45,285.9Z" transform="translate(-598.532 -266.928)" fill="#263238"/><path d="M659.28,286.917c0,.318-.168.577-.37.577s-.37-.258-.37-.577.168-.577.37-.577S659.28,286.6,659.28,286.917Z" transform="translate(-601.283 -267.509)" fill="#263238"/><path d="M654.606,283.9a.5.5,0,0,1-.284-.089c-.226-.156-.387-.174-.448-.123a.5.5,0,0,1-.766-.643,1.266,1.266,0,0,1,1.781-.057.5.5,0,0,1-.284.912Z" transform="translate(-598.412 -265.696)" fill="#263238"/><path d="M659.773,285.208a.5.5,0,0,1-.459-.3.544.544,0,0,0-.7-.29.5.5,0,0,1-.367-.93,1.54,1.54,0,0,1,1.985.821.5.5,0,0,1-.458.7Z" transform="translate(-601.22 -266.221)" fill="#263238"/><path d="M654.833,289.342a.5.5,0,0,1-.131-.017.984.984,0,0,1-.71-.553c-.113-.339.11-.607.419-.978a3.957,3.957,0,0,0,.322-.419,1.3,1.3,0,0,0,.025-.566.5.5,0,0,1,.984-.176,2.3,2.3,0,0,1-.061,1.063.5.5,0,0,1-.019.052,3.174,3.174,0,0,1-.482.686l-.023.028a.5.5,0,0,1-.324.881Z" transform="translate(-598.961 -267.725)" fill="#263238"/><path d="M655.393,294.631a3.211,3.211,0,0,1-1.243-.255.5.5,0,0,1,.418-.908,1.817,1.817,0,0,0,1.782-.165.5.5,0,1,1,.633.774A2.459,2.459,0,0,1,655.393,294.631Z" transform="translate(-598.902 -271.695)" fill="#263238"/></g><g transform="translate(111.259 55.831)"><circle cx="14.832" cy="14.832" r="14.832" transform="translate(21.039 24.08)" fill="#fff"/><path d="M14.832-.5A15.332,15.332,0,0,1,25.673,25.673,15.332,15.332,0,0,1,3.991,3.991,15.232,15.232,0,0,1,14.832-.5Zm0,29.664A14.332,14.332,0,1,0,.5,14.832,14.348,14.348,0,0,0,14.832,29.164Z" transform="translate(21.039 24.08)" fill="#263238"/><circle cx="14.832" cy="14.832" r="14.832" transform="translate(22.536 24.08)" fill="#fff"/><path d="M14.832-.5A15.332,15.332,0,0,1,25.673,25.673,15.332,15.332,0,0,1,3.991,3.991,15.232,15.232,0,0,1,14.832-.5Zm0,29.664A14.332,14.332,0,1,0,.5,14.832,14.348,14.348,0,0,0,14.832,29.164Z" transform="translate(22.536 24.08)" fill="#263238"/><circle cx="12.585" cy="12.585" r="12.585" transform="translate(19.573 38.911) rotate(-45)" fill="#fff"/><path d="M12.585-.5a13.085,13.085,0,0,1,9.253,22.338A13.085,13.085,0,1,1,3.333,3.333,13,13,0,0,1,12.585-.5Zm0,25.171A12.085,12.085,0,1,0,.5,12.585,12.1,12.1,0,0,0,12.585,24.671Z" transform="translate(19.573 38.911) rotate(-45)" fill="#263238"/><path d="M237.54,171.267l.469,21.744-.189,15.46,2.531-.374s2.72-14.526,2.72-15.37,1.5-11.621,1.5-11.621l2.811,13.963,1.459,13.4,2.531-.374s.323-14.526.323-17.148-.129-19.5-.129-19.5l-7.933-2.057Z" transform="translate(-237.428 -134.188)" fill="#263238"/><path d="M243.63,168.89a.5.5,0,0,1,.126.016l7.933,2.057a.5.5,0,0,1,.374.48c0,.169.129,16.908.129,19.5s-.32,17.013-.323,17.159a.5.5,0,0,1-.427.484l-2.531.374a.5.5,0,0,1-.57-.44l-1.457-13.376L244.661,184.1c-.531,3.9-1.091,8.157-1.091,8.627,0,.847-2.273,13.029-2.729,15.462a.5.5,0,0,1-.418.4l-2.531.374a.5.5,0,0,1-.573-.5l.189-15.452-.469-21.736a.5.5,0,0,1,.353-.489l6.09-1.877A.5.5,0,0,1,243.63,168.89Zm7.435,2.945-7.424-1.925-5.594,1.724L238.509,193q0,.008,0,.017l-.182,14.874,1.6-.236c1.083-5.792,2.637-14.3,2.646-14.928,0-.853,1.349-10.582,1.5-11.689a.5.5,0,0,1,.985-.03l2.811,13.963q0,.022.007.045l1.4,12.882,1.6-.237c.053-2.41.313-14.38.313-16.715C251.192,188.576,251.085,174.365,251.066,171.835Z" transform="translate(-237.428 -134.188)" fill="#263238"/><path d="M240.721,259.32s3.749,2.436,3.189,3.013-3.659,0-4.5-.095a2.839,2.839,0,0,1-1.123-.28l-.095-2.251Z" transform="translate(-237.798 -185.411)" fill="#fff"/><path d="M240.721,258.82a.5.5,0,0,1,.272.081c.033.021.814.53,1.62,1.145,1.559,1.19,1.81,1.706,1.849,2.053a.707.707,0,0,1-.193.582,2.1,2.1,0,0,1-1.543.4,21.59,21.59,0,0,1-2.8-.273c-.227-.033-.424-.061-.557-.076a3.319,3.319,0,0,1-1.3-.328.5.5,0,0,1-.282-.429l-.095-2.251a.5.5,0,0,1,.424-.515l2.531-.387A.5.5,0,0,1,240.721,258.82Zm2.634,3.22a15.229,15.229,0,0,0-2.748-2.2l-1.9.291.062,1.484a2.325,2.325,0,0,0,.657.121l.036,0c.149.017.36.047.6.082a20.849,20.849,0,0,0,2.658.262A3.466,3.466,0,0,0,243.355,262.04Z" transform="translate(-237.798 -185.411)" fill="#263238"/><path d="M266.321,259.32s3.749,2.436,3.185,3.013-3.654,0-4.5-.095a2.839,2.839,0,0,1-1.123-.28l-.095-2.251Z" transform="translate(-252.38 -185.411)" fill="#fff"/><path d="M266.321,258.82a.5.5,0,0,1,.272.081c.033.021.814.53,1.619,1.145,1.559,1.19,1.808,1.706,1.847,2.053a.707.707,0,0,1-.2.583,2.1,2.1,0,0,1-1.543.4,21.5,21.5,0,0,1-2.793-.272c-.227-.033-.424-.061-.558-.077a3.319,3.319,0,0,1-1.3-.328.5.5,0,0,1-.282-.429l-.095-2.251a.5.5,0,0,1,.424-.515l2.531-.387A.5.5,0,0,1,266.321,258.82Zm2.632,3.22a15.142,15.142,0,0,0-2.746-2.2l-1.9.291.062,1.484a2.325,2.325,0,0,0,.657.121l.036,0c.149.017.361.047.606.082a20.769,20.769,0,0,0,2.651.262A3.447,3.447,0,0,0,268.953,262.04Z" transform="translate(-252.38 -185.411)" fill="#263238"/><path d="M314.56,141.479l3.379-.779s3.245,1.722,3.516,1.967-.271.271-.861.271a21.908,21.908,0,0,1-2.742-.547s1.416.43,1.188.641a1.167,1.167,0,0,1-.913.228c-.228-.047-1.1-.185-1.1-.185s-1.506-.043-1.963-.138l-.456-.09Z" transform="translate(-281.298 -117.847)" fill="#fff"/><path d="M317.939,140.2a.5.5,0,0,1,.234.058c1.233.654,3.342,1.788,3.618,2.038a.608.608,0,0,1,.2.686c-.176.456-.768.456-1.4.456a.5.5,0,0,1-.066,0q-.521-.07-1.042-.164a.59.59,0,0,1-.106.131l-.033.028a1.666,1.666,0,0,1-1.3.326l-.017,0c-.17-.035-.782-.134-1.043-.176a18.548,18.548,0,0,1-2.018-.147l-.452-.09a.5.5,0,0,1-.4-.472l-.052-1.369a.5.5,0,0,1,.387-.506l3.379-.779A.5.5,0,0,1,317.939,140.2Zm1.955,2.126c-.591-.327-1.32-.722-2.024-1.1l-2.794.644.021.561.069.014a18.083,18.083,0,0,0,1.88.128.5.5,0,0,1,.064.006l.305.049a.5.5,0,0,1,.568-.723C318.61,142.076,319.25,142.216,319.894,142.326Z" transform="translate(-281.298 -117.847)" fill="#263238"/><path d="M248.686,110.834s-7.687,4.3-8.677,5.539-1.321,7.438-1.984,11.819a87.208,87.208,0,0,0-.745,9.835,72.9,72.9,0,0,0,8.608.663,23.905,23.905,0,0,0,5.539-.826s1.076-5.539,1.321-6.366,2.234-10.76,2.234-10.76l6.116,4.877h9.443v-1.4s-7.472-1.722-7.554-1.993-6.366-9.258-8.268-10.33S250.012,109.84,248.686,110.834Z" transform="translate(-237.28 -100.601)" fill="#89ffaa"/><path d="M250.169,109.921h0a11.351,11.351,0,0,1,4.8,1.536c.867.488,2.539,2.373,4.971,5.6,1.081,1.435,1.969,2.684,2.4,3.3.626.892.9,1.3,1.021,1.507.71.29,4.617,1.247,7.295,1.864a.5.5,0,0,1,.388.487v1.4a.5.5,0,0,1-.5.5H261.1a.5.5,0,0,1-.312-.109l-5.475-4.366c-.482,2.4-1.874,9.294-2.084,10-.189.635-.939,4.411-1.31,6.319a.5.5,0,0,1-.36.387,24.435,24.435,0,0,1-5.655.844c-.163,0-.335.007-.514.007-1.316,0-3.093-.113-5.281-.337-.849-.087-1.591-.174-2.063-.231l-.61-.076-.165-.021a.5.5,0,0,1-.491-.5s0-.006,0-.009a88.045,88.045,0,0,1,.749-9.891v-.009c.2-1.33.374-2.848.541-4.316.479-4.213.822-6.836,1.548-7.741,1.011-1.261,7.88-5.135,8.8-5.648A2.931,2.931,0,0,1,250.169,109.921Zm12.358,12.5c-.17-.3-1.694-2.515-3.494-4.9-2.195-2.9-3.856-4.8-4.558-5.191a10.1,10.1,0,0,0-4.306-1.407h0a1.95,1.95,0,0,0-1.183.313.494.494,0,0,1-.056.036c-3.056,1.711-7.85,4.565-8.531,5.416-.6.745-.989,4.19-1.334,7.229-.168,1.475-.341,3-.545,4.348a87.066,87.066,0,0,0-.73,9.326,73.2,73.2,0,0,0,7.6.608c.17,0,.333,0,.485-.006a23.432,23.432,0,0,0,5.122-.73c.232-1.189,1.055-5.37,1.273-6.1.2-.66,1.671-7.959,2.223-10.716a.5.5,0,0,1,.8-.293l5.979,4.768h8.768v-.5c-.647-.151-2.01-.471-3.366-.807-1.1-.271-1.973-.5-2.608-.676C262.954,122.818,262.64,122.7,262.527,122.417Z" transform="translate(-237.28 -100.601)" fill="#263238"/><path d="M262.962,105.81l-1.4,3.387s-.663.168-.495,1.489,1.816,5.04,2.393,4.958,2.4-5.019,2.4-5.019Z" transform="translate(-250.811 -97.974)" fill="#fff"/><path d="M262.962,105.31a.5.5,0,0,1,.429.243l2.892,4.816a.5.5,0,0,1,.04.43c0,.012-.465,1.26-.991,2.5-1.079,2.547-1.442,2.789-1.805,2.84a.639.639,0,0,1-.089.006c-.337,0-.641-.244-1.016-.817a11.947,11.947,0,0,1-.785-1.462,13.355,13.355,0,0,1-1.069-3.117c-.151-1.188.288-1.7.6-1.906l1.336-3.225a.5.5,0,0,1,.425-.307Zm2.339,5.367-2.257-3.759-1.023,2.471a.5.5,0,0,1-.3.283c-.076.045-.241.292-.157.952a11.7,11.7,0,0,0,.885,2.6,9.823,9.823,0,0,0,.959,1.763A16.343,16.343,0,0,0,264.5,112.7C264.849,111.866,265.159,111.056,265.3,110.677Z" transform="translate(-250.811 -97.974)" fill="#263238"/><path d="M267.35,114.5l.585,4.515,1.1-2.221Z" transform="translate(-254.407 -102.924)" fill="#263238"/><path d="M267.35,114a.5.5,0,0,1,.4.2l1.687,2.294a.5.5,0,0,1,.045.518l-1.1,2.221a.5.5,0,0,1-.944-.158l-.585-4.515a.5.5,0,0,1,.5-.564Zm1.1,2.845-.359-.488.125.961Z" transform="translate(-254.407 -102.924)" fill="#263238"/><path d="M273.022,93.456a1.722,1.722,0,0,0,1.98.168c1.244-.581,1.821-1.821.745-2.811s-1.653.082-1.984-1.24a2.428,2.428,0,0,0-2.789-1.9c-1.136.327-.74.745-1.567.99s-1.9-.495-2.978.581-1.24,3.637-1.485,4.795.826,1.485,1.722,1.4,1.653-1.984,2.4-2.582S273.022,93.456,273.022,93.456Z" transform="translate(-253.016 -87.604)" fill="#263238"/><path d="M266.4,95.952a2.1,2.1,0,0,1-1.68-.661,1.552,1.552,0,0,1-.272-1.358c.049-.229.094-.52.147-.857.214-1.36.507-3.221,1.473-4.188a2.41,2.41,0,0,1,1.808-.751,6.015,6.015,0,0,1,.64.043c.167.017.325.034.465.034a.979.979,0,0,0,.277-.033.608.608,0,0,0,.387-.259,2.047,2.047,0,0,1,1.184-.733,2.237,2.237,0,0,1,.619-.087,3.045,3.045,0,0,1,2.793,2.348.911.911,0,0,0,.137.351,1.23,1.23,0,0,0,.2.02,2.138,2.138,0,0,1,1.5.622,1.991,1.991,0,0,1,.706,1.784,2.6,2.6,0,0,1-1.557,1.838,2.222,2.222,0,0,1-2.461-.169,11.761,11.761,0,0,0-3.014-.708.775.775,0,0,0-.385.058,5.274,5.274,0,0,0-.779.994c-.542.8-1.1,1.624-1.885,1.7C266.609,95.947,266.506,95.952,266.4,95.952Zm1.477-6.814a1.431,1.431,0,0,0-1.1.458c-.736.736-1.011,2.481-1.193,3.636-.055.351-.1.654-.157.909-.073.344.035.477.07.521a1.209,1.209,0,0,0,.9.291c.071,0,.143,0,.214-.01.312-.028.815-.77,1.148-1.261a5.664,5.664,0,0,1,.981-1.213,1.571,1.571,0,0,1,1.011-.278,13.011,13.011,0,0,1,3.436.8.5.5,0,0,1,.148.086,1.222,1.222,0,0,0,1.4.119l.041-.022a1.654,1.654,0,0,0,1.012-1.094,1,1,0,0,0-.395-.9,1.168,1.168,0,0,0-.877-.359c-.519-.028-1-.135-1.253-1.126a2.052,2.052,0,0,0-1.823-1.591,1.237,1.237,0,0,0-.342.048,1.083,1.083,0,0,0-.686.4,1.579,1.579,0,0,1-.877.584,1.953,1.953,0,0,1-.561.074,5.484,5.484,0,0,1-.569-.039A5.173,5.173,0,0,0,267.882,89.138Z" transform="translate(-253.016 -87.604)" fill="#263238"/><path d="M265.041,100.8a7.959,7.959,0,0,0,.43,2.4c.349.581,1.722,3.306,2.23,3.306a4.515,4.515,0,0,0,1.571-.168,14.488,14.488,0,0,0,2.479-3.387,18.3,18.3,0,0,0,1.326-4.463s-3.968-2.479-4.218-1.984-.164,1.24-.577,1.321-1.321.168-1.321.168.245,1.158-.086,1.4-1.158-.245-1.158-.245S264.71,99.314,265.041,100.8Z" transform="translate(-253.054 -92.636)" fill="#fff"/><path d="M269.013,95.938c.289,0,.841.124,2.569,1.088.918.513,1.725,1.016,1.759,1.037a.5.5,0,0,1,.228.507,18.505,18.505,0,0,1-1.382,4.623,13.863,13.863,0,0,1-2.7,3.593.5.5,0,0,1-.082.032,5.022,5.022,0,0,1-1.733.187c-.545-.017-1.056-.68-2.34-3.018-.125-.228-.233-.425-.3-.53a7.5,7.5,0,0,1-.5-2.589,2.057,2.057,0,0,1,.209-1.62,1.4,1.4,0,0,1,.884-.591.5.5,0,0,1,.335.064,2.191,2.191,0,0,0,.569.234,3.265,3.265,0,0,0-.07-.859.5.5,0,0,1,.442-.6c.008,0,.777-.074,1.191-.146a2.974,2.974,0,0,0,.081-.328,2.948,2.948,0,0,1,.228-.743A.635.635,0,0,1,269.013,95.938Zm3.51,2.8a22.585,22.585,0,0,0-3.306-1.75c-.02.078-.037.16-.054.241-.081.388-.2.975-.785,1.09-.219.043-.558.087-.844.12a1.513,1.513,0,0,1-.363,1.363.9.9,0,0,1-.545.167,2.329,2.329,0,0,1-.944-.265c-.172.124-.28.432-.154,1a.5.5,0,0,1,.011.086,7.505,7.505,0,0,0,.36,2.163c.073.121.18.316.315.563a15.035,15.035,0,0,0,1.584,2.5,4.014,4.014,0,0,0,1.26-.133,16.68,16.68,0,0,0,2.255-3.17A16.256,16.256,0,0,0,272.524,98.733Z" transform="translate(-253.054 -92.636)" fill="#263238"/><path d="M274.964,106.4c-.073.314-.275.538-.43.5s-.258-.331-.185-.646.275-.542.452-.5S275.046,106.085,274.964,106.4Z" transform="translate(-258.38 -97.939)" fill="#263238"/><path d="M279.952,107.8c-.078.319-.275.538-.452.5s-.258-.331-.185-.646.275-.542.43-.5S280.025,107.485,279.952,107.8Z" transform="translate(-261.207 -98.736)" fill="#263238"/><path d="M275,104.856a.5.5,0,0,1-.132-.018,1.528,1.528,0,0,0-.885-.065.5.5,0,0,1-.588-.807c.123-.1.613-.4,1.736-.092a.5.5,0,0,1-.131.983Z" transform="translate(-258.03 -97.079)" fill="#263238"/><path d="M280.941,106.9a.5.5,0,0,1-.414-.219.7.7,0,0,0-.5-.3.5.5,0,0,1,.113-.994,1.7,1.7,0,0,1,1.218.737.5.5,0,0,1-.413.781Z" transform="translate(-261.658 -98.014)" fill="#263238"/><path d="M276.272,110.87a.5.5,0,0,1-.062,0l-1.042-.129a.5.5,0,1,1,.123-.992l.574.071.241-1.3a.5.5,0,1,1,.983.183l-.327,1.76A.5.5,0,0,1,276.272,110.87Z" transform="translate(-258.896 -99.569)" fill="#263238"/><path d="M272.761,113.509c-.056,0-1.385-.02-1.779-1.758a.5.5,0,0,1,.975-.221c.209.921.754.976.816.979h-.012Z" transform="translate(-256.754 -101.295)" fill="#263238"/><path d="M264.939,101.952s-.164-1.9-.908-1.9-1.4,1.722-.99,2.479a2.466,2.466,0,0,0,1.485.99" transform="translate(-251.88 -94.693)" fill="#fff"/><path d="M264.526,104.019a.5.5,0,0,1-.106-.011,2.9,2.9,0,0,1-1.818-1.239,2.658,2.658,0,0,1,.25-2.39,1.44,1.44,0,0,1,1.179-.828c.385,0,.908.228,1.215,1.316a6.325,6.325,0,0,1,.192,1.044.5.5,0,0,1-1,.086h0a3,3,0,0,0-.425-1.441.9.9,0,0,0-.351.419,1.709,1.709,0,0,0-.185,1.316,1.936,1.936,0,0,0,1.154.741.5.5,0,0,1-.107.988Z" transform="translate(-251.88 -94.693)" fill="#263238"/><path d="M245.565,122.957,247,134.836l12.052,4.119.189,1.395-16.115-2.2-2.582-13.369a4.856,4.856,0,0,1,1.679-4.369,5.463,5.463,0,0,1,2.974-1.037" transform="translate(-239.1 -105.703)" fill="#89ffaa"/><path d="M259.239,140.85a.5.5,0,0,1-.068,0l-16.115-2.2a.5.5,0,0,1-.423-.4l-2.582-13.369a4.763,4.763,0,0,1,.316-2.708,5.674,5.674,0,0,1,1.53-2.136,5.934,5.934,0,0,1,3.284-1.156.5.5,0,0,1,.028,1,4.986,4.986,0,0,0-2.664.918,4.358,4.358,0,0,0-1.512,3.893l2.514,13.017,15.108,2.058-.059-.437-11.759-4.019a.5.5,0,0,1-.335-.413l-1.433-11.879a.5.5,0,1,1,.993-.12l1.4,11.568,11.755,4.018a.5.5,0,0,1,.334.406l.189,1.395a.5.5,0,0,1-.5.567Z" transform="translate(-239.1 -105.703)" fill="#263238"/><path d="M283.59,164.083s1.92-.538,2.152-.585,1.537.964,1.795,1,.7.116.676.456-.133.615-.762.4a7.32,7.32,0,0,1-1.042-.43,20.838,20.838,0,0,0,1.877,1.7,3.219,3.219,0,0,1,.646.534.271.271,0,0,1-.082.43,4.544,4.544,0,0,1-1.64.43c-.921,0-3.443-2.535-3.443-2.535Z" transform="translate(-263.658 -130.831)" fill="#fff"/><path d="M285.76,163c.27,0,.56.172,1.257.626.206.134.512.333.625.384.974.143,1.089.673,1.07.978a.9.9,0,0,1-.551.887q.206.175.417.344a3.72,3.72,0,0,1,.721.6.771.771,0,0,1-.234,1.223,5.022,5.022,0,0,1-1.82.477h-.034c-.354,0-.945-.158-2.391-1.387-.753-.64-1.381-1.269-1.407-1.3a.5.5,0,0,1-.142-.29l-.176-1.4a.5.5,0,0,1,.361-.544c.323-.091,1.949-.545,2.187-.594A.59.59,0,0,1,285.76,163Zm.654,1.426c-.217-.141-.521-.336-.673-.41-.277.07-.994.268-1.6.437l.1.8c.215.211.7.671,1.23,1.125,1.236,1.05,1.662,1.137,1.729,1.144a4.024,4.024,0,0,0,1.124-.249,2.719,2.719,0,0,0-.3-.222.5.5,0,0,1-.047-.033,21.415,21.415,0,0,1-1.922-1.741.5.5,0,0,1,.362-.849Z" transform="translate(-263.658 -130.831)" fill="#263238"/><text transform="translate(32.425 47.493) rotate(-5)" fill="#272727" font-size="20" font-family="SegoeUI, Segoe UI"><tspan x="0" y="0">`</tspan></text></g><g transform="translate(110.127 108.173)"><path d="M458.2,238.395s12.318-6.947,14.113-6.275-1.571,14.337-2.019,15.232S458.2,238.395,458.2,238.395Z" transform="translate(-361.981 -222.234)" fill="#89ffaa"/><path d="M472,231.574a1.38,1.38,0,0,1,.488.077,1.11,1.11,0,0,1,.627.685c.438,1.114.22,3.9-.647,8.281a56.726,56.726,0,0,1-1.727,6.958.615.615,0,0,1-.567.334c-.324,0-1,0-6.793-4.616-2.8-2.232-5.478-4.494-5.5-4.517a.5.5,0,0,1,.077-.817c.028-.016,2.848-1.6,5.948-3.171,1.826-.923,3.392-1.659,4.655-2.188A10.728,10.728,0,0,1,472,231.574Zm.123,1.01a.593.593,0,0,0-.123-.01c-1.894,0-9.45,3.976-12.924,5.9.911.763,2.827,2.356,4.823,3.949,4.076,3.252,5.54,4.154,6.058,4.4.3-.953,1.042-3.822,1.642-6.977C472.786,233.611,472.205,232.679,472.123,232.584Z" transform="translate(-361.981 -222.234)" fill="#263238"/><path d="M481.047,248.188q-.056,0-.112-.006c-.323-.032-1.375-.316-1.375-2.648,0-1.928,1.566-5.091,2.88-7.4.679-1.195,1.206-2.016,1.228-2.051a.5.5,0,0,1,.841.54c-.005.008-.535.835-1.2,2-1.773,3.122-2.75,5.576-2.75,6.911,0,1.2.325,1.638.473,1.652s.581-.344.775-1.319l0-.02,1.567-6.5a.5.5,0,0,1,.972.234l-1.564,6.489C482.529,247.357,481.839,248.188,481.047,248.188Z" transform="translate(-374.432 -224.67)" fill="#263238"/><ellipse cx="6.116" cy="7.963" rx="6.116" ry="7.963" transform="translate(0 36.683)" fill="#89ffaa"/><path d="M6.116-.5a5.958,5.958,0,0,1,4.721,2.528,9.758,9.758,0,0,1,1.895,5.935A9.758,9.758,0,0,1,10.837,13.9a5.958,5.958,0,0,1-4.721,2.528A5.958,5.958,0,0,1,1.395,13.9,9.758,9.758,0,0,1-.5,7.963,9.758,9.758,0,0,1,1.395,2.028,5.958,5.958,0,0,1,6.116-.5Zm0,15.925c3.1,0,5.616-3.348,5.616-7.463S9.213.5,6.116.5.5,3.848.5,7.963,3.019,15.425,6.116,15.425Z" transform="translate(0 36.683)" fill="#263238"/><ellipse cx="58.278" cy="49.338" rx="58.278" ry="49.338" transform="translate(3.275 3.106)" fill="#89ffaa"/><path d="M58.278-.5A67.585,67.585,0,0,1,81.131,3.407,60.115,60.115,0,0,1,99.81,14.069a53.067,53.067,0,0,1,7.184,7.372,48.05,48.05,0,0,1,5.43,8.469,43.056,43.056,0,0,1,0,38.856,48.051,48.051,0,0,1-5.43,8.469,53.069,53.069,0,0,1-7.184,7.372A60.115,60.115,0,0,1,81.131,95.27a68.8,68.8,0,0,1-45.706,0A60.115,60.115,0,0,1,16.746,84.607a53.069,53.069,0,0,1-7.184-7.372,48.051,48.051,0,0,1-5.43-8.469,43.056,43.056,0,0,1,0-38.856,48.05,48.05,0,0,1,5.43-8.469,53.067,53.067,0,0,1,7.184-7.372A60.115,60.115,0,0,1,35.425,3.407,67.585,67.585,0,0,1,58.278-.5Zm0,98.677c31.859,0,57.778-21.909,57.778-48.838S90.137.5,58.278.5.5,22.409.5,49.338,26.419,98.176,58.278,98.176Z" transform="translate(3.275 3.106)" fill="#263238"/><path d="M344.38,379.186A60.738,60.738,0,0,1,306.53,391.9c-26.148,0-48.051-15.4-53.75-36.064" transform="translate(-244.977 -292.73)" fill="#89ffaa"/><path d="M306.53,392.9a65.079,65.079,0,0,1-18.918-2.772,59.384,59.384,0,0,1-16.187-7.683,51.568,51.568,0,0,1-12.319-11.655,43.867,43.867,0,0,1-7.29-14.689,1,1,0,0,1,1.928-.532c5.736,20.8,27.442,35.33,52.786,35.33,13.886,0,27.107-4.44,37.227-12.5A1,1,0,1,1,345,379.968C334.53,388.31,320.867,392.9,306.53,392.9Z" transform="translate(-244.977 -292.73)" fill="#263238"/><path d="M249.46,310.965c-.022-.512-.03-1.029-.03-1.549A40.338,40.338,0,0,1,252.9,293.06" transform="translate(-243.068 -256.971)" fill="#89ffaa"/><path d="M249.459,311.965a1,1,0,0,1-1-.958c-.021-.5-.031-1.017-.031-1.591a41.338,41.338,0,0,1,3.555-16.761,1,1,0,1,1,1.828.811,39.094,39.094,0,0,0-3.383,15.95c0,.546.01,1.039.029,1.507a1,1,0,0,1-.957,1.041Z" transform="translate(-243.068 -256.971)" fill="#263238"/><path d="M372.08,228.333a2.5,2.5,0,0,1-.681-.095,61.935,61.935,0,0,0-33.718,0,2.5,2.5,0,0,1-1.36-4.811,66.933,66.933,0,0,1,36.439,0,2.5,2.5,0,0,1-.679,4.906Z" transform="translate(-292.947 -217.294)" fill="#263238"/><path d="M497.272,293.666s7.395-2.466,8.514-1.119,1.119,17.023.224,19.937-6.947,2.238-11.191-.9a8.957,8.957,0,0,1-3.8-7.618" transform="translate(-380.669 -256.45)" fill="#89ffaa"/><path d="M502.475,314.841a11.2,11.2,0,0,1-2.76-.377,15.422,15.422,0,0,1-5.189-2.47,9.428,9.428,0,0,1-4.012-8.04.5.5,0,1,1,1,.032,8.432,8.432,0,0,0,3.592,7.193l.01.007a14.4,14.4,0,0,0,4.848,2.309,7.754,7.754,0,0,0,4.159.116,1.988,1.988,0,0,0,1.408-1.274c.4-1.286.651-5.552.622-10.375-.014-2.3-.1-4.45-.23-6.064-.214-2.574-.492-2.992-.523-3.031-.051-.062-.607-.583-4.182.223-1.942.438-3.771,1.045-3.789,1.051a.5.5,0,0,1-.316-.949c.076-.026,1.9-.63,3.885-1.078,3.833-.864,4.787-.349,5.171.114.232.279.527.935.747,3.551.138,1.636.221,3.818.236,6.146.026,4.165-.169,9.091-.665,10.706a2.969,2.969,0,0,1-2.051,1.93A6.308,6.308,0,0,1,502.475,314.841Z" transform="translate(-380.669 -256.45)" fill="#263238"/><path d="M0,1.172A.5.5,0,0,1-.494.746.5.5,0,0,1-.074.177L4.407-.494a.5.5,0,0,1,.569.42.5.5,0,0,1-.42.569L.074,1.166A.5.5,0,0,1,0,1.172Z" transform="translate(107.642 46.849)" fill="#263238"/><path d="M491.971,329.51s-1.119,7.842.224,8.066,3.585-3.809,3.585-3.809S492.643,330.181,491.971,329.51Z" transform="translate(-380.968 -277.733)" fill="#263238"/><path d="M491.971,329.01a.5.5,0,0,1,.354.146c.675.675,3.7,4.134,3.832,4.281a.5.5,0,0,1,.061.572,20.858,20.858,0,0,1-1.264,1.962c-1.057,1.442-1.9,2.113-2.647,2.113a1.178,1.178,0,0,1-.193-.016c-.91-.152-1.209-1.5-1.032-4.638.112-1.987.393-3.972.4-3.992a.5.5,0,0,1,.495-.429Zm3.2,4.816c-.549-.626-1.932-2.2-2.835-3.194-.078.674-.174,1.6-.236,2.545-.2,3.1.134,3.784.221,3.907.127-.008.682-.14,1.829-1.7C494.587,334.78,494.96,334.176,495.168,333.827Z" transform="translate(-380.968 -277.733)" fill="#263238"/><path d="M479.366,283.4c.43,1.614.168,3.077-.551,3.263s-1.636-.977-2.053-2.582-.168-3.077.551-3.263S478.953,281.778,479.366,283.4Z" transform="translate(-372.438 -249.985)" fill="#263238"/><path d="M428.39,220.915s14.1-14.1,16.846-11.346,1.722,14.785,1.722,16.506v4.812" transform="translate(-345.002 -209.213)" fill="#89ffaa"/><path d="M446.958,231.387a.5.5,0,0,1-.5-.5v-4.812c0-.256.021-.7.049-1.326.086-1.875.23-5.012.063-8.036-.247-4.465-1.054-6.157-1.687-6.791-.439-.439-1.574-.191-3.2.7a38.674,38.674,0,0,0-5.582,3.974c-3.805,3.128-7.325,6.64-7.361,6.675a.5.5,0,0,1-.707-.707c.035-.035,3.586-3.578,7.428-6.737a39.651,39.651,0,0,1,5.74-4.081c2.137-1.169,3.572-1.342,4.386-.527,1.116,1.116,1.763,3.551,1.978,7.443.17,3.075.025,6.244-.062,8.137-.027.585-.048,1.047-.048,1.28v4.812A.5.5,0,0,1,446.958,231.387Z" transform="translate(-345.002 -209.213)" fill="#263238"/><path d="M456.213,233.89a2.9,2.9,0,0,1-2.392-1.108c-.278-.372-.546-1.146-.147-3.859A59.4,59.4,0,0,1,455,222.779c1.029-3.917,2.612-8.778,3.519-10.072.221-.315.808-1.153,1.508-.908.575.2.7.974.74,1.537a8.432,8.432,0,0,1,.008,1.032.5.5,0,0,1-1-.062h0a5.3,5.3,0,0,0-.09-1.451,2.942,2.942,0,0,0-.348.426c-.725,1.035-2.206,5.319-3.371,9.753a58.4,58.4,0,0,0-1.3,6.035c-.379,2.575-.078,3.067-.042,3.115a2.13,2.13,0,0,0,2.184.647,3.91,3.91,0,0,0,2.984-2.942c.855-3.244.215-12.737.208-12.832a.5.5,0,1,1,1-.069c.027.4.658,9.754-.239,13.156A4.9,4.9,0,0,1,457,233.812,4.108,4.108,0,0,1,456.213,233.89Z" transform="translate(-359.574 -210.946)" fill="#263238"/><path d="M289.34,407.04l7.713,20.845h8.514l3.8-10.756" transform="translate(-265.801 -321.893)" fill="#89ffaa"/><path d="M305.567,428.385h-8.514a.5.5,0,0,1-.469-.326l-7.713-20.845a.5.5,0,1,1,.938-.347l7.592,20.518h7.812l3.687-10.423a.5.5,0,1,1,.943.333l-3.8,10.756A.5.5,0,0,1,305.567,428.385Z" transform="translate(-265.801 -321.893)" fill="#263238"/><path d="M428.463,413.31l-7.39,18.146h-8.514L408.75,420.7" transform="translate(-333.815 -325.464)" fill="#89ffaa"/><path d="M421.073,431.956h-8.514a.5.5,0,0,1-.471-.333l-3.809-10.756a.5.5,0,0,1,.943-.334l3.691,10.423h7.824L428,413.121a.5.5,0,0,1,.926.377l-7.39,18.146A.5.5,0,0,1,421.073,431.956Z" transform="translate(-333.815 -325.464)" fill="#263238"/><ellipse cx="14.014" cy="13.571" rx="14.014" ry="13.571" transform="translate(61.239 24.739)" fill="#fff" opacity="0.35"/><text transform="matrix(0.996, -0.087, 0.087, 0.996, 44.863, 78.483)" fill="#272727" font-size="55" font-family="SegoeUI, Segoe UI"><tspan x="0" y="0">`</tspan></text></g><g transform="translate(16.03 214.165)"><path d="M310.47.5H0A.5.5,0,0,1-.5,0,.5.5,0,0,1,0-.5H310.47a.5.5,0,0,1,.5.5A.5.5,0,0,1,310.47.5Z" fill="#263238"/></g></g></g></svg>