<svg xmlns="http://www.w3.org/2000/svg" xmlns:xlink="http://www.w3.org/1999/xlink" width="413.658" height="413.658" viewBox="0 0 413.658 413.658"><defs><filter id="a" x="0" y="0" width="413.658" height="413.658" filterUnits="userSpaceOnUse"><feOffset dy="3" input="SourceAlpha"/><feGaussianBlur stdDeviation="3" result="b"/><feFlood flood-opacity="0.161"/><feComposite operator="in" in2="b"/><feComposite in="SourceGraphic"/></filter></defs><g transform="translate(-738.051 -2076)"><g transform="matrix(1, 0, 0, 1, 738.05, 2076)" filter="url(#a)"><rect width="360" height="360" rx="20" transform="matrix(0.99, -0.1, 0.1, 0.99, 9, 43.63)" fill="#efa212"/></g><text transform="translate(826.505 2381.344) rotate(-7)" fill="#fff" font-size="40" font-family="SegoeUI-Bold, Segoe UI" font-weight="700"><tspan x="0" y="0">Best portfolio </tspan><tspan x="0" y="37">created by our</tspan><tspan x="0" y="74">experts</tspan></text><g transform="matrix(0.995, -0.105, 0.105, 0.995, 778.182, 2078.131)"><g transform="translate(23.367 45.085)"><path d="M238.347,219.031q-1.221,2.026-2.535,3.968c-11.727,17.233-31.251,29.028-50.223,34.367a107.739,107.739,0,0,1-25.361,3.885c-55.874,2.031-76.4-44.038-94.4-55.916s-45.632-32.17-42.163-74.79C26.292,98.126,44.73,67.14,78.4,53.039a95.7,95.7,0,0,1,11.686-4.03,111.234,111.234,0,0,1,24.675-3.791c25.449-1.137,46.125,5,66.345,20.453,4.674,3.589,9.349,7.64,15.472,8.087,4.43.322,8.632-1.272,4-5.557-5.443-5.033.841-14.937,14.662-8.055,23.091,11.489,32.591,36.283,37.062,61.494C257.792,152.587,255.128,191.068,238.347,219.031Z" transform="translate(-23.367 -45.085)" fill="#ffc100"/><path d="M238.347,219.031q-1.221,2.026-2.535,3.968c-11.727,17.233-31.251,29.028-50.223,34.367a107.739,107.739,0,0,1-25.361,3.885c-55.874,2.031-76.4-44.038-94.4-55.916s-45.632-32.17-42.163-74.79C26.292,98.126,44.73,67.14,78.4,53.039a95.7,95.7,0,0,1,11.686-4.03,111.234,111.234,0,0,1,24.675-3.791c25.449-1.137,46.125,5,66.345,20.453,4.674,3.589,9.349,7.64,15.472,8.087,4.43.322,8.632-1.272,4-5.557-5.443-5.033.841-14.937,14.662-8.055,23.091,11.489,32.591,36.283,37.062,61.494C257.792,152.587,255.128,191.068,238.347,219.031Z" transform="translate(-23.367 -45.085)" fill="#fff" opacity="0.7"/></g><g transform="translate(28.484 259.786)"><path d="M263.562,458.989H33.48a.26.26,0,1,1,0-.519H263.562a.26.26,0,0,1,.26.26A.265.265,0,0,1,263.562,458.989Z" transform="translate(-33.22 -458.47)" fill="#263238"/></g><g transform="translate(32.161 49.272)"><path d="M69.9,89.405a.265.265,0,0,1-.187-.078L63.7,83.318a.261.261,0,0,1,.369-.369l6.009,6.014a.26.26,0,0,1-.182.441Z" transform="translate(-51.51 -67.434)" fill="#263238"/><path d="M63.888,89.4a.265.265,0,0,1-.187-.078.26.26,0,0,1,0-.364l6.009-6.025a.265.265,0,0,1,.369,0,.26.26,0,0,1,0,.369l-6.009,6.02A.26.26,0,0,1,63.888,89.4Z" transform="translate(-51.512 -67.426)" fill="#263238"/><path d="M228.715,319.755a.244.244,0,0,1-.182-.078l-6.014-6.009a.261.261,0,0,1,.369-.369l6.009,6.04a.26.26,0,0,1-.182.441Z" transform="translate(-127.843 -178.147)" fill="#263238"/><path d="M222.758,319.757a.265.265,0,0,1-.187-.078.26.26,0,0,1,0-.364l6.014-6.014a.259.259,0,0,1,.364.369l-6.035,6.009a.26.26,0,0,1-.156.078Z" transform="translate(-127.869 -178.149)" fill="#263238"/><path d="M333.587,134.87a.239.239,0,0,1-.182-.073l-6.014-6.014a.259.259,0,0,1,.369-.364l6.009,6.009a.26.26,0,0,1,0,.369A.244.244,0,0,1,333.587,134.87Z" transform="translate(-178.248 -89.288)" fill="#263238"/><path d="M327.578,134.871a.26.26,0,0,1-.187-.073.265.265,0,0,1,0-.369l5.994-6.009a.257.257,0,0,1,.364.364l-6.009,6.014A.255.255,0,0,1,327.578,134.871Z" transform="translate(-178.248 -89.289)" fill="#263238"/><path d="M269.33,59.693a.26.26,0,0,1-.182-.078l-6.009-6.025a.259.259,0,0,1,.364-.369l6.014,6.009a.279.279,0,0,1-.187.462Z" transform="translate(-147.366 -53.147)" fill="#263238"/><path d="M263.321,59.705a.244.244,0,0,1-.182-.078.26.26,0,0,1,0-.369l6.009-6.009a.261.261,0,1,1,.369.369L263.5,59.627A.244.244,0,0,1,263.321,59.705Z" transform="translate(-147.366 -53.16)" fill="#263238"/><path d="M460.887,225.8a.28.28,0,0,1-.187-.073l-6.009-6.014a.259.259,0,0,1,.369-.364l5.988,6.014a.26.26,0,0,1,0,.369A.27.27,0,0,1,460.887,225.8Z" transform="translate(-239.432 -132.991)" fill="#263238"/><path d="M454.873,225.8a.281.281,0,0,1-.182-.073.265.265,0,0,1,0-.369l6.009-6.009a.26.26,0,0,1,.369,0,.249.249,0,0,1,0,.364l-6.009,6.014a.28.28,0,0,1-.187.073Z" transform="translate(-239.432 -132.991)" fill="#263238"/><path d="M423.907,356.13a.259.259,0,0,1-.182-.073l-6.014-6.014a.259.259,0,0,1,.369-.364l6.009,6.009a.26.26,0,0,1-.182.441Z" transform="translate(-221.659 -195.632)" fill="#263238"/><path d="M417.9,356.131a.28.28,0,0,1-.187-.073.265.265,0,0,1,0-.369l6.014-6.009a.257.257,0,0,1,.364.364l-6.009,6A.28.28,0,0,1,417.9,356.131Z" transform="translate(-221.658 -195.633)" fill="#263238"/><path d="M248.12,374.317a.265.265,0,0,1-.187-.078l-6-6.009a.26.26,0,0,1,0-.369.265.265,0,0,1,.369,0l6.009,6.009a.262.262,0,0,1-.187.447Z" transform="translate(-137.172 -204.371)" fill="#263238"/><path d="M242.1,374.317a.262.262,0,0,1-.182-.447l6.009-6.009a.265.265,0,0,1,.369,0,.26.26,0,0,1,0,.369l-6.009,6.009A.265.265,0,0,1,242.1,374.317Z" transform="translate(-137.167 -204.371)" fill="#263238"/><path d="M117.649,87.857a2.779,2.779,0,1,1,2.779-2.779A2.779,2.779,0,0,1,117.649,87.857Zm0-5.038a2.259,2.259,0,1,0,2.259,2.259A2.259,2.259,0,0,0,117.649,82.819Z" transform="translate(-76.14 -67.159)" fill="#263238"/><path d="M43.084,220.607a2.779,2.779,0,1,1,2.773-2.779A2.779,2.779,0,0,1,43.084,220.607Zm0-5.038a2.259,2.259,0,1,0,2.254,2.259,2.259,2.259,0,0,0-2.254-2.259Z" transform="translate(-40.3 -130.962)" fill="#263238"/><path d="M299.3,342.727a2.779,2.779,0,1,1,2.779-2.773A2.779,2.779,0,0,1,299.3,342.727Zm0-5.033a2.259,2.259,0,1,0,2.259,2.259,2.259,2.259,0,0,0-2.259-2.259Z" transform="translate(-163.446 -189.656)" fill="#263238"/><path d="M349.219,65.427A2.779,2.779,0,1,1,352,62.649,2.779,2.779,0,0,1,349.219,65.427Zm0-5.038a2.259,2.259,0,1,0,2.259,2.259A2.259,2.259,0,0,0,349.219,60.389Z" transform="translate(-187.439 -56.378)" fill="#263238"/><path d="M441.009,149.207a2.779,2.779,0,1,1,2.779-2.779A2.779,2.779,0,0,1,441.009,149.207Zm0-5.038a2.259,2.259,0,1,0,2.259,2.259A2.259,2.259,0,0,0,441.009,144.169Z" transform="translate(-231.556 -96.645)" fill="#263238"/><path d="M444.429,322.447a2.779,2.779,0,1,1,2.779-2.779,2.779,2.779,0,0,1-2.779,2.779Zm0-5.038a2.259,2.259,0,1,0,2.259,2.259,2.259,2.259,0,0,0-2.259-2.259Z" transform="translate(-233.2 -179.909)" fill="#263238"/><path d="M469.239,306.687a2.779,2.779,0,1,1,2.779-2.779A2.779,2.779,0,0,1,469.239,306.687Zm0-5.038a2.259,2.259,0,1,0,2.259,2.259A2.259,2.259,0,0,0,469.239,301.649Z" transform="translate(-245.124 -172.335)" fill="#263238"/></g><g transform="translate(27.985 159.282)"><path d="M43.109,309.057s-1.257,3.464-3.937,3.937-7.4-4.721-4.409-7.4S41.852,307.166,43.109,309.057Z" transform="translate(-33.001 -284.075)" fill="#ffc100"/><path d="M38.584,313.034c-1.75,0-3.9-1.823-4.783-3.636a3.4,3.4,0,0,1,.556-4.259,3.464,3.464,0,0,1,2.831-.9c2.379.306,4.835,2.8,5.905,4.409a.249.249,0,0,1,0,.234c-.052.151-1.34,3.636-4.155,4.1A2.055,2.055,0,0,1,38.584,313.034Zm-1.875-8.31a2.9,2.9,0,0,0-2.436,4.446c.95,1.963,3.2,3.578,4.628,3.329,2.223-.395,3.438-3.049,3.688-3.636-1.039-1.527-3.308-3.8-5.464-4.067a2.779,2.779,0,0,0-.416-.057Z" transform="translate(-32.766 -283.824)" fill="#263238"/><path d="M57.079,278.942s-3.937,9.608-2.363,14.335,11.338,8.185,14.174,2.046-3.464-14.8-5.827-16.693S57.864,277.368,57.079,278.942Z" transform="translate(-42.874 -270.97)" fill="#ffc100"/><path d="M63.176,298.679h-.519c-3.724-.2-7.526-2.675-8.466-5.505-1.589-4.763,2.2-14.117,2.368-14.516h0a3.059,3.059,0,0,1,2.15-1.527,5.079,5.079,0,0,1,4.228,1.127c2.446,1.906,8.824,10.709,5.926,16.973A5.843,5.843,0,0,1,63.176,298.679Zm-6.123-19.83c-.135.343-3.854,9.624-2.353,14.143.867,2.6,4.534,4.965,8.009,5.157a5.623,5.623,0,0,0,5.713-3.116c2.773-6.014-3.412-14.506-5.755-16.381a4.56,4.56,0,0,0-3.791-1.039A2.566,2.566,0,0,0,57.052,278.849Z" transform="translate(-42.613 -270.768)" fill="#263238"/><path d="M96.8,286.939s-6.752,6.139-7.562,12.283,3.781,8.346,8.507,7.557,7.084-12.756,5.666-18.266S96.8,286.939,96.8,286.939Z" transform="translate(-59.598 -274.869)" fill="#ffc100"/><path d="M95.689,306.948a7.37,7.37,0,0,1-5.194-1.854c-1.475-1.418-2.077-3.542-1.74-6.149.789-6.17,7.36-12.19,7.64-12.465h0c.1-.083,2.649-1.984,4.768-1.247a3.841,3.841,0,0,1,2.254,2.966c1.039,3.984.109,11.862-2.6,16.038a5.138,5.138,0,0,1-3.267,2.55,11.628,11.628,0,0,1-1.865.161Zm1.039-20.058c-.28.26-6.715,6.232-7.469,12.117-.312,2.441.234,4.415,1.584,5.713,1.5,1.444,3.906,2.01,6.617,1.558a4.652,4.652,0,0,0,2.919-2.322c2.649-4.067,3.542-11.743,2.545-15.623a3.329,3.329,0,0,0-1.922-2.6c-1.776-.634-4.108,1.034-4.269,1.153Z" transform="translate(-59.369 -274.622)" fill="#263238"/><path d="M99,353.69s-7.557.317-7.874,3.937,3.308,4.409,6.928,1.262S102.148,353.851,99,353.69Z" transform="translate(-60.541 -307.606)" fill="#ffc100"/><path d="M93.5,360.9a3.142,3.142,0,0,1-1.433-.327,3.049,3.049,0,0,1-1.444-3.189c.332-3.807,7.791-4.155,8.123-4.155h0c1.288.068,2.077.426,2.275,1.07.343.992-.66,2.493-3.064,4.586A7.2,7.2,0,0,1,93.5,360.9Zm5.256-7.173c-.327,0-7.328.41-7.614,3.7a2.522,2.522,0,0,0,1.158,2.68c1.324.675,3.423.031,5.344-1.641,2.877-2.5,3.059-3.594,2.914-4.02C100.379,353.921,99.481,353.77,98.759,353.729Z" transform="translate(-60.304 -307.385)" fill="#263238"/><path d="M91.393,359.973l-.213-.473c.244-.114,6.014-2.742,8.7-3.22l.093.519C97.35,357.256,91.455,359.947,91.393,359.973Z" transform="translate(-60.578 -308.851)" fill="#263238"/><path d="M100.645,396.168s-5.552-5.142-8.346-2.81-.795,5.453,3.994,5.8S102.754,398.511,100.645,396.168Z" transform="translate(-60.502 -326.38)" fill="#ffc100"/><path d="M97.766,399.243a15.914,15.914,0,0,1-1.735-.068c-2.794-.2-4.856-1.35-5.386-2.992a3.01,3.01,0,0,1,1.246-3.272c2.934-2.446,8.455,2.6,8.689,2.82h0c.862.961,1.148,1.755.847,2.368C101.074,398.869,99.864,399.243,97.766,399.243Zm-3.921-6.477a2.451,2.451,0,0,0-1.62.545,2.528,2.528,0,0,0-1.08,2.716c.452,1.413,2.389,2.446,4.924,2.628,3.807.275,4.711-.364,4.908-.769.244-.519-.275-1.241-.758-1.781C100.02,395.924,96.509,392.766,93.845,392.766Z" transform="translate(-60.261 -326.136)" fill="#263238"/><path d="M100.59,399.116c-2.171-1.527-8.237-3.817-8.31-3.838l.182-.488c.255.093,6.191,2.332,8.419,3.906Z" transform="translate(-61.107 -327.36)" fill="#263238"/><path d="M52.016,392.065s7.65-7.084,11.5-3.849,1.1,7.515-5.5,8S49.107,395.3,52.016,392.065Z" transform="translate(-41.16 -323.794)" fill="#ffc100"/><path d="M55.388,396.271c-2.841,0-4.472-.519-4.965-1.5-.395-.8,0-1.865,1.153-3.153h0c.317-.291,7.863-7.2,11.842-3.88,1.558,1.319,2.176,2.883,1.688,4.4-.717,2.223-3.527,3.776-7.339,4.056Q56.473,396.271,55.388,396.271Zm-3.433-4.3c-.686.769-1.423,1.833-1.039,2.571.286.582,1.558,1.5,6.861,1.117,3.542-.26,6.232-1.709,6.882-3.693.421-1.309-.125-2.675-1.527-3.849-3.6-2.96-10.886,3.61-11.177,3.875Z" transform="translate(-40.918 -323.538)" fill="#263238"/><path d="M54.511,396.136l-.3-.426c3.064-2.161,11.239-5.24,11.582-5.37l.187.488C65.891,390.859,57.518,394.017,54.511,396.136Z" transform="translate(-42.809 -325.221)" fill="#263238"/><path d="M61.344,365.323s-.789,3.776-3.636,5.194-7.874-1.558-5.194-6.139S59.926,363.432,61.344,365.323Z" transform="translate(-41.628 -311.677)" fill="#ffc100"/><path d="M55.912,370.894a4.991,4.991,0,0,1-3.547-1.527c-1.34-1.433-1.444-3.386-.291-5.36a4.159,4.159,0,0,1,3.386-2.332c2.384-.125,4.867,1.927,5.864,3.257a.249.249,0,0,1,.047.208c-.031.161-.847,3.921-3.76,5.375A3.807,3.807,0,0,1,55.912,370.894Zm-.229-8.7h-.192a3.678,3.678,0,0,0-2.971,2.078c-1.039,1.761-.95,3.485.223,4.742a4.208,4.208,0,0,0,4.633,1.039c2.42-1.21,3.3-4.28,3.459-4.908-1.008-1.278-3.179-2.95-5.152-2.95Z" transform="translate(-41.4 -311.441)" fill="#263238"/><path d="M45.6,343.847s-1.418-3.153-6.934-1.106-7.713,5.194-4.248,6.3S45.6,343.847,45.6,343.847Z" transform="translate(-32.498 -302.012)" fill="#ffc100"/><path d="M35.085,349.2a3.3,3.3,0,0,1-.982-.14c-1.5-.478-1.833-1.267-1.844-1.844-.042-1.62,2.348-3.563,6.082-4.944,5.672-2.114,7.24,1.2,7.271,1.236a.254.254,0,0,1-.073.306C45.233,344.05,38.876,349.2,35.085,349.2Zm6.721-7.126a9.526,9.526,0,0,0-3.282.68c-3.984,1.48-5.77,3.345-5.744,4.451,0,.737.815,1.148,1.48,1.361,3.012.961,9.624-4.113,10.767-5.017A3.587,3.587,0,0,0,41.806,342.071Z" transform="translate(-32.259 -301.778)" fill="#263238"/><path d="M38.148,348.511l-.338-.395c3.179-2.706,8.892-3.35,9.136-3.376l.057.519C46.946,345.259,41.207,345.914,38.148,348.511Z" transform="translate(-34.927 -303.304)" fill="#263238"/><path d="M87.81,269.236s.945,2.207,2.836,1.735S93,267.662,96,268.452s5.516,4.254,5.516,2.675-3.781-5.666-8.035-5.666S87.966,267.19,87.81,269.236Z" transform="translate(-58.958 -265.2)" fill="#ffc100"/><path d="M101.063,271.556c-.358,0-.836-.364-1.589-.945a11.577,11.577,0,0,0-3.75-2.15c-1.709-.447-2.5.358-3.345,1.215a4.155,4.155,0,0,1-1.88,1.3,2.812,2.812,0,0,1-3.116-1.88.234.234,0,0,1,0-.119c.2-2.67,2.2-4.02,5.926-4.02,4.285,0,8.31,4.077,8.31,5.926a.649.649,0,0,1-.286.618A.431.431,0,0,1,101.063,271.556Zm-6.232-3.745a4.02,4.02,0,0,1,1.039.151,11.943,11.943,0,0,1,3.937,2.238,5.983,5.983,0,0,0,1.236.831.664.664,0,0,0,0-.145c0-1.324-3.5-5.407-7.791-5.407-3.423,0-5.194,1.137-5.4,3.475.156.327.992,1.9,2.5,1.522a3.719,3.719,0,0,0,1.641-1.163,3.908,3.908,0,0,1,2.81-1.5Z" transform="translate(-58.749 -264.96)" fill="#263238"/><path d="M67.5,353.785a21.3,21.3,0,0,0-.7-2.275c-2.711-7.224-9.042-6.113-9.312-6.061l-.1-.519c.073,0,7.032-1.252,9.9,6.393a22.025,22.025,0,0,1,.717,2.332Z" transform="translate(-44.338 -303.359)" fill="#263238"/><path d="M112,329.8s1.413-3.147,6.928-1.1,7.713,5.194,4.248,6.3S112,329.8,112,329.8Z" transform="translate(-70.585 -295.263)" fill="#ffc100"/><path d="M122.016,335.149c-3.8,0-10.154-5.142-10.445-5.381a.265.265,0,0,1-.073-.312c0-.031,1.558-3.345,7.271-1.236,3.734,1.387,6.123,3.329,6.082,4.944,0,.582-.343,1.371-1.844,1.844A3.116,3.116,0,0,1,122.016,335.149ZM112.07,329.5c1.153.909,7.754,5.968,10.767,5.012.665-.213,1.465-.618,1.48-1.361.026-1.106-1.761-2.966-5.744-4.446C114.111,327.052,112.465,328.906,112.07,329.5Z" transform="translate(-70.333 -295.028)" fill="#263238"/><path d="M122.55,334.827c-2.6-3.173-8.1-2.909-8.149-2.9l-.031-.519c.239,0,5.848-.286,8.58,3.116Z" transform="translate(-71.724 -296.892)" fill="#263238"/><path d="M102.948,332.016l-.208-.478a8.876,8.876,0,0,1,4.846-.654l-.1.519a8.544,8.544,0,0,0-4.539.613Z" transform="translate(-66.134 -296.6)" fill="#263238"/><path d="M51.743,316.484a13.013,13.013,0,0,0-6.461-3.828c-.031-.005-4.763-1.236-6.529.384l-.353-.379c1.979-1.813,6.783-.571,6.986-.519a13.108,13.108,0,0,1,6.726,3.973Z" transform="translate(-35.211 -287.414)" fill="#263238"/><rect width="0.519" height="1.35" transform="matrix(0.976, -0.219, 0.219, 0.976, 16.843, 10.187)" fill="#263238"/><path d="M73.718,357.876H73.2c0-.27.7-27.2,0-35.317s-3.952-17.726-3.989-17.825l-3.36-15.01.519-.114,3.36,14.984c0,.073,3.3,9.749,4,17.918S73.718,357.606,73.718,357.876Z" transform="translate(-48.404 -276.807)" fill="#263238"/><rect width="1.433" height="0.519" transform="translate(38.818 17.144) rotate(-64.94)" fill="#263238"/><path d="M83.7,363.248H83.18c0-.249.249-24.836,1.179-31.827s4.674-18.059,4.721-18.178l5.786-12.4.473.223-5.781,12.371c0,.083-3.755,11.089-4.674,18.043S83.7,362.993,83.7,363.248Z" transform="translate(-56.733 -282.205)" fill="#263238"/><path d="M86.419,393.107l-.519-.031c.93-15.825,2.6-30.056,2.6-30.2l.519.057C88.99,363.083,87.349,377.3,86.419,393.107Z" transform="translate(-58.04 -312.023)" fill="#263238"/><path d="M67.776,395.142h-.519c0-.223.457-22.608-.462-25.595-.312-1.039-.738-1.646-1.226-1.792a1.039,1.039,0,0,0-.878.2l-.057.047h-.078c-.042,0-4.254.519-5.744,2.919l-.441-.275c1.558-2.451,5.453-3.069,6.056-3.147a1.522,1.522,0,0,1,1.283-.255c.675.2,1.21.914,1.558,2.14C68.238,372.446,67.8,394.213,67.776,395.142Z" transform="translate(-44.809 -314.099)" fill="#263238"/><path d="M78.178,394.231l-.519-.031c0-.218,1.122-22.079-.088-28.867l.519-.094C79.3,372.091,78.193,394.008,78.178,394.231Z" transform="translate(-54.037 -313.157)" fill="#263238"/><path d="M88.162,379.072c0-1.34-.291-32.907,2.514-40.4a10.159,10.159,0,0,1,3.677-4.976l.291.431a9.645,9.645,0,0,0-3.48,4.726c-2.773,7.4-2.488,39.883-2.483,40.21Z" transform="translate(-59.123 -297.998)" fill="#263238"/><path d="M74.558,373.439l-.519-.068c.66-4.861-.68-33.048-4.461-43.913a22.052,22.052,0,0,0-3.947-7.131l.395-.338a22.639,22.639,0,0,1,4.051,7.276C73.872,340.215,75.223,368.557,74.558,373.439Z" transform="translate(-48.298 -292.37)" fill="#263238"/><path d="M83.7,382.949H83.18c0-.275.166-27.615.39-41.119h.519C83.866,355.328,83.7,382.668,83.7,382.949Z" transform="translate(-56.733 -301.906)" fill="#263238"/><path d="M84.519,304.41H84c.187-10.907.364-18.516.519-22.634.41-10.58,1.008-11.592,1.267-11.753.255-.587,1.511-2.768,5.978-2.477l-.036.519c-4.607-.3-5.464,2.15-5.5,2.254l-.125.384-.093-.088c-.2.561-.644,2.742-.971,11.182C84.878,285.9,84.7,293.514,84.519,304.41Z" transform="translate(-57.127 -266.19)" fill="#263238"/><path d="M70.359,351.752s-3.937-3.511-2.363-5.24,11.338-2.992,14.174-.748-3.443,5.412-5.827,6.1S71.144,352.324,70.359,351.752Z" transform="translate(-49.257 -303.217)" fill="#ffc100"/><path d="M72.969,352.333a5.811,5.811,0,0,1-2.992-.6h0c-.109-.1-2.716-2.446-2.815-4.337a1.688,1.688,0,0,1,.431-1.3c1.709-1.87,11.566-3.116,14.542-.774a1.771,1.771,0,0,1,.784,1.792c-.41,2.119-4.9,4.233-6.7,4.763A11.765,11.765,0,0,1,72.969,352.333Zm-2.675-1.039c.712.519,3.417.748,5.749.068,1.974-.576,6-2.644,6.336-4.363a1.288,1.288,0,0,0-.6-1.288c-2.68-2.119-12.32-.924-13.82.722a1.158,1.158,0,0,0-.3.893C67.744,348.957,70.123,351.149,70.295,351.294Z" transform="translate(-49.031 -302.972)" fill="#263238"/><path d="M79.739,353.881H79.22a7.624,7.624,0,0,1,.088-1.091l.519.083a6.468,6.468,0,0,0-.088,1.008Z" transform="translate(-54.83 -307.174)" fill="#263238"/><path d="M80.519,347.554,80,347.409a17.338,17.338,0,0,1,1.039-2.649l.462.229A18.086,18.086,0,0,0,80.519,347.554Z" transform="translate(-55.205 -303.314)" fill="#263238"/><path d="M70.359,395.948s-3.937-3.511-2.363-5.235,11.338-2.992,14.174-.748-3.443,5.412-5.827,6.1S71.144,396.525,70.359,395.948Z" transform="translate(-49.257 -324.462)" fill="#ffc100"/><path d="M72.972,396.512a5.82,5.82,0,0,1-2.992-.592h0c-.109-.1-2.716-2.446-2.815-4.337a1.688,1.688,0,0,1,.436-1.272c1.709-1.87,11.566-3.116,14.542-.774a1.771,1.771,0,0,1,.784,1.792c-.41,2.114-4.9,4.233-6.7,4.757a11.563,11.563,0,0,1-3.256.426ZM70.3,395.5c.712.519,3.417.753,5.749.073,1.974-.582,6-2.644,6.336-4.363a1.288,1.288,0,0,0-.6-1.288c-2.68-2.124-12.32-.924-13.82.722a1.148,1.148,0,0,0-.3.893C67.747,393.162,70.125,395.348,70.3,395.5Z" transform="translate(-49.033 -324.22)" fill="#263238"/><path d="M79.739,394.216H79.22a14.3,14.3,0,0,1,1.47-5.266l.462.234A14.109,14.109,0,0,0,79.739,394.216Z" transform="translate(-54.83 -324.553)" fill="#263238"/><path d="M76.811,379.388s-2.675-2.384-1.6-3.558,7.7-2.031,9.624-.519-2.353,3.672-3.958,4.155A6.108,6.108,0,0,1,76.811,379.388Z" transform="translate(-52.779 -317.609)" fill="#ffc100"/><path d="M78.536,379.8a4.03,4.03,0,0,1-2.077-.421h0c-.078-.068-1.875-1.683-1.942-3a1.215,1.215,0,0,1,.317-.924c1.174-1.288,7.946-2.145,9.977-.519a1.293,1.293,0,0,1,.566,1.3c-.306,1.558-3.532,2.986-4.612,3.3a8.029,8.029,0,0,1-2.228.265Zm-1.776-.831a6.13,6.13,0,0,0,3.828.031c1.324-.384,4.025-1.761,4.243-2.9a.784.784,0,0,0-.374-.789c-1.8-1.423-8.263-.623-9.271.478a.727.727,0,0,0-.182.551c.047.9,1.272,2.192,1.755,2.628Z" transform="translate(-52.567 -317.389)" fill="#263238"/><path d="M83.189,378.18H82.67a9.965,9.965,0,0,1,1.008-3.61l.462.234A9.56,9.56,0,0,0,83.189,378.18Z" transform="translate(-56.488 -317.642)" fill="#263238"/><rect width="10.658" height="23.631" transform="translate(20.334 77.132)" fill="#263238"/><path d="M81.827,437.121H71.17a.26.26,0,0,1-.26-.26V413.23a.26.26,0,0,1,.26-.26H81.827a.26.26,0,0,1,.26.26v23.647A.26.26,0,0,1,81.827,437.121ZM71.44,436.6H81.568V413.5H71.429Z" transform="translate(-50.836 -336.098)" fill="#263238"/></g><g transform="translate(163.779 96.919)"><path d="M339.172,214.167l-.291.488-8.144,6.17-14.7-14.626-2.124,7.687s16.069,16.578,17.139,17.534a6.236,6.236,0,0,0,3.682,1.47,17.15,17.15,0,0,0,3.194-1.511Z" transform="translate(-303.422 -174.356)" fill="#263238"/><path d="M334.377,232.884a6.95,6.95,0,0,1-3.719-1.558c-1.086-.945-16.516-16.869-17.176-17.55a.254.254,0,0,1-.062-.249l2.129-7.671a.265.265,0,0,1,.187-.182.28.28,0,0,1,.249.068l14.542,14.47,7.926-6,.265-.441a.265.265,0,0,1,.3-.119.27.27,0,0,1,.182.27l-1.231,17.2a.27.27,0,0,1-.125.208,16.555,16.555,0,0,1-3.3,1.558Zm-20.417-19.347c1.382,1.428,16.012,16.521,17.041,17.415a6.262,6.262,0,0,0,3.485,1.407,13.867,13.867,0,0,0,2.971-1.4l1.153-16.21-7.957,6.03a.26.26,0,0,1-.338,0l-14.381-14.314Z" transform="translate(-303.182 -174.1)" fill="#263238"/><path d="M356.215,149.794s-2.29,5.043-2.2,5.672a10.652,10.652,0,0,0,.483,1.672s-3.807,3.033-3.511,3.771,1.839,1.6,1.839,1.6-.166,7.583.556,7.791,5.947-1.039,5.947-1.039l1.117,6.092,9.868-4.358-.686-6.669s4.207-7.188,4.482-10.2.192-4.259-3.293-6.414a18.433,18.433,0,0,0-12.958-1.735C354.4,147.052,356.215,149.794,356.215,149.794Z" transform="translate(-321.233 -145.17)" fill="#fff"/><path d="M360.21,175.353a.307.307,0,0,1-.119-.026.275.275,0,0,1-.135-.187l-1.065-5.76c-1.288.3-5.131,1.158-5.822.945s-.815-4.389-.743-7.91c-.41-.244-1.558-.961-1.813-1.646-.312-.774,1.958-2.763,3.443-3.958a9.208,9.208,0,0,1-.431-1.558c-.094-.628,1.558-4.363,2.166-5.713a2.976,2.976,0,0,1-.317-2.342,3.107,3.107,0,0,1,2.171-1.735c3.724-1.153,9.759-.343,13.171,1.766,3.636,2.254,3.688,3.672,3.412,6.658-.26,2.9-4,9.416-4.472,10.226l.68,6.586a.265.265,0,0,1-.156.265l-9.868,4.358a.234.234,0,0,1-.1.031Zm-1.117-6.57a.3.3,0,0,1,.145.042.244.244,0,0,1,.109.171l1.039,5.713,9.39-4.155-.665-6.482a.265.265,0,0,1,.031-.156c.042-.073,4.186-7.173,4.451-10.086s.192-4.093-3.168-6.17c-3.251-2-9.2-2.8-12.745-1.709a2.116,2.116,0,0,0-1.5,3.417.275.275,0,0,1,0,.255A34.544,34.544,0,0,0,354,155.149a10.332,10.332,0,0,0,.467,1.615.26.26,0,0,1-.083.3c-1.9,1.517-3.475,3.116-3.428,3.48A4.962,4.962,0,0,0,352.674,162a.265.265,0,0,1,.135.234c-.078,3.433.057,7.2.415,7.578a34.066,34.066,0,0,0,5.77-1.039Z" transform="translate(-321.001 -144.911)" fill="#263238"/><path d="M365.23,166.585c.763-1.646,1.631-8.071,2.077-8.9s2.129-2.55,3.636-1.169-1.039,5.594-1.9,5.884,1,1.792,2.249,1.922c0,0,4.207-7.188,4.482-10.2s.192-4.259-3.293-6.414a18.433,18.433,0,0,0-12.958-1.735c-3.454,1.07-1.641,3.812-1.641,3.812s6.669-.789,6.549.036-1.813,2.041-1.1,2.888,2.337,2.441,2.337,2.441-1.589,6.2-2.254,7.957-1.6,2.254-2.742,1.813-3.485-2.155-4.835-2.29l-1.345-.13s-.166,7.583.556,7.791S361,169.26,361,169.26,364.467,168.232,365.23,166.585Z" transform="translate(-322.92 -145.17)" fill="#263238"/><path d="M355.087,170.312a1.381,1.381,0,0,1-.332-.031c-.748-.234-.815-4.513-.737-8.061a.27.27,0,0,1,.083-.192.28.28,0,0,1,.2-.062l1.35.135a10.318,10.318,0,0,1,3.324,1.47,14.328,14.328,0,0,0,1.584.831,1.428,1.428,0,0,0,1.148,0,2.72,2.72,0,0,0,1.257-1.688c.592-1.558,1.958-6.84,2.2-7.791-.374-.374-1.636-1.626-2.249-2.358s0-1.5.519-2.145a3.38,3.38,0,0,0,.519-.883c-.519-.28-3.578-.119-6.232.2a.27.27,0,0,1-.249-.119,3.07,3.07,0,0,1-.39-2.467,3.107,3.107,0,0,1,2.171-1.735c3.724-1.153,9.759-.343,13.171,1.766,3.636,2.254,3.688,3.672,3.412,6.658s-4.342,10-4.513,10.3a.27.27,0,0,1-.255.13c-1.075-.114-2.6-1.174-2.685-1.859a.519.519,0,0,1,.384-.566,7.044,7.044,0,0,0,2.119-3.714,1.849,1.849,0,0,0-.317-1.735,1.527,1.527,0,0,0-1.335-.426,3.153,3.153,0,0,0-1.922,1.527,25.722,25.722,0,0,0-.753,3.376,34.445,34.445,0,0,1-1.3,5.505h0c-.805,1.73-4.233,2.81-4.378,2.857A37.7,37.7,0,0,1,355.087,170.312Zm-.561-7.791c-.057,3.355.078,6.934.426,7.3a34.067,34.067,0,0,0,5.77-1.039s3.334-1.039,4.041-2.6a34.565,34.565,0,0,0,1.267-5.381,21.227,21.227,0,0,1,.8-3.527,3.713,3.713,0,0,1,2.3-1.8,2.026,2.026,0,0,1,1.776.556,2.235,2.235,0,0,1,.473,2.223c-.338,1.683-1.735,3.849-2.457,4.1-.062.265,1.039,1.2,2.02,1.4.6-1.039,4.119-7.271,4.363-9.936.27-2.966.192-4.093-3.168-6.17-3.251-2-9.2-2.8-12.745-1.709a2.557,2.557,0,0,0-1.833,1.408,2.42,2.42,0,0,0,.254,1.875c1.584-.182,5.936-.618,6.549,0a.405.405,0,0,1,.114.348,2.951,2.951,0,0,1-.639,1.179c-.519.686-.81,1.158-.519,1.506.691.826,2.306,2.4,2.322,2.42a.255.255,0,0,1,.068.255c-.062.249-1.6,6.232-2.259,7.983a3.278,3.278,0,0,1-1.527,1.979,1.968,1.968,0,0,1-1.558,0,14.054,14.054,0,0,1-1.646-.862,10.229,10.229,0,0,0-3.116-1.407ZM365,166.313Z" transform="translate(-322.687 -144.887)" fill="#263238"/><path d="M362.285,163.428a.519.519,0,0,1-.441-.239,1.433,1.433,0,0,0-.94-.738,1.75,1.75,0,0,0-1.189.379.52.52,0,0,1-.665-.8,2.8,2.8,0,0,1,2.01-.6,2.389,2.389,0,0,1,1.662,1.2.516.516,0,0,1-.436.795Z" transform="translate(-325.028 -152.832)" fill="#263238"/><path d="M362.607,167.077c0,.545-.254.987-.545.976s-.519-.452-.493-1,.249-.982.519-.976S362.617,166.506,362.607,167.077Z" transform="translate(-326.327 -155.073)" fill="#263238"/><path d="M356.406,183.742h-.052a.26.26,0,0,1-.254-.265.265.265,0,0,1,.265-.255s2.078.031,2.94-.987a.26.26,0,0,1,.395.338C358.744,183.69,356.765,183.742,356.406,183.742Z" transform="translate(-323.7 -162.794)" fill="#fff"/><path d="M374.963,194.37l-12.153,4.415,1.553,5.126Z" transform="translate(-326.925 -168.67)" fill="#fff"/><path d="M364.117,203.937h-.073a.26.26,0,0,1-.177-.177l-1.558-5.126a.255.255,0,0,1,.161-.317l12.153-4.415a.249.249,0,0,1,.312.109.27.27,0,0,1-.047.327l-10.606,9.541A.265.265,0,0,1,364.117,203.937Zm-1.231-5.23,1.361,4.5,9.323-8.377Z" transform="translate(-326.679 -168.437)" fill="#263238"/><path d="M393.551,457.68a22.747,22.747,0,0,1-3.308,3.288c-1.184.748-7.162,2.56-6.544,3.739s6.565,1.433,10.185,1.511,8.18-1.761,9.484-2.249,3.012-1.745,2.529-3.179S393.551,457.68,393.551,457.68Z" transform="translate(-336.943 -295.224)" fill="#fff"/><path d="M393.885,466.26h-.234c-8.642-.187-10.076-1.039-10.387-1.652a.639.639,0,0,1-.031-.519c.3-.821,2.187-1.641,4.628-2.633a17.785,17.785,0,0,0,2.041-.909,22.616,22.616,0,0,0,3.241-3.236.26.26,0,0,1,.239-.093c2,.286,12.039,1.781,12.553,3.288.551,1.626-1.3,2.986-2.68,3.506l-.3.109C401.374,464.7,397.271,466.26,393.885,466.26Zm-.452-8.528a21.2,21.2,0,0,1-3.272,3.236,17.075,17.075,0,0,1-2.124.945c-1.626.665-4.087,1.662-4.332,2.332a.135.135,0,0,0,0,.119c.234.436,1.833,1.195,9.962,1.371,3.34.073,7.51-1.522,9.089-2.119l.3-.114c1.143-.431,2.8-1.584,2.368-2.851C405.155,459.856,399.141,458.547,393.433,457.732Z" transform="translate(-336.721 -295.001)" fill="#263238"/><path d="M393.879,469.132h-.234c-8.642-.187-10.076-1.039-10.387-1.652-.187-.353-.036-.738.452-1.137a.27.27,0,0,1,.249-.047,21.813,21.813,0,0,0,6.445,1.039,45.491,45.491,0,0,0,10.7-1.465l4.441-2.654a.26.26,0,0,1,.223,0,.265.265,0,0,1,.156.161c.551,1.626-1.3,2.986-2.68,3.506l-.3.109C401.369,467.569,397.266,469.132,393.879,469.132Zm-9.956-2.3c-.13.119-.28.291-.223.405.234.436,1.833,1.195,9.962,1.371,3.34.073,7.51-1.522,9.089-2.119l.3-.114c1.039-.389,2.519-1.387,2.436-2.524l-4.155,2.483a.2.2,0,0,1-.068.031,47.9,47.9,0,0,1-10.907,1.491,22.571,22.571,0,0,1-6.435-1.023Z" transform="translate(-336.715 -297.873)" fill="#263238"/><path d="M348.974,455.46a45.56,45.56,0,0,1-5.63,3.4c-2.6,1.236-5.079,1.558-3.033,2.779s10.055,1.382,14.075.821,6.077,0,6.362-1.283a32.1,32.1,0,0,0,.348-4.259Z" transform="translate(-315.748 -294.157)" fill="#fff"/><path d="M348.823,462.79c-3.636,0-7.531-.353-8.892-1.158-.431-.254-.919-.608-.883-1.065.047-.587.883-.919,2.15-1.418.545-.218,1.169-.462,1.787-.758a45,45,0,0,0,5.594-3.345.281.281,0,0,1,.182-.047l12.122,1.428a.265.265,0,0,1,.234.265,32.728,32.728,0,0,1-.358,4.306c-.234,1.039-1.33,1.1-3.142,1.189-.919.047-2.077.109-3.438.3a42.4,42.4,0,0,1-5.355.3Zm-.026-7.271a45.759,45.759,0,0,1-5.588,3.334c-.639.3-1.262.551-1.818.769-.847.332-1.8.712-1.823.976,0,.031,0,.213.628.577,1.984,1.174,10.071,1.324,13.909.784,1.4-.192,2.555-.249,3.485-.3,1.787-.093,2.519-.156,2.659-.779a28.516,28.516,0,0,0,.338-3.973Z" transform="translate(-315.503 -293.935)" fill="#263238"/><path d="M348.825,467.2c-3.636,0-7.531-.353-8.892-1.158-.613-.364-.883-.675-.883-1.039s.364-.639.634-.795a.26.26,0,0,1,.2-.026,32.766,32.766,0,0,0,9.608,1.236,105.648,105.648,0,0,0,11.115-1.231.27.27,0,0,1,.223.068.26.26,0,0,1,.078.218c-.047.369-.094.68-.145.914-.234,1.039-1.33,1.1-3.142,1.189-.919.047-2.077.109-3.438.3a42.407,42.407,0,0,1-5.355.322Zm-8.975-2.467c-.254.166-.28.265-.28.291s.031.218.628.571c1.984,1.174,10.071,1.324,13.909.784,1.4-.192,2.555-.249,3.485-.3,1.787-.094,2.519-.156,2.659-.779.031-.145.062-.322.093-.519a102.993,102.993,0,0,1-10.834,1.184h0a33.352,33.352,0,0,1-9.66-1.252Zm9.65.966Z" transform="translate(-315.505 -298.345)" fill="#263238"/><path d="M357.648,309.476s-1.558,24.79-1.958,30.731,2.114,39.737,2.114,39.737-2.363,1.5-2.238,1.9,1.1,2.737,1.1,2.737a33.865,33.865,0,0,0,7.069,1.963c2.966.322,5.163.519,5.163.519a11.576,11.576,0,0,0,.712-3.085,25.122,25.122,0,0,0-.545-4.539c-.234-1.169-.322-15.135-.182-21.6s.732-21.71.867-22.094,1.911,19.18,4.228,25.693,6.014,20.926,6.014,20.926-1.688.223-1.7,1a22.158,22.158,0,0,0,1.08,3.776s6.544,2.213,9.26,2.394,5.033.493,5.033.493-1.065-4.674-1.678-6.232a20.717,20.717,0,0,1-1.47-3.781c-.229-1.3-4.155-28.046-4.29-28.794s-2.441-30.7-2.425-31.344.13-11.894.13-11.894Z" transform="translate(-323.441 -223.274)" fill="#263238"/><path d="M393.418,390.025h-.036c-.026,0-2.342-.312-5.017-.493s-9.053-2.322-9.323-2.415a.28.28,0,0,1-.161-.156,20.69,20.69,0,0,1-1.1-3.869c.016-.805,1.1-1.085,1.641-1.2-.519-2.02-3.828-14.714-5.936-20.65-1.735-4.877-3.153-16.9-3.833-22.681a4.174,4.174,0,0,0-.062-.519c-.223,4.622-.587,14.485-.7,19.518-.135,6.419-.057,20.375.177,21.538a26.536,26.536,0,0,1,.551,4.6,11.761,11.761,0,0,1-.727,3.173.249.249,0,0,1-.265.166s-2.233-.182-5.168-.519a35.174,35.174,0,0,1-7.136-1.984.244.244,0,0,1-.145-.14c-.042-.094-.987-2.363-1.111-2.763-.047-.156-.177-.561,2.218-2.1-.187-2.493-2.472-33.936-2.1-39.618.384-5.942,1.958-30.731,1.958-30.731a.255.255,0,0,1,.244-.244l26.28-1.5a.229.229,0,0,1,.192.073.26.26,0,0,1,.083.187c0,.114-.114,11.26-.13,11.9s2.3,30.451,2.425,31.3c.031.244,4.046,27.423,4.285,28.789a9.2,9.2,0,0,0,.815,2.254c.2.426.421.914.644,1.475.613,1.558,1.641,6.087,1.683,6.279a.254.254,0,0,1-.062.234.239.239,0,0,1-.187.1Zm-14.091-3.355c.893.3,6.627,2.176,9.073,2.348,2.077.14,3.911.358,4.674.452-.265-1.127-1.08-4.57-1.558-5.843-.213-.551-.426-1.008-.628-1.449a9.479,9.479,0,0,1-.852-2.384c-.244-1.366-4.259-28.565-4.29-28.8-.13-.878-2.441-30.794-2.431-31.386s.109-9.868.125-11.613l-25.771,1.47c-.161,2.514-1.558,24.9-1.942,30.5-.384,5.853,2.077,39.368,2.114,39.706a.275.275,0,0,1-.119.239,9.93,9.93,0,0,0-2.119,1.641c.13.374.706,1.771,1.039,2.566a33.16,33.16,0,0,0,6.9,1.906c2.425.265,4.352.431,4.955.483a10.6,10.6,0,0,0,.628-2.815,24.491,24.491,0,0,0-.519-4.482c-.239-1.189-.322-15.212-.187-21.653.13-5.926.717-21.715.883-22.177a.286.286,0,0,1,.28-.177c.244.031.244.031.634,3.3.675,5.76,2.077,17.747,3.8,22.567,2.3,6.456,5.983,20.827,6.02,20.972a.244.244,0,0,1-.036.208.265.265,0,0,1-.182.114c-.592.078-1.47.369-1.475.743A16.433,16.433,0,0,0,379.328,386.669Z" transform="translate(-323.198 -223.009)" fill="#263238"/><path d="M358.483,295.486,358,305.354s11.509,1.927,18.152.81,12.74-2.794,12.74-2.794l-1.2-9.52Z" transform="translate(-324.613 -216.483)" fill="#fff"/><path d="M370.9,306.565a94.31,94.31,0,0,1-13.208-1.158.26.26,0,0,1-.218-.27l.519-9.9a.26.26,0,0,1,.244-.249l29.189-1.6a.249.249,0,0,1,.275.223l1.2,9.525a.26.26,0,0,1-.187.28c-.062,0-6.181,1.7-12.761,2.8A31.416,31.416,0,0,1,370.9,306.565ZM358,304.934c1.652.26,11.826,1.781,17.84.774,5.858-.982,11.348-2.425,12.491-2.732l-1.143-9.058-28.716,1.558Z" transform="translate(-324.358 -216.26)" fill="#263238"/><path d="M372.858,190.23s-9.406,7.178-11.426,10.045a30.128,30.128,0,0,0-4.389,10.507c-.81,3.724-1.039,19-1.039,19.419s-.914,18.375-.914,18.375a125.171,125.171,0,0,0,17.238.893,56.7,56.7,0,0,0,15.841-2.748s-1.039-10-2.929-18.464-6.232-24.878-6.721-25.615S372.858,190.23,372.858,190.23Z" transform="translate(-323.214 -166.68)" fill="#bdbdbd"/><path d="M369.683,249.519a129.838,129.838,0,0,1-14.89-.924.255.255,0,0,1-.223-.27c0-.182.909-17.965.914-18.375v-.13c.062-3.7.322-16.007,1.039-19.336a29.957,29.957,0,0,1,4.425-10.6c2.036-2.867,11.115-9.806,11.5-10.1a.281.281,0,0,1,.223-.047.26.26,0,0,1,.171.151c1.433,3.23,5.235,11.759,5.635,12.345.587.857,4.991,17.809,6.752,25.7,1.875,8.377,2.919,18.4,2.929,18.495a.254.254,0,0,1-.171.27,57.459,57.459,0,0,1-15.94,2.789C371.267,249.509,370.473,249.519,369.683,249.519Zm-14.594-1.407a126.6,126.6,0,0,0,16.957.857,57.557,57.557,0,0,0,15.581-2.69c-.161-1.475-1.179-10.543-2.9-18.23-1.937-8.653-6.232-24.8-6.684-25.527s-4.706-10.252-5.536-12.133c-1.558,1.184-9.349,7.271-11.125,9.79a29.428,29.428,0,0,0-4.347,10.387c-.712,3.282-.971,15.545-1.039,19.217v.14C355.987,230.38,355.2,245.883,355.089,248.112Z" transform="translate(-322.964 -166.439)" fill="#263238"/><path d="M374.375,285.416a.326.326,0,0,1-.1,0l-11.224-4.586a.265.265,0,0,1-.145-.327l.826-2.311a.26.26,0,0,1,.332-.156.255.255,0,0,1,.156.332l-.738,2.077,10.709,4.378.561-2.42-7.962-3.355a.27.27,0,0,1-.14-.343.26.26,0,0,1,.343-.135L375.138,282a.249.249,0,0,1,.151.3l-.68,2.934a.265.265,0,0,1-.135.171.306.306,0,0,1-.1.01Z" transform="translate(-326.965 -208.875)" fill="#263238"/><path d="M374.05,190.23s-9.406,7.178-11.426,10.045a30.126,30.126,0,0,0-4.389,10.507,60.24,60.24,0,0,0-.665,7.318l.094.052a37.97,37.97,0,0,1,4.8-11.021c3.636-5.744,7.791-8.772,10.216-10.907a15.316,15.316,0,0,0,2.659-3.116Z" transform="translate(-324.406 -166.68)" fill="#bdbdbd"/><path d="M357.393,218.17a.25.25,0,0,1-.125-.031l-.093-.052a.254.254,0,0,1-.135-.239,56.8,56.8,0,0,1,.675-7.365,29.958,29.958,0,0,1,4.425-10.6c2.036-2.867,11.115-9.806,11.5-10.1a.281.281,0,0,1,.223-.047.26.26,0,0,1,.171.151l1.283,2.882a.249.249,0,0,1,0,.249,15.489,15.489,0,0,1-2.706,3.168q-.519.462-1.153.982a41.071,41.071,0,0,0-9.016,9.868,37.95,37.95,0,0,0-4.773,10.933.254.254,0,0,1-.151.182A.239.239,0,0,1,357.393,218.17Zm16.3-27.781c-1.558,1.184-9.349,7.271-11.125,9.79a29.428,29.428,0,0,0-4.347,10.387,43.457,43.457,0,0,0-.551,5.381,40.323,40.323,0,0,1,4.316-9.229,41.836,41.836,0,0,1,9.12-9.982c.41-.348.795-.67,1.143-.976a15.02,15.02,0,0,0,2.54-2.94Z" transform="translate(-324.151 -166.439)" fill="#263238"/><path d="M411.759,295.074a.26.26,0,0,1-.249-.192.254.254,0,0,1,.182-.322c.847-.229,1.662-.478,2.436-.743a.265.265,0,0,1,.332.161.26.26,0,0,1-.161.327c-.784.27-1.615.519-2.472.758Z" transform="translate(-350.326 -216.461)" fill="#263238"/><path d="M367.257,298.288a101.168,101.168,0,0,1-10.59-.519.26.26,0,0,1-.229-.291.255.255,0,0,1,.286-.223c.145,0,14.309,1.646,26.249-.94a.265.265,0,0,1,.109.519A76.835,76.835,0,0,1,367.257,298.288Z" transform="translate(-323.861 -217.665)" fill="#263238"/><path d="M301.683,184.577s3.282-3.288,4.326-3.267,8.632,5.116,8.1,5.713a44.365,44.365,0,0,1-5.905,3.636c-.525.166-2.431-5.131-2.431-5.131l-1.558.27v3.163h0a16.1,16.1,0,0,0,4.674,5.583c1.709,1.288,3.636,3.256,3.765,5.713.275,4.487-.421,5.443-1.558,6.466s-2.851,1.039-7.427,1.693-6.284.177-8.372-3.381A8.019,8.019,0,0,1,297,195.063c2.737-2.259,2.966-2.555,3.76-4.628A23.471,23.471,0,0,0,301.683,184.577Z" transform="translate(-293.979 -162.393)" fill="#ffc100"/><path d="M300.512,208.648c-2.6,0-4.072-.93-5.713-3.76a8.237,8.237,0,0,1,1.766-10.31c2.768-2.28,2.919-2.529,3.688-4.519a23.488,23.488,0,0,0,.93-5.713.27.27,0,0,1,.073-.171c.561-.561,3.4-3.345,4.508-3.345h0c1,0,7.791,4.451,8.31,5.682a.4.4,0,0,1-.047.457,41.047,41.047,0,0,1-6.035,3.682c-.223.062-.738.2-2.664-5.09l-1.143.2v2.883a15.883,15.883,0,0,0,4.586,5.438c1.672,1.267,3.7,3.314,3.864,5.89.28,4.591-.473,5.625-1.646,6.674-.971.867-2.27,1.039-5.116,1.418-.712.093-1.522.2-2.451.338A20.692,20.692,0,0,1,300.512,208.648Zm1.143-24.187a22.956,22.956,0,0,1-.961,5.786c-.821,2.129-1.106,2.483-3.838,4.731a7.791,7.791,0,0,0-1.652,9.645c2.078,3.516,3.755,3.885,8.113,3.251.93-.135,1.74-.244,2.457-.338,2.737-.364,3.984-.519,4.835-1.288,1.1-.982,1.74-1.891,1.475-6.258-.145-2.379-2.077-4.306-3.662-5.505a16.37,16.37,0,0,1-4.757-5.677.238.238,0,0,1-.031-.119V185.53a.26.26,0,0,1,.213-.255L305.4,185a.26.26,0,0,1,.286.171,25.529,25.529,0,0,0,2.187,4.944,47.489,47.489,0,0,0,5.724-3.449c-.447-.924-6.876-5.308-7.848-5.329h0C305.061,181.339,302.922,183.219,301.654,184.46Z" transform="translate(-293.717 -162.162)" fill="#263238"/><path d="M311.732,212.56a4.57,4.57,0,1,0-1.41,3.205A4.57,4.57,0,0,0,311.732,212.56Z" transform="translate(-297.982 -175.169)"/><path d="M310.331,217.416V216.9a1.236,1.236,0,0,1-.95-.436,1.88,1.88,0,0,1-.322-1.122l.805-.14a2.207,2.207,0,0,0,.057.519.706.706,0,0,0,.166.348.457.457,0,0,0,.322.13.374.374,0,0,0,.322-.125.519.519,0,0,0,.1-.338.888.888,0,0,0-.14-.519,2.629,2.629,0,0,0-.384-.436l-.634-.571a2.224,2.224,0,0,1-.3-.338,1.377,1.377,0,0,1-.2-.39,1.506,1.506,0,0,1-.062-.519,1.169,1.169,0,0,1,.343-.878,1.262,1.262,0,0,1,.878-.332v-.519h.27v.519a1.158,1.158,0,0,1,.519.156.939.939,0,0,1,.322.317,1.438,1.438,0,0,1,.171.431,2.52,2.52,0,0,1,.057.493l-.784.119a3.294,3.294,0,0,0-.042-.426.561.561,0,0,0-.135-.3.353.353,0,0,0-.3-.1.4.4,0,0,0-.322.13.483.483,0,0,0-.114.327.717.717,0,0,0,.109.436,2.034,2.034,0,0,0,.286.332l.623.566a3.329,3.329,0,0,1,.358.405,1.588,1.588,0,0,1,.265.478,1.558,1.558,0,0,1,.088.6,1.262,1.262,0,0,1-.145.6,1.138,1.138,0,0,1-.384.415,1.3,1.3,0,0,1-.587.187v.519Z" transform="translate(-301.09 -176.773)" fill="#fff"/><path d="M312.29,197s.779,2.711,1.3,4.113" transform="translate(-302.644 -169.934)" fill="#fff"/><path d="M313.354,201.144a.249.249,0,0,1-.239-.166c-.519-1.4-1.3-4.108-1.314-4.155a.26.26,0,0,1,.182-.322.254.254,0,0,1,.317.177c0,.026.784,2.716,1.3,4.1a.26.26,0,0,1-.151.332A.3.3,0,0,1,313.354,201.144Z" transform="translate(-302.404 -169.689)" fill="#263238"/><path d="M309.373,202.478h-.026a.26.26,0,0,1-.229-.286l.343-2.966a.262.262,0,1,1,.519.062l-.343,2.96a.265.265,0,0,1-.265.229Z" transform="translate(-301.119 -170.893)" fill="#263238"/><path d="M316.827,187.692a.244.244,0,0,1-.145-.047c-.613-.426-2.493-.364-3.168-.306a.26.26,0,0,1-.14-.488l2.441-1.246a.265.265,0,0,1,.353.114.26.26,0,0,1-.114.348l-1.382.712a4.636,4.636,0,0,1,2.316.441.26.26,0,0,1,.062.364A.249.249,0,0,1,316.827,187.692Z" transform="translate(-303.098 -164.443)" fill="#263238"/><path d="M316.513,233.1l-3.7-1.953s-1.714-2.529-2.015-2.955-1.558-.551-2.888-1.2-2.789-.784-2.394.156,1.745,1.08,2.155,1.4a4.279,4.279,0,0,1,.805,1.039,13.966,13.966,0,0,1-6.451.275c-1.449-.343-2.9-.582-2.9-.582a3.412,3.412,0,0,0,.691,1.678,15.4,15.4,0,0,0,2.472,1.2A15.094,15.094,0,0,0,306.1,234a12.4,12.4,0,0,0,4.472-.114l3.786,2.789Z" transform="translate(-296.318 -184.097)" fill="#fff"/><path d="M314.1,236.716a.281.281,0,0,1-.156-.052l-3.714-2.716a11.678,11.678,0,0,1-4.477.083,14.938,14.938,0,0,1-3.864-1.87,14.068,14.068,0,0,1-2.514-1.226,3.493,3.493,0,0,1-.779-1.844.255.255,0,0,1,.3-.291s1.475.244,2.919.587a9.826,9.826,0,0,0,3.859.182,12.724,12.724,0,0,0,2.14-.358,3.226,3.226,0,0,0-.577-.7,2.383,2.383,0,0,0-.519-.239,2.674,2.674,0,0,1-1.693-1.262.675.675,0,0,1,.1-.821c.462-.441,1.662-.151,2.649.327a11.745,11.745,0,0,0,1.646.628,2.639,2.639,0,0,1,1.335.66c.28.395,1.73,2.529,1.984,2.908l3.636,1.922a.26.26,0,0,1,.1.364l-2.155,3.589a.291.291,0,0,1-.171.125Zm-3.786-3.308a.265.265,0,0,1,.151.052l3.558,2.6,1.87-3.116-3.459-1.823a.3.3,0,0,1-.093-.088s-1.714-2.535-2.01-2.945a2.82,2.82,0,0,0-1.07-.473,12.12,12.12,0,0,1-1.719-.654c-1.039-.519-1.9-.582-2.077-.421-.047.052,0,.2.026.244a2.308,2.308,0,0,0,1.4.976,2.653,2.653,0,0,1,.675.317,4.44,4.44,0,0,1,.878,1.137.254.254,0,0,1,0,.213.244.244,0,0,1-.145.151,10.107,10.107,0,0,1-2.6.483,10.216,10.216,0,0,1-4.03-.192c-.992-.234-1.989-.421-2.514-.519a2.42,2.42,0,0,0,.519,1.158,14.053,14.053,0,0,0,2.457,1.195l.052.026a14.735,14.735,0,0,0,3.724,1.813,12.137,12.137,0,0,0,4.358-.114Z" transform="translate(-296.061 -183.858)" fill="#263238"/><path d="M352.265,213.78s-3.636,3.563-4.077,5.713-2.077,14.615-2.077,14.615l-18.355-8.071-2.425,6.29s25.278,13.956,26.119,14.184,3.033-.873,3.033-.873l7.739-26.13a14.429,14.429,0,0,0-.639-3.963" transform="translate(-308.911 -177.999)" fill="#bdbdbd"/><path d="M351.485,246.558a1.211,1.211,0,0,1-.322-.042c-.831-.229-23.564-12.777-26.156-14.2a.26.26,0,0,1-.114-.322l2.42-6.29a.265.265,0,0,1,.145-.145.249.249,0,0,1,.2,0l18.012,7.946c.27-2.077,1.62-12.309,2.041-14.288.473-2.223,4-5.713,4.155-5.864a.26.26,0,0,1,.369,0,.265.265,0,0,1,0,.369c-.036.036-3.563,3.532-4,5.6s-2.077,14.465-2.077,14.589a.244.244,0,0,1-.13.192.255.255,0,0,1-.229,0l-18.079-7.983-2.259,5.843c7.126,3.937,25.086,13.82,25.844,14.054a6.285,6.285,0,0,0,2.747-.805l7.692-25.969a14.657,14.657,0,0,0-.628-3.849.254.254,0,0,1,.171-.322.265.265,0,0,1,.327.171,14.579,14.579,0,0,1,.649,4.046.3.3,0,0,1,0,.068l-7.739,26.135a.249.249,0,0,1-.135.156A9.954,9.954,0,0,1,351.485,246.558Z" transform="translate(-308.692 -177.755)" fill="#263238"/><path d="M365.833,256.947a.265.265,0,0,1-.254-.213l-.743-3.968a.26.26,0,0,1,.145-.286.265.265,0,0,1,.312.078l3.116,3.911a.26.26,0,1,1-.405.327l-2.488-3.116.556,2.945a.265.265,0,0,1-.208.306Z" transform="translate(-327.896 -196.589)" fill="#263238"/><path d="M301.839,187.528s-.036,1.7.358,2.114,3.407.171,3.719-.322.519-1.293.031-1.5S302.052,187.029,301.839,187.528Z" transform="translate(-297.62 -165.287)" fill="#fff"/><path d="M303.107,189.868a2.2,2.2,0,0,1-1.345-.291c-.441-.467-.431-2-.426-2.3a.3.3,0,0,1,0-.1c.073-.166.218-.519,2.218-.275a11.821,11.821,0,0,1,2.233.431.706.706,0,0,1,.405.452,1.922,1.922,0,0,1-.322,1.428c-.234.369-1.137.519-1.854.6A8.7,8.7,0,0,1,303.107,189.868Zm-1.252-2.472a4.034,4.034,0,0,0,.286,1.818,4.212,4.212,0,0,0,1.849.088,3.116,3.116,0,0,0,1.465-.369,1.465,1.465,0,0,0,.265-.992.177.177,0,0,0-.119-.13,11.2,11.2,0,0,0-3.745-.415Z" transform="translate(-297.377 -165.041)" fill="#263238"/><path d="M302.406,191.482s-.338,1.7.057,2.01,1.906-.161,2.919-.441.743-1.891.743-1.891Z" transform="translate(-297.828 -167.127)" fill="#fff"/><path d="M302.653,193.609a.961.961,0,0,1-.6-.156c-.473-.369-.265-1.7-.151-2.264a.254.254,0,0,1,.229-.208l3.719-.322a.254.254,0,0,1,.28.218c0,.078.291,1.844-.93,2.181l-.291.083A9.868,9.868,0,0,1,302.653,193.609Zm-.275-2.124a2.955,2.955,0,0,0,0,1.558c.26.2,1.7-.208,2.4-.4l.291-.083c.577-.156.6-.956.582-1.361Z" transform="translate(-297.583 -166.885)" fill="#263238"/><path d="M302.6,195.116s-.239.976.348,1.433,2.773-.384,3.075-.623-.068-1.387-.068-1.387A15.725,15.725,0,0,1,302.6,195.116Z" transform="translate(-297.961 -168.752)" fill="#fff"/><path d="M303.249,196.7a1.153,1.153,0,0,1-.706-.182,1.8,1.8,0,0,1-.441-1.7.26.26,0,0,1,.291-.2,14.66,14.66,0,0,0,3.251-.566.265.265,0,0,1,.317.171c.125.395.379,1.35,0,1.667a6.388,6.388,0,0,1-2.711.81Zm-.675-1.558a1.085,1.085,0,0,0,.291.961c.421.332,2.457-.384,2.753-.623a1.886,1.886,0,0,0-.083-.867,16.735,16.735,0,0,1-2.96.535Z" transform="translate(-297.721 -168.513)" fill="#263238"/><path d="M303.31,197.833a2.472,2.472,0,0,0,.618,1,2.17,2.17,0,0,0,2.29-.639,1.709,1.709,0,0,0,.166-.987A15.208,15.208,0,0,1,303.31,197.833Z" transform="translate(-298.327 -170.035)" fill="#fff"/><path d="M304.211,198.973a1.148,1.148,0,0,1-.686-.171,2.685,2.685,0,0,1-.706-1.127.27.27,0,0,1,.036-.234.291.291,0,0,1,.218-.1h.042a15.54,15.54,0,0,0,2.955-.618.26.26,0,0,1,.327.182,1.963,1.963,0,0,1-.182,1.153c-.2.519-.914.732-1.2.81a3.338,3.338,0,0,1-.8.109Zm-.784-1.137a1.641,1.641,0,0,0,.4.556,1.677,1.677,0,0,0,1.039-.031,1.3,1.3,0,0,0,.857-.519,2.354,2.354,0,0,0,.156-.519A17.293,17.293,0,0,1,303.427,197.836Z" transform="translate(-298.086 -169.794)" fill="#263238"/><path d="M313.3,189.425a15.69,15.69,0,0,0,0,3.163c.213.1.883.462,1.236.125s1.345-2.737,1.008-3.34S313.515,188.786,313.3,189.425Z" transform="translate(-303.085 -166.057)" fill="#fff"/><path d="M313.9,192.9a2.171,2.171,0,0,1-.966-.3c-.161-.083-.343-.182-.119-3.412a.139.139,0,0,1,0-.062c.119-.364.519-.6,1.117-.654s1.324.1,1.558.561c.431.774-.7,3.314-1.039,3.636a.789.789,0,0,1-.551.229Zm-.644-.712c.561.275.774.2.852.125.317-.3,1.215-2.571.966-3.028a1.257,1.257,0,0,0-1.08-.3.893.893,0,0,0-.665.28,22.8,22.8,0,0,0-.083,2.909Zm0,.052Z" transform="translate(-302.845 -165.83)" fill="#263238"/></g><g transform="translate(70.896 75.185)"><path d="M153.26,225.075l6.658,9.64,13.4-10.164.525,4.358-15.529,16.75Z" transform="translate(-133.326 -161.441)" fill="#263238"/><path d="M158.076,245.686a.166.166,0,0,1-.068,0,.26.26,0,0,1-.187-.187l-5.059-20.588a.26.26,0,0,1,.467-.208l6.508,9.421,13.182-10a.26.26,0,0,1,.26-.031.249.249,0,0,1,.156.208l.519,4.363a.244.244,0,0,1-.068.2l-15.524,16.75a.27.27,0,0,1-.187.073ZM153.6,226.152l4.607,18.744,15.119-16.308-.457-3.791-13.036,9.894a.254.254,0,0,1-.2.047.26.26,0,0,1-.171-.1Z" transform="translate(-133.084 -161.21)" fill="#263238"/><path d="M212.382,153.391a22.811,22.811,0,1,0-40.334,14.594,22.39,22.39,0,0,1,5.194,14.35v3.116H201.9v-3.116A22.333,22.333,0,0,1,207.089,168a22.717,22.717,0,0,0,5.292-14.6Z" transform="translate(-139.815 -116.271)" fill="#fff"/><path d="M201.682,185.477H177.053a.26.26,0,0,1-.26-.26V182.1a22.193,22.193,0,0,0-5.137-14.184,23.071,23.071,0,1,1,35.437,0,22.125,22.125,0,0,0-5.126,14.174v3.116a.26.26,0,0,1-.286.27Zm-24.41-.519h24.135V182.1a22.657,22.657,0,0,1,5.253-14.508,22.551,22.551,0,1,0-34.639,0,22.728,22.728,0,0,1,5.256,14.542Z" transform="translate(-139.596 -116.032)" fill="#263238"/><path d="M198.939,209.751a.26.26,0,0,1-.26-.249c0-.151-.447-10.242-1.122-18.3a10.907,10.907,0,0,1-3.48-6.5c-.462-3.116-.135-5.381.815-5.583.712-.156,1.423.857,1.994,2.846a63.233,63.233,0,0,1,1.174,8.98,7.271,7.271,0,0,0,1.382.924,4.349,4.349,0,0,0,3.984.291,8.747,8.747,0,0,0,1.755-1.21,34.414,34.414,0,0,1,.738-5.853c1.459-5.978,2.337-6.752,2.945-6.752h0c.587,0,1,.789,1.324,2.519.691,3.589-1.823,7.915-4.513,10.346-.426,7.739.239,17.986.244,18.121a.26.26,0,0,1-.239.275.265.265,0,0,1-.275-.244c-.036-.519-.654-10.1-.28-17.685a8.308,8.308,0,0,1-1.485.971,4.884,4.884,0,0,1-4.451-.291,7.717,7.717,0,0,1-1.085-.68c.644,7.791,1.039,17.217,1.08,17.825a.26.26,0,0,1-.249.27Zm9.925-30.908c-.151,0-.966.322-2.441,6.383a32.518,32.518,0,0,0-.686,5.194c2.431-2.363,4.586-6.232,3.958-9.51-.39-2.026-.784-2.077-.826-2.077Zm-13.836.784h0c-.39.083-.9,1.636-.41,5a10.419,10.419,0,0,0,2.9,5.8,58.677,58.677,0,0,0-1.1-8.31C195.8,180.059,195.231,179.628,195.029,179.628Z" transform="translate(-152.845 -139.236)" fill="#263238"/><rect width="24.655" height="6.097" transform="translate(37.431 69.196)" fill="#263238"/><path d="M211.388,242.387H186.76a.26.26,0,0,1-.26-.26v-6.1a.26.26,0,0,1,.26-.26h24.655a.26.26,0,0,1,.26.26v6.092a.265.265,0,0,1-.286.265Zm-24.41-.519h24.135v-5.578h-24.12Z" transform="translate(-149.303 -166.834)" fill="#263238"/><path d="M186.945,248H211.6v4.794a1.3,1.3,0,0,1-1.3,1.3H188.244a1.3,1.3,0,0,1-1.3-1.3V248Z" transform="translate(-149.514 -172.712)" fill="#263238"/><path d="M210.061,254.138H188.008a1.558,1.558,0,0,1-1.558-1.558v-4.82a.26.26,0,0,1,.26-.26h24.655a.26.26,0,0,1,.26.26v4.794a1.558,1.558,0,0,1-1.563,1.584Zm-23.091-6.1v4.534a1.039,1.039,0,0,0,1.039,1.039h22.053a1.039,1.039,0,0,0,1.039-1.039V248.04Z" transform="translate(-149.279 -172.471)" fill="#263238"/><path d="M192.935,259.77h18.433v4.794a1.3,1.3,0,0,1-1.3,1.3h-15.83a1.3,1.3,0,0,1-1.3-1.3V259.77Z" transform="translate(-152.393 -178.369)" fill="#263238"/><path d="M209.829,265.882H194a1.558,1.558,0,0,1-1.558-1.558V259.53a.26.26,0,0,1,.26-.26h18.433a.26.26,0,0,1,.26.26v4.794a1.558,1.558,0,0,1-1.563,1.558Zm-16.869-6.1v4.539A1.039,1.039,0,0,0,194,265.362h15.83a1.039,1.039,0,0,0,1.039-1.039v-4.534Z" transform="translate(-152.158 -178.128)" fill="#263238"/><path d="M278.4,174.759H275.92a.26.26,0,1,1,0-.519H278.4a.26.26,0,1,1,0,.519Z" transform="translate(-192.155 -137.261)" fill="#263238"/><path d="M266.1,174.759H260.59a.26.26,0,1,1,0-.519H266.1a.26.26,0,1,1,0,.519Z" transform="translate(-184.787 -137.261)" fill="#263238"/><path d="M148.879,174.759H138.3a.26.26,0,1,1,0-.519h10.58a.26.26,0,1,1,0,.519Z" transform="translate(-126.011 -137.261)" fill="#263238"/><path d="M209.5,114.035a.26.26,0,0,1-.26-.26V103.3a.26.26,0,1,1,.519,0v10.476A.26.26,0,0,1,209.5,114.035Z" transform="translate(-160.232 -103.04)" fill="#263238"/><path d="M249.758,129.711a.262.262,0,0,1-.187-.447l5.22-5.194a.265.265,0,0,1,.369,0,.26.26,0,0,1,0,.369l-5.2,5.168A.26.26,0,0,1,249.758,129.711Z" transform="translate(-179.58 -113.112)" fill="#263238"/><path d="M245.963,137.529a.26.26,0,0,1-.182-.441l.836-.836a.259.259,0,0,1,.364.369l-.831.831a.265.265,0,0,1-.187.078Z" transform="translate(-177.759 -118.967)" fill="#263238"/><path d="M162.923,216.379a.26.26,0,0,1-.182-.441l5.36-5.36a.249.249,0,0,1,.364,0,.26.26,0,0,1,0,.369l-5.36,5.36a.27.27,0,0,1-.182.073Z" transform="translate(-137.848 -154.688)" fill="#263238"/><path d="M159.153,224.185a.26.26,0,0,1-.182-.441l1-1a.265.265,0,0,1,.369,0,.26.26,0,0,1,0,.369l-1,1A.244.244,0,0,1,159.153,224.185Z" transform="translate(-136.036 -160.536)" fill="#263238"/><path d="M164.085,129.352a.26.26,0,0,1-.182-.078l-4.934-4.934a.259.259,0,1,1,.364-.369l4.939,4.934a.262.262,0,0,1-.187.447Z" transform="translate(-136.033 -113.064)" fill="#263238"/><path d="M171.542,136.829a.265.265,0,0,1-.187-.078l-1.184-1.158a.259.259,0,0,1,.369-.364l1.184,1.184a.26.26,0,0,1-.182.441Z" transform="translate(-141.419 -118.474)" fill="#263238"/><path d="M251.905,217.159a.254.254,0,0,1-.182-.078l-5.485-5.495a.26.26,0,0,1,0-.369.249.249,0,0,1,.364,0l5.49,5.485a.273.273,0,0,1-.187.457Z" transform="translate(-177.978 -154.995)" fill="#263238"/><path d="M259.291,224.553a.265.265,0,0,1-.187-.078l-.6-.6a.259.259,0,0,1,.369-.364l.6.6a.26.26,0,0,1-.182.441Z" transform="translate(-183.873 -160.904)" fill="#263238"/><path d="M124.457,285.59s-.519,9.806-.519,12.465,1.828,9.146,1.828,9.146l-.519,33.915-2.664,35.411s-1.662,4.82-1,5.318,8.149,1,10.31,1.163,6.814,1,7.313,0-4.986-3.49-6.149-4.82-2.161-2.659-2.161-2.659l1.662-2.825s-.166-3.828-.166-4.493,5.817-43.222,5.817-43.222l3.662,43.721-.628,3.828,1.5,3.324s-.831,4.321-.166,4.674,5.152-.332,5.817-.166,3.49,1.33,4.82,1.33,5.651-.332,6.986-1-.836-1.33-2-1.994-6.482-3.989-6.482-3.989l.166-2.161a9.033,9.033,0,0,1-1.163-3.662c-.5-2.831.831-12.8.665-17.788s-.166-29.6-.665-40.563-3.49-24.769-3.49-24.769Z" transform="translate(-118.027 -190.779)" fill="#263238"/><path d="M137.215,383.525a36.447,36.447,0,0,1-3.791-.306c-.639-.073-1.226-.14-1.7-.177l-.873-.068c-5.35-.395-9.027-.743-9.572-1.148-.706-.519.254-3.708.9-5.578l2.659-35.38.519-33.858c-.166-.582-1.828-6.591-1.828-9.182s.519-12.382.519-12.465a.26.26,0,0,1,.26-.244l22.774.166a.255.255,0,0,1,.255.2c.026.14,3,13.945,3.5,24.816.322,7.079.436,19.928.519,29.313.047,5.3.088,9.484.145,11.255.078,2.327-.166,5.713-.405,8.98-.27,3.745-.519,7.271-.265,8.772a9.309,9.309,0,0,0,1.111,3.542.244.244,0,0,1,.057.177l-.156,2c.831.519,5.3,3.308,6.342,3.9.249.145.561.3.857.436.9.436,1.683.81,1.688,1.34,0,.395-.421.608-.561.68-1.433.717-5.884,1.039-7.1,1.039a15.213,15.213,0,0,1-3.947-1.039c-.41-.14-.763-.265-.935-.306a15.371,15.371,0,0,0-2.29.1,11.246,11.246,0,0,1-3.584.042c-.717-.364-.312-3.163,0-4.856l-1.459-3.251a.3.3,0,0,1,0-.151l.66-3.791L138,327.127c-2.077,15.062-5.474,40.21-5.495,40.854s.166,4.435.166,4.472a.275.275,0,0,1-.036.145l-1.558,2.675c.286.374,1.117,1.449,2.046,2.509a15.936,15.936,0,0,0,2.81,1.968c2.342,1.449,3.76,2.374,3.376,3.116C139.064,383.359,138.321,383.525,137.215,383.525Zm-12.7-97.9c-.078,1.558-.483,9.821-.483,12.205,0,2.6,1.8,9.011,1.818,9.073a.4.4,0,0,1,0,.078l-.519,33.915-2.664,35.421a.265.265,0,0,1,0,.068c-.841,2.441-1.34,4.742-1.085,5.033.519.395,7.131.883,9.3,1.039l.873.062c.473.036,1.07.109,1.714.182,1.761.2,5.038.576,5.35-.036.187-.379-2.077-1.787-3.189-2.467a15.055,15.055,0,0,1-2.929-2.077c-1.153-1.324-2.161-2.664-2.171-2.675a.27.27,0,0,1,0-.291l1.62-2.758c0-.561-.161-3.807-.161-4.425s5.583-41.519,5.822-43.259a.26.26,0,0,1,.519,0l3.636,43.721a.151.151,0,0,1,0,.068l-.654,3.745,1.465,3.251a.27.27,0,0,1,0,.156c-.41,2.14-.545,4.155-.3,4.378s2.1,0,3.293-.093a12.984,12.984,0,0,1,2.462-.1c.192.052.519.171.982.327a15.6,15.6,0,0,0,3.776,1c1.267,0,5.594-.332,6.866-.971.255-.125.275-.208.275-.208,0-.208-.94-.66-1.392-.878-.306-.145-.623-.3-.888-.452-1.158-.66-6.279-3.859-6.492-3.994a.265.265,0,0,1-.125-.239l.161-2.077a10.349,10.349,0,0,1-1.153-3.682c-.275-1.558,0-5.121.26-8.9.234-3.256.478-6.622.4-8.923-.057-1.776-.1-5.962-.145-11.265-.083-9.38-.2-22.229-.519-29.3-.457-10.1-3.075-22.769-3.443-24.52Z" transform="translate(-117.837 -190.553)" fill="#263238"/><path d="M135.453,202.7l3.739,1.1.332,4.737-2.535-.992s5.62,18.064,8.04,24.12,3.745,14.864,3.3,15.306.551,1.433-5.713,1.433-18.7-.441-19.6-.992-.551-10.684-.332-12.465-1.21-13.878-2.077-17.731,2.862-14.755,2.862-14.755Z" transform="translate(-117.571 -150.824)" fill="#fff"/><path d="M142.359,248.423c-5.526,0-18.7-.39-19.736-1.039-1.137-.712-.571-11.722-.452-12.693.218-1.75-1.2-13.784-2.077-17.659s2.716-14.449,2.872-14.9a.244.244,0,0,1,.249-.177l12,.218h.073l3.745,1.1a.254.254,0,0,1,.182.234l.332,4.737a.265.265,0,0,1-.1.223.254.254,0,0,1-.249.036l-2.031-.795c.94,3,5.713,18.178,7.874,23.579,2.254,5.635,3.9,14.937,3.246,15.581a.452.452,0,0,0-.088.182C147.974,247.685,147.714,248.423,142.359,248.423ZM123.381,202.5c-.478,1.423-3.589,10.964-2.794,14.433.888,3.885,2.316,16.043,2.077,17.82-.28,2.239-.452,11.582.213,12.195.717.447,12.21.95,19.461.95,4.986,0,5.194-.618,5.334-.987a.919.919,0,0,1,.208-.369c.275-.675-.982-9.084-3.36-15.031s-7.972-23.948-8.024-24.13a.255.255,0,0,1,.068-.265.265.265,0,0,1,.275-.052l2.15.841-.291-4.155-3.537-1.039Z" transform="translate(-117.32 -150.583)" fill="#263238"/><path d="M125.616,143.193s-7.707-1.324-9.032.109,0,4.737,0,4.737-1.319-1.652-1.21,0,2.535,9.032,2.535,9.032l3.08,4.622c.223.332.883,8.149.883,8.149L132,172.7l-.992-6.383s5.194.218,5.614-.441.109-6.388.109-6.388,1.324-.883,1.324-1.319-2.862-4.519-2.976-4.846.332-1.1.551-1.875-1.428-6.388-1.428-6.388a1.854,1.854,0,0,0,.66-1.761c-.218-1.1-4.846-3.963-4.513-3.085s.551,1.652.551,1.652-4.846-2.311-5.713-1.1S125.616,143.193,125.616,143.193Z" transform="translate(-115.114 -120.829)" fill="#fff"/><path d="M131.77,172.736a.177.177,0,0,1-.073,0l-10.133-2.862a.255.255,0,0,1-.187-.229c-.244-2.9-.691-7.656-.852-8.05l-3.069-4.6-.031-.062c-.1-.3-2.436-7.427-2.545-9.094,0-.353,0-.836.353-.976a.654.654,0,0,1,.566.093c-.306-1.137-.6-3,.358-4.046,1.184-1.283,6.586-.6,8.59-.3a1.9,1.9,0,0,1,0-2.213c.826-1.137,4.087.14,5.516.774-.093-.291-.223-.675-.374-1.08a.374.374,0,0,1,.052-.4.519.519,0,0,1,.519-.078c.966.27,4.2,2.337,4.42,3.417a2.078,2.078,0,0,1-.618,1.9c.358,1.231,1.6,5.609,1.382,6.373a8.572,8.572,0,0,1-.3.852,2.629,2.629,0,0,0-.249.867c.047.119.519.867.971,1.522,1.485,2.254,2.015,3.116,2.015,3.407,0,.478-.841,1.122-1.314,1.449.068,1.241.286,5.713-.161,6.4s-3.8.628-5.526.566l.94,6.077a.249.249,0,0,1-.083.234.26.26,0,0,1-.166.052Zm-9.868-3.324,9.567,2.706-.945-5.988a.265.265,0,0,1,.068-.213.234.234,0,0,1,.2-.083c2.374.1,5.111,0,5.391-.327s.223-3.454.068-6.232a.26.26,0,0,1,.114-.234,3.667,3.667,0,0,0,1.2-1.106,31.684,31.684,0,0,0-1.927-3.116,15.38,15.38,0,0,1-1.039-1.646,2.078,2.078,0,0,1,.26-1.215,7.435,7.435,0,0,0,.286-.81c.14-.478-.753-3.937-1.428-6.232a.255.255,0,0,1,.093-.28,1.584,1.584,0,0,0,.561-1.5c-.151-.753-3-2.644-3.932-2.986.286.779.462,1.4.473,1.433a.265.265,0,0,1-.083.27.275.275,0,0,1-.28.036c-1.932-.924-4.882-1.9-5.407-1.184-.727,1.008.364,2.036.41,2.077a.27.27,0,0,1,.057.306.26.26,0,0,1-.28.14c-2.077-.358-7.791-1.039-8.793.031-1.195,1.293.036,4.43.052,4.461a.26.26,0,0,1-.114.322.265.265,0,0,1-.332-.062,1.994,1.994,0,0,0-.732-.634,1.979,1.979,0,0,0,0,.457c.1,1.558,2.332,8.388,2.509,8.928l3.064,4.6c.187.327.639,5.126.893,8.076Z" transform="translate(-114.88 -120.601)" fill="#263238"/><path d="M141.52,190.058l-4.29-.618,4.654,3.662Z" transform="translate(-125.622 -144.566)" fill="#263238"/><path d="M141.616,193.155a.265.265,0,0,1-.161-.057l-4.674-3.636a.254.254,0,0,1,.2-.457l4.29.613a.254.254,0,0,1,.218.229l.364,3.044a.255.255,0,0,1-.13.26A.259.259,0,0,1,141.616,193.155Zm-3.734-3.532,3.4,2.675-.265-2.223Z" transform="translate(-125.355 -144.355)" fill="#263238"/><path d="M134.881,143.3c-.218-1.1-4.846-3.963-4.513-3.085s.551,1.652.551,1.652-4.846-2.311-5.713-1.1.441,2.425.441,2.425-7.707-1.324-9.032.109,0,4.737,0,4.737-1.319-1.652-1.21,0,2.535,9.032,2.535,9.032l1.8,2.7L121.9,157.4a4.734,4.734,0,0,0,1.433-.769c.223-.327-1.215-2.644-1.215-2.644a11.239,11.239,0,0,0,3.527-2.2c1.433-1.433-1.984-3.3-1.984-3.3l5.947-.992-1.319-1.433,4.041-.317-1.1-.665h2.976a1.854,1.854,0,0,0,.675-1.771Z" transform="translate(-115.129 -120.829)" fill="#ffc100"/><path d="M119.5,159.794h0a.26.26,0,0,1-.2-.114l-1.8-2.706-.031-.062c-.1-.3-2.436-7.427-2.545-9.094,0-.353,0-.836.353-.976a.654.654,0,0,1,.566.093c-.306-1.137-.6-3,.358-4.046,1.184-1.283,6.586-.6,8.59-.3a1.9,1.9,0,0,1,0-2.213c.826-1.137,4.087.14,5.516.774-.093-.291-.223-.675-.374-1.08a.374.374,0,0,1,.052-.4.519.519,0,0,1,.519-.078c.966.27,4.2,2.337,4.42,3.417h0a2.077,2.077,0,0,1-.758,2.02.244.244,0,0,1-.156.052h-2.036l.3.182a.254.254,0,0,1-.114.478l-3.542.291.961,1.039a.275.275,0,0,1,.057.26.265.265,0,0,1-.208.171l-5.266.878c.686.467,1.73,1.309,1.859,2.2a1.3,1.3,0,0,1-.415,1.143,10.959,10.959,0,0,1-3.324,2.145c1.34,2.218,1.122,2.55,1.039,2.659a3.979,3.979,0,0,1-1.5.852l-2.119,2.327A.27.27,0,0,1,119.5,159.794Zm-1.558-3.08,1.6,2.4,1.937-2.129a.239.239,0,0,1,.1-.068,4.706,4.706,0,0,0,1.283-.644,10.246,10.246,0,0,0-1.195-2.389.249.249,0,0,1,0-.218.255.255,0,0,1,.156-.161,11.021,11.021,0,0,0,3.433-2.145.8.8,0,0,0,.265-.7c-.125-.878-1.626-1.88-2.192-2.192a.26.26,0,0,1-.13-.27.265.265,0,0,1,.213-.213l5.438-.924-1-1.039a.26.26,0,0,1-.052-.27.27.27,0,0,1,.223-.166l3.267-.265-.405-.244a.255.255,0,0,1-.119-.291.26.26,0,0,1,.249-.192h2.877a1.558,1.558,0,0,0,.519-1.449c-.151-.753-3-2.644-3.932-2.986.286.779.462,1.4.473,1.433a.265.265,0,0,1-.083.27.275.275,0,0,1-.28.036c-1.932-.924-4.882-1.9-5.407-1.184-.727,1.008.364,2.036.41,2.077a.27.27,0,0,1,.057.306.26.26,0,0,1-.28.14c-2.077-.358-7.791-1.039-8.793.031-1.195,1.293.036,4.43.052,4.461a.26.26,0,0,1-.114.322.265.265,0,0,1-.332-.062,1.994,1.994,0,0,0-.732-.634,1.979,1.979,0,0,0,0,.457c.073,1.517,2.3,8.362,2.477,8.9Z" transform="translate(-114.899 -120.592)" fill="#263238"/><path d="M124.808,174.361s-4.4-3.745-4.955-1.979-.992,3.854,1.319,4.955,3.854.109,4.077-.223" transform="translate(-117.058 -136.14)" fill="#fff"/><path d="M122.988,177.872a5.043,5.043,0,0,1-2.176-.519c-2.706-1.288-1.9-3.88-1.459-5.266a.867.867,0,0,1,.6-.613c1.35-.39,4.425,2.176,4.768,2.472a.26.26,0,1,1-.338.395c-1.226-1.039-3.475-2.6-4.29-2.368a.364.364,0,0,0-.249.265c-.519,1.719-.93,3.636,1.189,4.643,2.223,1.039,3.636.052,3.745-.125a.26.26,0,0,1,.431.286A2.851,2.851,0,0,1,122.988,177.872Z" transform="translate(-116.808 -135.911)" fill="#263238"/><path d="M144.19,164.066a.234.234,0,0,1-.13-.036.254.254,0,0,1-.093-.353,2.758,2.758,0,0,1,3.76-.976.26.26,0,0,1,.1.353.255.255,0,0,1-.353.1,2.251,2.251,0,0,0-3.064.784A.26.26,0,0,1,144.19,164.066Z" transform="translate(-128.842 -131.532)" fill="#263238"/><path d="M148.711,167.232c0,.519-.249.992-.551.992s-.551-.447-.551-.992.244-.992.551-.992S148.711,166.687,148.711,167.232Z" transform="translate(-130.611 -133.416)" fill="#263238"/><path d="M149.234,179.76a3.577,3.577,0,0,1-2.472-1.278.259.259,0,0,1,.369-.364c1.672,1.672,2.706.992,2.747.961a.265.265,0,0,1,.364.062.26.26,0,0,1-.057.358,1.709,1.709,0,0,1-.95.26Z" transform="translate(-130.167 -139.088)" fill="#263238"/><path d="M123.969,195.72l13.987,3.3.66,5.282-14.755-4.513Z" transform="translate(-119.196 -147.585)" fill="#fff"/><path d="M138.375,204.3a.177.177,0,0,1-.073,0l-14.761-4.545a.27.27,0,0,1-.182-.254l.109-4.077a.265.265,0,0,1,.1-.2.255.255,0,0,1,.218-.047l13.987,3.3a.265.265,0,0,1,.2.218l.66,5.287a.265.265,0,0,1-.088.234.3.3,0,0,1-.171.078Zm-14.49-4.965,14.184,4.342-.587-4.711-13.5-3.189Z" transform="translate(-118.956 -147.323)" fill="#263238"/><path d="M136.03,216.39l8.476,13.987,19.165-10.351.327-4.077a34.673,34.673,0,0,0,2.867-3.3c.332-.66.592-.686.987.109.332.665-.467,1.859-.8,2.077a7.567,7.567,0,0,0-.852,2.109l6.591-4.4s1.428,0,.769.883l-4.077,3.739,6.17-2.42s1.319-.218.66.992l-5.194,3.194,4.628-1.215s1.1-.218.883.774-5.287,2.311-5.287,2.311l3.636-.109a.519.519,0,0,1-.114.992c-.878.441-4.955.66-4.955.66l-4.181.992s-25.771,19.383-26.763,19.269-11.785-19.051-11.785-19.051" transform="translate(-120.792 -155.483)" fill="#fff"/><path d="M138.784,242.62h0c-1.013-.114-8.72-13.452-11.982-19.18a.26.26,0,1,1,.452-.255c3.984,6.991,10.59,18.178,11.592,18.905,1.382-.467,16.573-11.686,26.566-19.217a.343.343,0,0,1,.1-.047l4.186-.992a24.2,24.2,0,0,0,4.9-.639c.166-.083.27-.177.28-.249a.405.405,0,0,0-.145-.249l-3.537.109a.27.27,0,0,1-.265-.223.265.265,0,0,1,.192-.286c2.363-.618,4.986-1.6,5.1-2.119a.467.467,0,0,0-.036-.379.672.672,0,0,0-.519-.078l-4.633,1.215a.26.26,0,0,1-.2-.473l5.116-3.158c.135-.26.14-.41.1-.467a.851.851,0,0,0-.519-.083l-6.139,2.41a.265.265,0,0,1-.317-.1.254.254,0,0,1,.047-.327l4.072-3.745c.088-.13.1-.218.088-.244a1.512,1.512,0,0,0-.608-.187l-6.539,4.363a.26.26,0,0,1-.395-.286,6.187,6.187,0,0,1,.956-2.254c.27-.177.961-1.257.717-1.745-.187-.369-.291-.447-.312-.457a1.56,1.56,0,0,0-.218.343,30.554,30.554,0,0,1-2.841,3.3l-.322,3.984a.27.27,0,0,1-.14.208l-19.16,10.351a.26.26,0,0,1-.348-.093L135.6,216.288a.26.26,0,0,1,.088-.358.254.254,0,0,1,.353.088l8.352,13.774,18.853-10.164.317-3.937a.254.254,0,0,1,.073-.156,32.327,32.327,0,0,0,2.82-3.241c.156-.317.358-.634.686-.634h0c.348,0,.587.374.769.743.416.826-.483,2.14-.888,2.41a4.856,4.856,0,0,0-.519,1.272l6.009-4a.28.28,0,0,1,.145-.042c.151,0,.914,0,1.143.473a.774.774,0,0,1-.166.826l-3.116,2.836,4.877-1.917h.052c.073,0,.743-.114,1.039.291.187.26.151.623-.1,1.08a.234.234,0,0,1-.093.093l-3.7,2.285,2.945-.774a1.226,1.226,0,0,1,1.039.223.878.878,0,0,1,.171.857c-.156.7-1.953,1.428-3.511,1.932l1.6-.047a.28.28,0,0,1,.161.047.956.956,0,0,1,.416.758.862.862,0,0,1-.561.68c-.9.452-4.638.665-5.059.686l-4.087.971C159.606,227.937,139.932,242.62,138.784,242.62Z" transform="translate(-120.591 -155.246)" fill="#263238"/><path d="M145.859,241.988h-.042c-5.838-.95-12.548-4.892-12.616-4.934a.26.26,0,0,1-.093-.353.265.265,0,0,1,.358-.093c.068.042,6.695,3.937,12.434,4.867a.265.265,0,0,1,.213.3A.26.26,0,0,1,145.859,241.988Z" transform="translate(-123.624 -167.22)" fill="#263238"/><path d="M144.605,248.37a.171.171,0,0,1-.088,0,8.307,8.307,0,0,1-1.174-.628.26.26,0,0,1-.088-.358.254.254,0,0,1,.353-.088,8.656,8.656,0,0,0,1.091.592.255.255,0,0,1,.151.332A.265.265,0,0,1,144.605,248.37Z" transform="translate(-128.499 -172.355)" fill="#263238"/><path d="M136.314,243.038a.276.276,0,0,1-.14-.042c-1.8-1.184-3.714-2.5-3.734-2.514a.26.26,0,0,1-.062-.358.255.255,0,0,1,.358-.068s1.927,1.324,3.724,2.5a.26.26,0,0,1,.073.358.249.249,0,0,1-.218.119Z" transform="translate(-123.268 -168.872)" fill="#263238"/><path d="M197.195,217.709l-4.628,1.215,5.194-3.194c.66-1.21-.66-.992-.66-.992l-6.17,2.42,4.077-3.739c.66-.883-.769-.883-.769-.883l-6.612,4.4a7.628,7.628,0,0,1,.852-2.109c.332-.223,1.132-1.413.8-2.077-.395-.795-.66-.769-.987-.109a33.947,33.947,0,0,1-2.867,3.3l-.327,4.077-13.369,7.219,3.007,5.35c6.368-4.674,12.465-9.266,12.465-9.266l4.181-.992s4.077-.218,4.955-.66a.519.519,0,0,0,.114-.992l-3.636.109s5.064-1.319,5.287-2.311S197.195,217.709,197.195,217.709Z" transform="translate(-142.204 -155.483)" fill="#fff"/><path d="M174.478,232.611h-.052a.254.254,0,0,1-.171-.13l-3.012-5.344a.265.265,0,0,1,0-.2.286.286,0,0,1,.13-.161l13.239-7.152.317-3.937a.254.254,0,0,1,.073-.156,32.329,32.329,0,0,0,2.82-3.241c.156-.317.358-.634.686-.634h0c.348,0,.587.374.769.743.415.826-.483,2.14-.888,2.41a4.856,4.856,0,0,0-.519,1.272l6.009-4a.28.28,0,0,1,.145-.042c.151,0,.914,0,1.143.473a.774.774,0,0,1-.166.826l-3.116,2.836,4.877-1.917h.052c.073,0,.743-.114,1.039.291.187.26.151.623-.1,1.08a.234.234,0,0,1-.093.093l-3.7,2.285,2.945-.774h0a1.226,1.226,0,0,1,1.039.229.878.878,0,0,1,.171.857c-.156.7-1.953,1.428-3.511,1.932l1.6-.047a.28.28,0,0,1,.161.047.956.956,0,0,1,.415.758.862.862,0,0,1-.561.68c-.9.452-4.638.665-5.059.686l-4.087.971c-.561.421-6.393,4.8-12.408,9.234A.244.244,0,0,1,174.478,232.611Zm-2.654-5.505,2.737,4.861c6.232-4.576,12.153-9.042,12.21-9.089a.343.343,0,0,1,.1-.047l4.186-.992a24.2,24.2,0,0,0,4.9-.639c.166-.083.27-.177.28-.249a.405.405,0,0,0-.145-.249l-3.537.109a.27.27,0,0,1-.265-.223.265.265,0,0,1,.192-.286c2.363-.618,4.986-1.6,5.1-2.119a.467.467,0,0,0-.036-.379.743.743,0,0,0-.519-.083l-4.622,1.215a.26.26,0,0,1-.2-.473l5.116-3.158c.135-.26.14-.41.1-.467a.851.851,0,0,0-.519-.083l-6.139,2.41a.265.265,0,0,1-.317-.1.254.254,0,0,1,.047-.327l4.072-3.745c.088-.13.1-.218.088-.244a1.512,1.512,0,0,0-.608-.187l-6.539,4.363a.26.26,0,0,1-.395-.286,6.187,6.187,0,0,1,.956-2.254c.27-.177.961-1.257.717-1.745-.187-.369-.291-.447-.312-.457a1.56,1.56,0,0,0-.218.343,30.555,30.555,0,0,1-2.841,3.3l-.322,3.984a.27.27,0,0,1-.14.208Z" transform="translate(-141.96 -155.246)" fill="#263238"/><path d="M166.08,242.721l3.739,6.368,3.324-2.072-4.15-5.807Z" transform="translate(-139.488 -169.448)" fill="#fff"/><path d="M169.581,249.124h-.062a.27.27,0,0,1-.161-.119l-3.739-6.373a.275.275,0,0,1-.026-.2.26.26,0,0,1,.13-.156l2.919-1.511a.255.255,0,0,1,.327.078l4.155,5.8a.26.26,0,0,1,.042.2.27.27,0,0,1-.114.171l-3.324,2.077A.275.275,0,0,1,169.581,249.124ZM166.2,242.6l3.464,5.905,2.862-1.792-3.854-5.391Z" transform="translate(-139.249 -169.219)" fill="#263238"/><path d="M127.7,258.748a.279.279,0,0,1-.109,0,.26.26,0,0,1-.13-.343l4.217-9.255a.26.26,0,0,1,.473.218l-4.217,9.25A.254.254,0,0,1,127.7,258.748Z" transform="translate(-120.915 -173.192)" fill="#263238"/><path d="M131.982,279a.235.235,0,0,1-.083,0,.265.265,0,0,1-.161-.332c.156-.447.322-1.039.519-1.709a.268.268,0,1,1,.519.13c-.187.7-.358,1.288-.519,1.75A.255.255,0,0,1,131.982,279Z" transform="translate(-122.976 -186.534)" fill="#263238"/><path d="M133.868,263.572h-.057a.26.26,0,0,1-.2-.312c1.039-4.539,2.052-10.673,2.077-10.735a.263.263,0,0,1,.519.083c0,.062-1.039,6.232-2.077,10.772A.254.254,0,0,1,133.868,263.572Z" transform="translate(-123.881 -174.78)" fill="#263238"/></g></g></g></svg>