<svg xmlns="http://www.w3.org/2000/svg" xmlns:xlink="http://www.w3.org/1999/xlink" width="367.431" height="233" viewBox="0 0 367.431 233"><defs><filter id="a" x="37.72" y="34.544" width="14" height="70" filterUnits="userSpaceOnUse"><feOffset dy="3" input="SourceAlpha"/><feGaussianBlur result="b"/><feFlood flood-opacity="0.451"/><feComposite operator="in" in2="b"/><feComposite in="SourceGraphic"/></filter></defs><g transform="translate(-371.28 -2641)"><text transform="translate(519.711 2706)" fill="#272727" font-size="45" font-family="SegoeUI-Light, Segoe UI" font-weight="300"><tspan x="0" y="0">Our</tspan><tspan y="0" font-size="60"> </tspan><tspan y="0" fill="#23b6d3" font-size="60" font-family="SegoeUI-Bold, Segoe UI" font-weight="700">NO</tspan><tspan fill="#23b6d3" font-size="60" font-family="SegoeUI-Bold, Segoe UI" font-weight="700"><tspan x="0" y="51">COST</tspan></tspan><tspan fill="#0041af" font-size="50" font-family="SegoeUI-Bold, Segoe UI" font-weight="700"><tspan x="0" y="102">customer</tspan><tspan x="0" y="153">model</tspan></tspan></text><g transform="translate(371.279 2670.188)"><ellipse cx="41.754" cy="41.754" rx="41.754" ry="41.754" transform="matrix(0.968, -0.252, 0.252, 0.968, 56.633, 122.989)" fill="#f9b52f"/><g transform="translate(65.762 113.973)" opacity="0.1"><path d="M423.649,372.74A41.754,41.754,0,0,0,399.663,426.7s27.814-9.312,30.206-22.863S423.649,372.74,423.649,372.74Z" transform="translate(-396.869 -372.74)" fill="#fff"/></g><path d="M466.479,399.249a31.741,31.741,0,1,1-41.019-18.235,31.741,31.741,0,0,1,41.019,18.235Z" transform="translate(-330.181 -258.075)" fill="#f9b52f"/><g transform="translate(74.922 120.816)" opacity="0.2"><path d="M466.479,399.249a31.741,31.741,0,1,1-41.019-18.235,31.741,31.741,0,0,1,41.019,18.235Z" transform="translate(-405.103 -378.891)"/></g><path d="M467.574,400.032a31.307,31.307,0,1,1-40.474-17.99,31.307,31.307,0,0,1,40.474,17.99Z" transform="translate(-329.963 -257.956)" fill="#f9b52f"/><g transform="translate(77.071 121.99)" opacity="0.2"><path d="M467.574,400.032a31.307,31.307,0,1,1-40.474-17.99,31.307,31.307,0,0,1,40.474,17.99Z" transform="translate(-407.034 -379.946)" fill="#fff"/></g><path d="M412.362,439a2.337,2.337,0,0,1-.3-.234l-.812-.7c-.356-.312-.779-.7-1.246-1.179s-1.012-1-1.558-1.647c-.267-.323-.556-.645-.857-.99s-.579-.734-.89-1.113c-.623-.768-1.2-1.647-1.836-2.559a41.529,41.529,0,0,1-5.741-13.228c-.223-1.113-.467-2.114-.6-3.093-.067-.49-.156-.968-.2-1.413s-.089-.9-.122-1.313c-.1-.834-.1-1.6-.133-2.225s0-1.235,0-1.7v-1.113a.189.189,0,1,1,.067,0V407.6c0,.467,0,1.035.056,1.7s.056,1.413.167,2.225c0,.412.1.846.145,1.3s.156.912.223,1.4c.145.968.389,1.991.623,3.071a43.012,43.012,0,0,0,5.663,13.128c.612.912,1.179,1.791,1.791,2.559.3.389.578.779.868,1.113l.846,1c.523.656,1.113,1.179,1.513,1.669a13.814,13.814,0,0,0,1.2,1.213l.779.745Z" transform="translate(-330.99 -255.011)" fill="#fff"/><path d="M425.861,408.194a2.659,2.659,0,0,1-1.19-.523,4.906,4.906,0,0,1-1.936-5.618,2.6,2.6,0,0,1,.612-1.113,7.546,7.546,0,0,0-.4,1.2,5.073,5.073,0,0,0,1.847,5.385C425.416,407.971,425.872,408.138,425.861,408.194Z" transform="translate(-328.224 -255.593)" fill="#fff"/><path d="M427.635,395.246a5.641,5.641,0,0,1-.935-2.436,3.241,3.241,0,0,1,.612,1.113A2.948,2.948,0,0,1,427.635,395.246Z" transform="translate(-327.75 -256.508)" fill="#fff"/><path d="M427.561,379.19a6.421,6.421,0,0,1-.957.334q-.565.156-1.112.367c-.445.156-.946.311-1.48.545s-1.113.456-1.758.757-1.279.634-1.958.99a36.015,36.015,0,0,0-4.205,2.748,35.143,35.143,0,0,0-3.738,3.338c-.523.567-1.024,1.113-1.457,1.635s-.834,1.035-1.179,1.5-.645.912-.912,1.291-.478.712-.656,1a5.563,5.563,0,0,1-.567.846,9.514,9.514,0,0,1,.467-.912c.156-.289.356-.645.612-1.035s.523-.846.879-1.324.712-1,1.113-1.535a21.082,21.082,0,0,1,1.457-1.669,32.392,32.392,0,0,1,3.749-3.4,34.485,34.485,0,0,1,4.25-2.748c.7-.356,1.357-.712,1.991-.979s1.235-.523,1.791-.723,1.057-.367,1.5-.512.834-.245,1.113-.323a6.272,6.272,0,0,1,1.057-.189Z" transform="translate(-329.902 -258.041)" fill="#fff"/><path d="M453.331,439.34a2.969,2.969,0,0,1-.623.456,19.949,19.949,0,0,1-1.813,1.113,30.151,30.151,0,0,1-6.43,2.57,31.148,31.148,0,0,1-6.853,1.035h-2.1a3.861,3.861,0,0,1-.768-.078,3.873,3.873,0,0,1,.768,0c.5,0,1.213,0,2.092-.078a33.754,33.754,0,0,0,13.195-3.571c.79-.4,1.424-.745,1.847-.99a4.087,4.087,0,0,1,.69-.456Z" transform="translate(-326.845 -251.271)" fill="#fff"/><rect width="88.391" height="17.823" transform="translate(92.364 110.913) rotate(180)" fill="#f9b52f"/><path d="M415.708,354.24c-.211,0-.378,3.872-.378,8.644s.167,8.633.378,8.633.389-3.861.389-8.633S415.92,354.24,415.708,354.24Z" transform="translate(-329.03 -260.849)" fill="#263238"/><path d="M408.349,354.24c-.211,0-.389,3.872-.389,8.644s.178,8.633.389,8.633.378-3.861.378-8.633S408.561,354.24,408.349,354.24Z" transform="translate(-329.859 -260.849)" fill="#263238"/><path d="M401.039,354.24c-.211,0-.389,3.872-.389,8.644s.178,8.633.389,8.633.378-3.861.378-8.633S401.284,354.24,401.039,354.24Z" transform="translate(-330.682 -260.849)" fill="#263238"/><path d="M393.818,354.24c-.211,0-.378,3.872-.378,8.644s.167,8.633.378,8.633.389-3.861.389-8.633S394.063,354.24,393.818,354.24Z" transform="translate(-331.493 -260.849)" fill="#263238"/><path d="M386.578,354.24c-.211,0-.378,3.872-.378,8.644s.167,8.633.378,8.633.389-3.861.389-8.633S386.79,354.24,386.578,354.24Z" transform="translate(-332.308 -260.849)" fill="#263238"/><path d="M379.338,354.24c-.211,0-.378,3.872-.378,8.644s.167,8.633.378,8.633.389-3.861.389-8.633S379.55,354.24,379.338,354.24Z" transform="translate(-333.123 -260.849)" fill="#263238"/><path d="M372.1,354.24c-.211,0-.378,3.872-.378,8.644s.167,8.633.378,8.633.389-3.861.389-8.633S372.31,354.24,372.1,354.24Z" transform="translate(-333.938 -260.849)" fill="#263238"/><path d="M364.858,354.24c-.211,0-.378,3.872-.378,8.644s.167,8.633.378,8.633.378-3.861.378-8.633S365.059,354.24,364.858,354.24Z" transform="translate(-334.752 -260.849)" fill="#263238"/><path d="M357.619,354.24c-.211,0-.389,3.872-.389,8.644s.178,8.633.389,8.633.378-3.861.378-8.633S357.831,354.24,357.619,354.24Z" transform="translate(-335.568 -260.849)" fill="#263238"/><path d="M350.379,354.24c-.211,0-.389,3.872-.389,8.644s.178,8.633.389,8.633.378-3.861.378-8.633S350.591,354.24,350.379,354.24Z" transform="translate(-336.383 -260.849)" fill="#263238"/><path d="M343.139,354.24c-.211,0-.389,3.872-.389,8.644s.178,8.633.389,8.633.378-3.861.378-8.633S343.351,354.24,343.139,354.24Z" transform="translate(-337.198 -260.849)" fill="#263238"/><g transform="translate(5.385 93.124)" opacity="0.3"><path d="M428.155,354a322.049,322.049,0,0,1-85.554,0Z" transform="translate(-342.6 -354)"/></g><path d="M341.31,354.038c0,.211,19.759.389,44.112.389s44.123-.178,44.123-.389-19.748-.378-44.123-.378S341.31,353.849,341.31,354.038Z" transform="translate(-337.36 -260.914)" fill="#263238"/><rect width="88.391" height="17.823" transform="translate(90.383 128.447) rotate(180)" fill="#f9b52f"/><path d="M413.929,370c-.211,0-.389,3.872-.389,8.644s.178,8.644.389,8.644.378-3.872.378-8.644S414.141,370,413.929,370Z" transform="translate(-329.231 -259.076)" fill="#263238"/><path d="M406.558,370c-.211,0-.378,3.872-.378,8.644s.167,8.644.378,8.644.389-3.872.389-8.644S406.77,370,406.558,370Z" transform="translate(-330.059 -259.076)" fill="#263238"/><path d="M399.278,370c-.211,0-.378,3.872-.378,8.644s.167,8.644.378,8.644.389-3.872.389-8.644S399.49,370,399.278,370Z" transform="translate(-330.879 -259.076)" fill="#263238"/><path d="M392.038,370c-.211,0-.378,3.872-.378,8.644s.167,8.644.378,8.644.389-3.872.389-8.644S392.25,370,392.038,370Z" transform="translate(-331.693 -259.076)" fill="#263238"/><path d="M384.8,370c-.211,0-.389,3.872-.389,8.644s.178,8.644.389,8.644.378-3.872.378-8.644S385.066,370,384.8,370Z" transform="translate(-332.509 -259.076)" fill="#263238"/><path d="M377.559,370c-.211,0-.389,3.872-.389,8.644s.178,8.644.389,8.644.378-3.872.378-8.644S377.771,370,377.559,370Z" transform="translate(-333.324 -259.076)" fill="#263238"/><path d="M370.319,370c-.211,0-.389,3.872-.389,8.644s.178,8.644.389,8.644.378-3.872.378-8.644S370.531,370,370.319,370Z" transform="translate(-334.139 -259.076)" fill="#263238"/><path d="M363.039,370c-.211,0-.389,3.872-.389,8.644s.178,8.644.389,8.644.378-3.872.378-8.644S363.3,370,363.039,370Z" transform="translate(-334.958 -259.076)" fill="#263238"/><path d="M355.828,370c-.211,0-.378,3.872-.378,8.644s.167,8.644.378,8.644.389-3.872.389-8.644S356.062,370,355.828,370Z" transform="translate(-335.769 -259.076)" fill="#263238"/><path d="M348.588,370c-.211,0-.378,3.872-.378,8.644s.167,8.644.378,8.644.389-3.872.389-8.644S348.8,370,348.588,370Z" transform="translate(-336.583 -259.076)" fill="#263238"/><path d="M341.348,370c-.211,0-.378,3.872-.378,8.644s.167,8.644.378,8.644.389-3.872.389-8.644S341.56,370,341.348,370Z" transform="translate(-337.398 -259.076)" fill="#263238"/><g transform="translate(3.405 110.635)" opacity="0.3"><path d="M426.374,369.74a322.049,322.049,0,0,1-85.554,0Z" transform="translate(-340.82 -369.74)"/></g><path d="M339.53,369.808c0,.223,19.748.389,44.112.389s44.123-.167,44.123-.389-19.759-.378-44.123-.378S339.53,369.6,339.53,369.808Z" transform="translate(-337.56 -259.14)" fill="#263238"/><rect width="88.391" height="17.823" transform="translate(98.772 145.692) rotate(180)" fill="#f9b52f"/><path d="M421.468,385.49c-.211,0-.378,3.872-.378,8.645s.167,8.644.378,8.644.389-3.872.389-8.644S421.68,385.49,421.468,385.49Z" transform="translate(-328.381 -257.332)" fill="#263238"/><path d="M414.109,385.49c-.223,0-.389,3.872-.389,8.645s.167,8.644.389,8.644.378-3.872.378-8.644S414.321,385.49,414.109,385.49Z" transform="translate(-329.211 -257.332)" fill="#263238"/><path d="M406.818,385.49c-.211,0-.378,3.872-.378,8.645s.167,8.644.378,8.644.389-3.872.389-8.644S407.063,385.49,406.818,385.49Z" transform="translate(-330.03 -257.332)" fill="#263238"/><path d="M399.578,385.49c-.211,0-.378,3.872-.378,8.645s.167,8.644.378,8.644.389-3.872.389-8.644S399.79,385.49,399.578,385.49Z" transform="translate(-330.845 -257.332)" fill="#263238"/><path d="M392.338,385.49c-.211,0-.378,3.872-.378,8.645s.167,8.644.378,8.644.389-3.872.389-8.644S392.55,385.49,392.338,385.49Z" transform="translate(-331.66 -257.332)" fill="#263238"/><path d="M385.1,385.49c-.211,0-.378,3.872-.378,8.645s.167,8.644.378,8.644.389-3.872.389-8.644S385.31,385.49,385.1,385.49Z" transform="translate(-332.474 -257.332)" fill="#263238"/><path d="M377.858,385.49c-.211,0-.378,3.872-.378,8.645s.167,8.644.378,8.644.378-3.872.378-8.644S378.059,385.49,377.858,385.49Z" transform="translate(-333.289 -257.332)" fill="#263238"/><path d="M370.619,385.49c-.211,0-.389,3.872-.389,8.645s.178,8.644.389,8.644.378-3.872.378-8.644S370.831,385.49,370.619,385.49Z" transform="translate(-334.105 -257.332)" fill="#263238"/><path d="M363.379,385.49c-.211,0-.389,3.872-.389,8.645s.178,8.644.389,8.644.378-3.872.378-8.644S363.591,385.49,363.379,385.49Z" transform="translate(-334.92 -257.332)" fill="#263238"/><path d="M356.139,385.49c-.211,0-.389,3.872-.389,8.645s.178,8.644.389,8.644.378-3.872.378-8.644S356.351,385.49,356.139,385.49Z" transform="translate(-335.735 -257.332)" fill="#263238"/><path d="M348.9,385.49c-.223,0-.389,3.872-.389,8.645s.167,8.644.389,8.644.378-3.872.378-8.644S349.111,385.49,348.9,385.49Z" transform="translate(-336.55 -257.332)" fill="#263238"/><g transform="translate(11.794 127.88)" opacity="0.3"><path d="M433.914,385.24a322.047,322.047,0,0,1-85.554,0Z" transform="translate(-348.36 -385.24)"/></g><path d="M347.07,385.319c0,.211,19.759.378,44.112.378s44.123-.167,44.123-.378-19.748-.389-44.123-.389S347.07,385.108,347.07,385.319Z" transform="translate(-336.712 -257.395)" fill="#263238"/><rect width="88.391" height="17.144" transform="translate(88.425 162.702) rotate(180)" fill="#f9b52f"/><path d="M412.158,401.39c-.211,0-.378,3.716-.378,8.311s.167,8.311.378,8.311.389-3.727.389-8.311S412.381,401.39,412.158,401.39Z" transform="translate(-329.429 -255.543)" fill="#263238"/><path d="M404.8,401.39c-.211,0-.389,3.716-.389,8.311s.178,8.311.389,8.311.378-3.727.378-8.311S405.066,401.39,404.8,401.39Z" transform="translate(-330.259 -255.543)" fill="#263238"/><path d="M397.519,401.39c-.211,0-.389,3.716-.389,8.311s.178,8.311.389,8.311.378-3.727.378-8.311S397.731,401.39,397.519,401.39Z" transform="translate(-331.078 -255.543)" fill="#263238"/><path d="M390.279,401.39c-.211,0-.389,3.716-.389,8.311s.178,8.311.389,8.311.378-3.727.378-8.311S390.491,401.39,390.279,401.39Z" transform="translate(-331.893 -255.543)" fill="#263238"/><path d="M383.039,401.39c-.211,0-.389,3.716-.389,8.311s.178,8.311.389,8.311.378-3.727.378-8.311S383.251,401.39,383.039,401.39Z" transform="translate(-332.707 -255.543)" fill="#263238"/><path d="M375.788,401.39c-.211,0-.378,3.716-.378,8.311s.167,8.311.378,8.311.389-3.727.389-8.311S376,401.39,375.788,401.39Z" transform="translate(-333.522 -255.543)" fill="#263238"/><path d="M368.548,401.39c-.211,0-.378,3.716-.378,8.311s.167,8.311.378,8.311.389-3.727.389-8.311S368.76,401.39,368.548,401.39Z" transform="translate(-334.337 -255.543)" fill="#263238"/><path d="M361.308,401.39c-.211,0-.378,3.716-.378,8.311s.167,8.311.378,8.311.389-3.727.389-8.311S361.52,401.39,361.308,401.39Z" transform="translate(-335.152 -255.543)" fill="#263238"/><path d="M354.038,401.39c-.211,0-.378,3.716-.378,8.311s.167,8.311.378,8.311.389-3.727.389-8.311S354.283,401.39,354.038,401.39Z" transform="translate(-335.97 -255.543)" fill="#263238"/><path d="M346.829,401.39c-.211,0-.389,3.716-.389,8.311s.178,8.311.389,8.311.378-3.727.378-8.311S347.063,401.39,346.829,401.39Z" transform="translate(-336.783 -255.543)" fill="#263238"/><path d="M339.589,401.39c-.211,0-.389,3.716-.389,8.311s.178,8.311.389,8.311.378-3.727.378-8.311S339.8,401.39,339.589,401.39Z" transform="translate(-337.597 -255.543)" fill="#263238"/><g transform="translate(1.491 145.58)" opacity="0.3"><path d="M424.654,401.15a253.024,253.024,0,0,1-85.554,0Z" transform="translate(-339.1 -401.15)"/></g><path d="M337.76,401.219c0,.211,19.759.378,44.123.378S426,401.431,426,401.219s-19.748-.389-44.112-.389S337.76,401.019,337.76,401.219Z" transform="translate(-337.759 -255.606)" fill="#263238"/><rect width="88.391" height="17.144" transform="translate(94.099 179.847) rotate(180)" fill="#f9b52f"/><path d="M417.268,416.8c-.211,0-.378,3.727-.378,8.311s.167,8.311.378,8.311.389-3.716.389-8.311S417.48,416.8,417.268,416.8Z" transform="translate(-328.854 -253.808)" fill="#263238"/><path d="M409.909,416.8c-.211,0-.389,3.727-.389,8.311s.178,8.311.389,8.311.378-3.716.378-8.311S410.121,416.8,409.909,416.8Z" transform="translate(-329.683 -253.808)" fill="#263238"/><path d="M402.629,416.8c-.211,0-.389,3.727-.389,8.311s.178,8.311.389,8.311.378-3.716.378-8.311S402.841,416.8,402.629,416.8Z" transform="translate(-330.503 -253.808)" fill="#263238"/><path d="M395.378,416.8c-.211,0-.378,3.727-.378,8.311s.167,8.311.378,8.311.389-3.716.389-8.311S395.6,416.8,395.378,416.8Z" transform="translate(-331.318 -253.808)" fill="#263238"/><path d="M388.138,416.8c-.211,0-.378,3.727-.378,8.311s.167,8.311.378,8.311.389-3.716.389-8.311S388.35,416.8,388.138,416.8Z" transform="translate(-332.132 -253.808)" fill="#263238"/><path d="M380.9,416.8c-.211,0-.378,3.727-.378,8.311s.167,8.311.378,8.311.389-3.716.389-8.311S381.11,416.8,380.9,416.8Z" transform="translate(-332.947 -253.808)" fill="#263238"/><path d="M373.658,416.8c-.211,0-.378,3.727-.378,8.311s.167,8.311.378,8.311.389-3.716.389-8.311S373.87,416.8,373.658,416.8Z" transform="translate(-333.762 -253.808)" fill="#263238"/><path d="M366.418,416.8c-.211,0-.378,3.727-.378,8.311s.167,8.311.378,8.311.378-3.716.378-8.311S366.63,416.8,366.418,416.8Z" transform="translate(-334.577 -253.808)" fill="#263238"/><path d="M359.179,416.8c-.211,0-.389,3.727-.389,8.311s.178,8.311.389,8.311.378-3.716.378-8.311S359.391,416.8,359.179,416.8Z" transform="translate(-335.393 -253.808)" fill="#263238"/><path d="M351.939,416.8c-.211,0-.389,3.727-.389,8.311s.178,8.311.389,8.311.378-3.716.378-8.311S352.151,416.8,351.939,416.8Z" transform="translate(-336.208 -253.808)" fill="#263238"/><path d="M344.7,416.8c-.211,0-.389,3.727-.389,8.311s.178,8.311.389,8.311.378-3.716.378-8.311S344.911,416.8,344.7,416.8Z" transform="translate(-337.022 -253.808)" fill="#263238"/><g transform="translate(7.121 162.725)" opacity="0.3"><path d="M429.714,416.56a224.029,224.029,0,0,1-85.554,0Z" transform="translate(-344.16 -416.56)"/></g><path d="M342.87,416.628c0,.223,19.759.389,44.112.389s44.123-.167,44.123-.389-19.748-.378-44.123-.378S342.87,416.417,342.87,416.628Z" transform="translate(-337.184 -253.87)" fill="#263238"/><rect width="88.391" height="17.144" transform="translate(89.06 196.758) rotate(180)" fill="#f9b52f"/><path d="M412.728,432c-.211,0-.378,3.727-.378,8.311s.167,8.311.378,8.311.389-3.716.389-8.311S412.94,432,412.728,432Z" transform="translate(-329.365 -252.098)" fill="#263238"/><path d="M405.369,432c-.211,0-.389,3.727-.389,8.311s.178,8.311.389,8.311.378-3.716.378-8.311S405.581,432,405.369,432Z" transform="translate(-330.194 -252.098)" fill="#263238"/><path d="M398.089,432c-.211,0-.389,3.727-.389,8.311s.178,8.311.389,8.311.378-3.716.378-8.311S398.3,432,398.089,432Z" transform="translate(-331.014 -252.098)" fill="#263238"/><path d="M390.849,432c-.211,0-.389,3.727-.389,8.311s.178,8.311.389,8.311.378-3.716.378-8.311S391.061,432,390.849,432Z" transform="translate(-331.828 -252.098)" fill="#263238"/><path d="M383.6,432c-.211,0-.378,3.727-.378,8.311s.167,8.311.378,8.311.389-3.716.389-8.311S383.821,432,383.6,432Z" transform="translate(-332.643 -252.098)" fill="#263238"/><path d="M376.358,432c-.211,0-.378,3.727-.378,8.311s.167,8.311.378,8.311.389-3.716.389-8.311S376.57,432,376.358,432Z" transform="translate(-333.458 -252.098)" fill="#263238"/><path d="M369.118,432c-.211,0-.378,3.727-.378,8.311s.167,8.311.378,8.311.389-3.716.389-8.311S369.33,432,369.118,432Z" transform="translate(-334.273 -252.098)" fill="#263238"/><path d="M361.878,432c-.211,0-.378,3.727-.378,8.311s.167,8.311.378,8.311.389-3.716.389-8.311S362.056,432,361.878,432Z" transform="translate(-335.088 -252.098)" fill="#263238"/><path d="M354.638,432c-.211,0-.378,3.727-.378,8.311s.167,8.311.378,8.311.378-3.716.378-8.311S354.85,432,354.638,432Z" transform="translate(-335.903 -252.098)" fill="#263238"/><path d="M347.4,432c-.211,0-.389,3.727-.389,8.311s.178,8.311.389,8.311.378-3.716.378-8.311S347.611,432,347.4,432Z" transform="translate(-336.718 -252.098)" fill="#263238"/><path d="M340.159,432c-.211,0-.389,3.727-.389,8.311s.178,8.311.389,8.311.378-3.716.378-8.311S340.371,432,340.159,432Z" transform="translate(-337.533 -252.098)" fill="#263238"/><g transform="translate(2.07 179.635)" opacity="0.3"><path d="M425.174,431.76a253.025,253.025,0,0,1-85.555,0Z" transform="translate(-339.62 -431.76)"/></g><path d="M338.33,431.828c0,.211,19.759.389,44.112.389s44.123-.178,44.123-.389-19.748-.378-44.123-.378S338.33,431.617,338.33,431.828Z" transform="translate(-337.695 -252.16)" fill="#263238"/><path d="M417.908,457.629a1.48,1.48,0,0,1,0-.289v-4.205c0-2.937,0-7.154-.089-12.416v-.189h5.062l-.3.245c0-5.006,0-10.8-.056-17.144l.267.256H416.84v-17.6h10.647l-.289.289V388.418l.278.278H418.82V371.618h2.37l-.189.189V354.352a1,1,0,0,1,0-.311,1.111,1.111,0,0,1,0,.311v.9c0,.846,0,2.014.089,3.5.056,3.093.122,7.532.223,13.05v.2h-2.359l.289-.211c0,4.828,0,10.425.056,16.621l-.256-.256H427.7v18.713H417.051l.289-.289V423.6l-.278-.278h5.952v.267c0,6.342,0,12.138-.056,17.144v.223h-5.084l.256-.178c0,5.262-.067,9.479-.078,12.416V457.4A1,1,0,0,1,417.908,457.629Z" transform="translate(-328.86 -260.872)" fill="#263238"/><path d="M428.492,310.2a41.342,41.342,0,1,1-42.755-39.874A41.342,41.342,0,0,1,428.492,310.2Z" transform="translate(-336.851 -270.297)" fill="#f9b52f"/><g transform="translate(8.987 0.026)" opacity="0.1"><path d="M385.736,270.32a41.353,41.353,0,0,0-39.873,42.766s29.082.278,35.657-11.66S385.736,270.32,385.736,270.32Z" transform="translate(-345.837 -270.32)" fill="#fff"/></g><path d="M416.977,308.968a31.429,31.429,0,1,1-32.508-30.306A31.429,31.429,0,0,1,416.977,308.968Z" transform="translate(-335.916 -269.357)" fill="#f9b52f"/><g transform="translate(18.221 9.285)" opacity="0.2"><path d="M416.977,308.968a31.429,31.429,0,1,1-32.508-30.306A31.429,31.429,0,0,1,416.977,308.968Z" transform="translate(-354.137 -278.642)"/></g><path d="M417.731,310.077a31.007,31.007,0,1,1-32.075-29.905,31.007,31.007,0,0,1,32.075,29.905Z" transform="translate(-335.736 -269.187)" fill="#f9b52f"/><g transform="translate(20 10.965)" opacity="0.2"><path d="M417.731,310.077a31.007,31.007,0,1,1-32.075-29.905,31.007,31.007,0,0,1,32.075,29.905Z" transform="translate(-355.737 -280.153)" fill="#fff"/></g><path d="M384.311,342.511h.245l.745-.089,1.213-.111a13.04,13.04,0,0,0,1.647-.222l2.047-.4a8.33,8.33,0,0,0,1.113-.3l1.224-.367a12.687,12.687,0,0,0,1.313-.412c.434-.189.89-.367,1.357-.556s.946-.367,1.424-.612l1.446-.757a33.952,33.952,0,0,0,5.974-4.15l1.424-1.4c.245-.234.5-.467.734-.712l.668-.8c.445-.534.935-1.113,1.357-1.624l1.246-1.791.323-.456.267-.49.556-.979c.189-.323.367-.656.556-.99a10.019,10.019,0,0,0,.49-1.046c.3-.7.634-1.413.923-2.136s.49-1.5.734-2.225a30.973,30.973,0,0,0-.679-19.492q-.445-1.112-.9-2.225a22,22,0,0,0-1.113-2.08,10.941,10.941,0,0,0-.556-1l-.623-.957-.623-.935c-.1-.156-.2-.323-.312-.467l-.345-.434-1.368-1.691c-.467-.545-.99-1.035-1.469-1.535l-.723-.745c-.256-.234-.523-.445-.779-.668l-1.524-1.291a32.464,32.464,0,0,0-6.252-3.727l-1.491-.656c-.49-.211-.99-.345-1.469-.512l-1.391-.456c-.445-.156-.9-.211-1.335-.323l-1.246-.289a9.268,9.268,0,0,0-1.168-.211l-2.058-.256a11.443,11.443,0,0,0-1.658-.1h-1.969a.667.667,0,0,1-.256,0h2.225a13.049,13.049,0,0,1,1.669.078l2.069.234a9.682,9.682,0,0,1,1.179.2l1.257.278a12.942,12.942,0,0,1,1.346.311l1.4.456c.478.156.979.289,1.48.5l1.5.645a32.864,32.864,0,0,1,6.319,3.727l1.546,1.291c.256.223.523.434.779.668l.734.745c.49.512,1.012,1,1.491,1.546l1.38,1.713.356.434c.111.145.211.312.311.467l.634.946c.2.312.412.634.634.957s.367.679.556,1.012c.356.69.757,1.38,1.113,2.092s.6,1.48.912,2.225a34.078,34.078,0,0,1,1.936,9.79,33.733,33.733,0,0,1-1.257,9.9c-.245.768-.5,1.524-.745,2.281s-.634,1.446-.935,2.169c-.167.345-.3.712-.5,1.046l-.556,1c-.189.334-.378.656-.556.99l-.289.478-.323.467-1.2,1.6c-.434.579-.923,1.113-1.368,1.635l-.69.8c-.234.245-.49.478-.734.723l-1.446,1.4a32.8,32.8,0,0,1-6.041,4.15l-1.457.757c-.478.245-.979.4-1.446.6l-1.357.545a13.769,13.769,0,0,1-1.324.412l-1.235.356a7.778,7.778,0,0,1-1.168.289l-2.047.378a12.617,12.617,0,0,1-1.658.189l-1.213.089h-.745Z" transform="translate(-332.777 -269.224)" fill="#263238"/><path d="M352.562,329.579a2.224,2.224,0,0,1-.2-.323c-.145-.234-.323-.545-.534-.923a15.155,15.155,0,0,1-.779-1.5c-.289-.59-.634-1.257-.935-2.036-.156-.389-.312-.79-.49-1.213s-.3-.879-.467-1.335c-.334-.923-.59-1.936-.89-2.993a41.265,41.265,0,0,1-1.057-14.207c.134-1.113.245-2.136.434-3.093.089-.478.167-.946.267-1.391s.211-.857.3-1.268c.178-.812.423-1.524.612-2.158s.378-1.168.556-1.6l.389-.99a1.825,1.825,0,0,1,.156-.345,1.391,1.391,0,0,1-.1.367l-.334,1.012c-.156.434-.334.979-.5,1.613s-.4,1.346-.567,2.158c-.089.4-.178.823-.278,1.268s-.156.9-.245,1.38c-.189.957-.278,1.991-.412,3.071a48.411,48.411,0,0,0-.067,7.109,46.889,46.889,0,0,0,1.112,7.009c.289,1.113.534,2.058.857,2.982.156.456.289.912.445,1.335s.323.823.478,1.2c.278.779.612,1.446.879,2.058s.512,1.113.723,1.513.356.712.49.957A1.736,1.736,0,0,1,352.562,329.579Z" transform="translate(-336.719 -267.606)" fill="#fff"/><path d="M374.965,305.072a2.7,2.7,0,0,1-.946-.879,4.9,4.9,0,0,1,0-5.885,2.625,2.625,0,0,1,.946-.868,7.37,7.37,0,0,0-.768,1,5.029,5.029,0,0,0,0,5.629C374.62,304.738,375,305.028,374.965,305.072Z" transform="translate(-333.789 -267.242)" fill="#fff"/><path d="M380.723,293.532a2.782,2.782,0,0,1-.2-1.291,2.859,2.859,0,0,1,.111-1.3,3.159,3.159,0,0,1,.2,1.291,2.859,2.859,0,0,1-.111,1.3Z" transform="translate(-332.95 -267.973)" fill="#fff"/><path d="M386.327,277.87a5.992,5.992,0,0,1-1.012,0h-2.748a14.773,14.773,0,0,0-1.891.145c-.679.089-1.391.167-2.147.289a34.308,34.308,0,0,0-4.817,1.213,35.274,35.274,0,0,0-4.584,1.936c-.668.367-1.324.7-1.891,1.057s-1.113.7-1.591,1.024-.9.645-1.279.912a11.645,11.645,0,0,0-.923.734,7.854,7.854,0,0,1-.812.612,5.967,5.967,0,0,1,.734-.712,11.44,11.44,0,0,1,.9-.768c.367-.278.768-.623,1.246-.957l1.591-1.113c.59-.412,1.213-.723,1.891-1.113a33.67,33.67,0,0,1,4.617-1.98,33.273,33.273,0,0,1,4.873-1.19c.757-.111,1.491-.223,2.169-.267s1.324-.1,1.9-.111,1.113,0,1.58,0a11.294,11.294,0,0,1,1.179.067A7.687,7.687,0,0,1,386.327,277.87Z" transform="translate(-334.961 -269.478)" fill="#fff"/><path d="M390.674,342.641a3.572,3.572,0,0,1-.734.234,19.78,19.78,0,0,1-2.036.423,29.916,29.916,0,0,1-13.6-.923,19.6,19.6,0,0,1-1.958-.7,3.958,3.958,0,0,1-.7-.323,4.1,4.1,0,0,1,.734.211c.467.156,1.113.367,1.98.6a34.047,34.047,0,0,0,6.675,1.113,34.611,34.611,0,0,0,6.8-.223c.868-.122,1.569-.234,2.047-.334a5.1,5.1,0,0,1,.79-.078Z" transform="translate(-333.945 -262.3)" fill="#fff"/><g transform="matrix(1, 0, 0, 1, 0, -29.19)" filter="url(#a)"><text transform="translate(37.72 88.54)" fill="#f3b12e" font-size="50" font-family="SegoeUI, Segoe UI"><tspan x="0" y="0">`</tspan></text></g></g></g></svg>