<svg xmlns="http://www.w3.org/2000/svg" xmlns:xlink="http://www.w3.org/1999/xlink" width="504.411" height="341.771" viewBox="0 0 504.411 341.771"><defs><linearGradient id="a" x1="-30.744" y1="58.94" x2="-30.741" y2="58.94" gradientUnits="objectBoundingBox"><stop offset="0" stop-color="#23b6d3"/><stop offset="0.636" stop-color="#23b6d3"/><stop offset="1" stop-color="#23b6d3"/></linearGradient><linearGradient id="b" x1="-50.776" y1="108.925" x2="-50.769" y2="108.925" xlink:href="#a"/><linearGradient id="l" x1="-8.961" y1="50.262" x2="-8.959" y2="50.262" gradientUnits="objectBoundingBox"><stop offset="0" stop-color="#0041af"/><stop offset="0.802" stop-color="#272727"/><stop offset="1" stop-color="#0041af"/></linearGradient><linearGradient id="m" x1="-12.611" y1="34.223" x2="-12.609" y2="34.223" gradientUnits="objectBoundingBox"><stop offset="0" stop-color="#23b6d3"/><stop offset="0.802" stop-color="#23b6d3"/><stop offset="1" stop-color="#23b6d3"/></linearGradient><clipPath id="n"><path d="M487.384-2244.648a94.448,94.448,0,0,1-88.909,89.7,114.479,114.479,0,0,1,14.306,51.984c70.255-9.384,125.6-68.576,127.816-141.688Z" transform="translate(-398.475 2244.648)"/></clipPath><linearGradient id="o" x1="-1.026" y1="5.795" x2="-1.025" y2="5.795" gradientUnits="objectBoundingBox"><stop offset="0" stop-color="#b11116"/><stop offset="0.636" stop-color="#ed1c24"/><stop offset="1" stop-color="#1fc4e5"/></linearGradient><clipPath id="p"><path d="M1050.76-2089.029s11.071-5.35,13.182-1.019c2.947,6.038-.171,6.36-.171,6.36l6.2,3.073s-6.839,8.222-11.286,5.355c-7.408-4.774-7.582-6.106-7.582-6.106Z" transform="translate(-1050.76 2091.741)"/></clipPath><linearGradient id="q" x1="-20.007" y1="44.78" x2="-20.005" y2="44.78" gradientUnits="objectBoundingBox"><stop offset="0" stop-color="#ffe1c0"/><stop offset="1" stop-color="#fab393"/></linearGradient><clipPath id="r"><path d="M1043.677-2077.061v-8.32h3.211v8.32Z" transform="translate(-1043.677 2085.381)"/></clipPath><linearGradient id="s" x1="-118.888" y1="91.679" x2="-118.873" y2="91.679" gradientUnits="objectBoundingBox"><stop offset="0" stop-color="#e6e7e8"/><stop offset="0.544" stop-color="#e6e7e8"/><stop offset="1" stop-color="#bcbec0"/></linearGradient><clipPath id="t"><path d="M435.572-2506.763s15.689-.985,12.869-7.086-2.357-5.014-2.357-5.014H453.7s-6.445-8.559-11.433-6.789c-10.711,3.794-8.915,9.442-8.915,9.442Z" transform="translate(-433.238 2525.893)"/></clipPath><linearGradient id="u" x1="-7.745" y1="48.297" x2="-7.743" y2="48.297" xlink:href="#q"/><clipPath id="v"><path d="M436.575-2476.98h8.318v3.209h-8.318Z" transform="translate(-436.575 2476.98)"/></clipPath><linearGradient id="w" x1="-19.197" y1="282.328" x2="-19.192" y2="282.328" xlink:href="#s"/><clipPath id="x"><path d="M1228.62-2238.736l-19.577-36.056-38.813,13.061-1.047-3.248,38.71-11.934-12.292-22.639-40.891,10.008-.77-3.326,40.5-8.823-12.316-22.678-31.141,6.394-.644-3.355,30.479-5.448-15.836-29.17,3.02-1.595,15.453,30.291,26.081-4.662-17.146-39.138,3.144-1.332,16.336,40.055,26.347-4.711L1227.581-2373l3.287-.927,9.769,36.451,41-7.325-40.718,8.359,6.243,23.268,37.1-8.086-36.856,9.022,5.73,21.376,43.5-13.412-43.2,14.539,11.968,44.635-13.085-44.254-20.162,6.779,13.744,33.691-14.626-33.388-21.228,7.145,18.57,36.393m-7.632-67.03-23.62,5.779,11.6,22.741,21.591-6.657-9.573-21.864m24.688-6.048-23.132,5.667,8.959,21.957,20.479-6.316-6.306-21.308m-35.375-18.347-25.641,5.267,11.631,22.8,24.01-5.233-10-22.834m28.236-5.794-25.972,5.331,9.356,22.946,23.468-5.111-6.852-23.166" transform="translate(-1150.336 2373.927)"/></clipPath><linearGradient id="y" x1="-2.876" y1="6.423" x2="-2.876" y2="6.423" gradientUnits="objectBoundingBox"><stop offset="0" stop-color="#e6e7e8"/><stop offset="1" stop-color="#a7a9ac"/></linearGradient><clipPath id="z"><path d="M524.972-1713.967c-139.291,0-252.2-15.8-252.2-35.305s112.913-35.31,252.2-35.31,252.206,15.806,252.206,35.31-112.918,35.305-252.206,35.305m-73.829-39.587c-72.906,0-132.01,2.619-132.01,5.852s59.1,5.857,132.01,5.857,132.01-2.624,132.01-5.857-59.1-5.852-132.01-5.852" transform="translate(-272.767 1784.582)"/></clipPath><linearGradient id="aa" x1="-0.198" y1="9.244" x2="-0.198" y2="9.244" gradientUnits="objectBoundingBox"><stop offset="0" stop-color="#ebebeb"/><stop offset="0.826" stop-color="#ededed"/><stop offset="1" stop-color="#ebebeb"/></linearGradient><clipPath id="ab"><path d="M662.037-2199.335c-.714-13.558-2.651-26.614-7.345-39.431a121.388,121.388,0,0,0-22.74-38.163,119.253,119.253,0,0,0-35.02-27.511,161.023,161.023,0,0,0-20-8.267c-3.351-.941-6.678-1.9-10.082-2.629a83.24,83.24,0,0,1-.017-10.032c.84-15.319,4.748-30.457,9.469-45a84.711,84.711,0,0,0,25.887,31.354c11.635,8.764,24.834,13.548,39.077,15.948,5.888.995,11.911.673,17.839.385.447-.02.29-7.092.3-7.955.02-1.326-.2-1-1.567-1.093a83.786,83.786,0,0,1-9.115-.907,70.636,70.636,0,0,1-19.214-5.994c-12.558-6.286-23.24-15.621-30.285-27.882a69.874,69.874,0,0,1-7.444-18.82A93.8,93.8,0,0,1,590-2401.65c-.02-.6-24.317-2.273-25.908-2.419q-22.779-2.092-45.558-4.194-7.217-.666-14.429-1.341c-7.392-.7-14.626-3.438-21.217-6.745-14.389-7.218-27.331-20.669-33.119-35.812a103.634,103.634,0,0,1-5.5-20.864c-.084-.527-7.865.1-8.919.132.527,12.373,2.414,24.19,7.612,35.544,6.044,12.661,14.462,24.122,25.7,32.691a104.436,104.436,0,0,0,17.867,10.807,65.981,65.981,0,0,0,19.39,6.238c.676.1,7.521.868,7.548,1.126.027.234.054.473.077.707.15,1.371.3,2.746.451,4.116,2.91,26.57,5.7,53.169,9.024,79.691.2,1.629.4,3.253.647,4.872.307,2.063,1.827,2.97,3.251,4.56a228.086,228.086,0,0,1,24.753,32.954c1.851,2.712,3.185,5.735,4.835,8.564.793,1.356,1.364,2.833,2.1,4.219.376.712.623,1.478.97,2.2.571,1.283.267,1.253-.863,2.1a102.608,102.608,0,0,1-17.863,11.027,116.731,116.731,0,0,1-38.794,10.457c-3.074.3-6.188.317-9.275.317-1.487,0-2.117-.507-2.291.941q-.525,4.367-1.053,8.73c15.773,1.834,32.076,1.673,47.472-2.7A135.815,135.815,0,0,0,562.4-2223.5c3.58-1.829,7.021-3.883,10.4-6.053,2.137-1.385,5.044-4.184,7.181-4.936-.263-1.463.22-3.38.334-4.892a63.9,63.9,0,0,0,.033-6.745,79.744,79.744,0,0,0-2.4-15.762,92.472,92.472,0,0,0-12.966-28.745c39.75,5.321,72.572,37.558,82.627,75.692a77.608,77.608,0,0,1,2.7,16.387c.063,1.585,2.447.824,3.8.824h7.974c-.013-.537-.029-1.073-.042-1.609-.074-1.39.02.712,0,0Z" transform="translate(-435.354 2473.236)"/></clipPath><linearGradient id="ac" x1="-0.702" y1="3.281" x2="-0.702" y2="3.281" gradientUnits="objectBoundingBox"><stop offset="0" stop-color="#40526f"/><stop offset="0.556" stop-color="#1b1e42"/><stop offset="0.993" stop-color="#1b1e42"/><stop offset="1" stop-color="#1b1e42"/></linearGradient><clipPath id="ad"><path d="M723.871-2372.363c-4.181-8.559-9.879-17.972-18.353-22.854a15.912,15.912,0,0,0-13.549-1.473c-6.871,2.507-6.284,8.759-5.19,15.041-3.987-2.765-4.007,1.741-2.811,4.609.993,2.385,2.891,3.653,5.051,4.848,1.36,4.731,2.967,9.393,4.7,14,.554,1.468,1.667,6.759,3.064,7.676,2.087,1.375,9.655,0,12.109,0H721q-3.071-11.625-6.135-23.249Q719.366-2373.06,723.871-2372.363Z" transform="translate(-683.275 2397.591)"/></clipPath><linearGradient id="ae" x1="-6.157" y1="18.39" x2="-6.155" y2="18.39" xlink:href="#q"/><clipPath id="af"><path d="M701.116-2292.074l15.353,42.264,18.173-39.182C724.317-2289.938,712.111-2291.06,701.116-2292.074Z" transform="translate(-701.116 2292.074)"/></clipPath><linearGradient id="ag" x1="-7.649" y1="19.837" x2="-7.648" y2="19.837" xlink:href="#s"/><clipPath id="ah"><path d="M1326.275-2473.954l-79.335,33.676,22.064,8.52-38.016,43.128-24.146-9.481-5.321-2.093-2.907,3.882-56.979,75.965,63.6-62.723,24.659,12.739,5.067,2.619,4.794-4.492,46.1-43.206,9.184,21.791Z" transform="translate(-1141.633 2473.954)"/></clipPath><linearGradient id="ai" x1="-2.262" y1="5.892" x2="-2.261" y2="5.892" gradientUnits="objectBoundingBox"><stop offset="0" stop-color="#b11116"/><stop offset="0.636" stop-color="#ed1c24"/><stop offset="1" stop-color="#00d5ff"/></linearGradient><clipPath id="aj"><path d="M1101.241-2206.788a3.014,3.014,0,0,0-.854-2.219,3.023,3.023,0,0,0-2.187-.931,3.013,3.013,0,0,0-2.218.853,3.014,3.014,0,0,0-.933,2.19,2.992,2.992,0,0,0,.857,2.219,3,3,0,0,0,2.187.932,3,3,0,0,0,2.217-.854,3,3,0,0,0,.931-2.19Zm-9.5-.166a6.2,6.2,0,0,1,.547-2.482,6.448,6.448,0,0,1,1.407-2.009,6.522,6.522,0,0,1,2.057-1.341,6.263,6.263,0,0,1,2.5-.454,6.294,6.294,0,0,1,2.483.541,6.587,6.587,0,0,1,2,1.41,6.537,6.537,0,0,1,1.343,2.058,6.239,6.239,0,0,1,.457,2.5,6.335,6.335,0,0,1-.544,2.487,6.535,6.535,0,0,1-1.41,2,6.479,6.479,0,0,1-2.057,1.341,6.087,6.087,0,0,1-2.5.454,6.179,6.179,0,0,1-2.487-.542,6.6,6.6,0,0,1-2.007-1.409,6.479,6.479,0,0,1-1.336-2.053,6.189,6.189,0,0,1-.46-2.507Zm-6.631-12.5a2.986,2.986,0,0,0-.853-2.214,2.984,2.984,0,0,0-2.187-.936,2.982,2.982,0,0,0-2.216.858,3.011,3.011,0,0,0-.934,2.185,2.985,2.985,0,0,0,.86,2.219,2.976,2.976,0,0,0,2.183.931,3,3,0,0,0,2.217-.853A2.987,2.987,0,0,0,1085.114-2219.458Zm-9.491-.166a6.1,6.1,0,0,1,.543-2.483,6.5,6.5,0,0,1,1.407-2.009,6.548,6.548,0,0,1,2.054-1.341,6.293,6.293,0,0,1,2.507-.454,6.272,6.272,0,0,1,2.484.542,6.563,6.563,0,0,1,2.007,1.414,6.5,6.5,0,0,1,1.34,2.053,6.24,6.24,0,0,1,.453,2.5,6.23,6.23,0,0,1-.54,2.487,6.508,6.508,0,0,1-1.414,2,6.425,6.425,0,0,1-2.054,1.341,6.259,6.259,0,0,1-2.5.458,6.27,6.27,0,0,1-2.487-.546,6.5,6.5,0,0,1-2.007-1.409,6.576,6.576,0,0,1-1.34-2.053A6.189,6.189,0,0,1,1075.623-2219.624Zm20.457-6.73,2.83,1.356-14.752,25-2.831-1.361Z" transform="translate(-1075.622 2226.355)"/></clipPath><linearGradient id="ak" x1="-13.601" y1="30.893" x2="-13.6" y2="30.893" xlink:href="#a"/><clipPath id="al"><path d="M1126.794-2113.26l4.571.97-.58,2.707-4.6-.99.52,4.745-2.787.288-.5-4.78-4.285,1.892-1.069-2.556,4.31-1.8-3.124-3.6,2.057-1.844,3.1,3.575,2.34-4.038,2.39,1.38Z" transform="translate(-1118.063 2118.688)" fill="url(#a)"/></clipPath><clipPath id="an"><path d="M1043.571-2170l2.531-.663.393,1.5-2.551.663,1.46,2.244-1.327.848-1.453-2.263-1.667,2.024-1.18-1.01,1.7-1.985-2.471-1.015.564-1.438,2.45,1,.151-2.614,1.547.092Z" transform="translate(-1039.011 2172.701)" fill="url(#b)"/></clipPath><clipPath id="ap"><path d="M1201.039-2263.239l1.963-.517.307,1.166-1.981.512,1.134,1.746-1.03.654-1.131-1.756-1.293,1.575-.917-.785,1.323-1.541-1.921-.785.44-1.122,1.9.78.12-2.029,1.2.073Z" transform="translate(-1197.494 2265.341)" fill="url(#b)"/></clipPath><clipPath id="ar"><path d="M1405.364-2164l1.965-.517.307,1.166-1.98.517,1.131,1.741-1.029.658-1.131-1.756-1.292,1.571-.917-.78,1.322-1.546-1.917-.785.439-1.122,1.9.785.122-2.029,1.2.068Z" transform="translate(-1401.823 2166.101)" fill="url(#b)"/></clipPath><clipPath id="at"><path d="M1267.425-2030.741l1.277-.332.2.756-1.283.337.734,1.131-.667.424-.734-1.141-.84,1.019-.6-.507.86-1-1.247-.512.287-.727,1.233.507.077-1.317.78.044Z" transform="translate(-1265.125 2032.102)" fill="url(#b)"/></clipPath><clipPath id="av"><path d="M1113.025-2150.408l1.273-.332.2.756-1.283.336.734,1.132-.667.424-.734-1.141-.844,1.024-.594-.512.86-1-1.247-.512.284-.727,1.236.507.077-1.317.776.049Z" transform="translate(-1110.724 2151.768)" fill="url(#b)"/></clipPath><clipPath id="ax"><path d="M1252.151-2066.3l2.081-.546.32,1.234-2.094.546,1.2,1.844-1.09.7-1.2-1.858-1.37,1.663-.97-.829,1.4-1.634-2.03-.829.463-1.19,2.014.829.127-2.146,1.271.073Z" transform="translate(-1248.401 2068.515)" fill="url(#b)"/></clipPath><clipPath id="az"><path d="M1096.064-2115.589l2.08-.546.32,1.234-2.094.546,1.2,1.848-1.091.693-1.2-1.858-1.371,1.663-.97-.829,1.4-1.634-2.031-.829.464-1.185,2.013.824.127-2.146,1.27.073Z" transform="translate(-1092.312 2117.808)" fill="url(#b)"/></clipPath><clipPath id="bb"><path d="M1284.348-2069.416l3.05.649-.387,1.81-3.067-.663.347,3.17-1.861.19-.336-3.185-2.858,1.258-.713-1.707,2.877-1.2-2.084-2.4,1.371-1.234,2.067,2.39,1.561-2.7,1.6.922Z" transform="translate(-1278.524 2073.035)" fill="url(#b)"/></clipPath><clipPath id="bd"><path d="M1170.526-2184.966l2.647-1.644.973,1.57-2.671,1.649,2.447,2.043-1.21,1.424-2.451-2.063-1.189,2.887-1.694-.736,1.243-2.858-3.163-.283.133-1.844,3.143.293-.743-3.029,1.79-.439Z" transform="translate(-1165.459 2187.994)" fill="url(#b)"/></clipPath><clipPath id="bf"><path d="M1255.451-2131.5a1.461,1.461,0,0,0-.207-1.131,1.474,1.474,0,0,0-.96-.644,1.465,1.465,0,0,0-1.133.209,1.465,1.465,0,0,0-.641.961,1.435,1.435,0,0,0,.21,1.131,1.445,1.445,0,0,0,.957.644,1.464,1.464,0,0,0,1.134-.21A1.454,1.454,0,0,0,1255.451-2131.5Zm-4.508-.927a3.021,3.021,0,0,1,.48-1.141,3.247,3.247,0,0,1,.854-.829,3.179,3.179,0,0,1,1.1-.454,3.006,3.006,0,0,1,1.233.01,3.014,3.014,0,0,1,1.137.478,3.233,3.233,0,0,1,.83.854,3.179,3.179,0,0,1,.458,1.1,3.076,3.076,0,0,1-.011,1.234,3.063,3.063,0,0,1-.48,1.136,3.212,3.212,0,0,1-.853.829,3.189,3.189,0,0,1-1.1.453,3.01,3.01,0,0,1-1.233-.01,3.077,3.077,0,0,1-1.136-.478,3.07,3.07,0,0,1-.827-.858,3.068,3.068,0,0,1-.457-1.093,3.018,3.018,0,0,1,.01-1.234Zm-2.037-6.555a1.472,1.472,0,0,0-.21-1.136,1.445,1.445,0,0,0-.96-.639,1.443,1.443,0,0,0-1.133.209,1.442,1.442,0,0,0-.64.956,1.451,1.451,0,0,0,.206,1.131,1.456,1.456,0,0,0,.963.644,1.455,1.455,0,0,0,1.13-.21A1.468,1.468,0,0,0,1248.906-2138.979Zm-4.51-.931a2.929,2.929,0,0,1,.48-1.136,3.166,3.166,0,0,1,.853-.829,3.067,3.067,0,0,1,1.1-.459,3.1,3.1,0,0,1,1.234.01,3.032,3.032,0,0,1,1.136.483,3.211,3.211,0,0,1,.827.848,3.251,3.251,0,0,1,.453,1.1,2.966,2.966,0,0,1-.009,1.234,2.945,2.945,0,0,1-.48,1.136,3.112,3.112,0,0,1-.85.829,3.143,3.143,0,0,1-1.1.453,3.017,3.017,0,0,1-1.237-.01,3.017,3.017,0,0,1-1.136-.478,3.216,3.216,0,0,1-.827-.854,3.233,3.233,0,0,1-.458-1.1,2.935,2.935,0,0,1,.011-1.229Zm10.348-1.375,1.23.9-9.275,10.593-1.227-.9Z" transform="translate(-1244.325 2142.391)" fill="url(#b)"/></clipPath><clipPath id="bh"><path d="M720.3-2274.987l-.507-12.915,24.16,16.65,5.221-12.08Z" transform="translate(-719.793 2287.901)" fill="url(#l)"/></clipPath><clipPath id="bj"><path d="M1116.933-2036.87l-27.2-12.032,4.41-9.973,27.2,12.031Z" transform="translate(-1089.735 2058.875)" fill="url(#m)"/></clipPath><clipPath id="bl"><path d="M673.354-2502.93H653.037v-3.931h20.317Z" transform="translate(-653.037 2506.861)"/></clipPath><linearGradient id="bm" x1="-11.757" y1="233.27" x2="-11.754" y2="233.27" gradientUnits="objectBoundingBox"><stop offset="0" stop-color="#d3d5d6"/><stop offset="0.544" stop-color="#d3d5d6"/><stop offset="1" stop-color="#bcbec0"/></linearGradient></defs><g transform="translate(-256.347 -1899.667)"><path d="M471.077-2244.648a94.485,94.485,0,0,1-94.914,77.477v12.739l.013-.385a94.437,94.437,0,0,0,97.051-89.83h-2.15" transform="translate(-81.996 4247.188)" fill="#1b1e42"/><g transform="translate(302.328 2002.54)"><g transform="translate(0.001 0)" clip-path="url(#n)"><path d="M487.384-2244.648a94.448,94.448,0,0,1-88.909,89.7,114.479,114.479,0,0,1,14.306,51.984c70.255-9.384,125.6-68.576,127.816-141.688H487.384" transform="translate(-398.475 2244.648)" fill="url(#o)"/></g></g><g transform="translate(540.922 2058.471)"><g transform="translate(0 0)" clip-path="url(#p)"><path d="M1050.76-2089.029s11.071-5.35,13.182-1.019c2.947,6.038-.171,6.36-.171,6.36l6.2,3.073s-6.839,8.222-11.286,5.355c-7.408-4.774-7.582-6.106-7.582-6.106l-.343-7.662" transform="translate(-1050.76 2091.741)" fill="url(#q)"/></g></g><g transform="translate(538.33 2060.797)"><g transform="translate(-0.001 0)" clip-path="url(#r)"><path d="M1043.677-2077.061v-8.32h3.211v8.32h-3.211" transform="translate(-1043.677 2085.381)" fill="url(#s)"/></g></g><path d="M462.952-2506.861v3.931h69.529v-3.931H462.952" transform="translate(-137.039 4413.49)" fill="#1b1e42"/><g transform="translate(315.045 1899.667)"><g transform="translate(-0.001 0)" clip-path="url(#t)"><path d="M435.572-2506.763s15.689-.985,12.869-7.086-2.357-5.014-2.357-5.014H453.7s-6.445-8.559-11.433-6.789c-10.711,3.794-8.915,9.442-8.915,9.442l2.221,9.447" transform="translate(-433.238 2525.893)" fill="url(#u)"/></g></g><g transform="translate(316.264 1917.558)"><g transform="translate(0 0)" clip-path="url(#v)"><path d="M436.575-2476.98h8.318v3.209h-8.318v-3.209" transform="translate(-436.575 2476.98)" fill="url(#w)"/></g></g><g transform="translate(577.344 1955.252)"><g transform="translate(-0.001)" clip-path="url(#x)"><path d="M1228.62-2238.736l-19.577-36.056-38.813,13.061-1.047-3.248,38.71-11.934-12.292-22.639-40.891,10.008-.77-3.326,40.5-8.823-12.316-22.678-31.141,6.394-.644-3.355,30.479-5.448-15.836-29.17,3.02-1.595,15.453,30.291,26.081-4.662-17.146-39.138,3.144-1.332,16.336,40.055,26.347-4.711L1227.581-2373l3.287-.927,9.769,36.451,41-7.325-40.718,8.359,6.243,23.268,37.1-8.086-36.856,9.022,5.73,21.376,43.5-13.412-43.2,14.539,11.968,44.635-13.085-44.254-20.162,6.779,13.744,33.691-14.626-33.388-21.228,7.145,18.57,36.393m-7.632-67.03-23.62,5.779,11.6,22.741,21.591-6.657-9.573-21.864m24.688-6.048-23.132,5.667,8.959,21.957,20.479-6.316-6.306-21.308m-35.375-18.347-25.641,5.267,11.631,22.8,24.01-5.233-10-22.834m28.236-5.794-25.972,5.331,9.356,22.946,23.468-5.111-6.852-23.166" transform="translate(-1150.336 2373.927)" fill="url(#y)"/></g></g><g transform="translate(256.348 2170.822)"><g transform="translate(0 0)" clip-path="url(#z)"><path d="M524.972-1713.967c-139.291,0-252.2-15.8-252.2-35.305s112.913-35.31,252.2-35.31,252.206,15.806,252.206,35.31-112.918,35.305-252.206,35.305m-73.829-39.587c-72.906,0-132.01,2.619-132.01,5.852s59.1,5.857,132.01,5.857,132.01-2.624,132.01-5.857-59.1-5.852-132.01-5.852" transform="translate(-272.767 1784.582)" fill="url(#aa)"/></g></g><g transform="translate(315.818 1918.928)"><g transform="translate(0 0)" clip-path="url(#ab)"><path d="M662.037-2199.335c-.714-13.558-2.651-26.614-7.345-39.431a121.388,121.388,0,0,0-22.74-38.163,119.253,119.253,0,0,0-35.02-27.511,161.023,161.023,0,0,0-20-8.267c-3.351-.941-6.678-1.9-10.082-2.629a83.24,83.24,0,0,1-.017-10.032c.84-15.319,4.748-30.457,9.469-45a84.711,84.711,0,0,0,25.887,31.354c11.635,8.764,24.834,13.548,39.077,15.948,5.888.995,11.911.673,17.839.385.447-.02.29-7.092.3-7.955.02-1.326-.2-1-1.567-1.093a83.786,83.786,0,0,1-9.115-.907,70.636,70.636,0,0,1-19.214-5.994c-12.558-6.286-23.24-15.621-30.285-27.882a69.874,69.874,0,0,1-7.444-18.82A93.8,93.8,0,0,1,590-2401.65c-.02-.6-24.317-2.273-25.908-2.419q-22.779-2.092-45.558-4.194-7.217-.666-14.429-1.341c-7.392-.7-14.626-3.438-21.217-6.745-14.389-7.218-27.331-20.669-33.119-35.812a103.634,103.634,0,0,1-5.5-20.864c-.084-.527-7.865.1-8.919.132.527,12.373,2.414,24.19,7.612,35.544,6.044,12.661,14.462,24.122,25.7,32.691a104.436,104.436,0,0,0,17.867,10.807,65.981,65.981,0,0,0,19.39,6.238c.676.1,7.521.868,7.548,1.126.027.234.054.473.077.707.15,1.371.3,2.746.451,4.116,2.91,26.57,5.7,53.169,9.024,79.691.2,1.629.4,3.253.647,4.872.307,2.063,1.827,2.97,3.251,4.56a228.086,228.086,0,0,1,24.753,32.954c1.851,2.712,3.185,5.735,4.835,8.564.793,1.356,1.364,2.833,2.1,4.219.376.712.623,1.478.97,2.2.571,1.283.267,1.253-.863,2.1a102.608,102.608,0,0,1-17.863,11.027,116.731,116.731,0,0,1-38.794,10.457c-3.074.3-6.188.317-9.275.317-1.487,0-2.117-.507-2.291.941q-.525,4.367-1.053,8.73c15.773,1.834,32.076,1.673,47.472-2.7A135.815,135.815,0,0,0,562.4-2223.5c3.58-1.829,7.021-3.883,10.4-6.053,2.137-1.385,5.044-4.184,7.181-4.936-.263-1.463.22-3.38.334-4.892a63.9,63.9,0,0,0,.033-6.745,79.744,79.744,0,0,0-2.4-15.762,92.472,92.472,0,0,0-12.966-28.745c39.75,5.321,72.572,37.558,82.627,75.692a77.608,77.608,0,0,1,2.7,16.387c.063,1.585,2.447.824,3.8.824h7.974c-.013-.537-.029-1.073-.042-1.609-.074-1.39.02.712,0,0" transform="translate(-435.354 2473.236)" fill="url(#ac)"/></g></g><g transform="translate(406.504 1946.597)"><g transform="translate(-0.001 0)" clip-path="url(#ad)"><path d="M723.871-2372.363c-4.181-8.559-9.879-17.972-18.353-22.854a15.912,15.912,0,0,0-13.549-1.473c-6.871,2.507-6.284,8.759-5.19,15.041-3.987-2.765-4.007,1.741-2.811,4.609.993,2.385,2.891,3.653,5.051,4.848,1.36,4.731,2.967,9.393,4.7,14,.554,1.468,1.667,6.759,3.064,7.676,2.087,1.375,9.655,0,12.109,0H721q-3.071-11.625-6.135-23.249,4.5.7,9.005,1.4" transform="translate(-683.275 2397.591)" fill="url(#ae)"/></g></g><g transform="translate(413.029 1985.193)"><g transform="translate(-0.001 0)" clip-path="url(#af)"><path d="M701.116-2292.074l15.353,42.264,18.173-39.182c-10.325-.946-22.531-2.068-33.526-3.082" transform="translate(-701.116 2292.074)" fill="url(#ag)"/></g></g><g transform="translate(574.16 1918.665)"><g transform="translate(-0.001 0)" clip-path="url(#ah)"><path d="M1326.275-2473.954l-79.335,33.676,22.064,8.52-38.016,43.128-24.146-9.481-5.321-2.092-2.907,3.882-56.979,75.965,63.6-62.724,24.659,12.739,5.067,2.619,4.794-4.492,46.1-43.206,9.184,21.791,31.242-80.325" transform="translate(-1141.633 2473.954)" fill="url(#ai)"/></g></g><g transform="translate(550.016 2009.231)"><g transform="translate(-0.001 0)" clip-path="url(#aj)"><path d="M1101.241-2206.788a3.014,3.014,0,0,0-.854-2.219,3.023,3.023,0,0,0-2.187-.931,3.013,3.013,0,0,0-2.218.853,3.014,3.014,0,0,0-.933,2.19,2.992,2.992,0,0,0,.857,2.219,3,3,0,0,0,2.187.932,3,3,0,0,0,2.217-.854,3,3,0,0,0,.931-2.19Zm-9.5-.166a6.2,6.2,0,0,1,.547-2.482,6.448,6.448,0,0,1,1.407-2.009,6.522,6.522,0,0,1,2.057-1.341,6.263,6.263,0,0,1,2.5-.454,6.294,6.294,0,0,1,2.483.541,6.587,6.587,0,0,1,2,1.41,6.537,6.537,0,0,1,1.343,2.058,6.239,6.239,0,0,1,.457,2.5,6.335,6.335,0,0,1-.544,2.487,6.535,6.535,0,0,1-1.41,2,6.479,6.479,0,0,1-2.057,1.341,6.087,6.087,0,0,1-2.5.454,6.179,6.179,0,0,1-2.487-.542,6.6,6.6,0,0,1-2.007-1.409,6.479,6.479,0,0,1-1.336-2.053,6.189,6.189,0,0,1-.46-2.507Zm-6.631-12.5a2.986,2.986,0,0,0-.853-2.214,2.984,2.984,0,0,0-2.187-.936,2.982,2.982,0,0,0-2.216.858,3.011,3.011,0,0,0-.934,2.185,2.985,2.985,0,0,0,.86,2.219,2.976,2.976,0,0,0,2.183.931,3,3,0,0,0,2.217-.853A2.987,2.987,0,0,0,1085.114-2219.458Zm-9.491-.166a6.1,6.1,0,0,1,.543-2.483,6.5,6.5,0,0,1,1.407-2.009,6.548,6.548,0,0,1,2.054-1.341,6.293,6.293,0,0,1,2.507-.454,6.272,6.272,0,0,1,2.484.542,6.563,6.563,0,0,1,2.007,1.414,6.5,6.5,0,0,1,1.34,2.053,6.24,6.24,0,0,1,.453,2.5,6.23,6.23,0,0,1-.54,2.487,6.508,6.508,0,0,1-1.414,2,6.425,6.425,0,0,1-2.054,1.341,6.259,6.259,0,0,1-2.5.458,6.27,6.27,0,0,1-2.487-.546,6.5,6.5,0,0,1-2.007-1.409,6.576,6.576,0,0,1-1.34-2.053A6.189,6.189,0,0,1,1075.623-2219.624Zm20.457-6.73,2.83,1.356-14.752,25-2.831-1.361,14.753-25" transform="translate(-1075.622 2226.355)" fill="url(#ak)"/></g></g><g transform="translate(565.539 2048.614)"><g transform="translate(0 0)" clip-path="url(#al)"><path d="M1126.794-2113.26l4.571.97-.58,2.707-4.6-.99.52,4.745-2.787.288-.5-4.78-4.285,1.892-1.069-2.556,4.31-1.8-3.124-3.6,2.057-1.844,3.1,3.575,2.34-4.038,2.39,1.38-2.34,4.048" transform="translate(-1118.063 2118.688)" fill="url(#a)"/></g></g><g transform="translate(536.623 2028.856)"><g transform="translate(0 0)" clip-path="url(#an)"><path d="M1043.571-2170l2.531-.663.393,1.5-2.551.663,1.46,2.244-1.327.848-1.453-2.263-1.667,2.024-1.18-1.01,1.7-1.985-2.471-1.015.564-1.438,2.45,1,.151-2.614,1.547.092-.151,2.61" transform="translate(-1039.011 2172.701)" fill="url(#b)"/></g></g><g transform="translate(594.592 1994.972)"><g transform="translate(0.001 0)" clip-path="url(#ap)"><path d="M1201.039-2263.239l1.963-.517.307,1.166-1.981.512,1.134,1.746-1.03.654-1.131-1.756-1.293,1.575-.917-.785,1.323-1.541-1.921-.785.44-1.122,1.9.78.12-2.029,1.2.073-.116,2.029" transform="translate(-1197.494 2265.341)" fill="url(#b)"/></g></g><g transform="translate(669.332 2031.271)"><g transform="translate(0 0)" clip-path="url(#ar)"><path d="M1405.364-2164l1.965-.517.307,1.166-1.98.517,1.131,1.741-1.029.658-1.131-1.756-1.292,1.571-.917-.78,1.322-1.546-1.917-.785.439-1.122,1.9.785.122-2.029,1.2.068-.117,2.029" transform="translate(-1401.823 2166.101)" fill="url(#b)"/></g></g><g transform="translate(619.33 2080.285)"><g transform="translate(0.001 0)" clip-path="url(#at)"><path d="M1267.425-2030.741l1.277-.332.2.756-1.283.337.734,1.131-.667.424-.734-1.141-.84,1.019-.6-.507.86-1-1.247-.512.287-.727,1.233.507.077-1.317.78.044-.077,1.317" transform="translate(-1265.125 2032.102)" fill="url(#b)"/></g></g><g transform="translate(562.854 2036.514)"><g transform="translate(0.001 0)" clip-path="url(#av)"><path d="M1113.025-2150.408l1.273-.332.2.756-1.283.336.734,1.132-.667.424-.734-1.141-.844,1.024-.594-.512.86-1-1.247-.512.284-.727,1.236.507.077-1.317.776.049-.073,1.312" transform="translate(-1110.724 2151.768)" fill="url(#b)"/></g></g><g transform="translate(613.213 2066.966)"><g transform="translate(0 0)" clip-path="url(#ax)"><path d="M1252.151-2066.3l2.081-.546.32,1.234-2.094.546,1.2,1.844-1.09.7-1.2-1.858-1.37,1.663-.97-.829,1.4-1.634-2.03-.829.463-1.19,2.014.829.127-2.146,1.271.073-.124,2.146" transform="translate(-1248.401 2068.515)" fill="url(#b)"/></g></g><g transform="translate(556.119 2048.936)"><g transform="translate(0 0)" clip-path="url(#az)"><path d="M1096.064-2115.589l2.08-.546.32,1.234-2.094.546,1.2,1.848-1.091.693-1.2-1.858-1.371,1.663-.97-.829,1.4-1.634-2.031-.829.464-1.185,2.013.824.127-2.146,1.27.073-.123,2.146" transform="translate(-1092.312 2117.808)" fill="url(#b)"/></g></g><g transform="translate(624.232 2065.313)"><g transform="translate(0 0)" clip-path="url(#bb)"><path d="M1284.348-2069.416l3.05.649-.387,1.81-3.067-.663.347,3.17-1.861.19-.336-3.185-2.858,1.258-.713-1.707,2.877-1.2-2.084-2.4,1.371-1.234,2.067,2.39,1.561-2.7,1.6.922-1.563,2.7" transform="translate(-1278.524 2073.035)" fill="url(#b)"/></g></g><g transform="translate(582.875 2023.263)"><g transform="translate(0 0)" clip-path="url(#bd)"><path d="M1170.526-2184.966l2.647-1.644.973,1.57-2.671,1.649,2.447,2.043-1.21,1.424-2.451-2.063-1.189,2.887-1.694-.736,1.243-2.858-3.163-.283.133-1.844,3.143.293-.743-3.029,1.79-.439.744,3.029" transform="translate(-1165.459 2187.994)" fill="url(#b)"/></g></g><g transform="translate(611.723 2039.943)"><g transform="translate(0.001 0)" clip-path="url(#bf)"><path d="M1255.451-2131.5a1.461,1.461,0,0,0-.207-1.131,1.474,1.474,0,0,0-.96-.644,1.465,1.465,0,0,0-1.133.209,1.465,1.465,0,0,0-.641.961,1.435,1.435,0,0,0,.21,1.131,1.445,1.445,0,0,0,.957.644,1.464,1.464,0,0,0,1.134-.21A1.454,1.454,0,0,0,1255.451-2131.5Zm-4.508-.927a3.021,3.021,0,0,1,.48-1.141,3.247,3.247,0,0,1,.854-.829,3.179,3.179,0,0,1,1.1-.454,3.006,3.006,0,0,1,1.233.01,3.014,3.014,0,0,1,1.137.478,3.233,3.233,0,0,1,.83.854,3.179,3.179,0,0,1,.458,1.1,3.076,3.076,0,0,1-.011,1.234,3.063,3.063,0,0,1-.48,1.136,3.212,3.212,0,0,1-.853.829,3.189,3.189,0,0,1-1.1.453,3.01,3.01,0,0,1-1.233-.01,3.077,3.077,0,0,1-1.136-.478,3.07,3.07,0,0,1-.827-.858,3.068,3.068,0,0,1-.457-1.093,3.018,3.018,0,0,1,.01-1.234Zm-2.037-6.555a1.472,1.472,0,0,0-.21-1.136,1.445,1.445,0,0,0-.96-.639,1.443,1.443,0,0,0-1.133.209,1.442,1.442,0,0,0-.64.956,1.451,1.451,0,0,0,.206,1.131,1.456,1.456,0,0,0,.963.644,1.455,1.455,0,0,0,1.13-.21A1.468,1.468,0,0,0,1248.906-2138.979Zm-4.51-.931a2.929,2.929,0,0,1,.48-1.136,3.166,3.166,0,0,1,.853-.829,3.067,3.067,0,0,1,1.1-.459,3.1,3.1,0,0,1,1.234.01,3.032,3.032,0,0,1,1.136.483,3.211,3.211,0,0,1,.827.848,3.251,3.251,0,0,1,.453,1.1,2.966,2.966,0,0,1-.009,1.234,2.945,2.945,0,0,1-.48,1.136,3.112,3.112,0,0,1-.85.829,3.143,3.143,0,0,1-1.1.453,3.017,3.017,0,0,1-1.237-.01,3.017,3.017,0,0,1-1.136-.478,3.216,3.216,0,0,1-.827-.854,3.233,3.233,0,0,1-.458-1.1,2.935,2.935,0,0,1,.011-1.229Zm10.348-1.375,1.23.9-9.275,10.593-1.227-.9,9.272-10.593" transform="translate(-1244.325 2142.391)" fill="url(#b)"/></g></g><path d="M750.056-2366.343a1.422,1.422,0,0,1-1.424,1.424,1.421,1.421,0,0,1-1.423-1.424,1.424,1.424,0,0,1,1.423-1.424,1.425,1.425,0,0,1,1.424,1.424" transform="translate(-317.322 4325.272)" fill="#1b1e42"/><path d="M446.535-2456.33a1.418,1.418,0,0,1-1.21,1.609,1.421,1.421,0,0,1-1.61-1.209,1.423,1.423,0,0,1,1.21-1.609,1.42,1.42,0,0,1,1.61,1.209" transform="translate(-124.83 4382.218)" fill="#fff"/><path d="M448.1-2445.237a1.425,1.425,0,0,1-1.214,1.609,1.42,1.42,0,0,1-1.607-1.214,1.419,1.419,0,0,1,1.211-1.6,1.42,1.42,0,0,1,1.61,1.209" transform="translate(-125.822 4375.183)" fill="#fff"/><path d="M449.668-2434.144a1.425,1.425,0,0,1-1.213,1.609,1.419,1.419,0,0,1-1.607-1.214,1.414,1.414,0,0,1,1.211-1.6,1.42,1.42,0,0,1,1.609,1.21" transform="translate(-126.816 4368.146)" fill="#fff"/><path d="M1001.73-2080.458a1.424,1.424,0,0,1,1.11,1.683,1.421,1.421,0,0,1-1.68,1.107,1.417,1.417,0,0,1-1.11-1.678,1.423,1.423,0,0,1,1.68-1.112" transform="translate(-477.658 4143.074)" fill="#fff"/><path d="M1012.7-2078.231a1.432,1.432,0,0,1,1.113,1.683,1.43,1.43,0,0,1-1.684,1.112,1.419,1.419,0,0,1-1.109-1.678,1.423,1.423,0,0,1,1.68-1.117" transform="translate(-484.618 4141.661)" fill="#fff"/><path d="M1023.679-2075.991a1.427,1.427,0,0,1,1.114,1.683,1.427,1.427,0,0,1-1.685,1.107,1.421,1.421,0,0,1-1.109-1.677,1.424,1.424,0,0,1,1.68-1.112" transform="translate(-491.58 4140.24)" fill="#fff"/><g transform="translate(419.859 1986.719)"><g transform="translate(0.001 0)" clip-path="url(#bh)"><path d="M720.3-2274.987l-.507-12.915,24.16,16.65,5.221-12.08-28.875,8.344" transform="translate(-719.793 2287.901)" fill="url(#l)"/></g></g><path d="M1033.1-1726.089l-11.649,1.614,2.064,14.9,35.493-4.916-.354-2.551a37.613,37.613,0,0,1-25.555-9.052" transform="translate(-491.255 3918.307)" fill="#1b1e42"/><path d="M589.871-1774.411l.71-11.744-15.016-.907-2.17,35.763,2.574.156a37.594,37.594,0,0,1,13.9-23.268" transform="translate(-207.084 3956.978)" fill="#1b1e42"/><path d="M1110.446-2059.986l-46.555-20.6-1.629,3.687,9.678,4.282-17.2,38.875,27.2,12.031,17.2-38.875,9.679,4.282,1.63-3.687" transform="translate(-512.365 4143.133)" fill="#1b1e42"/><g transform="translate(555.176 2070.492)"><g transform="translate(0 0)" clip-path="url(#bj)"><path d="M1116.933-2036.87l-27.2-12.032,4.41-9.973,27.2,12.031-4.41,9.974" transform="translate(-1089.735 2058.875)" fill="url(#m)"/></g></g><g transform="translate(395.441 1906.628)"><g transform="translate(0.001 0)" clip-path="url(#bl)"><path d="M673.354-2502.93H653.037v-3.931h20.317v3.931" transform="translate(-653.037 2506.861)" fill="url(#bm)"/></g></g></g></svg>