<svg xmlns="http://www.w3.org/2000/svg" xmlns:xlink="http://www.w3.org/1999/xlink" width="482.296" height="499" viewBox="0 0 482.296 499"><defs><clipPath id="a"><path d="M3755.517-483.223c-133.185,0-241.152-3.494-241.152-7.813,0-1.227,8.721-2.386,24.253-3.422v3.741h4.072v-4c40.6-2.463,120.676-4.14,212.827-4.14,36.622,0,71.329.268,102.414.739v7.549h18.147v-7.244c72.084,1.354,120.583,3.877,120.583,6.772,0,4.318-107.964,7.813-241.144,7.813" transform="translate(-3514.365 498.852)"/></clipPath><linearGradient id="b" x1="-2.32" y1="10.164" x2="-2.32" y2="10.164" gradientUnits="objectBoundingBox"><stop offset="0" stop-color="#f6f6f6"/><stop offset="0.073" stop-color="#f6f6f6"/><stop offset="0.621" stop-color="#c7c9ca"/><stop offset="0.861" stop-color="#f6f6f6"/><stop offset="1" stop-color="#f6f6f6"/></linearGradient><clipPath id="c"><path d="M3995.21-1533.1l-109.712-21.54,18.083,20.606-198.726,44.184-8.076,1.8-2.081,6.972-49.258,165.155-114.77,105.677,122.035-99.489.807-.662.552-1.335,63.05-152.727,193.63-33.1-8.938,25.906Z" transform="translate(-3530.671 1554.636)"/></clipPath><linearGradient id="d" x1="-2.42" y1="1.438" x2="-2.42" y2="1.438" gradientUnits="objectBoundingBox"><stop offset="0" stop-color="#073d48"/><stop offset="0.636" stop-color="#41d3f0"/><stop offset="1" stop-color="#27dbff"/></linearGradient><clipPath id="e"><path d="M4645.144-1342.743s-.836-6.135-2.1-4.429-.31,6.838-.31,6.838Z" transform="translate(-4642.395 1347.472)"/></clipPath><linearGradient id="f" x1="-537.666" y1="60.118" x2="-537.65" y2="60.118" gradientUnits="objectBoundingBox"><stop offset="0" stop-color="#ffe1c0"/><stop offset="0.569" stop-color="#fab393"/><stop offset="1" stop-color="#fab393"/></linearGradient><clipPath id="g"><path d="M4339.978-1281.685c-5.7-6.029-12.87-12.38-21.179-14.234a13.845,13.845,0,0,0-11.643,2.287c-5.061,3.866-2.951,8.907-.416,13.845-4.03-1.265-2.879,2.487-1.143,4.557,1.448,1.726,3.351,2.287,5.456,2.723,2.356,3.578,4.9,7.038,7.541,10.414.841,1.076,3.138,5.187,4.539,5.59,2.085.6,8.021-2.5,10.059-3.138,3.354-1.047,6.208-2.51,9.562-3.555-3.711-5.912-6.917-11.407-10.627-17.316q3.929-.589,7.851-1.173Z" transform="translate(-4304.006 1296.315)"/></clipPath><linearGradient id="h" x1="-35.373" y1="10.349" x2="-35.372" y2="10.349" gradientUnits="objectBoundingBox"><stop offset="0" stop-color="#ffe1c0"/><stop offset="1" stop-color="#fab393"/></linearGradient><clipPath id="i"><path d="M4277.9-1364.334c-.45-3.161-1.028-6-1.643-8.6s-1.278-4.947-1.894-7.1c-.65-2.115-1.219-4.068-1.788-5.753s-1.036-3.189-1.452-4.335c-.82-2.34-1.286-3.677-1.286-3.677l-7.542,6.31s.3,1.482.807,4.084c.271,1.3.539,2.875.871,4.675s.653,3.889,1.023,6.132c.326,2.27.679,4.731.955,7.372s.5,5.449.577,8.383a51.238,51.238,0,0,1-.514,8.984,17.94,17.94,0,0,1-2.505,7.236,12.868,12.868,0,0,1-2.033,2.206,23.165,23.165,0,0,1-3.146,2.125,44.951,44.951,0,0,1-7.668,3.306c-2.641.865-5.222,1.611-7.7,2.206-2.471.621-4.828,1.138-7.006,1.585-3.872.81-7.184,1.416-9.667,1.869l.046-.139-68.9.008,0-.008s-1.473.673-4.046,1.834-6.25,2.8-10.641,4.646c-2.195.929-4.573,1.908-7.074,2.856-2.51.979-5.133,1.878-7.817,2.7a39.672,39.672,0,0,1-7.855,1.614,14.671,14.671,0,0,1-3.265-.081,5.986,5.986,0,0,1-2.17-.851c-1.2-.76-2.314-2.822-2.968-5.4a42.242,42.242,0,0,1-1.087-8.339c-.114-2.873-.081-5.718.03-8.435s.3-5.309.479-7.7c.221-2.394.4-4.6.62-6.545s.382-3.634.565-5.054c.343-2.824.407-3.172.407-3.172l-7.783-2.627s-.377,1.582-1.049,4.351c-.339,1.365-.713,3.114-1.163,5.086s-.9,4.211-1.41,6.658c-.471,2.462-.977,5.138-1.423,8.026s-.84,5.985-1.087,9.311a53.035,53.035,0,0,0,.259,10.96,23.818,23.818,0,0,0,.616,3.15l.45,1.643c.174.56.429,1.156.658,1.73a19.362,19.362,0,0,0,4.662,6.9,20.027,20.027,0,0,0,7.618,4.377,28.754,28.754,0,0,0,7.167,1.135,55.256,55.256,0,0,0,11.473-.969c3.367-.624,6.509-1.332,9.362-2.087,2.887-.735,5.537-1.489,7.957-2.2,4.849-1.417,8.781-2.67,11.536-3.539.412-.13.781-.249,1.138-.366,1.023,14.656,4.675,29.267,6.6,38.651,1.847,8.966,6.768,21.99,9.367,33,.051.209.093.418.144.627-.509.491-1.006.97-1.464,1.422-14.717,14.408-24.687,34.941-28.831,55.236-4.679,22.9-1.779,45.957,3.537,67.828q.25.892.548,1.771c1.673-.879,10.182-2.025,10.327-4.152.119-1.839-.833-4.055-1.185-5.83a116.208,116.208,0,0,1-.782-41.037,107.886,107.886,0,0,1,13.223-37.615c6.025-10.148,14.279-20.637,27-19.058,10.258,1.275,15.88,9.112,21.269,17.523a103.036,103.036,0,0,1,14.576,39.149,116.988,116.988,0,0,1-.547,39.784c-.408,2.229-1.244,4.531-1.415,6.794-.187,2.475,8.582,3.528,10.318,4.441q.3-.879.548-1.771c6.377-26.219,9.01-54.224.055-80.828,1.13,3.358,2.892,8.577,3.083,9.151-.123-.368-.968-2.876-3.087-9.163-1.5-4.452-1-2.972-.008-.023-5.55-16.467-14.883-33.42-28.164-44.856a123.605,123.605,0,0,1-3.186-28.8c.154-10.687,3.385-26.295,6.582-39.159,2.692-.853,6.433-2.028,11.019-3.6,2.374-.8,4.976-1.707,7.8-2.784,2.8-1.036,5.876-2.3,9.158-3.781a74.453,74.453,0,0,0,11.112-6.215,51.574,51.574,0,0,0,6.836-5.619,45.106,45.106,0,0,0,7.056-9.126,39.641,39.641,0,0,0,4.047-9.787c.178-.714.387-1.466.522-2.136l.323-1.916a32.2,32.2,0,0,0,.395-3.524,54.467,54.467,0,0,0-.463-11.076Z" transform="translate(-4098.528 1393.796)"/></clipPath><linearGradient id="j" x1="-7.253" y1="1.56" x2="-7.253" y2="1.56" gradientUnits="objectBoundingBox"><stop offset="0" stop-color="#40526f"/><stop offset="0.556" stop-color="#1b1e42"/><stop offset="0.993" stop-color="#1b1e42"/><stop offset="1" stop-color="#1b1e42"/></linearGradient><clipPath id="k"><path d="M4567.762-731.146C4567.783-731.077,4567.783-731.079,4567.762-731.146Z" transform="translate(-4567.762 731.146)"/></clipPath><linearGradient id="l" x1="-91355.469" y1="4526.575" x2="-91352.805" y2="4526.575" xlink:href="#j"/><clipPath id="m"><path d="M4620.957-1435.211c2.573-1.5,8.938-8.178,9.792-9.889,1.154-2.318,2.8-9.872,2.8-9.872.386-2.157-2.127-.531-2.917,1.4-.118.293-.31,1.966-.45,2.335.017-3.257-.276-9-.276-9-.255-2.178-2.19.106-2.386,2.187-.081.811.3,3.974.233,5.223a28.548,28.548,0,0,1-1.312-7.138c-.488-2.136-2.165.344-2.14,2.433.017,1.083.467,4.025.586,5.787-.493-1.834-1.321-4.632-1.321-4.632-.708-2.072-2.123.395-1.881,2.467s1.342,6.819-.39,7.91c-4.2,2.649-7.868,7.392-8.25,12.318" transform="translate(-4613.042 1461.116)"/></clipPath><linearGradient id="n" x1="-71.506" y1="16.958" x2="-71.504" y2="16.958" xlink:href="#h"/><clipPath id="o"><path d="M4621.65-1381.717l-9.142,1.732.28,1.486,9.141-1.737Z" transform="translate(-4612.508 1381.717)"/></clipPath><linearGradient id="p" x1="-155.897" y1="136.712" x2="-155.892" y2="136.712" gradientUnits="objectBoundingBox"><stop offset="0" stop-color="#e6e7e8"/><stop offset="0.544" stop-color="#e6e7e8"/><stop offset="1" stop-color="#bcbec0"/></linearGradient><clipPath id="q"><path d="M4100.382-1316.823s-3.074-5.373-1.041-4.787,4.416,5.23,4.416,5.23Z" transform="translate(-4098.646 1321.655)"/></clipPath><linearGradient id="r" x1="-255.356" y1="79.789" x2="-255.347" y2="79.789" xlink:href="#f"/><clipPath id="s"><path d="M4080.3-1324.2c-1.6-5.091-8.322-6.62-13.286-6.49-2.046.056-3.766-4.5-4.717-6.359s-3.5-3.122-2.934-1.01c0,0,.866,2.789,1.478,4.586-.887-1.53-2.145-4.229-2.734-5.136-1.138-1.754-3.911-2.879-3.129-.832a28.616,28.616,0,0,1,2.879,6.661c-.756-1-2.2-3.843-2.713-4.472-1.32-1.62-4.2-2.439-3.2-.491,0,0,2.951,4.938,4.776,7.631-.323-.226-1.41-1.512-1.673-1.689-1.728-1.17-4.721-1.124-3.206.453,0,0,5.567,5.372,7.809,6.655,1.664.949,10.662,2.958,13.638,2.786" transform="translate(-4051.42 1340.54)"/></clipPath><linearGradient id="t" x1="-44.68" y1="22.899" x2="-44.678" y2="22.899" xlink:href="#h"/><clipPath id="u"><path d="M4122.851-1289.941l-9.142,1.733.285,1.483,9.137-1.736Z" transform="translate(-4113.709 1289.941)"/></clipPath><linearGradient id="v" x1="-139.041" y1="127.734" x2="-139.036" y2="127.734" xlink:href="#p"/><clipPath id="w"><path d="M4338.936-1185.725l16.606,35.452,12.708-35.394C4359.223-1185.681,4348.549-1185.7,4338.936-1185.725Z" transform="translate(-4338.936 1185.725)"/></clipPath><linearGradient id="x" x1="-47.135" y1="10.651" x2="-47.134" y2="10.651" gradientUnits="objectBoundingBox"><stop offset="0" stop-color="#e6e7e8"/><stop offset="0.418" stop-color="#e6e7e8"/><stop offset="0.769" stop-color="#bcbec0"/><stop offset="1" stop-color="#bcbec0"/></linearGradient><clipPath id="y"><path d="M4338.936-1185.725l5.673,12.118c3.193-3.378,11.2-12.016,11.2-12.016l9.206,8.957,3.231-9C4359.223-1185.681,4348.549-1185.7,4338.936-1185.725Z" transform="translate(-4338.936 1185.725)"/></clipPath><linearGradient id="z" x1="-47.135" y1="31.159" x2="-47.134" y2="31.159" xlink:href="#p"/></defs><g transform="translate(-2703.39 -3629.441)"><g transform="translate(853 425)"><text transform="translate(2162.39 3609.441)" fill="#e3e3e3" font-size="375" font-family="SegoeUI, Segoe UI"><tspan x="0" y="0">`</tspan></text><g transform="translate(1850.39 3607.869)"><g transform="translate(0 0)" clip-path="url(#a)"><path d="M3755.517-483.223c-133.185,0-241.152-3.494-241.152-7.813,0-1.227,8.721-2.386,24.253-3.422v3.741h4.072v-4c40.6-2.463,120.676-4.14,212.827-4.14,36.622,0,71.329.268,102.414.739v7.549h18.147v-7.244c72.084,1.354,120.583,3.877,120.583,6.772,0,4.318-107.964,7.813-241.144,7.813" transform="translate(-3514.365 498.852)" fill="url(#b)"/></g></g><text transform="translate(1861.39 3613.441)" fill="#cecece" font-size="75" font-family="SegoeUI, Segoe UI"><tspan x="0" y="0">`</tspan></text><path d="M3557.964-561.359h0m0,0c.149,0,.3,0,.446,0h0c-.148,0-.3,0-.446,0m12.284-15.957c0-.127,0-.25-.012-.374.008.123.012.246.012.374m-.059-.87h0a4.84,4.84,0,0,0-.136-.671,4.84,4.84,0,0,1,.136.671m-.14-.684a.039.039,0,0,0,0-.021.039.039,0,0,1,0,.021m-.518-1.193h0l-.051-.081h0c.017.03.034.055.051.081h0m-.523-.713h0a6.341,6.341,0,0,0-1.321-1.172,11.616,11.616,0,0,0-1.027-.611h0c.357.191.7.395,1.023.611a6.359,6.359,0,0,1,1.325,1.172m9.766-2.594h0a9.317,9.317,0,0,0-.5-.989,9.225,9.225,0,0,1,.5.989m-13.939,0h0c-.786-.3-1.567-.577-2.352-.841v0c.785.263,1.571.544,2.352.841m13.443-.989c-.119-.212-.246-.416-.374-.62h0c.132.2.255.408.374.62m-3.842-4.263c-.022-.013-.043-.03-.068-.042.026.013.047.03.068.042m-.094-.064-.038-.026.038.026m-.072-.051a.115.115,0,0,1-.029-.021.115.115,0,0,0,.029.021m-.094-.064c-.008-.009-.021-.013-.029-.021.008.009.021.013.029.021m-.068-.047a.165.165,0,0,0-.03-.021.165.165,0,0,1,.03.021m-.063-.047a.145.145,0,0,1-.034-.021.145.145,0,0,0,.034.021m-.077-.051c-.017-.008-.033-.021-.055-.034.022.013.039.026.055.034m-.08-.051-.042-.03.042.03m-.068-.047c-.021-.013-.038-.021-.055-.034.017.013.034.021.055.034m-.067-.047a.813.813,0,0,1-.072-.042.813.813,0,0,0,.072.042m-.085-.051a.55.55,0,0,1-.064-.042.55.55,0,0,0,.064.042m-.076-.047a.425.425,0,0,0-.072-.047.425.425,0,0,1,.072.047m-.072-.047c-.051-.034-.1-.064-.153-.1.051.034.1.064.153.1m-.157-.1c-.076-.047-.153-.093-.229-.136.076.042.153.089.229.136m-.246-.144c-.017-.013-.038-.026-.055-.038.018.013.038.026.055.038m-.076-.047c-.021-.013-.038-.025-.055-.034.017.009.034.021.055.034m-.115-.068-.021-.013.021.013m-.081-.047h0m-3.988-1.783-.021-.008.021.008m-25.361-3.053a.022.022,0,0,0-.009-.017.022.022,0,0,1,.009.017m-.009-.021c-.025-.051-.055-.1-.081-.153h0c.026.051.056.1.081.153" transform="translate(-1683.767 4172.013)" fill="#dedede"/><path d="M4500.87-863.616h0m0,0c.538,0,1.078,0,1.613-.009-.535.009-1.075.009-1.613.009m-39.54-6.4c-.068-.021-.136-.047-.2-.068.068.021.136.047.2.068m-.292-.1-.408-.14.408.14m130.977-37.926c.016-.028.029-.057.042-.086-.013.028-.026.057-.042.086m.055-.112a.576.576,0,0,1,.034-.074.555.555,0,0,0-.034.074m.047-.109a.539.539,0,0,0,.029-.065.522.522,0,0,1-.029.065m.051-.108.025-.055-.025.055m.051-.108c0-.015.012-.03.017-.045,0,.016-.013.03-.017.045m.047-.1a.158.158,0,0,1,.017-.041.157.157,0,0,0-.017.041m.046-.106.013-.034-.013.034m.047-.1.013-.028-.013.028m.047-.109s0-.01.008-.015,0,.01-.008.015m.046-.106s0,0,0-.006a.005.005,0,0,0,0,.006m-36.83-25.626q-.006-.979-.063-1.918h0q.058.939.063,1.918m-.268-3.975h0a21.117,21.117,0,0,0-2.412-7.51,21.118,21.118,0,0,1,2.416,7.51m-2.42-7.519a.9.9,0,0,1-.047-.084.9.9,0,0,0,.047.084m-.063-.115c-.009-.011-.013-.023-.022-.034.009.011.013.023.022.034m-.047-.078c0-.008-.009-.016-.013-.025l.013.025m-.056-.1s0-.008,0-.012,0,.008,0,.012m-.042-.077s-.008-.008-.008-.012,0,.008.008.012m-.1-.165s0,0,0-.007a.006.006,0,0,1,0,.007m-.1-.161v0m-.047-.073s0-.008,0-.012,0,.008,0,.012m-.05-.085h0c-.076-.121-.162-.235-.238-.354h.008c.076.117.153.235.229.354h0m-2.343-3.183h-.008a28.41,28.41,0,0,0-5.617-5.042,28.178,28.178,0,0,1,5.625,5.042m-5.634-5.045a.405.405,0,0,0-.043-.03.405.405,0,0,1,.043.03m-.081-.056c-.009-.007-.021-.014-.029-.021.008.007.021.014.029.021m-.089-.06-.017-.013.017.013m-.089-.06h0q-2.191-1.462-4.581-2.73h.013q2.381,1.271,4.569,2.73h0m-12.7-6.331h-.013q-5.076-1.934-10.148-3.641,5.082,1.7,10.161,3.641m-10.195-3.653-.123-.042.123.042m70.191-.628c0-.007-.009-.014-.012-.021a.19.19,0,0,0,.012.021m-.038-.068c-.013-.025-.029-.049-.042-.073.013.025.029.049.042.073m-.042-.073c-.323-.561-.649-1.115-.989-1.661.34.547.666,1.1.989,1.661m-17.142-18.989c-.051-.037-.1-.075-.157-.112.055.037.106.075.157.112m-.178-.127c-.047-.034-.093-.068-.144-.1.051.034.1.068.144.1m-.157-.112c-.106-.076-.217-.152-.323-.229.105.076.216.152.323.229m-.335-.235c-.047-.033-.094-.067-.145-.1.051.034.1.068.145.1m-.17-.121c-.047-.031-.093-.063-.136-.093.048.031.089.062.136.093m-.162-.111c-.047-.033-.093-.065-.145-.1.051.033.1.065.145.1m-.225-.156-.055-.036c.021.012.039.024.055.036m-.162-.11-.008,0s0,0,.008,0m-70.025-25.071c-.042-.019-.08-.037-.123-.056.043.018.081.037.123.056" transform="translate(-2308.9 4455.922)" fill="#dedede"/><g transform="translate(1855.583 3271.653)"><g transform="translate(0 0)" clip-path="url(#c)"><path d="M3995.21-1533.1l-109.712-21.54,18.083,20.606-198.726,44.184-8.076,1.8-2.081,6.972-49.258,165.155-114.77,105.677,122.035-99.489.807-.662.552-1.335,63.05-152.727,193.63-33.1-8.938,25.906,93.4-61.445" transform="translate(-3530.671 1554.636)" fill="url(#d)"/></g></g><g transform="translate(2209.612 3337.625)"><g transform="translate(0 0)" clip-path="url(#e)"><path d="M4645.144-1342.743s-.836-6.135-2.1-4.429-.31,6.838-.31,6.838l2.406-2.409" transform="translate(-4642.395 1347.472)" fill="url(#f)"/></g></g><g transform="translate(2101.853 3353.916)"><g transform="translate(0 0)" clip-path="url(#g)"><path d="M4339.978-1281.685c-5.7-6.029-12.87-12.38-21.179-14.234a13.845,13.845,0,0,0-11.643,2.287c-5.061,3.866-2.951,8.907-.416,13.845-4.03-1.265-2.879,2.487-1.143,4.557,1.448,1.726,3.351,2.287,5.456,2.723,2.356,3.578,4.9,7.038,7.541,10.414.841,1.076,3.138,5.187,4.539,5.59,2.085.6,8.021-2.5,10.059-3.138,3.354-1.047,6.208-2.51,9.562-3.555-3.711-5.912-6.917-11.407-10.627-17.316q3.929-.589,7.851-1.173" transform="translate(-4304.006 1296.315)" fill="url(#h)"/></g></g><path d="M4363.785-1272.884a1.236,1.236,0,0,1-.811,1.556,1.247,1.247,0,0,1-1.559-.815,1.247,1.247,0,0,1,.815-1.555,1.241,1.241,0,0,1,1.554.815" transform="translate(-2241.243 4634.855)" fill="#1b1e42"/><path d="M4533.065-514.132l-10.237.051.072,13.1,31.191-.166-.013-2.242a32.76,32.76,0,0,1-21.014-10.747" transform="translate(-2351.292 4117.135)" fill="#1b1e42"/><path d="M4221.056-514.132l10.237.051-.068,13.1-31.2-.166.012-2.242a32.752,32.752,0,0,0,21.014-10.747" transform="translate(-2131.289 4117.135)" fill="#1b1e42"/><g transform="translate(2036.417 3322.873)"><g transform="translate(0 0)" clip-path="url(#i)"><path d="M4277.9-1364.334c-.45-3.161-1.028-6-1.643-8.6s-1.278-4.947-1.894-7.1c-.65-2.115-1.219-4.068-1.788-5.753s-1.036-3.189-1.452-4.335c-.82-2.34-1.286-3.677-1.286-3.677l-7.542,6.31s.3,1.482.807,4.084c.271,1.3.539,2.875.871,4.675s.653,3.889,1.023,6.132c.326,2.27.679,4.731.955,7.372s.5,5.449.577,8.383a51.238,51.238,0,0,1-.514,8.984,17.94,17.94,0,0,1-2.505,7.236,12.868,12.868,0,0,1-2.033,2.206,23.165,23.165,0,0,1-3.146,2.125,44.951,44.951,0,0,1-7.668,3.306c-2.641.865-5.222,1.611-7.7,2.206-2.471.621-4.828,1.138-7.006,1.585-3.872.81-7.184,1.416-9.667,1.869l.046-.139-68.9.008,0-.008s-1.473.673-4.046,1.834-6.25,2.8-10.641,4.646c-2.195.929-4.573,1.908-7.074,2.856-2.51.979-5.133,1.878-7.817,2.7a39.672,39.672,0,0,1-7.855,1.614,14.671,14.671,0,0,1-3.265-.081,5.986,5.986,0,0,1-2.17-.851c-1.2-.76-2.314-2.822-2.968-5.4a42.242,42.242,0,0,1-1.087-8.339c-.114-2.873-.081-5.718.03-8.435s.3-5.309.479-7.7c.221-2.394.4-4.6.62-6.545s.382-3.634.565-5.054c.343-2.824.407-3.172.407-3.172l-7.783-2.627s-.377,1.582-1.049,4.351c-.339,1.365-.713,3.114-1.163,5.086s-.9,4.211-1.41,6.658c-.471,2.462-.977,5.138-1.423,8.026s-.84,5.985-1.087,9.311a53.035,53.035,0,0,0,.259,10.96,23.818,23.818,0,0,0,.616,3.15l.45,1.643c.174.56.429,1.156.658,1.73a19.362,19.362,0,0,0,4.662,6.9,20.027,20.027,0,0,0,7.618,4.377,28.754,28.754,0,0,0,7.167,1.135,55.256,55.256,0,0,0,11.473-.969c3.367-.624,6.509-1.332,9.362-2.087,2.887-.735,5.537-1.489,7.957-2.2,4.849-1.417,8.781-2.67,11.536-3.539.412-.13.781-.249,1.138-.366,1.023,14.656,4.675,29.267,6.6,38.651,1.847,8.966,6.768,21.99,9.367,33,.051.209.093.418.144.627-.509.491-1.006.97-1.464,1.422-14.717,14.408-24.687,34.941-28.831,55.236-4.679,22.9-1.779,45.957,3.537,67.828q.25.892.548,1.771c1.673-.879,10.182-2.025,10.327-4.152.119-1.839-.833-4.055-1.185-5.83a116.208,116.208,0,0,1-.782-41.037,107.886,107.886,0,0,1,13.223-37.615c6.025-10.148,14.279-20.637,27-19.058,10.258,1.275,15.88,9.112,21.269,17.523a103.036,103.036,0,0,1,14.576,39.149,116.988,116.988,0,0,1-.547,39.784c-.408,2.229-1.244,4.531-1.415,6.794-.187,2.475,8.582,3.528,10.318,4.441q.3-.879.548-1.771c6.377-26.219,9.01-54.224.055-80.828,1.13,3.358,2.892,8.577,3.083,9.151-.123-.368-.968-2.876-3.087-9.163-1.5-4.452-1-2.972-.008-.023-5.55-16.467-14.883-33.42-28.164-44.856a123.605,123.605,0,0,1-3.186-28.8c.154-10.687,3.385-26.295,6.582-39.159,2.692-.853,6.433-2.028,11.019-3.6,2.374-.8,4.976-1.707,7.8-2.784,2.8-1.036,5.876-2.3,9.158-3.781a74.453,74.453,0,0,0,11.112-6.215,51.574,51.574,0,0,0,6.836-5.619,45.106,45.106,0,0,0,7.056-9.126,39.641,39.641,0,0,0,4.047-9.787c.178-.714.387-1.466.522-2.136l.323-1.916a32.2,32.2,0,0,0,.395-3.524,54.467,54.467,0,0,0-.463-11.076" transform="translate(-4098.528 1393.796)" fill="url(#j)"/></g></g><g transform="translate(2185.847 3533.895)"><g transform="translate(0 0)" clip-path="url(#k)"><path d="M4567.762-731.146c.021.07.021.068,0,0" transform="translate(-4567.762 731.146)" fill="url(#l)"/></g></g><g transform="translate(2200.265 3301.435)"><g transform="translate(0 0)" clip-path="url(#m)"><path d="M4620.957-1435.211c2.573-1.5,8.938-8.178,9.792-9.889,1.154-2.318,2.8-9.872,2.8-9.872.386-2.157-2.127-.531-2.917,1.4-.118.293-.31,1.966-.45,2.335.017-3.257-.276-9-.276-9-.255-2.178-2.19.106-2.386,2.187-.081.811.3,3.974.233,5.223a28.548,28.548,0,0,1-1.312-7.138c-.488-2.136-2.165.344-2.14,2.433.017,1.083.467,4.025.586,5.787-.493-1.834-1.321-4.632-1.321-4.632-.708-2.072-2.123.395-1.881,2.467s1.342,6.819-.39,7.91c-4.2,2.649-7.868,7.392-8.25,12.318" transform="translate(-4613.042 1461.116)" fill="url(#n)"/></g></g><g transform="translate(2200.095 3326.719)"><g transform="translate(0 0)" clip-path="url(#o)"><path d="M4621.65-1381.717l-9.142,1.732.28,1.486,9.141-1.737-.28-1.482" transform="translate(-4612.508 1381.717)" fill="url(#p)"/></g></g><g transform="translate(2036.456 3345.846)"><g transform="translate(0 0)" clip-path="url(#q)"><path d="M4100.382-1316.823s-3.074-5.373-1.041-4.787,4.416,5.23,4.416,5.23l-3.375-.444" transform="translate(-4098.646 1321.655)" fill="url(#r)"/></g></g><g transform="translate(2021.415 3339.832)"><g transform="translate(0 0)" clip-path="url(#s)"><path d="M4080.3-1324.2c-1.6-5.091-8.322-6.62-13.286-6.49-2.046.056-3.766-4.5-4.717-6.359s-3.5-3.122-2.934-1.01c0,0,.866,2.789,1.478,4.586-.887-1.53-2.145-4.229-2.734-5.136-1.138-1.754-3.911-2.879-3.129-.832a28.616,28.616,0,0,1,2.879,6.661c-.756-1-2.2-3.843-2.713-4.472-1.32-1.62-4.2-2.439-3.2-.491,0,0,2.951,4.938,4.776,7.631-.323-.226-1.41-1.512-1.673-1.689-1.728-1.17-4.721-1.124-3.206.453,0,0,5.567,5.372,7.809,6.655,1.664.949,10.662,2.958,13.638,2.786" transform="translate(-4051.42 1340.54)" fill="url(#t)"/></g></g><g transform="translate(2041.253 3355.946)"><g transform="translate(0 0)" clip-path="url(#u)"><path d="M4122.851-1289.941l-9.142,1.733.285,1.483,9.137-1.736-.28-1.48" transform="translate(-4113.709 1289.941)" fill="url(#v)"/></g></g><g transform="translate(2112.976 3389.133)"><g transform="translate(0 0)" clip-path="url(#w)"><path d="M4338.936-1185.725l16.606,35.452,12.708-35.394c-9.027-.014-19.7-.037-29.314-.058" transform="translate(-4338.936 1185.725)" fill="url(#x)"/></g></g><path d="M4379.487-1150.055l5.521-15.374L4381-1177.313l4.068-3.022-5.308-5.07-5.07,5.306,4.434,2.766-5.053,15.715,5.417,11.563" transform="translate(-2249.906 4574.64)" fill="#231f20"/><g transform="translate(2112.976 3389.133)"><g transform="translate(0 0)" clip-path="url(#y)"><path d="M4338.936-1185.725l5.673,12.118c3.193-3.378,11.2-12.016,11.2-12.016l9.206,8.957,3.231-9c-9.027-.014-19.7-.037-29.314-.058" transform="translate(-4338.936 1185.725)" fill="url(#z)"/></g></g></g></g></svg>