<svg xmlns="http://www.w3.org/2000/svg" xmlns:xlink="http://www.w3.org/1999/xlink" width="560.504" height="350.379" viewBox="0 0 560.504 350.379"><defs><clipPath id="a"><path d="M2356.823-967.082l-105.732-43.206,12.151,20.933-69.032,2.236-9.108.3-5.027,5.536L2075.218-865.768l-125.762-85.069-2.243-1.515-2.2.724-135.682,44.662,135.9-34.207,124.94,99.986,7.312,5.849,7.754-6.968,116.354-104.5,61.659,2-12.152,20.922Z" transform="translate(-1809.329 1010.288)"/></clipPath><linearGradient id="b" x1="-1.29" y1="2.254" x2="-1.29" y2="2.254" gradientUnits="objectBoundingBox"><stop offset="0" stop-color="#468693"/><stop offset="0.636" stop-color="#36bdd8"/><stop offset="1" stop-color="#05cbf2"/></linearGradient><clipPath id="c"><path d="M2825.26-1232.6c3.346-3.32,19.458-12.807,17.475-.735l11.553,1.651c-5.245,6.875-10.668,8-19,6.977-6.281-.777-6.578-2.6-10.028-7.893Z" transform="translate(-2825.26 1239.283)"/></clipPath><linearGradient id="d" x1="-37.988" y1="32.448" x2="-37.986" y2="32.448" gradientUnits="objectBoundingBox"><stop offset="0" stop-color="#ffe1c0"/><stop offset="1" stop-color="#fab393"/></linearGradient><clipPath id="e"><path d="M2823.14-1214.534l-4.507-7.643,2.946-1.741,4.511,7.643Z" transform="translate(-2818.633 1223.918)"/></clipPath><linearGradient id="f" x1="-147.522" y1="50.906" x2="-147.516" y2="50.906" gradientUnits="objectBoundingBox"><stop offset="0" stop-color="#e6e7e8"/><stop offset="0.544" stop-color="#e6e7e8"/><stop offset="1" stop-color="#bcbec0"/></linearGradient><clipPath id="g"><path d="M2052.83-1373.456c.973-4.293,3.56-13.489.037-17.116-2.488-2.561-5.834,1.52-8.176,1.78-2.5.281-5.6-.937-7.916-1.842-12.381-4.835-6.193,9.752.234,13.427C2042.016-1374.351,2047.231-1374.106,2052.83-1373.456Z" transform="translate(-2029.645 1391.606)"/></clipPath><linearGradient id="h" x1="-31.668" y1="29.925" x2="-31.666" y2="29.925" xlink:href="#d"/><clipPath id="i"><path d="M2076.3-1353.079l5.985-6.557,2.529,2.306-5.984,6.557Z" transform="translate(-2076.302 1359.637)"/></clipPath><linearGradient id="j" x1="-95.185" y1="59.879" x2="-95.179" y2="59.879" xlink:href="#f"/><clipPath id="k"><path d="M2369.311-1328.488c-.635-1.121-1.333-.167-2.4.379a95.785,95.785,0,0,1-9.139,4.146,72.734,72.734,0,0,1-20.947,4.671c-20.353,1.4-35.518-2.491-51.989-17.33-4.72-4.255-13.552-19.481-13.552-19.481q-36.987-20.736-73.971-41.48l-.021.062-.011-.026c-2.711,1.952-22.992,19.823-36.293,24.766-14.155,5.263-29.19,7.353-43.985,4.69a77.917,77.917,0,0,1-28.8-11.742c-.442-.291-2.54-2.134-3.1-2.035-.4.078-1.249,1.468-1.5,1.764q-2.327,2.74-4.653,5.47a117.544,117.544,0,0,0,20.348,14.1,87.037,87.037,0,0,0,29.361,9.219,101.631,101.631,0,0,0,30.7-.991c9.487-1.638,18.267-5.446,26.78-9.77q-5.2,16.507-10.392,33.014c-4.142,13.231-8.3,26.456-12.308,39.725a74.8,74.8,0,0,0-2.264,7.831c-.052.295.067.356.229.769.562,1.459,1.015,2.943,1.5,4.431,1.114,3.421,2.108,6.885,3.066,10.354,2.035,7.424,3.528,14.9,5.1,22.422a123.583,123.583,0,0,1,2.259,17.6c.172,2.725.437,5.48.4,8.215-.021,1.3.484,2.785-.879,3.129-1.395.352-2.81.636-4.21.951a106.871,106.871,0,0,1-34.883,1.648,113.359,113.359,0,0,1-33.374-8.813,46.486,46.486,0,0,0-4.3-1.9c-.5.848-1.015,1.7-1.52,2.545q-1.9,3.175-3.8,6.352c14.577,8.639,30.533,15.564,47.436,18a144.5,144.5,0,0,0,29.086,1.553c4.283-.225,8.53-.73,12.766-1.373,2.691-.422,6.739-1.891,9.144-1.693.385-1.539,1.686-3.2,2.451-4.623a68.394,68.394,0,0,0,2.967-6.554,84.961,84.961,0,0,0,4.5-16.407,98.483,98.483,0,0,0-.141-33.651c36.424,22.463,54.4,68.141,47.634,109.673a82.62,82.62,0,0,1-4.491,17.145c-.624,1.57,2.03,1.864,3.341,2.452q3.887,1.731,7.77,3.465c1.051-2.5,2.17-5,3.029-7.577a131.434,131.434,0,0,0-.744-90.792,133.025,133.025,0,0,0-25.022-40.563,123.4,123.4,0,0,0-16.752-15.421q-1.093-.835-2.212-1.65.422-1.129.875-2.246c.614-1.524,1.28-3.029,1.983-4.516,1.582-3.36,3.362-6.629,5.266-9.819,9.321-15.608,21.1-29.537,34.16-42.137a105.8,105.8,0,0,0,17.236,20.275c-2.43-2.12-7.145-6.116,1.14,1.039,12.188,8.2,26.567,12.9,41.118,14.447,15.321,1.626,30.288-1.255,44.474-6.987,5.662-2.287,10.783-5.727,15.857-9.065.156-.1-3.914-6.963-4.309-7.66Z" transform="translate(-2078.941 1397.583)"/></clipPath><linearGradient id="l" x1="-2.754" y1="2.007" x2="-2.753" y2="2.007" gradientUnits="objectBoundingBox"><stop offset="0" stop-color="#40526f"/><stop offset="0.556" stop-color="#1b1e42"/><stop offset="0.993" stop-color="#1b1e42"/><stop offset="1" stop-color="#1b1e42"/></linearGradient><clipPath id="m"><path d="M2477.384-1422.145c-.359-10.158-1.822-21.81-7.962-30.246a16.971,16.971,0,0,0-12.563-7.322c-7.785-.541-9.929,5.8-11.594,12.4-2.68-4.429-4.663-.042-4.741,3.268-.068,2.758,1.233,4.814,2.815,6.921-.729,5.2-1.187,10.445-1.5,15.691-.094,1.67-1.312,7.312-.349,8.816,1.436,2.241,9.4,4.2,11.8,5.26,3.934,1.752,7.743,2.718,11.673,4.472,1.374-8.441,2.878-16.1,4.251-24.538Q2473.3-1424.783,2477.384-1422.145Z" transform="translate(-2440.521 1459.746)"/></clipPath><linearGradient id="n" x1="-25.84" y1="10.02" x2="-25.839" y2="10.02" xlink:href="#d"/><clipPath id="o"><path d="M2429-1368.4l-3.284,47.869,34.659-30.376C2450.71-1356.287,2439.286-1362.657,2429-1368.4Z" transform="translate(-2425.714 1368.397)"/></clipPath><linearGradient id="p" x1="-27.317" y1="11.158" x2="-27.315" y2="11.158" gradientUnits="objectBoundingBox"><stop offset="0" stop-color="#e6e7e8"/><stop offset="0.418" stop-color="#e6e7e8"/><stop offset="0.769" stop-color="#bcbec0"/><stop offset="1" stop-color="#bcbec0"/></linearGradient><clipPath id="q"><path d="M2432.371-1368.4l-1.124,16.362c5.428-1.724,19.151-6.214,19.151-6.214l4.538,15.071,8.81-7.726C2454.083-1356.287,2442.66-1362.657,2432.371-1368.4Z" transform="translate(-2431.247 1368.397)"/></clipPath><linearGradient id="r" x1="-29.198" y1="21.179" x2="-29.197" y2="21.179" xlink:href="#f"/><clipPath id="s"><path d="M1776-1440.212l550.085,110.125,1.129-5.648-550.085-110.129Z" transform="translate(-1775.996 1445.863)"/></clipPath><radialGradient id="t" cx="0.301" cy="0.863" r="1.713" gradientTransform="matrix(-0.206, -0.196, -0.026, 0.62, -1.361, 6.659)" gradientUnits="objectBoundingBox"><stop offset="0" stop-color="#d4c48e"/><stop offset="0.107" stop-color="#d4c48e"/><stop offset="1" stop-color="#817345"/></radialGradient><clipPath id="u"><path d="M2532.716-721.134C2531.836-718.5,2533.179-722.44,2532.716-721.134Z" transform="translate(-2532.41 721.407)"/></clipPath><linearGradient id="v" x1="-2432.335" y1="234.055" x2="-2432.207" y2="234.055" xlink:href="#l"/></defs><g transform="translate(-242 -2708.776)"><g transform="translate(255.01 2884.203)"><g transform="translate(0 0)" clip-path="url(#a)"><path d="M2356.823-967.082l-105.732-43.206,12.151,20.933-69.032,2.236-9.108.3-5.027,5.536L2075.218-865.768l-125.762-85.069-2.243-1.515-2.2.724-135.682,44.662,135.9-34.207,124.94,99.986,7.312,5.849,7.754-6.968,116.354-104.5,61.659,2-12.152,20.922,105.732-43.2" transform="translate(-1809.329 1010.288)" fill="url(#b)"/></g></g><g transform="translate(651.537 2794.824)"><g transform="translate(0 0)" clip-path="url(#c)"><path d="M2825.26-1232.6c3.346-3.32,19.458-12.807,17.475-.735l11.553,1.651c-5.245,6.875-10.668,8-19,6.977-6.281-.777-6.578-2.6-10.028-7.893" transform="translate(-2825.26 1239.283)" fill="url(#d)"/></g></g><g transform="translate(648.951 2800.822)"><g transform="translate(0 0)" clip-path="url(#e)"><path d="M2823.14-1214.534l-4.507-7.643,2.946-1.741,4.511,7.643-2.95,1.741" transform="translate(-2818.633 1223.918)" fill="url(#f)"/></g></g><g transform="translate(341.002 2735.371)"><g transform="translate(0 0)" clip-path="url(#g)"><path d="M2052.83-1373.456c.973-4.293,3.56-13.489.037-17.116-2.488-2.561-5.834,1.52-8.176,1.78-2.5.281-5.6-.937-7.916-1.842-12.381-4.835-6.193,9.752.234,13.427,5.006,2.857,10.221,3.1,15.82,3.752" transform="translate(-2029.645 1391.606)" fill="url(#h)"/></g></g><g transform="translate(359.211 2747.85)"><g transform="translate(0 0)" clip-path="url(#i)"><path d="M2076.3-1353.079l5.985-6.557,2.529,2.306-5.984,6.557-2.53-2.305" transform="translate(-2076.302 1359.637)" fill="url(#j)"/></g></g><g transform="translate(360.242 2733.039)"><g transform="translate(0 0)" clip-path="url(#k)"><path d="M2369.311-1328.488c-.635-1.121-1.333-.167-2.4.379a95.785,95.785,0,0,1-9.139,4.146,72.734,72.734,0,0,1-20.947,4.671c-20.353,1.4-35.518-2.491-51.989-17.33-4.72-4.255-13.552-19.481-13.552-19.481q-36.987-20.736-73.971-41.48l-.021.062-.011-.026c-2.711,1.952-22.992,19.823-36.293,24.766-14.155,5.263-29.19,7.353-43.985,4.69a77.917,77.917,0,0,1-28.8-11.742c-.442-.291-2.54-2.134-3.1-2.035-.4.078-1.249,1.468-1.5,1.764q-2.327,2.74-4.653,5.47a117.544,117.544,0,0,0,20.348,14.1,87.037,87.037,0,0,0,29.361,9.219,101.631,101.631,0,0,0,30.7-.991c9.487-1.638,18.267-5.446,26.78-9.77q-5.2,16.507-10.392,33.014c-4.142,13.231-8.3,26.456-12.308,39.725a74.8,74.8,0,0,0-2.264,7.831c-.052.295.067.356.229.769.562,1.459,1.015,2.943,1.5,4.431,1.114,3.421,2.108,6.885,3.066,10.354,2.035,7.424,3.528,14.9,5.1,22.422a123.583,123.583,0,0,1,2.259,17.6c.172,2.725.437,5.48.4,8.215-.021,1.3.484,2.785-.879,3.129-1.395.352-2.81.636-4.21.951a106.871,106.871,0,0,1-34.883,1.648,113.359,113.359,0,0,1-33.374-8.813,46.486,46.486,0,0,0-4.3-1.9c-.5.848-1.015,1.7-1.52,2.545q-1.9,3.175-3.8,6.352c14.577,8.639,30.533,15.564,47.436,18a144.5,144.5,0,0,0,29.086,1.553c4.283-.225,8.53-.73,12.766-1.373,2.691-.422,6.739-1.891,9.144-1.693.385-1.539,1.686-3.2,2.451-4.623a68.394,68.394,0,0,0,2.967-6.554,84.961,84.961,0,0,0,4.5-16.407,98.483,98.483,0,0,0-.141-33.651c36.424,22.463,54.4,68.141,47.634,109.673a82.62,82.62,0,0,1-4.491,17.145c-.624,1.57,2.03,1.864,3.341,2.452q3.887,1.731,7.77,3.465c1.051-2.5,2.17-5,3.029-7.577a131.434,131.434,0,0,0-.744-90.792,133.025,133.025,0,0,0-25.022-40.563,123.4,123.4,0,0,0-16.752-15.421q-1.093-.835-2.212-1.65.422-1.129.875-2.246c.614-1.524,1.28-3.029,1.983-4.516,1.582-3.36,3.362-6.629,5.266-9.819,9.321-15.608,21.1-29.537,34.16-42.137a105.8,105.8,0,0,0,17.236,20.275c-2.43-2.12-7.145-6.116,1.14,1.039,12.188,8.2,26.567,12.9,41.118,14.447,15.321,1.626,30.288-1.255,44.474-6.987,5.662-2.287,10.783-5.727,15.857-9.065.156-.1-3.914-6.963-4.309-7.66" transform="translate(-2078.941 1397.583)" fill="url(#l)"/></g></g><g transform="translate(501.371 2708.775)"><g transform="translate(-0.001 0)" clip-path="url(#m)"><path d="M2477.384-1422.145c-.359-10.158-1.822-21.81-7.962-30.246a16.971,16.971,0,0,0-12.563-7.322c-7.785-.541-9.929,5.8-11.594,12.4-2.68-4.429-4.663-.042-4.741,3.268-.068,2.758,1.233,4.814,2.815,6.921-.729,5.2-1.187,10.445-1.5,15.691-.094,1.67-1.312,7.312-.349,8.816,1.436,2.241,9.4,4.2,11.8,5.26,3.934,1.752,7.743,2.718,11.673,4.472,1.374-8.441,2.878-16.1,4.251-24.538q4.083,2.639,8.171,5.277" transform="translate(-2440.521 1459.746)" fill="url(#n)"/></g></g><path d="M2508.912-1414.938a1.519,1.519,0,0,1-2.009.77,1.515,1.515,0,0,1-.77-2.009,1.528,1.528,0,0,1,2.009-.77,1.523,1.523,0,0,1,.77,2.009" transform="translate(-1979.072 4142.506)" fill="#1b1e42"/><path d="M2500.378-713.055l-12.053-3.488-4.465,15.423,36.725,10.629.765-2.64a40.118,40.118,0,0,1-20.973-19.924" transform="translate(-1965.574 3715.398)" fill="#1b1e42"/><path d="M2098.987-937.77l5.8-11.131-14.244-7.414L2072.888-922.4l2.441,1.269a40.12,40.12,0,0,1,23.658-16.637" transform="translate(-1715.009 3861.584)" fill="#1b1e42"/><g transform="translate(495.592 2744.43)"><g transform="translate(-0.001 0)" clip-path="url(#o)"><path d="M2429-1368.4l-3.284,47.869,34.659-30.376c-9.664-5.383-21.087-11.752-31.375-17.493" transform="translate(-2425.714 1368.397)" fill="url(#p)"/></g></g><path d="M2425.714-1304.676l15.05-13.2,2.779-15.116,6.151-.821-2.669-8.587-8.587,2.664,3.1,5.6-14.759,13.838-1.067,15.615" transform="translate(-1930.123 4096.976)" fill="#231f20"/><g transform="translate(497.75 2744.43)"><g transform="translate(0.001 0)" clip-path="url(#q)"><path d="M2432.371-1368.4l-1.124,16.362c5.428-1.724,19.151-6.214,19.151-6.214l4.538,15.071,8.81-7.726c-9.664-5.383-21.087-11.752-31.375-17.493" transform="translate(-2431.247 1368.397)" fill="url(#r)"/></g></g><g transform="translate(242 2714.194)"><g transform="translate(0 0)" clip-path="url(#s)"><path d="M1776-1440.212l550.085,110.125,1.129-5.648-550.086-110.129-1.129,5.652" transform="translate(-1775.995 1445.863)" fill="url(#t)"/></g></g><g transform="translate(454.236 2743.957)"><g transform="translate(0 0)" clip-path="url(#u)"><path d="M2532.716-721.134c-.879,2.635.463-1.307,0,0" transform="translate(-2532.41 721.407)" fill="url(#v)"/></g></g></g></svg>