<svg xmlns="http://www.w3.org/2000/svg" xmlns:xlink="http://www.w3.org/1999/xlink" width="547" height="449.779" viewBox="0 0 547 449.779"><defs><linearGradient id="a" x1="-4.275" y1="4.955" x2="-4.274" y2="4.955" gradientUnits="objectBoundingBox"><stop offset="0" stop-color="#6a5f39"/><stop offset="0.748" stop-color="#aea276"/><stop offset="1" stop-color="#09b2d3"/></linearGradient><clipPath id="b"><path d="M852.138-527.865C852.248-529.26,851.868-525.08,852.138-527.865Z" transform="translate(-852.039 528.159)"/></clipPath><linearGradient id="c" x1="-2804.833" y1="163.074" x2="-2804.394" y2="163.074" gradientUnits="objectBoundingBox"><stop offset="0" stop-color="#40526f"/><stop offset="0.556" stop-color="#1b1e42"/><stop offset="0.993" stop-color="#1b1e42"/><stop offset="1" stop-color="#1b1e42"/></linearGradient><clipPath id="d"><path d="M864.181-857.637l-12.528-1.736c-.024.021-.046.037-.07.058.037-1.946.09-3.9.278-5.827a132.435,132.435,0,0,1,37.951-83.271,134.054,134.054,0,0,1,39.677-27.069,124.458,124.458,0,0,1,21.749-7.319q1.355-.319,2.71-.614c.055-.806.093-1.614.122-2.424q.086-2.483.028-4.971c-.082-3.745-.376-7.483-.82-11.2a204.646,204.646,0,0,0-13.249-50.535,42.86,42.86,0,0,1-7.638.615c-4.8,0-9.633-.556-14.367-.77a77.469,77.469,0,0,0,7.373-23.783c1.425.072,2.786.126,4.026.163h0q42.558-3.908,85.116-7.825l-.012.076c10.14,4.716,20.961,11.3,28.45,18.36,16.259,19.706,19.113,46.331,9.084,69.532-2.586,5.993-6.294,11.11-10.228,16.275a.117.117,0,0,1-.094.029c-.842,0-6.468-2.915-7.109-3.21-2.363-1.091.778-3.863,3.034-8.128a50.88,50.88,0,0,0,5.544-19.842,49.658,49.658,0,0,0-6.928-29.512c-6.293-10.488-14.173-16.078-24.231-21.953q-2.877,25.155-5.784,50.3c-1.62,13.878-3.223,27.756-4.976,41.619a75.6,75.6,0,0,1-1.133,8.135c-.072.294-.2.3-.52.614-1.122,1.114-2.148,2.294-3.2,3.464-2.432,2.693-4.769,5.472-7.067,8.273-4.923,6-9.365,12.264-13.9,18.546a126.009,126.009,0,0,0-9.307,15.271c-1.273,2.438-2.646,4.868-3.733,7.4-.512,1.2-1.585,2.368-.473,3.242,1.14.9,2.323,1.738,3.485,2.6a107.691,107.691,0,0,0,31.437,15.832A118.237,118.237,0,0,0,1022.6-882l.72,11.848q-2.793.1-5.59.1a115.5,115.5,0,0,1-31.585-4.086,145.59,145.59,0,0,1-27.407-10.511c-3.851-1.962-7.554-4.17-11.19-6.5-2.3-1.49-5.429-4.505-7.727-5.308.284-1.574-.237-3.636-.355-5.265a67.915,67.915,0,0,1-.04-7.249,85.492,85.492,0,0,1,2.589-16.952,99.354,99.354,0,0,1,13.94-30.918c-42.748,5.726-78.048,40.4-88.861,81.405a83.211,83.211,0,0,0-2.9,17.623,1.464,1.464,0,0,1-.018.178" transform="translate(-851.583 1084.148)"/></clipPath><linearGradient id="e" x1="-1.624" y1="1.883" x2="-1.624" y2="1.883" xlink:href="#c"/><clipPath id="f"><path d="M1112.4-1156.973c4.5-9.2,10.623-19.328,19.741-24.574a17.116,17.116,0,0,1,14.572-1.587c7.389,2.7,6.755,9.419,5.582,16.175,4.285-2.974,4.307,1.877,3.023,4.957-1.073,2.568-3.112,3.928-5.435,5.215-1.463,5.089-3.188,10.1-5.06,15.057-.6,1.578-1.789,7.27-3.295,8.26-2.242,1.475-10.38,0-13.019,0-4.339,0-8.242-.676-12.585-.676,2.2-8.335,3.963-15.994,6.164-24.329l-9.687,1.5Z" transform="translate(-1112.401 1184.102)"/></clipPath><linearGradient id="g" x1="-10.023" y1="9.082" x2="-10.022" y2="9.082" gradientUnits="objectBoundingBox"><stop offset="0" stop-color="#ffe1c0"/><stop offset="1" stop-color="#fab393"/></linearGradient><clipPath id="h"><path d="M1149.944-1078.583l-16.514,45.452-19.545-42.139C1124.99-1076.288,1138.12-1077.493,1149.944-1078.583Z" transform="translate(-1113.885 1078.583)"/></clipPath><linearGradient id="i" x1="-12.152" y1="9.335" x2="-12.15" y2="9.335" gradientUnits="objectBoundingBox"><stop offset="0" stop-color="#e6e7e8"/><stop offset="0.418" stop-color="#e6e7e8"/><stop offset="0.769" stop-color="#bcbec0"/><stop offset="1" stop-color="#bcbec0"/></linearGradient><clipPath id="j"><path d="M1149.944-1078.583l-5.648,15.537c-4.3-3.806-15.112-13.546-15.112-13.546l-10.33,12.036-4.97-10.714C1124.99-1076.288,1138.12-1077.493,1149.944-1078.583Z" transform="translate(-1113.885 1078.583)"/></clipPath><linearGradient id="k" x1="-12.152" y1="27.308" x2="-12.15" y2="27.308" gradientUnits="objectBoundingBox"><stop offset="0" stop-color="#e6e7e8"/><stop offset="0.544" stop-color="#e6e7e8"/><stop offset="1" stop-color="#bcbec0"/></linearGradient><clipPath id="l"><path d="M1300.815-827.445s-10.874,7.524-7.946,11.8c4.092,5.959,6.045,3.21,6.045,3.21l-.412,7.429s11.316-2.038,10.991-7.723c-.54-9.46-1.687-10.328-1.687-10.328Z" transform="translate(-1292.369 827.445)"/></clipPath><linearGradient id="m" x1="-29.674" y1="14.508" x2="-29.671" y2="14.508" xlink:href="#g"/><clipPath id="n"><path d="M1321.718-829.444l-8.375-4.9-1.836,3.023,8.017,4.478Z" transform="translate(-1311.507 834.341)"/></clipPath><linearGradient id="o" x1="-50.528" y1="43.756" x2="-50.523" y2="43.756" xlink:href="#k"/><clipPath id="p"><path d="M825.856-1214.054s1.718-13.114-3.417-13.807c-7.16-.968-6.436,2.326-6.436,2.326l-5.231-5.294s-6.085,9.763-1.649,13.335c7.374,5.948,8.792,5.677,8.792,5.677Z" transform="translate(-807.505 1230.829)"/></clipPath><linearGradient id="q" x1="-17.053" y1="25.464" x2="-17.05" y2="25.464" xlink:href="#g"/><clipPath id="r"><path d="M833.1-1184.208l9.735-2.72-1.173-3.7-9.648,3.029Z" transform="translate(-832.019 1190.624)"/></clipPath><linearGradient id="s" x1="-30.248" y1="73.003" x2="-30.243" y2="73.003" xlink:href="#k"/><clipPath id="t"><path d="M322.15-479.545c-149.093,0-269.947-4.317-269.947-9.651s120.855-9.656,269.947-9.656c12.256,0,24.332.031,36.156.089a39.987,39.987,0,0,1-17.8,4.2q-.628,0-1.259-.016l-.38,2.743,38.168,5.287,1.676-12.084c73.3.556,135.58,2.182,173.6,4.4a39.782,39.782,0,0,1,1.065,4.621l2.765-.163-.257-4.248c23.02,1.421,36.2,3.074,36.2,4.836,0,5.334-120.851,9.651-269.933,9.651" transform="translate(-52.203 498.852)"/></clipPath><linearGradient id="u" x1="-0.038" y1="10.164" x2="-0.038" y2="10.164" gradientUnits="objectBoundingBox"><stop offset="0" stop-color="#f6f6f6"/><stop offset="0.073" stop-color="#f6f6f6"/><stop offset="0.806" stop-color="#c7c9ca"/><stop offset="0.989" stop-color="#f6f6f6"/><stop offset="1" stop-color="#f6f6f6"/></linearGradient><clipPath id="v"><path d="M819.1-486.415,780.93-491.7l.38-2.743q.631.016,1.259.016a39.988,39.988,0,0,0,17.8-4.2q10.336.047,20.4.126L819.1-486.415" transform="translate(-780.93 498.625)"/></clipPath><linearGradient id="w" x1="-7.71" y1="16.064" x2="-7.709" y2="16.064" gradientUnits="objectBoundingBox"><stop offset="0" stop-color="#1a1d40"/><stop offset="0.073" stop-color="#1a1d40"/><stop offset="0.806" stop-color="#151834"/><stop offset="0.989" stop-color="#1a1d40"/><stop offset="1" stop-color="#1a1d40"/></linearGradient><clipPath id="x"><path d="M1324.594-482.511a39.8,39.8,0,0,0-1.065-4.621c1.216.068,2.407.142,3.572.21l.257,4.248-2.765.163" transform="translate(-1323.529 487.132)"/></clipPath><linearGradient id="y" x1="-135.941" y1="41.47" x2="-135.927" y2="41.47" xlink:href="#w"/><clipPath id="z"><path d="M723.648-1134.359h0m-.129,0h0m6.049-.193h0m.1-.007.035,0-.035,0m.094-.007.066-.005-.066.005m.091-.007a78.024,78.024,0,0,0,8.378-1.085q.544-.1,1.086-.209l.032-.006.051-.01q.8-.161,1.6-.34a77.875,77.875,0,0,1-11.151,1.65m11.192-1.66.06-.013-.06.013m-46.829-4.054a77.375,77.375,0,0,1-25.542-17.268,77.4,77.4,0,0,1-22.287-55.09,77.4,77.4,0,0,1,23.193-54.716,77.4,77.4,0,0,1,54.45-22.29c.215,0,.426,0,.641,0a77.389,77.389,0,0,1,54.714,23.2h0L724.029-1212l-29.812,71.716m85.709-17.821a77.949,77.949,0,0,0,6.74-7.987q.962-1.309,1.863-2.649h0a77.15,77.15,0,0,0,7.221-13.45,77.882,77.882,0,0,0,5.926-29.167,78.113,78.113,0,0,1-.756,10.215,77.472,77.472,0,0,1-7.373,23.783,77.429,77.429,0,0,1-13.621,19.255m21.75-53.252a78.086,78.086,0,0,0-2.1-18.63,78,78,0,0,1,2.1,18.63m-4.815-27.617q-.305-.827-.63-1.647-.253-.641-.518-1.276.6,1.452,1.149,2.923" transform="translate(-646.385 1289.65)"/></clipPath><linearGradient id="aa" x1="-1.637" y1="3.267" x2="-1.637" y2="3.267" gradientUnits="objectBoundingBox"><stop offset="0" stop-color="#817345"/><stop offset="0.748" stop-color="#d4c48e"/><stop offset="1" stop-color="#7bf5f5"/></linearGradient><clipPath id="ab"><path d="M842.8-897.234h-.659l.643,0a78.035,78.035,0,0,0,15.283-1.51q-.542.108-1.086.209a78.077,78.077,0,0,1-8.378,1.085l-.026,0-.066.005-.06,0-.035,0-.09.006h-.011q-2.754.2-5.517.2m15.3-1.516.051-.01-.051.01" transform="translate(-842.145 898.76)"/></clipPath><linearGradient id="ac" x1="-20.692" y1="231.639" x2="-20.689" y2="231.639" gradientUnits="objectBoundingBox"><stop offset="0" stop-color="#6a5f39"/><stop offset="0.748" stop-color="#aea276"/><stop offset="1" stop-color="#aea276"/></linearGradient><clipPath id="ad"><path d="M1002.994-979.647q.962-1.309,1.862-2.649h0q-.9,1.34-1.863,2.649" transform="translate(-1002.994 982.296)"/></clipPath><linearGradient id="ae" x1="-211.781" y1="145.858" x2="-211.753" y2="145.858" xlink:href="#ac"/><clipPath id="af"><path d="M809.259-898.2l-.016,0,.016,0m-.027,0a77.94,77.94,0,0,1-8.484-1.4q.73.162,1.461.31,3.489.706,7.022,1.09" transform="translate(-800.749 899.603)"/></clipPath><linearGradient id="ag" x1="-37.012" y1="252.322" x2="-37.006" y2="252.322" gradientUnits="objectBoundingBox"><stop offset="0" stop-color="#574f2f"/><stop offset="0.748" stop-color="#8f8662"/><stop offset="1" stop-color="#8f8662"/></linearGradient><clipPath id="ah"><path d="M882.631-898.729l.032-.006-.032.006" transform="translate(-882.631 898.735)"/></clipPath><linearGradient id="ai" x1="-10854.482" y1="56116.285" x2="-10852.842" y2="56116.285" xlink:href="#ac"/><clipPath id="aj"><path d="M882.843-900.2q1.993-.4,3.967-.906-1.128.289-2.263.543l-.06.013-.04.009q-.8.179-1.6.34m4-.915.066-.017-.066.017" transform="translate(-882.843 901.128)"/></clipPath><linearGradient id="ak" x1="-85.404" y1="380.55" x2="-85.391" y2="380.55" xlink:href="#ac"/><clipPath id="al"><path d="M767.979-1020.548h0l29.812-71.716-14.9,35.856-14.908,35.859" transform="translate(-767.979 1092.264)"/></clipPath><linearGradient id="am" x1="-10.133" y1="5.991" x2="-10.132" y2="5.991" xlink:href="#ag"/><clipPath id="an"><path d="M982.18-966.113a78.293,78.293,0,0,0,8.187-9.448,77.931,77.931,0,0,1-6.74,7.987q-.713.739-1.448,1.462" transform="translate(-982.18 975.562)"/></clipPath><linearGradient id="ao" x1="-47.19" y1="40.617" x2="-47.184" y2="40.617" xlink:href="#ac"/><clipPath id="ap"><path d="M908.265-1132.971l-64.5-43.259,55.356-54.449h0a77.441,77.441,0,0,1,16.327,24.551q.265.636.518,1.276.325.821.63,1.647a77.334,77.334,0,0,1,2.716,8.987,78.088,78.088,0,0,1,2.1,18.63h0a77.881,77.881,0,0,1-5.926,29.167,77.088,77.088,0,0,1-7.221,13.45" transform="translate(-843.766 1230.678)" fill="url(#a)"/></clipPath><linearGradient id="aq" x1="-4.275" y1="4.955" x2="-4.274" y2="4.955" gradientUnits="objectBoundingBox"><stop offset="0" stop-color="#6a5f39"/><stop offset="0.748" stop-color="#aea276"/><stop offset="1" stop-color="#7cd3d9"/></linearGradient><clipPath id="ar"><path d="M842.788-1014.618l-.643,0h0l.638-77.643,64.5,43.259q-.9,1.34-1.863,2.649a78.284,78.284,0,0,1-8.187,9.448h0a77.316,77.316,0,0,1-35.01,19.832l-.066.017-.034.009q-1.974.505-3.967.906l-.051.01-.032.006a78.034,78.034,0,0,1-15.283,1.51" transform="translate(-842.145 1092.264)"/></clipPath><linearGradient id="as" x1="-5.086" y1="5.534" x2="-5.085" y2="5.534" gradientUnits="objectBoundingBox"><stop offset="0" stop-color="#574f2f"/><stop offset="0.748" stop-color="#8f8662"/><stop offset="1" stop-color="#528ae8"/></linearGradient><clipPath id="at"><path d="M797.154-1014.621h0q-3.893-.032-7.774-.453l-.016,0h-.011q-3.529-.385-7.023-1.09-.732-.148-1.461-.309a77.435,77.435,0,0,1-12.891-4.072l14.908-35.859,14.9-35.856-.638,77.643" transform="translate(-767.979 1092.264)"/></clipPath><linearGradient id="au" x1="-10.133" y1="5.534" x2="-10.132" y2="5.534" gradientUnits="objectBoundingBox"><stop offset="0" stop-color="#474127"/><stop offset="0.748" stop-color="#756f51"/><stop offset="1" stop-color="#0c6aba"/></linearGradient><clipPath id="av"><path d="M449.9-1593.156,355.074-1533.8l25.409,2.486-66,102.173-60.806-85.866-5.03-7.1-8.282,2.114-72.935,18.614L34.1-1587.649l124.053,108.673,4.011,3.514,6.06-1.448,69.715-16.659,66.22,95.543,10.054,14.508,11.473-14.372,87.645-109.787,10.431,23.3Z" transform="translate(-34.102 1593.156)"/></clipPath><linearGradient id="aw" x1="-0.032" y1="2.989" x2="-0.032" y2="2.989" gradientUnits="objectBoundingBox"><stop offset="0" stop-color="#145f6e"/><stop offset="0.636" stop-color="#43c9e3"/><stop offset="1" stop-color="#0ac4e8"/></linearGradient></defs><g transform="translate(-232 -4698.511)"><g transform="translate(553.756 5117.454)"><g transform="translate(0 0)" clip-path="url(#b)"><path d="M852.138-527.865c.111-1.4-.27,2.785,0,0" transform="translate(-852.039 528.159)" fill="url(#c)"/></g></g><text transform="translate(716.207 5016.249) rotate(-14)" fill="#b2983e" font-size="86" font-family="SegoeUI, Segoe UI"><tspan x="0" y="0">`</tspan></text><g transform="translate(553.577 4898.743)"><g transform="translate(0 0)" clip-path="url(#d)"><path d="M864.181-857.637l-12.528-1.736c-.024.021-.046.037-.07.058.037-1.946.09-3.9.278-5.827a132.435,132.435,0,0,1,37.951-83.271,134.054,134.054,0,0,1,39.677-27.069,124.458,124.458,0,0,1,21.749-7.319q1.355-.319,2.71-.614c.055-.806.093-1.614.122-2.424q.086-2.483.028-4.971c-.082-3.745-.376-7.483-.82-11.2a204.646,204.646,0,0,0-13.249-50.535,42.86,42.86,0,0,1-7.638.615c-4.8,0-9.633-.556-14.367-.77a77.469,77.469,0,0,0,7.373-23.783c1.425.072,2.786.126,4.026.163h0q42.558-3.908,85.116-7.825l-.012.076c10.14,4.716,20.961,11.3,28.45,18.36,16.259,19.706,19.113,46.331,9.084,69.532-2.586,5.993-6.294,11.11-10.228,16.275a.117.117,0,0,1-.094.029c-.842,0-6.468-2.915-7.109-3.21-2.363-1.091.778-3.863,3.034-8.128a50.88,50.88,0,0,0,5.544-19.842,49.658,49.658,0,0,0-6.928-29.512c-6.293-10.488-14.173-16.078-24.231-21.953q-2.877,25.155-5.784,50.3c-1.62,13.878-3.223,27.756-4.976,41.619a75.6,75.6,0,0,1-1.133,8.135c-.072.294-.2.3-.52.614-1.122,1.114-2.148,2.294-3.2,3.464-2.432,2.693-4.769,5.472-7.067,8.273-4.923,6-9.365,12.264-13.9,18.546a126.009,126.009,0,0,0-9.307,15.271c-1.273,2.438-2.646,4.868-3.733,7.4-.512,1.2-1.585,2.368-.473,3.242,1.14.9,2.323,1.738,3.485,2.6a107.691,107.691,0,0,0,31.437,15.832A118.237,118.237,0,0,0,1022.6-882l.72,11.848q-2.793.1-5.59.1a115.5,115.5,0,0,1-31.585-4.086,145.59,145.59,0,0,1-27.407-10.511c-3.851-1.962-7.554-4.17-11.19-6.5-2.3-1.49-5.429-4.505-7.727-5.308.284-1.574-.237-3.636-.355-5.265a67.915,67.915,0,0,1-.04-7.249,85.492,85.492,0,0,1,2.589-16.952,99.354,99.354,0,0,1,13.94-30.918c-42.748,5.726-78.048,40.4-88.861,81.405a83.211,83.211,0,0,0-2.9,17.623,1.464,1.464,0,0,1-.018.178" transform="translate(-851.583 1084.148)" fill="url(#e)"/></g></g><g transform="translate(656.176 4859.423)"><g transform="translate(0 0)" clip-path="url(#f)"><path d="M1112.4-1156.973c4.5-9.2,10.623-19.328,19.741-24.574a17.116,17.116,0,0,1,14.572-1.587c7.389,2.7,6.755,9.419,5.582,16.175,4.285-2.974,4.307,1.877,3.023,4.957-1.073,2.568-3.112,3.928-5.435,5.215-1.463,5.089-3.188,10.1-5.06,15.057-.6,1.578-1.789,7.27-3.295,8.26-2.242,1.475-10.38,0-13.019,0-4.339,0-8.242-.676-12.585-.676,2.2-8.335,3.963-15.994,6.164-24.329l-9.687,1.5" transform="translate(-1112.401 1184.102)" fill="url(#g)"/></g></g><path d="M1151.666-1152.75a1.53,1.53,0,0,0,1.53,1.532,1.533,1.533,0,0,0,1.535-1.532,1.535,1.535,0,0,0-1.535-1.533,1.531,1.531,0,0,0-1.53,1.533" transform="translate(-480.046 6025.437)" fill="#1b1e42"/><path d="M808.793-512.745l12.528,1.736L819.1-494.981l-38.168-5.287.38-2.743a40.482,40.482,0,0,0,27.483-9.735" transform="translate(-255.147 5636.264)" fill="#1b1e42"/><path d="M1287.045-559.98l-.767-12.625,16.153-.981,2.33,38.467-2.765.163a40.435,40.435,0,0,0-14.951-25.024" transform="translate(-561.704 5673.17)" fill="#1b1e42"/><g transform="translate(656.76 4900.932)"><g transform="translate(0 0)" clip-path="url(#h)"><path d="M1149.944-1078.583l-16.514,45.452-19.545-42.139c11.1-1.019,24.234-2.223,36.059-3.313" transform="translate(-1113.885 1078.583)" fill="url(#i)"/></g></g><path d="M1147.823-1030.06l-8.49-18.305,3.617-15.062-5.338-3.269,5.966-6.825,6.827,5.966-5.146,3.892,7.949,18.776-5.385,14.827" transform="translate(-471.519 5976.443)" fill="#231f20"/><g transform="translate(656.76 4900.932)"><g transform="translate(0 0)" clip-path="url(#j)"><path d="M1149.944-1078.583l-5.648,15.537c-4.3-3.806-15.112-13.546-15.112-13.546l-10.33,12.036-4.97-10.714c11.1-1.018,24.234-2.223,36.059-3.313" transform="translate(-1113.885 1078.583)" fill="url(#k)"/></g></g><g transform="translate(726.97 4999.723)"><g transform="translate(0 0)" clip-path="url(#l)"><path d="M1300.815-827.445s-10.874,7.524-7.946,11.8c4.092,5.959,6.045,3.21,6.045,3.21l-.412,7.429s11.316-2.038,10.991-7.723c-.54-9.46-1.687-10.328-1.687-10.328l-6.992-4.384" transform="translate(-1292.369 827.445)" fill="url(#m)"/></g></g><g transform="translate(734.498 4997.01)"><g transform="translate(0 0)" clip-path="url(#n)"><path d="M1321.718-829.444l-8.375-4.9-1.836,3.023,8.017,4.478,2.193-2.6" transform="translate(-1311.507 834.341)" fill="url(#o)"/></g></g><g transform="translate(536.237 4841.042)"><g transform="translate(0 0)" clip-path="url(#p)"><path d="M825.856-1214.054s1.718-13.114-3.417-13.807c-7.16-.968-6.436,2.326-6.436,2.326l-5.231-5.294s-6.085,9.763-1.649,13.335c7.374,5.948,8.792,5.677,8.792,5.677l7.941-2.237" transform="translate(-807.505 1230.829)" fill="url(#q)"/></g></g><g transform="translate(545.881 4856.858)"><g transform="translate(0 0)" clip-path="url(#r)"><path d="M833.1-1184.208l9.735-2.72-1.173-3.7-9.648,3.029,1.086,3.387" transform="translate(-832.019 1190.624)" fill="url(#s)"/></g></g><path d="M619.98-1343.76a1.533,1.533,0,0,0,1.3,1.731,1.532,1.532,0,0,0,1.732-1.306,1.528,1.528,0,0,0-1.3-1.726,1.53,1.53,0,0,0-1.736,1.3" transform="translate(-157.501 6141.177)" fill="#fff"/><path d="M618.423-1332.669a1.528,1.528,0,0,0,1.3,1.731,1.53,1.53,0,0,0,1.732-1.3,1.525,1.525,0,0,0-1.3-1.725,1.527,1.527,0,0,0-1.731,1.3" transform="translate(-156.556 6134.447)" fill="#fff"/><path d="M616.855-1321.58a1.53,1.53,0,0,0,1.3,1.731,1.529,1.529,0,0,0,1.728-1.305,1.527,1.527,0,0,0-1.3-1.728,1.528,1.528,0,0,0-1.731,1.3" transform="translate(-155.606 6127.722)" fill="#fff"/><g transform="translate(239.12 5128.984)"><g transform="translate(0 0)" clip-path="url(#t)"><path d="M322.15-479.545c-149.093,0-269.947-4.317-269.947-9.651s120.855-9.656,269.947-9.656c12.256,0,24.332.031,36.156.089a39.987,39.987,0,0,1-17.8,4.2q-.628,0-1.259-.016l-.38,2.743,38.168,5.287,1.676-12.084c73.3.556,135.58,2.182,173.6,4.4a39.782,39.782,0,0,1,1.065,4.621l2.765-.163-.257-4.248c23.02,1.421,36.2,3.074,36.2,4.836,0,5.334-120.851,9.651-269.933,9.651" transform="translate(-52.203 498.852)" fill="url(#u)"/></g></g><g transform="translate(525.782 5129.073)"><g transform="translate(0 0)" clip-path="url(#v)"><path d="M819.1-486.415,780.93-491.7l.38-2.743q.631.016,1.259.016a39.988,39.988,0,0,0,17.8-4.2q10.336.047,20.4.126L819.1-486.415" transform="translate(-780.93 498.625)" fill="url(#w)"/></g></g><g transform="translate(739.228 5133.593)"><g transform="translate(0 0)" clip-path="url(#x)"><path d="M1324.594-482.511a39.8,39.8,0,0,0-1.065-4.621c1.216.068,2.407.142,3.572.21l.257,4.248-2.765.163" transform="translate(-1323.529 487.132)" fill="url(#y)"/></g></g><g transform="translate(472.857 4817.903)"><g transform="translate(0 0)" clip-path="url(#z)"><path d="M723.648-1134.359h0m-.129,0h0m6.049-.193h0m.1-.007.035,0-.035,0m.094-.007.066-.005-.066.005m.091-.007a78.024,78.024,0,0,0,8.378-1.085q.544-.1,1.086-.209l.032-.006.051-.01q.8-.161,1.6-.34a77.875,77.875,0,0,1-11.151,1.65m11.192-1.66.06-.013-.06.013m-46.829-4.054a77.375,77.375,0,0,1-25.542-17.268,77.4,77.4,0,0,1-22.287-55.09,77.4,77.4,0,0,1,23.193-54.716,77.4,77.4,0,0,1,54.45-22.29c.215,0,.426,0,.641,0a77.389,77.389,0,0,1,54.714,23.2h0L724.029-1212l-29.812,71.716m85.709-17.821a77.949,77.949,0,0,0,6.74-7.987q.962-1.309,1.863-2.649h0a77.15,77.15,0,0,0,7.221-13.45,77.882,77.882,0,0,0,5.926-29.167,78.113,78.113,0,0,1-.756,10.215,77.472,77.472,0,0,1-7.373,23.783,77.429,77.429,0,0,1-13.621,19.255m21.75-53.252a78.086,78.086,0,0,0-2.1-18.63,78,78,0,0,1,2.1,18.63m-4.815-27.617q-.305-.827-.63-1.647-.253-.641-.518-1.276.6,1.452,1.149,2.923" transform="translate(-646.385 1289.65)" fill="url(#aa)"/></g></g><path d="M843.01-895.214H843q2.76,0,5.517-.2-2.75.2-5.507.2m-.435,0h0m5.953-.2.09-.006-.09.006m.124-.009.06,0-.06,0m.125-.009.026,0-.026,0" transform="translate(-292.477 5868.409)" fill="#d1d3d4"/><g transform="translate(549.863 4971.67)"><g transform="translate(0 0)" clip-path="url(#ab)"><path d="M842.8-897.234h-.659l.643,0a78.035,78.035,0,0,0,15.283-1.51q-.542.108-1.086.209a78.077,78.077,0,0,1-8.378,1.085l-.026,0-.066.005-.06,0-.035,0-.09.006h-.011q-2.754.2-5.517.2m15.3-1.516.051-.01-.051.01" transform="translate(-842.145 898.76)" fill="url(#ac)"/></g></g><path d="M779.354-906.694q-2.01-.616-3.993-1.345,1.982.728,3.993,1.345m46.79-.35q2.354-.762,4.667-1.676-2.311.915-4.667,1.676m-50.912-1.042-.005,0,.005,0" transform="translate(-251.689 5876.472)" fill="#d1d3d4"/><path d="M935.454-938.114l0,0,0,0m.048-.025q.665-.35,1.324-.713-.659.364-1.324.713m8.2-4.984a78.086,78.086,0,0,0,10.136-8.42,77.784,77.784,0,0,1-10.136,8.42" transform="translate(-348.884 5902.449)" fill="#d1d3d4"/><g transform="translate(613.137 4938.808)"><g transform="translate(0 0)" clip-path="url(#ad)"><path d="M1002.994-979.647q.962-1.309,1.862-2.649h0q-.9,1.34-1.863,2.649" transform="translate(-1002.994 982.296)" fill="url(#ae)"/></g></g><path d="M807.915-900.153a77.867,77.867,0,0,1-22.2-3.415q2.931.9,5.913,1.56a77.974,77.974,0,0,0,8.484,1.4h.011l.016,0q3.875.42,7.773.453" transform="translate(-258.052 5873.347)" fill="#abafb0"/><g transform="translate(533.579 4971.338)"><g transform="translate(0 0)" clip-path="url(#af)"><path d="M809.259-898.2l-.016,0,.016,0m-.027,0a77.94,77.94,0,0,1-8.484-1.4q.73.162,1.461.31,3.489.706,7.022,1.09" transform="translate(-800.749 899.603)" fill="url(#ag)"/></g></g><g transform="translate(565.79 4971.679)"><g transform="translate(0 0)" clip-path="url(#ah)"><path d="M882.631-898.729l.032-.006-.032.006" transform="translate(-882.631 898.735)" fill="url(#ai)"/></g></g><path d="M886.92-902.557l.04-.009-.04.009m.1-.023q1.135-.255,2.263-.543l.034-.009.066-.017q2.274-.585,4.517-1.31-3.4,1.1-6.88,1.879" transform="translate(-319.444 5873.886)" fill="#d1d3d4"/><g transform="translate(565.874 4970.738)"><g transform="translate(0 0)" clip-path="url(#aj)"><path d="M882.843-900.2q1.993-.4,3.967-.906-1.128.289-2.263.543l-.06.013-.04.009q-.8.179-1.6.34m4-.915.066-.017-.066.017" transform="translate(-882.843 901.128)" fill="url(#ak)"/></g></g><path d="M775.369-907.06l-.129-.047.129.047" transform="translate(-251.695 5875.493)" fill="#abafb0"/><path d="M770.831-908.837q-1.434-.53-2.851-1.118h0q1.416.589,2.851,1.118" transform="translate(-247.291 5877.221)" fill="#abafb0"/><path d="M916.528-913.989h0a77.148,77.148,0,0,0,7.445-3.417,77.216,77.216,0,0,1-7.445,3.417h0" transform="translate(-337.405 5881.741)" fill="#d1d3d4"/><g transform="translate(520.69 4895.55)"><g transform="translate(0 0)" clip-path="url(#al)"><path d="M767.979-1020.548h0l29.812-71.716-14.9,35.856-14.908,35.859" transform="translate(-767.979 1092.264)" fill="url(#am)"/></g></g><path d="M935.46-940.37l.046-.024-.046.024m1.37-.736q2.412-1.329,4.747-2.842,1.072-.695,2.126-1.429a77.186,77.186,0,0,1-6.872,4.271M953.839-953.8h0q.736-.724,1.448-1.462-.712.738-1.448,1.462h0" transform="translate(-348.888 5904.703)" fill="#d1d3d4"/><g transform="translate(604.949 4941.458)"><g transform="translate(0 0)" clip-path="url(#an)"><path d="M982.18-966.113a78.293,78.293,0,0,0,8.187-9.448,77.931,77.931,0,0,1-6.74,7.987q-.713.739-1.448,1.462" transform="translate(-982.18 975.562)" fill="url(#ao)"/></g></g><path d="M1004.678-1194.217a77.328,77.328,0,0,0-2.716-8.987,77.211,77.211,0,0,1,2.716,8.987m-3.864-11.91a77.444,77.444,0,0,0-16.327-24.551,77.393,77.393,0,0,1,16.327,24.551" transform="translate(-378.63 6071.78)" fill="#d1d3d4"/><g transform="translate(550.501 4841.101)"><g transform="translate(0 0)" clip-path="url(#ap)"><path d="M908.265-1132.971l-64.5-43.259,55.356-54.449h0a77.441,77.441,0,0,1,16.327,24.551q.265.636.518,1.276.325.821.63,1.647a77.334,77.334,0,0,1,2.716,8.987,78.088,78.088,0,0,1,2.1,18.63h0a77.881,77.881,0,0,1-5.926,29.167,77.088,77.088,0,0,1-7.221,13.45" transform="translate(-843.766 1230.678)" fill="url(#aq)"/></g></g><path d="M892.927-931.685l.034-.009-.034.009m.1-.026a77.317,77.317,0,0,0,35.01-19.832h0a78.08,78.08,0,0,1-10.136,8.42q-1.054.734-2.126,1.429-2.333,1.514-4.747,2.842-.659.364-1.324.713l-.046.024,0,0a77.206,77.206,0,0,1-7.445,3.417h0q-2.311.915-4.667,1.676-2.242.725-4.517,1.31" transform="translate(-323.087 5902.449)" fill="#abafb0"/><g transform="translate(549.863 4895.55)"><g transform="translate(0 0)" clip-path="url(#ar)"><path d="M842.788-1014.618l-.643,0h0l.638-77.643,64.5,43.259q-.9,1.34-1.863,2.649a78.284,78.284,0,0,1-8.187,9.448h0a77.316,77.316,0,0,1-35.01,19.832l-.066.017-.034.009q-1.974.505-3.967.906l-.051.01-.032.006a78.034,78.034,0,0,1-15.283,1.51" transform="translate(-842.145 1092.264)" fill="url(#as)"/></g></g><path d="M797.154-904.028h0q-3.893-.032-7.774-.453,3.875.42,7.774.453h0m-7.789-.454h0m-8.495-1.4q-2.979-.661-5.913-1.56-2.011-.617-3.993-1.345l-.128-.047-.005,0q-1.434-.53-2.851-1.118h0a77.441,77.441,0,0,0,12.891,4.072" transform="translate(-247.291 5877.221)" fill="#8c9192"/><g transform="translate(520.69 4895.55)"><g transform="translate(0 0)" clip-path="url(#at)"><path d="M797.154-1014.621h0q-3.893-.032-7.774-.453l-.016,0h-.011q-3.529-.385-7.023-1.09-.732-.148-1.461-.309a77.435,77.435,0,0,1-12.891-4.072l14.908-35.859,14.9-35.856-.638,77.643" transform="translate(-767.979 1092.264)" fill="url(#au)"/></g></g><g transform="translate(232 4698.512)"><g transform="translate(0 0)" clip-path="url(#av)"><path d="M449.9-1593.156,355.074-1533.8l25.409,2.486-66,102.173-60.806-85.866-5.03-7.1-8.282,2.114-72.935,18.614L34.1-1587.649l124.053,108.673,4.011,3.514,6.06-1.448,69.715-16.659,66.22,95.543,10.054,14.508,11.473-14.372,87.645-109.787,10.431,23.3L449.9-1593.156" transform="translate(-34.102 1593.156)" fill="url(#aw)"/></g></g></g></svg>