<svg xmlns="http://www.w3.org/2000/svg" width="155" height="161.507" viewBox="0 0 155 161.507"><g transform="translate(-9.35 0.5)"><g transform="translate(9.85 79.939)"><path d="M59.565,255.806a33.232,33.232,0,0,1-4.559-11.2A3.287,3.287,0,0,0,51.769,242H13.153a3.313,3.313,0,0,0-3.3,3.3v.066a3.2,3.2,0,0,0,.033.562,76.341,76.341,0,0,0,17.045,41.192,3.212,3.212,0,0,0,2.378,1.189h.165a3.411,3.411,0,0,0,2.345-.958l27.318-27.384A3.3,3.3,0,0,0,59.565,255.806ZM29.8,280.019a69.564,69.564,0,0,1-12.916-31.414H49.192a39.8,39.8,0,0,0,3.468,8.522Z" transform="translate(-9.85 -241.998)" fill="#23b6d3"/><path d="M51.836,241.5a3.794,3.794,0,0,1,3.659,3v.005a32.587,32.587,0,0,0,4.49,11.03,3.794,3.794,0,0,1-.5,4.785L32.161,287.716a3.908,3.908,0,0,1-2.689,1.095h-.183a3.728,3.728,0,0,1-2.748-1.372A76.841,76.841,0,0,1,9.387,245.994a3.725,3.725,0,0,1-.037-.626V245.3a3.808,3.808,0,0,1,3.8-3.8H51.836Zm2.681,3.214a2.784,2.784,0,0,0-2.737-2.213H13.153a2.806,2.806,0,0,0-2.8,2.8v.066a2.763,2.763,0,0,0,.026.479l0,.034A75.58,75.58,0,0,0,27.314,286.8a2.729,2.729,0,0,0,2,1.007h.156a2.911,2.911,0,0,0,2-.816l27.313-27.379a2.8,2.8,0,0,0,.364-3.537A33.586,33.586,0,0,1,54.517,244.712Zm-38.209,3.393H49.572l.1.366a39.48,39.48,0,0,0,3.425,8.416l.18.329L29.745,280.784l-.345-.467a70.064,70.064,0,0,1-13.009-31.64Zm32.506,1H17.466A69.382,69.382,0,0,0,29.86,279.253l22.183-22.215A40.486,40.486,0,0,1,48.814,249.105Z" transform="translate(-9.85 -241.998)" fill="#23b6d3"/></g><g transform="translate(36.334 102.485)"><g transform="translate(0)"><path d="M133.306,315.287a32.379,32.379,0,0,1-10.868-4.492,3.3,3.3,0,0,0-4.162.429L90.991,338.542a3.29,3.29,0,0,0,0,4.658c.066.066.165.132.231.2a76.343,76.343,0,0,0,41.159,17.045,2.669,2.669,0,0,0,.529.033h.066a3.313,3.313,0,0,0,3.3-3.3V318.557A3.3,3.3,0,0,0,133.306,315.287ZM121.084,317.7a40.169,40.169,0,0,0,8.556,3.5v32.268a69.59,69.59,0,0,1-31.348-12.911Zm13.874-1.586a2.523,2.523,0,0,1,.3.3Z" transform="translate(-90.025 -310.249)" fill="#23b6d3"/><path d="M120.614,309.749h0a3.841,3.841,0,0,1,2.1.626,31.706,31.706,0,0,0,10.673,4.417,3.8,3.8,0,0,1,3.395,3.765v38.616a3.808,3.808,0,0,1-3.8,3.8h-.066a3.216,3.216,0,0,1-.6-.038A76.843,76.843,0,0,1,90.9,343.784l-.036-.033c-.013-.013-.047-.04-.074-.062a1.848,1.848,0,0,1-.157-.136,3.8,3.8,0,0,1,0-5.365l27.285-27.318A3.785,3.785,0,0,1,120.614,309.749Zm14.084,6.6a2.8,2.8,0,0,0-1.44-.568l-.028,0-.028-.006a32.7,32.7,0,0,1-11.036-4.562,2.843,2.843,0,0,0-1.552-.464,2.791,2.791,0,0,0-1.984.828L91.345,338.9a2.8,2.8,0,0,0,0,3.951c.013.013.047.04.074.062.043.034.09.072.137.117a75.551,75.551,0,0,0,40.873,16.92l.025,0,.025,0a2.32,2.32,0,0,0,.43.023h.066a2.806,2.806,0,0,0,2.8-2.8V318.557a2.774,2.774,0,0,0-.758-1.913l-.119.119-.3-.3Zm-13.7.727.329.181a39.679,39.679,0,0,0,8.449,3.458l.366.1v33.226l-.572-.083a70.09,70.09,0,0,1-31.573-13l-.466-.345Zm8.144,4.5a40.688,40.688,0,0,1-7.966-3.262L99.057,340.5a69.382,69.382,0,0,0,30.083,12.389Z" transform="translate(-90.025 -310.249)" fill="#23b6d3"/></g></g><g transform="translate(90.153 0.283)"><path d="M256.814.872a3.3,3.3,0,0,0-3.6,2.973v.3s-.066,9.679-.132,19.324c-.033,4.823-.066,9.679-.1,13.312,0,1.817-.033,3.336-.033,4.393v1.255c-.033,2.643,1.586,3.4,2.544,3.634.033,0,.033,0,.066.033a31.736,31.736,0,0,1,24.477,24.543,3.323,3.323,0,0,0,3.237,2.643l38.715-.066a3.32,3.32,0,0,0,3.3-3.336v-.3A76.7,76.7,0,0,0,256.814.872ZM285.85,66.607a38.378,38.378,0,0,0-26.294-26.36c0-5.781.1-20.513.2-32.339a70.134,70.134,0,0,1,58.468,58.633Z" transform="translate(-252.948 -0.858)" fill="#23b6d3"/><path d="M256.507.358h0c.117,0,.235.005.352.016a77.221,77.221,0,0,1,68.93,69.158l0,.049v.3a3.824,3.824,0,0,1-3.8,3.836l-38.714.066a3.79,3.79,0,0,1-2.409-.866,3.9,3.9,0,0,1-1.318-2.17,31.252,31.252,0,0,0-24.093-24.161l-.145-.031-.029-.029a3.784,3.784,0,0,1-1.794-1.031,4.22,4.22,0,0,1-1.037-3.068V41.172c0-.46.006-1,.013-1.624.009-.816.02-1.741.02-2.769.032-3.542.065-8.318.1-12.936L252.715,3.8a3.758,3.758,0,0,1,1.236-2.463A3.82,3.82,0,0,1,256.507.358ZM324.791,69.6A76.219,76.219,0,0,0,256.764,1.369c-.082-.007-.17-.011-.257-.011a2.784,2.784,0,0,0-2.794,2.511v.274l-.135,19.707c-.032,4.619-.064,9.395-.1,12.934,0,1.029-.011,1.957-.02,2.776-.007.622-.013,1.158-.013,1.613v1.262c-.027,2.131,1.13,2.881,2.123,3.132a.524.524,0,0,1,.2.062,32.252,32.252,0,0,1,24.758,24.908,2.81,2.81,0,0,0,2.748,2.245l38.714-.066a2.823,2.823,0,0,0,2.8-2.836ZM259.259,7.324l.572.09a70.63,70.63,0,0,1,58.885,59.051l.089.575-33.332.068-.1-.364a37.675,37.675,0,0,0-25.952-26.017l-.361-.1v-.376c0-5.973.1-20.953.2-32.343Zm58.378,58.718A69.4,69.4,0,0,0,260.249,8.494c-.092,11.078-.189,25.285-.193,31.379a38.877,38.877,0,0,1,26.169,26.234Z" transform="translate(-252.948 -0.858)" fill="#23b6d3"/></g><g transform="translate(9.897)"><g transform="translate(0)"><path d="M79.248,0a1.608,1.608,0,0,0-.4.033h-.132A76.6,76.6,0,0,0,10.011,68.378a3.276,3.276,0,0,0,2.94,3.6,1.239,1.239,0,0,0,.33.033H51.93a3.321,3.321,0,0,0,3.237-2.61A32.067,32.067,0,0,1,79.71,45.189a3.323,3.323,0,0,0,2.643-3.237L82.518,3.3A3.285,3.285,0,0,0,79.248,0Zm-62.2,65.405c.264-1.85.628-3.667,1.057-5.45l5.45,5.45Zm15.856,0L20.251,52.721a67.844,67.844,0,0,1,2.742-6.607L42.251,65.405Zm17.045-1.685L26.3,40.069a63.5,63.5,0,0,1,3.766-5.583L52.855,57.312A36.022,36.022,0,0,0,49.948,63.721Zm9.183-14.634A31.636,31.636,0,0,0,56.653,51.8L34.224,29.366c1.486-1.652,3.039-3.2,4.658-4.691L61.311,47.1Q60.221,48.046,59.131,49.087Zm7.664-5.847L44,20.447c1.784-1.354,3.634-2.61,5.55-3.8L73.137,40.234A37.143,37.143,0,0,0,66.795,43.24Zm8.985-9.712L55.563,13.312A70.544,70.544,0,0,1,62.1,10.538L75.78,24.213Zm.066-18.6L69.272,8.357c2.147-.529,4.36-.958,6.607-1.288Z" transform="translate(-9.992)" fill="#0041af"/><path d="M79.248-.5a3.791,3.791,0,0,1,3.77,3.8l-.165,38.651a3.788,3.788,0,0,1-.866,2.406,3.9,3.9,0,0,1-2.17,1.318A31.6,31.6,0,0,0,55.656,69.509a3.835,3.835,0,0,1-3.726,3H13.281a1.742,1.742,0,0,1-.412-.039,3.776,3.776,0,0,1-3.355-4.149A77.1,77.1,0,0,1,78.671-.465l.049,0H78.8A2.22,2.22,0,0,1,79.248-.5ZM51.93,71.512A2.829,2.829,0,0,0,54.678,69.3a31.181,31.181,0,0,1,3.288-8.627A32.977,32.977,0,0,1,70.9,47.906,31.65,31.65,0,0,1,79.609,44.7a2.809,2.809,0,0,0,2.244-2.748L82.018,3.3A2.79,2.79,0,0,0,79.248.5a1.232,1.232,0,0,0-.275.018l-.06.015h-.169A76.1,76.1,0,0,0,10.508,68.428,2.776,2.776,0,0,0,13,71.481l.038,0,.037.009a.769.769,0,0,0,.209.018ZM76.381,6.49l-.041,9.643L68.291,8.084l.861-.212c2.136-.526,4.375-.962,6.653-1.3Zm-1.03,7.239.026-6.078c-1.743.27-3.459.6-5.118.985ZM62.233,9.96,76.28,24.006v10.73L54.71,13.166l.639-.3a70.09,70.09,0,0,1,6.587-2.794ZM75.28,24.42l-13.3-13.3c-1.7.622-3.489,1.376-5.556,2.345L75.28,32.321ZM49.625,16.015,74.049,40.439l-.743.266a36.8,36.8,0,0,0-6.257,2.966l-.334.2L43.243,20.4l.456-.347c1.733-1.316,3.561-2.567,5.588-3.825ZM72.232,40.037,49.479,17.283c-1.691,1.061-3.242,2.119-4.716,3.218L66.875,42.614A38.123,38.123,0,0,1,72.232,40.037ZM38.9,23.983,62.045,47.132l-.407.352c-.717.619-1.444,1.281-2.162,1.965a30.87,30.87,0,0,0-2.436,2.664l-.35.426L33.535,29.384l.317-.353c1.453-1.615,2.988-3.16,4.691-4.724Zm21.683,23.1L38.868,25.369C37.45,26.687,36.15,28,34.914,29.349L56.62,51.055a30.7,30.7,0,0,1,2.164-2.328C59.38,48.158,59.982,47.606,60.579,47.08ZM30.011,33.727l23.47,23.5-.193.332a35.671,35.671,0,0,0-2.866,6.32l-.26.758L25.666,40.146l.2-.335a64.166,64.166,0,0,1,3.8-5.627ZM52.231,57.4,30.116,35.248c-1.084,1.46-2.154,3.052-3.188,4.745L49.741,62.807A36.546,36.546,0,0,1,52.231,57.4ZM22.846,45.26l20.61,20.646H32.7L19.675,52.851l.1-.3A68.488,68.488,0,0,1,22.542,45.9Zm18.2,19.646-17.9-17.934c-.869,1.87-1.646,3.756-2.314,5.62L33.11,64.905ZM17.827,58.97l6.935,6.935H16.47l.082-.571c.253-1.769.6-3.567,1.066-5.5Zm4.521,5.935-3.961-3.961c-.311,1.369-.561,2.676-.759,3.961Z" transform="translate(-9.992)" fill="#0041af"/></g></g><g transform="translate(84.9 79.94)"><path d="M310.184,264.4a76.08,76.08,0,0,0,4.261-18.8,3.3,3.3,0,0,0-2.94-3.6H272.526a3.317,3.317,0,0,0-3.237,2.643,32.465,32.465,0,0,1-3.3,9.117,10.219,10.219,0,0,0-6.144,9.447v.264H247.289a10.207,10.207,0,0,0-10.24,10.141v17.276a3.194,3.194,0,0,0,3.171,3.27h.793v18.1a10.433,10.433,0,0,0,10.438,10.306H301.6a10.433,10.433,0,0,0,10.438-10.306V294.192h.727A3.242,3.242,0,0,0,316,290.955V273.712A10.324,10.324,0,0,0,310.184,264.4Zm-35.048-15.79h32.306a71.905,71.905,0,0,1-3.9,14.865h-11.33v-.264A10.256,10.256,0,0,0,282.007,252.9h-8.357A33,33,0,0,0,275.136,248.607Zm-8.688,14.6a3.632,3.632,0,0,1,3.5-3.7h12.024a3.623,3.623,0,0,1,3.634,3.634v.33H266.448Zm38.979,49.087a3.83,3.83,0,0,1-3.832,3.7H251.451a3.831,3.831,0,0,1-3.832-3.7v-18.1h15.2v2.676a3.335,3.335,0,0,0,3.336,3.27h19.622a3.431,3.431,0,0,0,3.468-3.27v-2.676h16.186Zm-36.006-18.763v-5.285h13.213v5.285Zm39.97-19.82v13.874h-20.15v-2.643a3.459,3.459,0,0,0-3.468-3.3H266.151a3.32,3.32,0,0,0-3.336,3.3v2.643H243.655V273.712a3.581,3.581,0,0,1,3.535-3.634h58.567a3.581,3.581,0,0,1,3.634,3.535Z" transform="translate(-237.048 -242)" fill="#0041af"/><path d="M272.526,241.5l39.025,0a3.8,3.8,0,0,1,3.392,4.144,76.74,76.74,0,0,1-4.138,18.505,10.721,10.721,0,0,1,4.048,3.8,10.9,10.9,0,0,1,1.645,5.764v17.243a3.741,3.741,0,0,1-3.737,3.737h-.227v17.569a10.65,10.65,0,0,1-3.238,7.64,10.932,10.932,0,0,1-7.7,3.166H251.451a10.932,10.932,0,0,1-7.7-3.166,10.65,10.65,0,0,1-3.238-7.64v-17.6h-.293a3.625,3.625,0,0,1-2.6-1.1,3.7,3.7,0,0,1-1.066-2.678V273.613a10.716,10.716,0,0,1,10.68-10.641h12.114a10.726,10.726,0,0,1,6.284-9.6,31.9,31.9,0,0,0,3.173-8.828v-.007a3.862,3.862,0,0,1,1.334-2.187A3.8,3.8,0,0,1,272.526,241.5Zm38.955,1H272.526a2.834,2.834,0,0,0-2.747,2.243A32.926,32.926,0,0,1,266.426,254l-.082.151-.157.069a9.728,9.728,0,0,0-5.845,8.986v.768H247.228a9.713,9.713,0,0,0-9.68,9.644V290.9a2.71,2.71,0,0,0,.78,1.964,2.632,2.632,0,0,0,1.891.8h1.293v18.6a9.884,9.884,0,0,0,9.938,9.806H301.6a9.884,9.884,0,0,0,9.938-9.806V293.692h1.227a2.74,2.74,0,0,0,2.737-2.737V273.712a9.872,9.872,0,0,0-5.531-8.865l-.408-.2.156-.426a75.681,75.681,0,0,0,4.233-18.672A2.794,2.794,0,0,0,311.481,242.5Zm-36.727,5.607h33.268l-.086.574a72.487,72.487,0,0,1-3.925,14.968l-.122.323H291.714v-.764A9.756,9.756,0,0,0,282,253.4h-9.113l.3-.7a32.453,32.453,0,0,0,1.464-4.229Zm32.105,1H275.516A33.792,33.792,0,0,1,274.4,252.4h7.609a10.756,10.756,0,0,1,10.706,10.571H303.2A71.533,71.533,0,0,0,306.859,249.107Zm-36.918,9.9h12.032a4.123,4.123,0,0,1,4.134,4.134v.83H265.948v-.76a4.132,4.132,0,0,1,3.985-4.2Zm15.161,3.964a3.138,3.138,0,0,0-3.129-2.964H269.958a3.147,3.147,0,0,0-3.006,2.964Zm20.715,6.606a4.039,4.039,0,0,1,2.859,1.177,4.084,4.084,0,0,1,1.214,2.85v14.481h-21.15v-3.143a2.965,2.965,0,0,0-2.968-2.8H266.151a2.823,2.823,0,0,0-2.836,2.8v3.143H243.155v-14.37a4.036,4.036,0,0,1,1.154-2.9,4.081,4.081,0,0,1,2.873-1.237h58.637Zm3.073,4.04a3.1,3.1,0,0,0-3.125-3.039H247.194a3.087,3.087,0,0,0-2.169.935,3.043,3.043,0,0,0-.87,2.19v13.382h18.159v-2.143a3.824,3.824,0,0,1,3.836-3.8h19.622a4.086,4.086,0,0,1,2.757,1.105,3.681,3.681,0,0,1,1.211,2.7v2.143h19.15Zm-39.97,14.129h14.213v6.285H268.921Zm13.213,1H269.921v4.285h12.213Zm-35.015,4.946h16.2v3.171a2.848,2.848,0,0,0,2.836,2.775h19.622a2.913,2.913,0,0,0,2.968-2.77v-3.176h17.186v18.6a4.324,4.324,0,0,1-4.332,4.2H251.451a4.324,4.324,0,0,1-4.332-4.2Zm15.2,1h-14.2v17.6a3.312,3.312,0,0,0,3.332,3.2H301.6a3.312,3.312,0,0,0,3.332-3.2v-17.6H289.741v2.176a3.925,3.925,0,0,1-3.968,3.77H266.151a3.835,3.835,0,0,1-3.836-3.761v-2.185Z" transform="translate(-237.048 -242)" fill="#0041af"/></g></g></svg>