<svg xmlns="http://www.w3.org/2000/svg" width="114.178" height="114.178" viewBox="0 0 114.178 114.178"><circle cx="4.5" cy="4.5" r="4.5" transform="translate(70 18)" fill="#0041af"/><circle cx="4.5" cy="4.5" r="4.5" transform="translate(88 18)" fill="#0041af"/><path d="M100.8,0H13.38A13.4,13.4,0,0,0,0,13.38V100.8a13.4,13.4,0,0,0,13.38,13.38H100.8a13.4,13.4,0,0,0,13.38-13.38V57.089a4.46,4.46,0,1,0-8.92,0V100.8a4.465,4.465,0,0,1-4.46,4.46H13.38a4.465,4.465,0,0,1-4.46-4.46V25.868H39.249a8.883,8.883,0,0,1,4.8,1.4L65.312,40.9a17.786,17.786,0,0,0,9.617,2.812h34.789a4.46,4.46,0,0,0,4.46-4.46V13.38A13.4,13.4,0,0,0,100.8,0Zm4.46,34.789H74.929a8.883,8.883,0,0,1-4.8-1.4L48.866,19.761a17.786,17.786,0,0,0-9.617-2.812H8.92V13.38a4.465,4.465,0,0,1,4.46-4.46H100.8a4.465,4.465,0,0,1,4.46,4.46Z" fill="#23b6d3"/><path d="M324.46,364.92h16.056a4.46,4.46,0,1,0,0-8.92H324.46a4.46,4.46,0,1,0,0,8.92Z" transform="translate(-248.639 -276.611)" fill="#23b6d3"/><path d="M324.46,284.92h16.056a4.46,4.46,0,1,0,0-8.92H324.46a4.46,4.46,0,1,0,0,8.92Z" transform="translate(-248.639 -214.451)" fill="#23b6d3"/><path d="M93.38,311.681h17.84A13.4,13.4,0,0,0,124.6,298.3a22.3,22.3,0,1,0-44.6,0A13.4,13.4,0,0,0,93.38,311.681Zm8.92-26.76a13.4,13.4,0,0,1,13.38,13.38,4.465,4.465,0,0,1-4.46,4.46H93.38a4.465,4.465,0,0,1-4.46-4.46A13.4,13.4,0,0,1,102.3,284.92Z" transform="translate(-62.16 -214.451)" fill="#0041af"/><path d="M146.76,169.38a13.38,13.38,0,1,0-13.38,13.38A13.4,13.4,0,0,0,146.76,169.38Zm-13.38,4.46a4.46,4.46,0,1,1,4.46-4.46A4.465,4.465,0,0,1,133.38,173.84Z" transform="translate(-93.24 -121.211)" fill="#0041af"/></svg>