<svg xmlns="http://www.w3.org/2000/svg" width="112.12" height="130.467" viewBox="0 0 112.12 130.467"><g transform="translate(-36)"><path d="M162.638,282.193h-56.06v-5.1a5.1,5.1,0,1,0-10.193,0v5.1H81.1a5.1,5.1,0,1,0,0,10.193H96.385v5.1a5.1,5.1,0,0,0,10.193,0v-5.1h56.06a5.1,5.1,0,1,0,0-10.193Z" transform="translate(-29.807 -202.69)" fill="#0041af"/><path d="M148.12,5.1a5.1,5.1,0,0,0-5.1-5.1H41.1a5.1,5.1,0,1,0,0,10.193h5.973a15.283,15.283,0,0,0,6.244,18.022l21.079,13.34a5.08,5.08,0,0,1,2.378,4.313v8.154A15.306,15.306,0,0,0,92.06,69.31h10.193a5.1,5.1,0,0,0,5.1-5.1V45.867a5.08,5.08,0,0,1,2.378-4.313l21.079-13.34a15.282,15.282,0,0,0,6.244-18.022h5.973A5.1,5.1,0,0,0,148.12,5.1ZM127.734,15.289a5.08,5.08,0,0,1-2.378,4.313l-21.079,13.34a15.221,15.221,0,0,0-7.121,12.925V59.118h-5.1a5.1,5.1,0,0,1-5.1-5.1V45.867a15.223,15.223,0,0,0-7.12-12.926L58.764,19.6a5.1,5.1,0,0,1,2.718-9.409h61.156a5.1,5.1,0,0,1,5.1,5.1Z" fill="#23b6d3"/><path d="M162.638,402.193H147.349v-5.1a5.1,5.1,0,1,0-10.193,0v5.1H81.1a5.1,5.1,0,1,0,0,10.193h56.06v5.1a5.1,5.1,0,0,0,10.193,0v-5.1h15.289a5.1,5.1,0,1,0,0-10.193Z" transform="translate(-29.807 -292.111)" fill="#23b6d3"/></g></svg>