<svg xmlns="http://www.w3.org/2000/svg" width="178.999" height="114.096" viewBox="0 0 178.999 114.096"><g transform="translate(1.001 -10)"><path d="M88.5,11A88.171,88.171,0,0,0,0,96.381a5.776,5.776,0,0,0,1.631,4.248,6.006,6.006,0,0,0,4.3,1.817h5.9a5.953,5.953,0,0,0,5.9-5.67A56,56,0,0,1,93.242,46.989C76.38,63.7,58.6,82.192,53.262,90.883a20.531,20.531,0,0,0-2.525,15.779,21.263,21.263,0,0,0,9.832,13.3,21.776,21.776,0,0,0,11.257,3.136,21.31,21.31,0,0,0,18.2-10.03c5.528-8.944,14.549-34.841,21.239-55.286a55.861,55.861,0,0,1,18.5,38.965,5.879,5.879,0,0,0,5.867,5.7h35.428a6.006,6.006,0,0,0,4.3-1.817,5.773,5.773,0,0,0,1.634-4.245A88.171,88.171,0,0,0,88.5,11ZM11.835,96.546,5.9,96.593A82.274,82.274,0,0,1,27.926,43.127l7.59,7.587A61.814,61.814,0,0,0,11.835,96.546ZM40.416,47.263l-8.31-8.3A82.378,82.378,0,0,1,85.549,16.971V38.676a62.794,62.794,0,0,0-11.8-1.127,61.788,61.788,0,0,0-33.333,9.714ZM85,109.968a15.655,15.655,0,0,1-21.392,4.926,15.413,15.413,0,0,1-7.139-9.628A14.69,14.69,0,0,1,58.28,93.974C63,86.281,80.28,67.75,106.935,41.8a1.516,1.516,0,0,1,1.094-.475,1.906,1.906,0,0,1,.956.295,1.475,1.475,0,0,1,.705,1.77h0C103.227,63.8,91.448,99.573,85,109.968Zm28.224-58.26c.735-2.289,1.442-4.5,2.083-6.528a7.345,7.345,0,0,0-3.212-8.59,7.481,7.481,0,0,0-9.271.985c-1.617,1.575-3.277,3.2-4.953,4.847a61.356,61.356,0,0,0-6.425-2.31V16.971a82.36,82.36,0,0,1,53.443,21.994l-22.325,22.31A61.864,61.864,0,0,0,113.227,51.709ZM135.664,96.5a61.914,61.914,0,0,0-9.64-30.339L149.071,43.13a82.121,82.121,0,0,1,21.991,53.416Z" transform="translate(0 0)" fill="#23b6d3"/><path d="M88.874,10a89.762,89.762,0,0,1,17.581,1.737,88.743,88.743,0,0,1,31.362,12.894A89.414,89.414,0,0,1,170.193,62.55,88.77,88.77,0,0,1,175.7,78.821a89.79,89.79,0,0,1,2.293,17.529,6.8,6.8,0,0,1-1.917,4.976,7.045,7.045,0,0,1-5.013,2.119H135.634a6.879,6.879,0,0,1-6.867-6.664,55.226,55.226,0,0,0-17.04-37.213c-3.9,11.864-7.456,22.123-10.584,30.515-4.293,11.518-7.749,19.427-10.27,23.507a22.309,22.309,0,0,1-18.93,10.5h-.12a22.775,22.775,0,0,1-11.769-3.278A22.262,22.262,0,0,1,49.765,106.9a21.531,21.531,0,0,1,2.646-16.539C54.885,86.327,60.2,79.9,68.2,71.263,74.37,64.594,82.176,56.569,91.411,47.4A55,55,0,0,0,18.733,96.824a6.955,6.955,0,0,1-6.891,6.622H5.935a7.045,7.045,0,0,1-5.018-2.12A6.806,6.806,0,0,1-1,96.346,89.8,89.8,0,0,1,1.3,78.818,88.718,88.718,0,0,1,15.183,47.871,89.415,89.415,0,0,1,54.11,16.722a88.776,88.776,0,0,1,16.43-4.987A89.757,89.757,0,0,1,88.122,10h.752Zm82.187,91.446a5.034,5.034,0,0,0,3.581-1.515,4.794,4.794,0,0,0,1.352-3.51v-.006A86.792,86.792,0,0,0,88.874,12h-.752A86.786,86.786,0,0,0,1,96.413v.007a4.8,4.8,0,0,0,1.349,3.512,5.034,5.034,0,0,0,3.585,1.514H11.83a4.955,4.955,0,0,0,4.906-4.717A57,57,0,0,1,93.591,46.052l1.465.546-1.111,1.1c-9.708,9.62-17.878,18-24.283,24.923C61.75,81.168,56.519,87.487,54.115,91.406l0,.007a19.638,19.638,0,0,0-2.4,15.01,20.377,20.377,0,0,0,9.37,12.676l.007,0a20.776,20.776,0,0,0,10.74,2.992h.119a20.192,20.192,0,0,0,17.231-9.559c5.475-8.858,14.517-34.836,21.137-55.068l.477-1.457,1.141,1.023A56.857,56.857,0,0,1,130.766,96.7v.017a4.858,4.858,0,0,0,4.869,4.732ZM86.549,15.938V39.886l-1.189-.228a61.946,61.946,0,0,0-11.612-1.109h-.075a60.682,60.682,0,0,0-32.719,9.557l-.677.432-9.612-9.6.76-.707A83.369,83.369,0,0,1,85.517,15.972Zm-2,21.539V18.01A81.371,81.371,0,0,0,33.552,39l7.006,7a62.673,62.673,0,0,1,33.115-9.443h.077A63.965,63.965,0,0,1,84.549,37.478Zm5.9-21.539,1.032.033a83.351,83.351,0,0,1,54.091,22.261l.76.706-23.856,23.84-.7-.887a60.968,60.968,0,0,0-9.188-9.412l-.524-.431.207-.646c.652-2.032,1.409-4.4,2.081-6.524l0-.01a6.311,6.311,0,0,0-2.775-7.421l-.024-.015a6.48,6.48,0,0,0-8.032.854l0,0c-1.587,1.547-3.253,3.176-4.95,4.844L98.1,43.6l-.615-.26a60.591,60.591,0,0,0-6.32-2.272l-.715-.213Zm53,23.057a81.344,81.344,0,0,0-51-20.986V39.372c1.755.546,3.5,1.174,5.2,1.872,1.535-1.507,3.041-2.98,4.482-4.384a8.523,8.523,0,0,1,14.134,8.627c-.6,1.909-1.274,4.007-1.876,5.885a63,63,0,0,1,8.265,8.406Zm-35.4,1.329h.019a2.909,2.909,0,0,1,1.426.43,2.468,2.468,0,0,1,1.152,2.943c-3.093,9.768-7.747,24.127-12.36,37.073-5.379,15.1-9.561,25.1-12.429,29.724l-.007.011A16.649,16.649,0,0,1,63.1,115.752,16.413,16.413,0,0,1,55.5,105.5a15.69,15.69,0,0,1,1.929-12.054c4.765-7.765,22.095-26.358,48.8-52.353a2.528,2.528,0,0,1,1.8-.771ZM84.156,109.436c6.358-10.26,18.129-45.972,24.581-66.348l.005-.016a.474.474,0,0,0-.227-.57l-.033-.018-.032-.02a.906.906,0,0,0-.433-.139.519.519,0,0,0-.355.161l-.029.03C81.036,68.41,63.812,86.87,59.132,94.5l0,.007a13.765,13.765,0,0,0-1.685,10.523,14.5,14.5,0,0,0,6.676,9.006l.015.009a14.649,14.649,0,0,0,20.022-4.606ZM27.9,41.688l9.122,9.119-.891.7a60.752,60.752,0,0,0-23.3,45.09l-.044.946L4.87,97.6l.033-1.04A83.256,83.256,0,0,1,27.194,42.446Zm6.117,8.942-6.06-6.058A81.256,81.256,0,0,0,6.942,95.585l3.945-.031A62.807,62.807,0,0,1,34.017,50.63ZM149.1,41.691l.706.758a83.1,83.1,0,0,1,22.259,54.066l.032,1.032L134.71,97.5l-.045-.951A61.011,61.011,0,0,0,125.18,66.7l-.432-.677Zm20.927,53.854a81.094,81.094,0,0,0-20.983-50.97L127.295,66.306a63.019,63.019,0,0,1,9.315,29.2Z" transform="translate(0 0)" fill="#23b6d3"/><path d="M31.324,38A10.324,10.324,0,1,0,41.649,48.324,10.324,10.324,0,0,0,31.324,38Zm0,14.749a4.425,4.425,0,1,1,4.425-4.425A4.425,4.425,0,0,1,31.324,52.749Z" transform="translate(40.95 52.647)" fill="#0041af"/><path d="M31.324,37a11.325,11.325,0,1,1-8.008,3.317A11.25,11.25,0,0,1,31.324,37Zm0,20.649a9.324,9.324,0,0,0,0-18.649h0a9.324,9.324,0,1,0,0,18.649Zm0-14.749A5.425,5.425,0,1,1,25.9,48.324,5.431,5.431,0,0,1,31.324,42.9Zm0,8.85A3.425,3.425,0,1,0,27.9,48.324,3.429,3.429,0,0,0,31.324,51.749Z" transform="translate(40.95 52.647)" fill="#0041af"/></g></svg>